<svg width="16" height="16" viewBox="0 0 16 16" fill="none" xmlns="http://www.w3.org/2000/svg">
<g clip-path="url(#clip0_215_226)">
<path d="M0.136645 7.64389L4.93639 2.31085C5.03878 2.19779 5.1817 2.13379 5.33316 2.13379H8.53299C8.63601 2.1339 8.73681 2.16375 8.82327 2.21976C8.90974 2.27576 8.9782 2.35554 9.02043 2.44951C9.10576 2.64256 9.07056 2.86762 8.92977 3.02334L4.45108 8.00014L8.92977 12.9759C9.07056 13.1327 9.10683 13.3577 9.02043 13.5497C8.93404 13.7428 8.74311 13.8665 8.53299 13.8665H5.33316C5.1817 13.8665 5.03878 13.8014 4.93639 13.6905L0.136645 8.35745C-0.0457449 8.1548 -0.0457449 7.84548 0.136645 7.64389Z" fill="#EC7216"/>
<path d="M7.06975 7.64389L11.8695 2.31085C11.9719 2.19779 12.1148 2.13379 12.2663 2.13379H15.4661C15.5691 2.1339 15.6699 2.16375 15.7564 2.21976C15.8428 2.27576 15.9113 2.35554 15.9535 2.44951C16.0389 2.64256 16.0037 2.86762 15.8629 3.02334L11.3842 8.00014L15.8629 12.9759C16.0037 13.1327 16.0399 13.3577 15.9535 13.5497C15.8671 13.7428 15.6762 13.8665 15.4661 13.8665H12.2663C12.1148 13.8665 11.9719 13.8014 11.8695 13.6905L7.06975 8.35745C6.88736 8.1548 6.88736 7.84548 7.06975 7.64389Z" fill="#EC7216"/>
</g>
<defs>
<clipPath id="clip0_215_226">
<rect width="16" height="16" fill="white" transform="matrix(-1 0 0 1 16 0)"/>
</clipPath>
</defs>
</svg>
