<svg width="111" height="111" viewBox="0 0 111 111" fill="none" xmlns="http://www.w3.org/2000/svg">
<g filter="url(#filter0_d_188_133)">
<ellipse cx="55.5286" cy="46.4382" rx="29.2483" ry="29.5618" fill="white"/>
</g>
<path d="M55.5974 75.6989C55.2671 75.6989 54.999 75.428 54.999 75.0942C54.999 74.7603 55.2671 74.4894 55.5974 74.4894C62.9094 74.4894 69.8528 71.6881 75.1518 66.6032C75.3912 66.3734 75.7694 66.3831 75.9991 66.625C76.2265 66.8669 76.2169 67.2491 75.9776 67.4789C70.4535 72.7791 63.2157 75.6989 55.5974 75.6989Z" fill="#EC7216"/>
<path d="M37.2 68.6839C37.1474 68.6839 37.0923 68.6669 37.0492 68.6282C36.5562 68.2194 36.0679 67.7864 35.5988 67.3413C35.5031 67.2494 35.4983 67.097 35.5892 67.0002C35.6802 66.9034 35.831 66.8986 35.9267 66.9905C36.3887 67.4284 36.8673 67.8541 37.3532 68.2581C37.4561 68.3428 37.4705 68.4952 37.3867 68.5992C37.3389 68.6549 37.2694 68.6839 37.2 68.6839ZM34.4093 66.0374C34.3447 66.0374 34.2824 66.0108 34.2346 65.96C33.7966 65.4859 33.3681 64.9924 32.9636 64.4916C32.8799 64.3876 32.8942 64.2352 32.9972 64.1505C33.1001 64.0659 33.2509 64.0804 33.3346 64.1844C33.7319 64.6755 34.1532 65.1617 34.584 65.6286C34.675 65.7253 34.6702 65.8802 34.572 65.9697C34.5266 66.0156 34.4691 66.0374 34.4093 66.0374ZM31.9871 63.045C31.9129 63.045 31.8387 63.0087 31.7933 62.9434C31.4199 62.416 31.0609 61.8693 30.7234 61.3202C30.654 61.2065 30.6875 61.0565 30.8 60.9864C30.9125 60.9162 31.0609 60.9501 31.1303 61.0638C31.4606 61.6032 31.8148 62.1427 32.181 62.6604C32.2576 62.7692 32.2336 62.9192 32.1259 62.9966C32.0829 63.0305 32.035 63.045 31.9871 63.045ZM29.9718 59.7575C29.8857 59.7575 29.8019 59.7115 29.7612 59.6293C29.4596 59.056 29.1748 58.4681 28.9139 57.8779C28.8589 57.7569 28.9139 57.6118 29.0336 57.5585C29.1533 57.5029 29.2969 57.5585 29.3496 57.6795C29.608 58.2601 29.8881 58.8382 30.1849 59.4019C30.2471 59.5204 30.2016 59.6656 30.0867 59.7285C30.0484 59.7478 30.0101 59.7575 29.9718 59.7575ZM28.4065 56.2305C28.3084 56.2305 28.2175 56.17 28.1816 56.0732C27.959 55.466 27.7531 54.8419 27.5712 54.2226C27.5329 54.0944 27.6047 53.959 27.7316 53.9227C27.8584 53.884 27.9925 53.959 28.0284 54.0847C28.2079 54.6944 28.4089 55.3064 28.6291 55.9039C28.6746 56.0297 28.6124 56.1676 28.4879 56.216C28.4616 56.2256 28.4353 56.2305 28.4065 56.2305ZM27.3151 52.5269C27.205 52.5269 27.1069 52.4495 27.083 52.3382C26.9418 51.7068 26.8197 51.0609 26.7192 50.4223C26.6976 50.2916 26.7886 50.1658 26.9178 50.1465C27.0495 50.1271 27.1715 50.2166 27.1907 50.3473C27.2888 50.9762 27.4085 51.6076 27.5473 52.2293C27.576 52.3599 27.4946 52.4882 27.3678 52.5196C27.351 52.5244 27.3319 52.5269 27.3151 52.5269ZM26.7192 48.7071C26.5971 48.7071 26.4918 48.6128 26.4822 48.487C26.4248 47.8435 26.3865 47.188 26.3721 46.5396C26.3697 46.4066 26.4726 46.2953 26.6067 46.2929C26.7503 46.2905 26.8484 46.3945 26.8508 46.53C26.8652 47.1662 26.9035 47.8121 26.9609 48.4459C26.9729 48.5789 26.8747 48.6975 26.7431 48.7096C26.7335 48.7071 26.7263 48.7071 26.7192 48.7071ZM26.6234 44.8415C26.621 44.8415 26.6162 44.8415 26.6138 44.8415C26.4822 44.8366 26.3793 44.7229 26.3841 44.5899C26.4104 43.9391 26.4559 43.286 26.5229 42.6449C26.5373 42.5119 26.6521 42.4127 26.7862 42.4296C26.9178 42.4441 27.0136 42.5627 26.9992 42.6957C26.9322 43.3247 26.8867 43.9682 26.8604 44.6092C26.858 44.7399 26.7503 44.8415 26.6234 44.8415ZM27.0255 40.9975C27.0112 40.9975 26.9968 40.9975 26.9848 40.9951C26.8556 40.9733 26.767 40.8476 26.791 40.7145C26.9011 40.0759 27.0327 39.4348 27.1835 38.8059C27.2146 38.6752 27.3438 38.5954 27.4731 38.6268C27.6023 38.6583 27.6813 38.7889 27.6502 38.9195C27.5018 39.5388 27.3726 40.1702 27.2649 40.7968C27.2409 40.9153 27.1404 40.9975 27.0255 40.9975ZM27.9255 37.2383C27.9015 37.2383 27.8776 37.2359 27.8537 37.2262C27.7268 37.1851 27.6574 37.0496 27.6981 36.9238C27.8896 36.3045 28.105 35.6852 28.3371 35.0805C28.385 34.9547 28.5238 34.8942 28.6459 34.9426C28.7703 34.991 28.8302 35.1313 28.7823 35.2547C28.5549 35.8497 28.3419 36.4594 28.1528 37.069C28.1217 37.173 28.0284 37.2383 27.9255 37.2383ZM29.3136 33.6314C29.2801 33.6314 29.2442 33.6242 29.2131 33.6097C29.0935 33.554 29.0432 33.4089 29.0982 33.2879C29.3687 32.7025 29.6631 32.1171 29.9742 31.5486C30.0389 31.4325 30.1825 31.389 30.2997 31.4543C30.4146 31.5196 30.4577 31.6672 30.3931 31.7833C30.0867 32.3445 29.7971 32.9202 29.5315 33.496C29.4908 33.5782 29.4046 33.6314 29.3136 33.6314ZM31.1614 30.2399C31.1159 30.2399 31.0728 30.2278 31.0321 30.2012C30.922 30.1286 30.8885 29.9786 30.9603 29.8674C31.305 29.3231 31.6736 28.7812 32.0541 28.2587C32.1331 28.1522 32.2839 28.128 32.3892 28.2079C32.4945 28.2877 32.5185 28.4377 32.4395 28.5465C32.0661 29.0594 31.7023 29.5916 31.3624 30.1286C31.317 30.2012 31.2404 30.2399 31.1614 30.2399ZM33.4352 27.129C33.3801 27.129 33.3251 27.1096 33.282 27.0709C33.1814 26.9838 33.1695 26.8314 33.2533 26.7298C33.6673 26.2363 34.1005 25.7477 34.5457 25.2808C34.6367 25.184 34.7898 25.1816 34.8832 25.2735C34.9789 25.3655 34.9813 25.5203 34.8904 25.6146C34.4524 26.0743 34.0239 26.5532 33.6194 27.0395C33.5692 27.0975 33.5022 27.129 33.4352 27.129ZM36.0895 24.3422C36.0249 24.3422 35.9602 24.3156 35.9124 24.2624C35.8238 24.1632 35.831 24.0108 35.9291 23.9213C36.4006 23.4858 36.8961 23.0625 37.3987 22.6561C37.5016 22.5738 37.6524 22.5908 37.7338 22.6948C37.8151 22.7988 37.7984 22.9512 37.6955 23.0359C37.2025 23.4326 36.7142 23.8511 36.2498 24.2793C36.2044 24.3228 36.1469 24.3422 36.0895 24.3422ZM39.0813 21.9352C39.0047 21.9352 38.9305 21.8989 38.885 21.8312C38.8108 21.7223 38.8371 21.5699 38.9449 21.4949C39.469 21.1272 40.0147 20.7692 40.5652 20.4354C40.6777 20.3676 40.8261 20.4039 40.8931 20.5176C40.9625 20.6313 40.9242 20.7813 40.8117 20.849C40.2708 21.178 39.7347 21.5288 39.2177 21.8892C39.177 21.9207 39.1291 21.9352 39.0813 21.9352ZM42.3579 19.9443C42.2717 19.9443 42.188 19.8959 42.1449 19.8137C42.085 19.6951 42.1305 19.55 42.2478 19.4871C42.8174 19.1896 43.4038 18.9114 43.9902 18.6549C44.1123 18.6017 44.2535 18.6574 44.3038 18.7807C44.3564 18.9041 44.3014 19.0444 44.1793 19.0976C43.6025 19.3492 43.0281 19.625 42.4656 19.9177C42.4321 19.9371 42.3962 19.9443 42.3579 19.9443ZM45.8643 18.4106C45.7662 18.4106 45.6728 18.3501 45.6393 18.251C45.5938 18.1252 45.6608 17.9873 45.7853 17.9413C46.3885 17.7236 47.0084 17.5252 47.6235 17.3486C47.7503 17.3099 47.882 17.3873 47.9179 17.5156C47.9538 17.6438 47.8796 17.7768 47.7527 17.8131C47.1472 17.9873 46.5368 18.1832 45.9457 18.3961C45.9169 18.4058 45.8906 18.4106 45.8643 18.4106ZM49.5454 17.3583C49.4353 17.3583 49.3348 17.2809 49.3108 17.1672C49.2845 17.0366 49.3659 16.9084 49.4951 16.8793C50.1222 16.7463 50.7613 16.6302 51.3955 16.5382C51.5272 16.5189 51.6468 16.6108 51.666 16.7439C51.6851 16.8769 51.5942 16.9979 51.4625 17.0172C50.8379 17.1091 50.2084 17.2204 49.5933 17.3535C49.5789 17.3559 49.5622 17.3583 49.5454 17.3583ZM53.3294 16.8068C53.205 16.8068 53.0997 16.71 53.0901 16.5842C53.0805 16.4512 53.1786 16.335 53.3103 16.3254C53.9469 16.2746 54.5956 16.2455 55.237 16.2383H55.2394C55.371 16.2383 55.4763 16.3447 55.4787 16.4778C55.4811 16.6108 55.3734 16.7197 55.2418 16.7221C54.6099 16.7294 53.9709 16.7584 53.3462 16.8068C53.3438 16.8068 53.3366 16.8068 53.3294 16.8068Z" fill="#EC7216"/>
<path d="M28.3863 56.5448C28.1421 56.5448 27.9148 56.3924 27.8238 56.1505C26.6127 52.8364 26 49.3505 26 45.7848C26 37.7946 29.078 30.2834 34.669 24.6324C34.9036 24.3953 35.2818 24.3953 35.5163 24.6324C35.7509 24.8695 35.7509 25.2517 35.5163 25.4887C30.1526 30.9099 27.1991 38.1187 27.1991 45.7848C27.1991 49.2054 27.7879 52.5509 28.9487 55.7296C29.0636 56.0417 28.9056 56.39 28.5945 56.5061C28.5251 56.5327 28.4557 56.5448 28.3863 56.5448Z" fill="#EC7216"/>
<path d="M82.9336 35.2263C82.7353 35.1929 82.5582 35.0601 82.4776 34.8577C80.0777 28.8692 75.7077 23.8217 70.1686 20.6398C67.2738 18.9775 64.1232 17.8508 60.8085 17.2925C60.4827 17.2376 60.2624 16.9258 60.3167 16.5965C60.371 16.2673 60.6795 16.0445 61.0053 16.0994C64.4592 16.6812 67.7428 17.8548 70.7596 19.5867C76.5316 22.901 81.0873 28.1613 83.5864 34.4019C83.7099 34.7121 83.562 35.0648 83.2551 35.1897C83.1484 35.2331 83.0375 35.2438 82.9336 35.2263Z" fill="#EC7216"/>
<path fill-rule="evenodd" clip-rule="evenodd" d="M71.3984 49.8776L68.5188 50.8133C68.4311 50.842 68.3521 50.8924 68.289 50.9597C68.2259 51.0271 68.1809 51.1093 68.158 51.1987C67.8761 52.2934 67.4408 53.3429 66.8652 54.3158C66.8182 54.3952 66.792 54.4852 66.789 54.5774C66.786 54.6697 66.8063 54.7612 66.848 54.8435L68.2236 57.5424L65.845 59.9212L63.146 58.5461C63.0638 58.5042 62.9723 58.4837 62.8801 58.4867C62.7878 58.4896 62.6978 58.5157 62.6184 58.5628C61.6454 59.1385 60.5958 59.5737 59.5008 59.8552C59.4114 59.8783 59.3292 59.9236 59.2619 59.9868C59.1945 60.05 59.1442 60.1292 59.1155 60.217L58.1803 63.0967L54.8165 63.0968L53.8808 60.2177C53.8522 60.1298 53.802 60.0505 53.7346 59.9873C53.6672 59.924 53.5849 59.8789 53.4954 59.856C52.4006 59.5745 51.3513 59.1392 50.3787 58.5632C50.2991 58.5161 50.2089 58.49 50.1165 58.4871C50.0241 58.4842 49.9324 58.5046 49.85 58.5465L47.1512 59.9217L44.7733 57.5431L46.1479 54.8441C46.1897 54.7619 46.2102 54.6704 46.2074 54.5782C46.2045 54.486 46.1785 54.3959 46.1317 54.3164C45.5555 53.3437 45.1202 52.2943 44.8388 51.1993C44.8157 51.1098 44.7705 51.0276 44.7073 50.9602C44.644 50.8929 44.5648 50.8426 44.4769 50.814L41.5977 49.8784V48.7454L46.5035 48.7453C46.8915 53.9568 51.2419 58.0111 56.4983 58.011C61.7535 58.0108 66.1049 53.9569 66.4926 48.7448L71.3984 48.7447L71.3984 49.8776ZM71.9468 47.6476L65.9695 47.6478C65.8261 47.6478 65.6885 47.704 65.5861 47.8043C65.4837 47.9046 65.4246 48.041 65.4215 48.1843C65.3176 52.9976 61.3148 56.9143 56.4982 56.9144C51.6816 56.9144 47.6781 52.9981 47.574 48.1847C47.5709 48.0413 47.5117 47.9049 47.4092 47.8046C47.3067 47.7043 47.169 47.6482 47.0256 47.6482L41.0492 47.6484C40.9037 47.6484 40.7643 47.7063 40.6614 47.8091C40.5586 47.9119 40.5008 48.0514 40.5007 48.1968L40.5008 50.2771C40.5007 50.3928 40.5374 50.5057 40.6054 50.5993C40.6735 50.6929 40.7695 50.7626 40.8796 50.7983L43.8549 51.7648C44.1349 52.757 44.5312 53.7125 45.0356 54.6116L43.6148 57.4008C43.5621 57.5039 43.5434 57.6211 43.5615 57.7355C43.5796 57.8499 43.6335 57.9556 43.7155 58.0375L46.6576 60.9794C46.7394 61.0614 46.8451 61.1153 46.9595 61.1334C47.0739 61.1515 47.1911 61.1328 47.2943 61.0801L50.0833 59.6592C50.9821 60.1635 51.9374 60.5598 52.9292 60.8396L53.896 63.8149C53.932 63.925 54.0018 64.021 54.0956 64.089C54.1894 64.1571 54.3023 64.1937 54.4181 64.1938L58.5786 64.1937C58.6944 64.1937 58.8073 64.157 58.901 64.089C58.9947 64.0209 59.0644 63.925 59.1003 63.8148L60.0668 60.8386C61.0586 60.5587 62.0138 60.1628 62.9127 59.6588L65.7027 61.0796C65.8057 61.1322 65.9227 61.1508 66.037 61.1327C66.1512 61.1146 66.2568 61.0608 66.3385 60.9789L69.2809 58.0368C69.3626 57.9549 69.4164 57.8492 69.4346 57.7349C69.4528 57.6205 69.4344 57.5034 69.3821 57.4001L67.9603 54.6111C68.465 53.7121 68.8614 52.7565 69.1412 51.7642L72.116 50.7975C72.2262 50.7618 72.3223 50.6922 72.3905 50.5985C72.4586 50.5049 72.4953 50.3921 72.4954 50.2763L72.4953 48.196C72.4952 48.0506 72.4374 47.9111 72.3346 47.8083C72.2317 47.7055 72.0923 47.6477 71.9468 47.6476ZM62.7766 44.7174C62.7789 44.7156 62.7803 44.7132 62.7821 44.7109C63.32 44.0867 63.6752 43.3663 63.8472 42.5743C66.2901 43.0784 68.6217 43.0062 71.122 42.3316C68.0604 44.7829 65.525 45.1701 62.7766 44.7174ZM56.4116 45.9813C56.3783 45.98 56.3446 45.98 56.3108 45.9776C54.0056 45.8483 52.8716 43.9224 52.9432 42.0871C53.0364 39.71 54.5344 39.3656 55.5196 37.1161C56.0704 38.4773 56.3869 39.913 56.4636 41.3995C56.4825 41.7705 56.8608 42.0171 57.208 41.8837C58.1345 41.527 58.7901 40.9734 59.169 40.2304C59.4753 40.8015 59.6976 41.3139 59.7711 41.8332C59.956 43.1353 59.6903 44.2189 59.0036 44.9656C58.3581 45.669 57.443 46 56.4116 45.9813ZM50.8575 43.7155C51.3209 44.2866 51.9591 44.769 52.7206 45.14C52.112 44.2625 51.8029 43.1771 51.8472 42.0436C51.9484 39.4693 53.3642 38.817 54.267 37.178C54.5835 36.6027 54.7905 36.0232 54.8635 35.5052C54.938 34.981 55.6424 34.8575 55.8912 35.3236C56.7576 36.9505 57.295 38.6926 57.4924 40.514C58.081 40.1148 58.3818 39.5557 58.4469 38.772C58.4912 38.2393 59.1988 38.08 59.4676 38.5419C60.0976 39.6243 60.7053 40.6067 60.8576 41.6788C61.0989 43.3816 60.6678 44.5386 60.1521 45.283C60.8822 44.9544 61.5 44.5196 61.9509 43.9952C62.7664 43.0488 63.0418 41.8525 62.7696 40.4409C62.5732 39.417 61.7752 38.4106 60.7665 37.1363C60.1709 36.3845 59.4963 35.5324 58.8336 34.5326C57.6692 32.7754 56.8693 31.3347 56.3855 30.1116C55.9004 31.3292 55.1019 32.7666 53.9399 34.5212C53.2708 35.5312 52.5953 36.3755 51.9992 37.1199C51.0072 38.3601 50.2236 39.3388 50.0499 40.3669C49.832 41.6592 50.1043 42.7853 50.8575 43.7155ZM41.3578 43.5415C43.646 40.9982 46.3134 39.5038 49.3178 39.0832C48.9304 39.9211 48.8209 40.8436 48.9104 41.736C46.5292 41.8932 43.9989 42.4976 41.3578 43.5415ZM44.5796 35.4385C47.2017 32.6905 50.3868 31.618 54.0787 32.2422C53.7384 32.817 53.2849 33.5362 52.8538 34.1691C50.3078 33.9007 47.5345 34.3272 44.5796 35.4385ZM67.9256 34.9265C65.6084 36.6556 63.7052 36.8752 61.7108 36.5628C61.6823 36.5273 61.6539 36.4915 61.6258 36.4556C61.1203 35.8161 60.5547 35.1036 59.9974 34.2964C62.5818 35.233 65.0336 35.6021 67.9256 34.9265ZM73.9008 40.6578C73.8308 40.5526 73.7266 40.4748 73.6059 40.4375C73.4852 40.4003 73.3553 40.406 73.2382 40.4536C69.9081 41.808 67.028 42.1292 63.9664 41.4791C63.973 40.0157 63.558 39.0395 62.63 37.76C65.5413 37.9013 67.9246 36.7343 70.6472 33.9842C71.0636 33.5636 70.5994 32.8676 70.0507 33.0906C65.7188 34.8526 62.6876 34.2944 58.9688 32.7096C57.9005 30.9704 57.2744 29.6157 57.0225 28.5063C56.8704 27.8318 55.9034 27.8312 55.7495 28.5049C55.5735 29.2771 55.214 30.1707 54.6484 31.2316C51.1177 30.5423 46.2452 30.9782 42.2924 36.4949C41.9617 36.9549 42.4682 37.5495 42.9716 37.31C46.2699 35.7596 49.3361 35.0549 52.1048 35.2092C51.4234 36.1081 50.6016 37.0643 50.0127 37.9059C45.7233 38.2359 42.054 40.4868 39.1057 44.602C38.7755 45.0632 39.2794 45.6552 39.7845 45.418C43.1012 43.8589 46.2456 42.9864 49.1381 42.8205C49.9973 45.4382 52.9154 46.872 55.9496 47.0594L55.9496 48.8989L52.9028 48.899L51.2064 47.2028C51.1034 47.1 50.9638 47.0423 50.8183 47.0423C50.6728 47.0423 50.5332 47.1 50.4302 47.2028C50.3275 47.3057 50.2698 47.4452 50.2698 47.5907C50.2698 47.7361 50.3275 47.8756 50.4302 47.9786L51.8996 49.4475L50.4303 50.9169C50.2164 51.1308 50.2164 51.4784 50.4303 51.6928C50.6447 51.9062 50.9921 51.9067 51.2066 51.6928L52.9028 49.996L55.9497 49.996L55.9498 52.6847L53.8895 54.7447C53.676 54.9591 53.676 55.3065 53.8895 55.5205C53.9404 55.5715 54.0009 55.6119 54.0674 55.6395C54.134 55.6671 54.2053 55.6813 54.2774 55.6813C54.3495 55.6813 54.4208 55.6671 54.4874 55.6395C54.5539 55.6119 54.6144 55.5715 54.6653 55.5205L56.4983 53.6875L58.3309 55.5204C58.3819 55.5714 58.4423 55.6118 58.5089 55.6394C58.5755 55.6669 58.6468 55.6811 58.7188 55.6811C58.7909 55.6811 58.8622 55.6669 58.9288 55.6394C58.9953 55.6118 59.0558 55.5714 59.1068 55.5204C59.1577 55.4695 59.1982 55.409 59.2258 55.3425C59.2534 55.2759 59.2676 55.2046 59.2676 55.1325C59.2676 55.0605 59.2534 54.9891 59.2258 54.9225C59.1982 54.856 59.1577 54.7955 59.1068 54.7446L57.0468 52.6847L57.0468 49.996L60.0941 49.9959L61.7904 51.6925C62.0039 51.906 62.3514 51.9064 62.5658 51.6925C62.7797 51.4781 62.7797 51.1307 62.5658 50.9167L61.0964 49.4473L62.5657 47.9784C62.6685 47.8754 62.7262 47.7359 62.7262 47.5904C62.7262 47.445 62.6685 47.3055 62.5657 47.2025C62.4629 47.0998 62.3234 47.0421 62.178 47.0421C62.0327 47.0421 61.8932 47.0998 61.7904 47.2025L60.0941 48.8988L57.0468 48.8989L57.0467 47.0742C58.8732 47.0108 60.5252 46.502 61.7514 45.638C63.7944 46.0768 65.6396 46.1447 67.5596 45.5579C69.62 44.928 71.6143 43.5898 73.8344 41.3478C73.9233 41.258 73.9785 41.1403 73.9906 41.0146C74.0026 40.8889 73.9709 40.7628 73.9008 40.6578Z" fill="#EC7216"/>
<defs>
<filter id="filter0_d_188_133" x="0.547401" y="0.0941572" width="109.963" height="110.589" filterUnits="userSpaceOnUse" color-interpolation-filters="sRGB">
<feFlood flood-opacity="0" result="BackgroundImageFix"/>
<feColorMatrix in="SourceAlpha" type="matrix" values="0 0 0 0 0 0 0 0 0 0 0 0 0 0 0 0 0 0 127 0" result="hardAlpha"/>
<feOffset dy="8.95056"/>
<feGaussianBlur stdDeviation="12.8664"/>
<feComposite in2="hardAlpha" operator="out"/>
<feColorMatrix type="matrix" values="0 0 0 0 0 0 0 0 0 0 0 0 0 0 0 0 0 0 0.07 0"/>
<feBlend mode="normal" in2="BackgroundImageFix" result="effect1_dropShadow_188_133"/>
<feBlend mode="normal" in="SourceGraphic" in2="effect1_dropShadow_188_133" result="shape"/>
</filter>
</defs>
</svg>
