<svg width="111" height="111" viewBox="0 0 111 111" fill="none" xmlns="http://www.w3.org/2000/svg">
<g filter="url(#filter0_d_188_144)">
<ellipse cx="55.2483" cy="46.4991" rx="29.2483" ry="29.501" fill="white"/>
</g>
<path d="M49.4885 31.529C48.8035 30.1468 48.2635 29.0556 49.4552 27.271C49.7102 26.8884 49.6052 26.3728 49.2235 26.1183C48.8452 25.8655 48.3252 25.967 48.0685 26.3495C46.3418 28.9309 47.2585 30.7805 47.9952 32.2658C48.6835 33.6563 49.1818 34.6609 48.0685 36.3292C47.8119 36.7118 47.9169 37.2273 48.2985 37.4818C48.4356 37.5733 48.597 37.622 48.7619 37.6215C49.0303 37.6215 49.2935 37.4918 49.4535 37.2507C51.1019 34.7857 50.2086 32.9794 49.4885 31.529ZM56.1287 31.529C55.442 30.1468 54.902 29.0556 56.0937 27.271C56.3487 26.8884 56.2437 26.3728 55.862 26.1183C55.4837 25.8655 54.962 25.967 54.707 26.3495C52.982 28.9326 53.8986 30.7821 54.6337 32.2674C55.322 33.658 55.8203 34.6626 54.707 36.3292C54.452 36.7118 54.557 37.2273 54.9387 37.4818C55.0751 37.5733 55.2359 37.622 55.4003 37.6215C55.6687 37.6215 55.932 37.4918 56.0937 37.2507C57.7421 34.7857 56.8487 32.9794 56.1287 31.529ZM62.7672 31.529C62.0805 30.1468 61.5405 29.0556 62.7322 27.271C62.9872 26.8884 62.8822 26.3728 62.5005 26.1183C62.1222 25.8655 61.6005 25.967 61.3455 26.3495C59.6205 28.9326 60.5371 30.7821 61.2722 32.2674C61.9605 33.658 62.4588 34.6626 61.3455 36.3292C61.0905 36.7118 61.1955 37.2273 61.5772 37.4818C61.7136 37.5733 61.8744 37.622 62.0388 37.6215C62.3088 37.6215 62.5722 37.4918 62.7322 37.2507C64.3806 34.7857 63.4872 32.9794 62.7672 31.529ZM69.5007 39.2848H41.1667C38.8683 39.2848 37 41.151 37 43.443V58.4125C37 60.7044 38.8684 62.5706 41.1667 62.5706H69.5007C71.7991 62.5706 73.6674 60.7044 73.6674 58.4125V43.443C73.6674 41.151 71.799 39.2848 69.5007 39.2848ZM72.0008 58.4125C72.0008 59.7881 70.8791 60.9075 69.5007 60.9075H41.1667C39.7883 60.9075 38.6667 59.7881 38.6667 58.4125V43.443C38.6667 42.0675 39.7883 40.9481 41.1667 40.9481H69.5007C70.8791 40.9481 72.0008 42.0675 72.0008 43.443V58.4125Z" fill="#EC7216"/>
<path d="M42.8334 42.6113C42.3734 42.6113 42 42.9839 42 43.443V58.4125C42 58.8716 42.3734 59.2442 42.8334 59.2442C43.2934 59.2442 43.6668 58.8716 43.6668 58.4125V43.443C43.6668 42.9839 43.2934 42.6113 42.8334 42.6113ZM47.8335 42.6113C47.3735 42.6113 47.0001 42.9839 47.0001 43.443V58.4125C47.0001 58.8716 47.3735 59.2442 47.8335 59.2442C48.2935 59.2442 48.6669 58.8716 48.6669 58.4125V43.443C48.6669 42.9839 48.2935 42.6113 47.8335 42.6113ZM52.8336 42.6113C52.3736 42.6113 52.0002 42.9839 52.0002 43.443V58.4125C52.0002 58.8716 52.3736 59.2442 52.8336 59.2442C53.2936 59.2442 53.667 58.8716 53.667 58.4125V43.443C53.667 42.9839 53.2936 42.6113 52.8336 42.6113ZM57.8337 42.6113C57.3737 42.6113 57.0003 42.9839 57.0003 43.443V58.4125C57.0003 58.8716 57.3737 59.2442 57.8337 59.2442C58.2937 59.2442 58.6671 58.8716 58.6671 58.4125V43.443C58.6671 42.9839 58.2937 42.6113 57.8337 42.6113ZM62.8338 42.6113C62.3738 42.6113 62.0004 42.9839 62.0004 43.443V58.4125C62.0004 58.8716 62.3738 59.2442 62.8338 59.2442C63.2938 59.2442 63.6672 58.8716 63.6672 58.4125V43.443C63.6672 42.9839 63.2938 42.6113 62.8338 42.6113ZM67.8339 42.6113C67.3739 42.6113 67.0005 42.9839 67.0005 43.443V58.4125C67.0005 58.8716 67.3739 59.2442 67.8339 59.2442C68.2939 59.2442 68.6673 58.8716 68.6673 58.4125V43.443C68.6673 42.9839 68.2939 42.6113 67.8339 42.6113ZM44.5001 60.9074C44.0401 60.9074 43.6668 61.28 43.6668 61.7391V65.0657C43.6668 65.5247 44.0401 65.8973 44.5001 65.8973C44.9601 65.8973 45.3335 65.5247 45.3335 65.0657V61.7391C45.3334 61.2799 44.9601 60.9074 44.5001 60.9074ZM66.1672 60.9074C65.7072 60.9074 65.3339 61.28 65.3339 61.7391V65.0657C65.3339 65.5247 65.7072 65.8973 66.1672 65.8973C66.6272 65.8973 67.0006 65.5247 67.0006 65.0657V61.7391C67.0006 61.2799 66.6272 60.9074 66.1672 60.9074Z" fill="#EC7216"/>
<path d="M55.5974 75.5764C55.2671 75.5764 54.999 75.306 54.999 74.9729C54.999 74.6397 55.2671 74.3693 55.5974 74.3693C62.9094 74.3693 69.8528 71.5738 75.1518 66.4994C75.3912 66.27 75.7694 66.2797 75.9991 66.5211C76.2265 66.7625 76.2169 67.1439 75.9776 67.3733C70.4535 72.6626 63.2157 75.5764 55.5974 75.5764Z" fill="#020E28"/>
<path d="M37.2 68.5756C37.1474 68.5756 37.0923 68.5588 37.0492 68.5201C36.5562 68.1121 36.0679 67.68 35.5988 67.2358C35.5031 67.1441 35.4983 66.992 35.5892 66.8954C35.6802 66.7989 35.831 66.794 35.9267 66.8858C36.3887 67.3227 36.8673 67.7476 37.3532 68.1508C37.4561 68.2353 37.4705 68.3873 37.3867 68.4912C37.3389 68.5467 37.2694 68.5756 37.2 68.5756ZM34.4093 65.9346C34.3447 65.9346 34.2824 65.9081 34.2346 65.8574C33.7966 65.3842 33.3681 64.8917 32.9636 64.392C32.8799 64.2882 32.8942 64.1361 32.9972 64.0516C33.1001 63.9671 33.2509 63.9816 33.3346 64.0854C33.7319 64.5755 34.1532 65.0607 34.584 65.5266C34.675 65.6232 34.6702 65.7777 34.572 65.867C34.5266 65.9129 34.4691 65.9346 34.4093 65.9346ZM31.9871 62.9484C31.9129 62.9484 31.8387 62.9122 31.7933 62.847C31.4199 62.3207 31.0609 61.7751 30.7234 61.2271C30.654 61.1136 30.6875 60.964 30.8 60.894C30.9125 60.8239 31.0609 60.8577 31.1303 60.9712C31.4606 61.5096 31.8148 62.0479 32.181 62.5645C32.2576 62.6732 32.2336 62.8228 32.1259 62.9001C32.0829 62.9339 32.035 62.9484 31.9871 62.9484ZM29.9718 59.6676C29.8857 59.6676 29.8019 59.6217 29.7612 59.5396C29.4596 58.9675 29.1748 58.3809 28.9139 57.7918C28.8589 57.6711 28.9139 57.5263 29.0336 57.4732C29.1533 57.4176 29.2969 57.4732 29.3496 57.5939C29.608 58.1733 29.8881 58.7502 30.1849 59.3127C30.2471 59.431 30.2016 59.5759 30.0867 59.6386C30.0484 59.6579 30.0101 59.6676 29.9718 59.6676ZM28.4065 56.1478C28.3084 56.1478 28.2175 56.0875 28.1816 55.9909C27.959 55.385 27.7531 54.7621 27.5712 54.1441C27.5329 54.0162 27.6047 53.881 27.7316 53.8448C27.8584 53.8061 27.9925 53.881 28.0284 54.0065C28.2079 54.6149 28.4089 55.2256 28.6291 55.8219C28.6746 55.9475 28.6124 56.0851 28.4879 56.1333C28.4616 56.143 28.4353 56.1478 28.4065 56.1478ZM27.3151 52.4518C27.205 52.4518 27.1069 52.3746 27.083 52.2635C26.9418 51.6334 26.8197 50.9889 26.7192 50.3516C26.6976 50.2212 26.7886 50.0957 26.9178 50.0763C27.0495 50.057 27.1715 50.1464 27.1907 50.2767C27.2888 50.9044 27.4085 51.5345 27.5473 52.1549C27.576 52.2853 27.4946 52.4132 27.3678 52.4446C27.351 52.4494 27.3319 52.4518 27.3151 52.4518ZM26.7192 48.6399C26.5971 48.6399 26.4918 48.5458 26.4822 48.4203C26.4248 47.7781 26.3865 47.1239 26.3721 46.4769C26.3697 46.3441 26.4726 46.2331 26.6067 46.2307C26.7503 46.2283 26.8484 46.3321 26.8508 46.4673C26.8652 47.1022 26.9035 47.7467 26.9609 48.3792C26.9729 48.512 26.8747 48.6303 26.7431 48.6424C26.7335 48.6399 26.7263 48.6399 26.7192 48.6399ZM26.6234 44.7822C26.621 44.7822 26.6162 44.7822 26.6138 44.7822C26.4822 44.7774 26.3793 44.6639 26.3841 44.5311C26.4104 43.8817 26.4559 43.2299 26.5229 42.5902C26.5373 42.4574 26.6521 42.3584 26.7862 42.3753C26.9178 42.3898 27.0136 42.5081 26.9992 42.6409C26.9322 43.2686 26.8867 43.9107 26.8604 44.5504C26.858 44.6808 26.7503 44.7822 26.6234 44.7822ZM27.0255 40.9462C27.0112 40.9462 26.9968 40.9462 26.9848 40.9438C26.8556 40.922 26.767 40.7965 26.791 40.6637C26.9011 40.0264 27.0327 39.3867 27.1835 38.759C27.2146 38.6286 27.3438 38.549 27.4731 38.5804C27.6023 38.6117 27.6813 38.7421 27.6502 38.8725C27.5018 39.4905 27.3726 40.1206 27.2649 40.7458C27.2409 40.8641 27.1404 40.9462 27.0255 40.9462ZM27.9255 37.1947C27.9015 37.1947 27.8776 37.1922 27.8537 37.1826C27.7268 37.1416 27.6574 37.0064 27.6981 36.8808C27.8896 36.2628 28.105 35.6448 28.3371 35.0413C28.385 34.9157 28.5238 34.8554 28.6459 34.9037C28.7703 34.952 28.8302 35.092 28.7823 35.2151C28.5549 35.809 28.3419 36.4173 28.1528 37.0257C28.1217 37.1295 28.0284 37.1947 27.9255 37.1947ZM29.3136 33.5952C29.2801 33.5952 29.2442 33.588 29.2131 33.5735C29.0935 33.518 29.0432 33.3731 29.0982 33.2524C29.3687 32.6682 29.6631 32.084 29.9742 31.5167C30.0389 31.4008 30.1825 31.3573 30.2997 31.4225C30.4146 31.4877 30.4577 31.635 30.3931 31.7508C30.0867 32.3109 29.7971 32.8855 29.5315 33.46C29.4908 33.5421 29.4046 33.5952 29.3136 33.5952ZM31.1614 30.2106C31.1159 30.2106 31.0728 30.1986 31.0321 30.172C30.922 30.0996 30.8885 29.9499 30.9603 29.8389C31.305 29.2957 31.6736 28.7549 32.0541 28.2335C32.1331 28.1273 32.2839 28.1031 32.3892 28.1828C32.4945 28.2625 32.5185 28.4121 32.4395 28.5208C32.0661 29.0326 31.7023 29.5637 31.3624 30.0996C31.317 30.172 31.2404 30.2106 31.1614 30.2106ZM33.4352 27.1061C33.3801 27.1061 33.3251 27.0868 33.282 27.0482C33.1814 26.9613 33.1695 26.8092 33.2533 26.7078C33.6673 26.2153 34.1005 25.7277 34.5457 25.2617C34.6367 25.1652 34.7898 25.1628 34.8832 25.2545C34.9789 25.3462 34.9813 25.5007 34.8904 25.5949C34.4524 26.0536 34.0239 26.5315 33.6194 27.0168C33.5692 27.0747 33.5022 27.1061 33.4352 27.1061ZM36.0895 24.3251C36.0249 24.3251 35.9602 24.2985 35.9124 24.2454C35.8238 24.1464 35.831 23.9943 35.9291 23.905C36.4006 23.4705 36.8961 23.048 37.3987 22.6424C37.5016 22.5603 37.6524 22.5772 37.7338 22.681C37.8151 22.7849 37.7984 22.9369 37.6955 23.0214C37.2025 23.4173 36.7142 23.835 36.2498 24.2623C36.2044 24.3057 36.1469 24.3251 36.0895 24.3251ZM39.0813 21.923C39.0047 21.923 38.9305 21.8868 38.885 21.8192C38.8108 21.7106 38.8371 21.5585 38.9449 21.4836C39.469 21.1167 40.0147 20.7594 40.5652 20.4263C40.6777 20.3587 40.8261 20.3949 40.8931 20.5083C40.9625 20.6218 40.9242 20.7715 40.8117 20.8391C40.2708 21.1674 39.7347 21.5174 39.2177 21.8771C39.177 21.9085 39.1291 21.923 39.0813 21.923ZM42.3579 19.9362C42.2717 19.9362 42.188 19.8879 42.1449 19.8058C42.085 19.6876 42.1305 19.5427 42.2478 19.4799C42.8174 19.183 43.4038 18.9054 43.9902 18.6495C44.1123 18.5964 44.2535 18.6519 44.3038 18.775C44.3564 18.8981 44.3014 19.0382 44.1793 19.0913C43.6025 19.3423 43.0281 19.6175 42.4656 19.9097C42.4321 19.929 42.3962 19.9362 42.3579 19.9362ZM45.8643 18.4057C45.7662 18.4057 45.6728 18.3453 45.6393 18.2463C45.5938 18.1208 45.6608 17.9832 45.7853 17.9373C46.3885 17.7201 47.0084 17.5221 47.6235 17.3459C47.7503 17.3072 47.882 17.3845 47.9179 17.5124C47.9538 17.6404 47.8796 17.7732 47.7527 17.8094C47.1472 17.9832 46.5368 18.1787 45.9457 18.3912C45.9169 18.4008 45.8906 18.4057 45.8643 18.4057ZM49.5454 17.3555C49.4353 17.3555 49.3348 17.2783 49.3108 17.1648C49.2845 17.0344 49.3659 16.9065 49.4951 16.8775C50.1222 16.7448 50.7613 16.6289 51.3955 16.5371C51.5272 16.5178 51.6468 16.6096 51.666 16.7423C51.6851 16.8751 51.5942 16.9958 51.4625 17.0151C50.8379 17.1069 50.2084 17.2179 49.5933 17.3507C49.5789 17.3531 49.5622 17.3555 49.5454 17.3555ZM53.3294 16.8051C53.205 16.8051 53.0997 16.7085 53.0901 16.583C53.0805 16.4502 53.1786 16.3344 53.3103 16.3247C53.9469 16.274 54.5956 16.245 55.237 16.2378H55.2394C55.371 16.2378 55.4763 16.344 55.4787 16.4768C55.4811 16.6096 55.3734 16.7182 55.2418 16.7206C54.6099 16.7279 53.9709 16.7568 53.3462 16.8051C53.3438 16.8051 53.3366 16.8051 53.3294 16.8051Z" fill="#020E28"/>
<path d="M28.3863 56.4613C28.1421 56.4613 27.9148 56.3092 27.8238 56.0678C26.6127 52.7605 26 49.2818 26 45.7234C26 37.7496 29.078 30.2538 34.669 24.6144C34.9036 24.3779 35.2818 24.3779 35.5163 24.6144C35.7509 24.851 35.7509 25.2325 35.5163 25.469C30.1526 30.8791 27.1991 38.0731 27.1991 45.7234C27.1991 49.1369 27.7879 52.4756 28.9487 55.6478C29.0636 55.9592 28.9056 56.3068 28.5945 56.4227C28.5251 56.4493 28.4557 56.4613 28.3863 56.4613Z" fill="#020E28"/>
<path d="M82.9346 35.1868C82.7363 35.1535 82.5592 35.0209 82.4785 34.8189C80.0786 28.8428 75.7086 23.8056 70.1696 20.6303C67.2748 18.9714 64.1242 17.847 60.8095 17.2898C60.4837 17.2351 60.2634 16.9239 60.3177 16.5953C60.3719 16.2667 60.6804 16.0444 61.0062 16.0992C64.4602 16.6798 67.7438 17.851 70.7606 19.5793C76.5326 22.8869 81.0883 28.1363 83.5873 34.3641C83.7109 34.6736 83.563 35.0257 83.2561 35.1503C83.1494 35.1936 83.0385 35.2043 82.9346 35.1868Z" fill="#020E28"/>
<defs>
<filter id="filter0_d_188_144" x="0.267128" y="0.215739" width="109.963" height="110.468" filterUnits="userSpaceOnUse" color-interpolation-filters="sRGB">
<feFlood flood-opacity="0" result="BackgroundImageFix"/>
<feColorMatrix in="SourceAlpha" type="matrix" values="0 0 0 0 0 0 0 0 0 0 0 0 0 0 0 0 0 0 127 0" result="hardAlpha"/>
<feOffset dy="8.95056"/>
<feGaussianBlur stdDeviation="12.8664"/>
<feComposite in2="hardAlpha" operator="out"/>
<feColorMatrix type="matrix" values="0 0 0 0 0 0 0 0 0 0 0 0 0 0 0 0 0 0 0.07 0"/>
<feBlend mode="normal" in2="BackgroundImageFix" result="effect1_dropShadow_188_144"/>
<feBlend mode="normal" in="SourceGraphic" in2="effect1_dropShadow_188_144" result="shape"/>
</filter>
</defs>
</svg>
