<svg width="111" height="111" viewBox="0 0 111 111" fill="none" xmlns="http://www.w3.org/2000/svg">
<g filter="url(#filter0_d_188_122)">
<ellipse cx="55.2483" cy="46.4991" rx="29.2483" ry="29.501" fill="white"/>
</g>
<path d="M55.5974 75.5764C55.2671 75.5764 54.999 75.306 54.999 74.9729C54.999 74.6397 55.2671 74.3693 55.5974 74.3693C62.9094 74.3693 69.8528 71.5738 75.1518 66.4994C75.3912 66.27 75.7694 66.2797 75.9991 66.5211C76.2265 66.7625 76.2169 67.1439 75.9776 67.3733C70.4535 72.6626 63.2157 75.5764 55.5974 75.5764Z" fill="#020E28"/>
<path d="M37.2 68.5756C37.1474 68.5756 37.0923 68.5588 37.0492 68.5201C36.5562 68.1121 36.0679 67.68 35.5988 67.2358C35.5031 67.1441 35.4983 66.992 35.5892 66.8954C35.6802 66.7989 35.831 66.794 35.9267 66.8858C36.3887 67.3227 36.8673 67.7476 37.3532 68.1508C37.4561 68.2353 37.4705 68.3873 37.3867 68.4912C37.3389 68.5467 37.2694 68.5756 37.2 68.5756ZM34.4093 65.9346C34.3447 65.9346 34.2824 65.9081 34.2346 65.8574C33.7966 65.3842 33.3681 64.8917 32.9636 64.392C32.8799 64.2882 32.8942 64.1361 32.9972 64.0516C33.1001 63.9671 33.2509 63.9816 33.3346 64.0854C33.7319 64.5755 34.1532 65.0607 34.584 65.5266C34.675 65.6232 34.6702 65.7777 34.572 65.867C34.5266 65.9129 34.4691 65.9346 34.4093 65.9346ZM31.9871 62.9484C31.9129 62.9484 31.8387 62.9122 31.7933 62.847C31.4199 62.3207 31.0609 61.7751 30.7234 61.2271C30.654 61.1136 30.6875 60.964 30.8 60.894C30.9125 60.8239 31.0609 60.8577 31.1303 60.9712C31.4606 61.5096 31.8148 62.0479 32.181 62.5645C32.2576 62.6732 32.2336 62.8228 32.1259 62.9001C32.0829 62.9339 32.035 62.9484 31.9871 62.9484ZM29.9718 59.6676C29.8857 59.6676 29.8019 59.6217 29.7612 59.5396C29.4596 58.9675 29.1748 58.3809 28.9139 57.7918C28.8589 57.6711 28.9139 57.5263 29.0336 57.4732C29.1533 57.4176 29.2969 57.4732 29.3496 57.5939C29.608 58.1733 29.8881 58.7502 30.1849 59.3127C30.2471 59.431 30.2016 59.5759 30.0867 59.6386C30.0484 59.6579 30.0101 59.6676 29.9718 59.6676ZM28.4065 56.1478C28.3084 56.1478 28.2175 56.0875 28.1816 55.9909C27.959 55.385 27.7531 54.7621 27.5712 54.1441C27.5329 54.0162 27.6047 53.881 27.7316 53.8448C27.8584 53.8061 27.9925 53.881 28.0284 54.0065C28.2079 54.6149 28.4089 55.2256 28.6291 55.8219C28.6746 55.9475 28.6124 56.0851 28.4879 56.1333C28.4616 56.143 28.4353 56.1478 28.4065 56.1478ZM27.3151 52.4518C27.205 52.4518 27.1069 52.3746 27.083 52.2635C26.9418 51.6334 26.8197 50.9889 26.7192 50.3516C26.6976 50.2212 26.7886 50.0957 26.9178 50.0763C27.0495 50.057 27.1715 50.1464 27.1907 50.2767C27.2888 50.9044 27.4085 51.5345 27.5473 52.1549C27.576 52.2853 27.4946 52.4132 27.3678 52.4446C27.351 52.4494 27.3319 52.4518 27.3151 52.4518ZM26.7192 48.6399C26.5971 48.6399 26.4918 48.5458 26.4822 48.4203C26.4248 47.7781 26.3865 47.1239 26.3721 46.4769C26.3697 46.3441 26.4726 46.2331 26.6067 46.2307C26.7503 46.2283 26.8484 46.3321 26.8508 46.4673C26.8652 47.1022 26.9035 47.7467 26.9609 48.3792C26.9729 48.512 26.8747 48.6303 26.7431 48.6424C26.7335 48.6399 26.7263 48.6399 26.7192 48.6399ZM26.6234 44.7822C26.621 44.7822 26.6162 44.7822 26.6138 44.7822C26.4822 44.7774 26.3793 44.6639 26.3841 44.5311C26.4104 43.8817 26.4559 43.2299 26.5229 42.5902C26.5373 42.4574 26.6521 42.3584 26.7862 42.3753C26.9178 42.3898 27.0136 42.5081 26.9992 42.6409C26.9322 43.2686 26.8867 43.9107 26.8604 44.5504C26.858 44.6808 26.7503 44.7822 26.6234 44.7822ZM27.0255 40.9462C27.0112 40.9462 26.9968 40.9462 26.9848 40.9438C26.8556 40.922 26.767 40.7965 26.791 40.6637C26.9011 40.0264 27.0327 39.3867 27.1835 38.759C27.2146 38.6286 27.3438 38.549 27.4731 38.5804C27.6023 38.6117 27.6813 38.7421 27.6502 38.8725C27.5018 39.4905 27.3726 40.1206 27.2649 40.7458C27.2409 40.8641 27.1404 40.9462 27.0255 40.9462ZM27.9255 37.1947C27.9015 37.1947 27.8776 37.1922 27.8537 37.1826C27.7268 37.1416 27.6574 37.0064 27.6981 36.8808C27.8896 36.2628 28.105 35.6448 28.3371 35.0413C28.385 34.9157 28.5238 34.8554 28.6459 34.9037C28.7703 34.952 28.8302 35.092 28.7823 35.2151C28.5549 35.809 28.3419 36.4173 28.1528 37.0257C28.1217 37.1295 28.0284 37.1947 27.9255 37.1947ZM29.3136 33.5952C29.2801 33.5952 29.2442 33.588 29.2131 33.5735C29.0935 33.518 29.0432 33.3731 29.0982 33.2524C29.3687 32.6682 29.6631 32.084 29.9742 31.5167C30.0389 31.4008 30.1825 31.3573 30.2997 31.4225C30.4146 31.4877 30.4577 31.635 30.3931 31.7508C30.0867 32.3109 29.7971 32.8855 29.5315 33.46C29.4908 33.5421 29.4046 33.5952 29.3136 33.5952ZM31.1614 30.2106C31.1159 30.2106 31.0728 30.1986 31.0321 30.172C30.922 30.0996 30.8885 29.9499 30.9603 29.8389C31.305 29.2957 31.6736 28.7549 32.0541 28.2335C32.1331 28.1273 32.2839 28.1031 32.3892 28.1828C32.4945 28.2625 32.5185 28.4121 32.4395 28.5208C32.0661 29.0326 31.7023 29.5637 31.3624 30.0996C31.317 30.172 31.2404 30.2106 31.1614 30.2106ZM33.4352 27.1061C33.3801 27.1061 33.3251 27.0868 33.282 27.0482C33.1814 26.9613 33.1695 26.8092 33.2533 26.7078C33.6673 26.2153 34.1005 25.7277 34.5457 25.2617C34.6367 25.1652 34.7898 25.1628 34.8832 25.2545C34.9789 25.3462 34.9813 25.5007 34.8904 25.5949C34.4524 26.0536 34.0239 26.5315 33.6194 27.0168C33.5692 27.0747 33.5022 27.1061 33.4352 27.1061ZM36.0895 24.3251C36.0249 24.3251 35.9602 24.2985 35.9124 24.2454C35.8238 24.1464 35.831 23.9943 35.9291 23.905C36.4006 23.4705 36.8961 23.048 37.3987 22.6424C37.5016 22.5603 37.6524 22.5772 37.7338 22.681C37.8151 22.7849 37.7984 22.9369 37.6955 23.0214C37.2025 23.4173 36.7142 23.835 36.2498 24.2623C36.2044 24.3057 36.1469 24.3251 36.0895 24.3251ZM39.0813 21.923C39.0047 21.923 38.9305 21.8868 38.885 21.8192C38.8108 21.7106 38.8371 21.5585 38.9449 21.4836C39.469 21.1167 40.0147 20.7594 40.5652 20.4263C40.6777 20.3587 40.8261 20.3949 40.8931 20.5083C40.9625 20.6218 40.9242 20.7715 40.8117 20.8391C40.2708 21.1674 39.7347 21.5174 39.2177 21.8771C39.177 21.9085 39.1291 21.923 39.0813 21.923ZM42.3579 19.9362C42.2717 19.9362 42.188 19.8879 42.1449 19.8058C42.085 19.6876 42.1305 19.5427 42.2478 19.4799C42.8174 19.183 43.4038 18.9054 43.9902 18.6495C44.1123 18.5964 44.2535 18.6519 44.3038 18.775C44.3564 18.8981 44.3014 19.0382 44.1793 19.0913C43.6025 19.3423 43.0281 19.6175 42.4656 19.9097C42.4321 19.929 42.3962 19.9362 42.3579 19.9362ZM45.8643 18.4057C45.7662 18.4057 45.6728 18.3453 45.6393 18.2463C45.5938 18.1208 45.6608 17.9832 45.7853 17.9373C46.3885 17.7201 47.0084 17.5221 47.6235 17.3459C47.7503 17.3072 47.882 17.3845 47.9179 17.5124C47.9538 17.6404 47.8796 17.7732 47.7527 17.8094C47.1472 17.9832 46.5368 18.1787 45.9457 18.3912C45.9169 18.4008 45.8906 18.4057 45.8643 18.4057ZM49.5454 17.3555C49.4353 17.3555 49.3348 17.2783 49.3108 17.1648C49.2845 17.0344 49.3659 16.9065 49.4951 16.8775C50.1222 16.7448 50.7613 16.6289 51.3955 16.5371C51.5272 16.5178 51.6468 16.6096 51.666 16.7423C51.6851 16.8751 51.5942 16.9958 51.4625 17.0151C50.8379 17.1069 50.2084 17.2179 49.5933 17.3507C49.5789 17.3531 49.5622 17.3555 49.5454 17.3555ZM53.3294 16.8051C53.205 16.8051 53.0997 16.7085 53.0901 16.583C53.0805 16.4502 53.1786 16.3344 53.3103 16.3247C53.9469 16.274 54.5956 16.245 55.237 16.2378H55.2394C55.371 16.2378 55.4763 16.344 55.4787 16.4768C55.4811 16.6096 55.3734 16.7182 55.2418 16.7206C54.6099 16.7279 53.9709 16.7568 53.3462 16.8051C53.3438 16.8051 53.3366 16.8051 53.3294 16.8051Z" fill="#020E28"/>
<path d="M28.3863 56.4613C28.1421 56.4613 27.9148 56.3092 27.8238 56.0678C26.6127 52.7605 26 49.2818 26 45.7234C26 37.7496 29.078 30.2538 34.669 24.6144C34.9036 24.3779 35.2818 24.3779 35.5163 24.6144C35.7509 24.851 35.7509 25.2325 35.5163 25.469C30.1526 30.8791 27.1991 38.0731 27.1991 45.7234C27.1991 49.1369 27.7879 52.4756 28.9487 55.6478C29.0636 55.9592 28.9056 56.3068 28.5945 56.4227C28.5251 56.4493 28.4557 56.4613 28.3863 56.4613Z" fill="#020E28"/>
<path d="M82.9346 35.1868C82.7363 35.1535 82.5592 35.0209 82.4785 34.8189C80.0786 28.8428 75.7086 23.8056 70.1696 20.6303C67.2748 18.9714 64.1242 17.847 60.8095 17.2898C60.4837 17.2351 60.2634 16.9239 60.3177 16.5953C60.3719 16.2667 60.6804 16.0444 61.0062 16.0992C64.4602 16.6798 67.7438 17.851 70.7606 19.5793C76.5326 22.8869 81.0883 28.1363 83.5873 34.3641C83.7109 34.6736 83.563 35.0257 83.2561 35.1503C83.1494 35.1936 83.0385 35.2043 82.9346 35.1868Z" fill="#020E28"/>
<path d="M72.2 30.9995H39.8C38.8059 30.9995 38 31.8054 38 32.7995V43.5995C38 43.7586 38.0632 43.9112 38.1757 44.0238C38.2882 44.1363 38.4409 44.1995 38.6 44.1995C38.7591 44.1995 38.9117 44.1363 39.0242 44.0238C39.1367 43.9112 39.2 43.7586 39.2 43.5995V32.7995C39.2 32.6404 39.2632 32.4878 39.3757 32.3753C39.4882 32.2627 39.6408 32.1995 39.7999 32.1995H41V36.9995C41 38.3249 42.0745 39.3995 43.3999 39.3995H68.5999C69.9254 39.3995 70.9999 38.3249 70.9999 36.9995V32.1995H72.2C72.3591 32.1995 72.5117 32.2627 72.6242 32.3752C72.7368 32.4877 72.8 32.6403 72.8 32.7994V45.3994C72.798 47.0554 71.456 48.3974 69.8 48.3995H68V47.1994C68 45.874 66.9254 44.7995 65.6 44.7995H58.916C58.7569 44.7995 58.6043 44.8627 58.4918 44.9752C58.3792 45.0877 58.316 45.2403 58.316 45.3994C58.316 45.5586 58.3792 45.7112 58.4918 45.8237C58.6043 45.9362 58.7569 45.9994 58.916 45.9994H65.6C66.2627 45.9994 66.8 46.5367 66.8 47.1994V48.3995H60.068C59.9089 48.3995 59.7563 48.4627 59.6438 48.5752C59.5312 48.6877 59.468 48.8403 59.468 48.9994C59.468 49.1586 59.5312 49.3112 59.6438 49.4237C59.7563 49.5362 59.9089 49.5994 60.068 49.5994H69.8C72.1185 49.5967 73.9974 47.7179 74 45.3994V32.7994C74 31.8054 73.1941 30.9995 72.2 30.9995ZM69.8 36.9995C69.8 37.6623 69.2628 38.1995 68.6 38.1995H43.4C42.7372 38.1995 42.2 37.6623 42.2 36.9995V32.1995H69.8V36.9995H69.8Z" fill="#EC7216"/>
<path d="M44.0004 36.9998H68.0003C68.3317 36.9998 68.6003 36.7312 68.6003 36.3999C68.6003 36.0685 68.3317 35.7999 68.0003 35.7999H44.0004C43.8412 35.7999 43.6886 35.8631 43.5761 35.9756C43.4636 36.0881 43.4004 36.2407 43.4004 36.3999C43.4004 36.559 43.4636 36.7116 43.5761 36.8241C43.6886 36.9366 43.8412 36.9998 44.0004 36.9998ZM44.0004 34.5999H68.0003C68.1595 34.5999 68.3121 34.5366 68.4246 34.4241C68.5371 34.3116 68.6003 34.159 68.6003 33.9999C68.6003 33.8408 68.5371 33.6881 68.4246 33.5756C68.3121 33.4631 68.1595 33.3999 68.0003 33.3999H44.0004C43.8412 33.3999 43.6886 33.4631 43.5761 33.5756C43.4636 33.6881 43.4004 33.8408 43.4004 33.9999C43.4004 34.159 43.4636 34.3116 43.5761 34.4241C43.6886 34.5366 43.8412 34.5999 44.0004 34.5999Z" fill="#EC7216"/>
<path d="M67.9994 43.5999C68.3307 43.5999 68.5994 43.3312 68.5994 42.9999C68.5994 42.6685 68.3307 42.3999 67.9994 42.3999C67.668 42.3999 67.3994 42.6685 67.3994 42.9999C67.3994 43.3312 67.668 43.5999 67.9994 43.5999Z" fill="#EC7216"/>
<path d="M70.3998 43.5999C70.7311 43.5999 70.9998 43.3312 70.9998 42.9999C70.9998 42.6685 70.7311 42.3999 70.3998 42.3999C70.0684 42.3999 69.7998 42.6685 69.7998 42.9999C69.7998 43.3312 70.0684 43.5999 70.3998 43.5999Z" fill="#EC7216"/>
<path d="M59.6 59.1996C59.6 59.3587 59.6632 59.5113 59.7757 59.6238C59.8882 59.7364 60.0409 59.7996 60.2 59.7996C60.3591 59.7996 60.5117 59.7364 60.6242 59.6238C60.7367 59.5113 60.8 59.3587 60.8 59.1996C60.8027 59.0273 60.8437 58.8578 60.92 58.7033C60.9962 58.5488 61.1059 58.4132 61.241 58.3062C61.4799 58.0906 61.6709 57.8272 61.8017 57.5331C61.9324 57.239 61.9999 56.9207 61.9999 56.5989C61.9999 56.277 61.9324 55.9588 61.8017 55.6647C61.6709 55.3706 61.4799 55.1072 61.241 54.8915C61.1039 54.7866 60.9928 54.6516 60.9163 54.4968C60.8399 54.342 60.8001 54.1717 60.8001 53.9991C60.8001 53.8264 60.8399 53.6561 60.9163 53.5014C60.9928 53.3466 61.1039 53.2115 61.241 53.1066C61.4787 52.89 61.6688 52.6265 61.7995 52.3327C61.9301 52.0389 61.9984 51.7212 62 51.3996C62 51.0682 61.7314 50.7996 61.4 50.7996C61.0686 50.7996 60.8 51.0682 60.8 51.3996C60.7973 51.5717 60.7563 51.7411 60.68 51.8954C60.6037 52.0497 60.4941 52.1851 60.359 52.2918C60.1201 52.5073 59.9291 52.7706 59.7984 53.0646C59.6677 53.3586 59.6001 53.6768 59.6001 53.9985C59.6001 54.3202 59.6677 54.6384 59.7984 54.9324C59.9291 55.2264 60.1201 55.4897 60.359 55.7052C60.4962 55.8103 60.6072 55.9455 60.6837 56.1005C60.7602 56.2554 60.7999 56.4258 60.7999 56.5986C60.7999 56.7714 60.7602 56.9418 60.6837 57.0967C60.6072 57.2516 60.4962 57.3869 60.359 57.492C60.1215 57.7088 59.9314 57.9724 59.8007 58.2663C59.6701 58.5602 59.6018 58.878 59.6 59.1996ZM63.8 59.1996C63.8 59.3587 63.8632 59.5113 63.9757 59.6238C64.0882 59.7364 64.2408 59.7996 64.4 59.7996C64.5591 59.7996 64.7117 59.7364 64.8242 59.6238C64.9367 59.5113 64.9999 59.3587 64.9999 59.1996C65.0027 59.0273 65.0437 58.8578 65.12 58.7033C65.1962 58.5488 65.3059 58.4132 65.4409 58.3062C65.6799 58.0906 65.8709 57.8272 66.0016 57.5331C66.1324 57.239 66.1999 56.9207 66.1999 56.5989C66.1999 56.277 66.1324 55.9588 66.0016 55.6647C65.8709 55.3706 65.6799 55.1072 65.4409 54.8915C65.3038 54.7866 65.1928 54.6516 65.1163 54.4968C65.0398 54.342 65.0001 54.1717 65.0001 53.9991C65.0001 53.8264 65.0398 53.6561 65.1163 53.5014C65.1928 53.3466 65.3038 53.2115 65.4409 53.1066C65.6786 52.89 65.8688 52.6265 65.9995 52.3327C66.1301 52.0389 66.1984 51.7212 66.2 51.3996C66.2 51.0682 65.9314 50.7996 65.6 50.7996C65.2686 50.7996 65 51.0682 65 51.3996C64.9973 51.5717 64.9563 51.7411 64.88 51.8954C64.8037 52.0497 64.6941 52.1851 64.559 52.2918C64.3201 52.5073 64.1291 52.7706 63.9984 53.0646C63.8677 53.3586 63.8001 53.6768 63.8001 53.9985C63.8001 54.3202 63.8677 54.6384 63.9984 54.9324C64.1291 55.2264 64.3201 55.4897 64.559 55.7052C64.6961 55.8103 64.8072 55.9455 64.8837 56.1005C64.9601 56.2554 64.9999 56.4258 64.9999 56.5986C64.9999 56.7714 64.9601 56.9418 64.8837 57.0967C64.8072 57.2516 64.6961 57.3869 64.559 57.492C64.3215 57.7088 64.1314 57.9724 64.0008 58.2663C63.8701 58.5602 63.8018 58.878 63.8 59.1996ZM67.4 59.1996C67.4 59.3587 67.4632 59.5113 67.5757 59.6238C67.6882 59.7364 67.8408 59.7996 68 59.7996C68.1591 59.7996 68.3117 59.7364 68.4242 59.6238C68.5367 59.5113 68.5999 59.3587 68.5999 59.1996C68.6027 59.0273 68.6437 58.8578 68.72 58.7033C68.7962 58.5488 68.9059 58.4132 69.0409 58.3062C69.2799 58.0906 69.4709 57.8272 69.6016 57.5331C69.7324 57.239 69.7999 56.9207 69.7999 56.5989C69.7999 56.277 69.7324 55.9588 69.6016 55.6647C69.4709 55.3706 69.2799 55.1072 69.0409 54.8915C68.9038 54.7866 68.7928 54.6516 68.7163 54.4968C68.6398 54.342 68.6001 54.1717 68.6001 53.9991C68.6001 53.8264 68.6398 53.6561 68.7163 53.5014C68.7928 53.3466 68.9038 53.2115 69.0409 53.1066C69.2786 52.89 69.4688 52.6265 69.5995 52.3327C69.7301 52.0389 69.7984 51.7212 69.8 51.3996C69.8 51.2405 69.7367 51.0879 69.6242 50.9754C69.5117 50.8628 69.3591 50.7996 69.2 50.7996C69.0409 50.7996 68.8882 50.8628 68.7757 50.9754C68.6632 51.0879 68.6 51.2405 68.6 51.3996C68.5973 51.5717 68.5563 51.7411 68.48 51.8954C68.4037 52.0497 68.2941 52.1851 68.159 52.2918C67.9201 52.5073 67.7291 52.7706 67.5984 53.0646C67.4677 53.3586 67.4001 53.6768 67.4001 53.9985C67.4001 54.3202 67.4677 54.6384 67.5984 54.9324C67.7291 55.2264 67.9201 55.4897 68.159 55.7052C68.2961 55.8103 68.4072 55.9455 68.4837 56.1005C68.5601 56.2554 68.5999 56.4258 68.5999 56.5986C68.5999 56.7714 68.5601 56.9418 68.4837 57.0967C68.4072 57.2516 68.2961 57.3869 68.159 57.492C67.9215 57.7088 67.7314 57.9724 67.6008 58.2663C67.4701 58.5602 67.4018 58.878 67.4 59.1996ZM48.2 60.9996C53.8333 60.9996 58.4 56.4329 58.4 50.7996C58.4 45.1663 53.8333 40.5996 48.2 40.5996C42.5667 40.5996 38 45.1663 38 50.7996C38.0063 56.4303 42.5693 60.9933 48.2 60.9996ZM48.2 41.7996C53.1706 41.7996 57.2 45.8291 57.2 50.7996C57.2 55.7702 53.1706 59.7996 48.2 59.7996C43.2295 59.7996 39.2 55.7702 39.2 50.7996C39.2056 45.8314 43.2317 41.8053 48.2 41.7996Z" fill="#EC7216"/>
<path d="M45.0496 50.4653L47.2288 51.1727L45.883 53.0249L42.604 53.5445C42.5249 53.5555 42.4489 53.5821 42.3803 53.6228C42.3117 53.6636 42.2519 53.7176 42.2044 53.7817C42.1569 53.8458 42.1227 53.9187 42.1038 53.9962C42.0848 54.0737 42.0815 54.1542 42.094 54.233C42.1066 54.3118 42.1347 54.3873 42.1767 54.4551C42.2188 54.5229 42.2739 54.5816 42.339 54.6279C42.404 54.6741 42.4776 54.7069 42.5555 54.7243C42.6333 54.7418 42.7139 54.7435 42.7924 54.7294L44.8858 54.3995L43.7596 55.9456C43.5648 56.2137 43.6241 56.589 43.8922 56.7838C44.1603 56.9787 44.5356 56.9193 44.7304 56.6512L45.8596 55.1039L46.1908 57.1966C46.2131 57.3376 46.2849 57.466 46.3933 57.5589C46.5017 57.6517 46.6397 57.7028 46.7824 57.703C46.8142 57.7031 46.8459 57.7005 46.8772 57.6952C47.0343 57.6704 47.1752 57.5843 47.2688 57.4556C47.3624 57.327 47.4011 57.1665 47.3764 57.0094L46.8568 53.7304L48.1996 51.8794L49.5454 53.7322L49.0258 57.0112C49.0011 57.1684 49.0398 57.3289 49.1334 57.4575C49.2271 57.5861 49.3679 57.6723 49.525 57.6971C49.5563 57.7023 49.5881 57.7049 49.6198 57.7049C49.7625 57.7046 49.9005 57.6535 50.0089 57.5607C50.1174 57.4679 50.1891 57.3394 50.2114 57.1985L50.5426 55.1057L51.667 56.6531C51.7608 56.782 51.902 56.8685 52.0595 56.8933C52.217 56.9182 52.378 56.8795 52.507 56.7857C52.636 56.6919 52.7224 56.5507 52.7473 56.3931C52.7721 56.2356 52.7334 56.0746 52.6396 55.9456L51.5134 54.3995L53.6068 54.7313C53.7115 54.7494 53.8191 54.7394 53.9187 54.7023C54.0183 54.6652 54.1062 54.6023 54.1735 54.5201C54.2408 54.4378 54.2851 54.3392 54.3018 54.2343C54.3185 54.1294 54.307 54.0219 54.2686 53.9228C54.2301 53.8238 54.166 53.7367 54.0828 53.6706C53.9997 53.6044 53.9004 53.5615 53.7952 53.5463L50.5162 53.0267L49.1704 51.1745L51.3496 50.4671L54.3059 51.9737C54.4 52.0253 54.5062 52.0506 54.6135 52.0472C54.7208 52.0437 54.8252 52.0115 54.9158 51.954C55.0064 51.8964 55.08 51.8157 55.1287 51.72C55.1775 51.6244 55.1997 51.5175 55.1931 51.4103C55.1865 51.3032 55.1512 51.1998 55.0909 51.111C55.0307 51.0221 54.9478 50.951 54.8507 50.9051L52.9637 49.9452L54.7847 49.3542C54.8895 49.3257 54.9846 49.2693 55.0599 49.191C55.1351 49.1127 55.1877 49.0154 55.212 48.9096C55.2363 48.8037 55.2314 48.6932 55.1979 48.59C55.1643 48.4867 55.1034 48.3944 55.0215 48.3231C54.9396 48.2517 54.84 48.2039 54.7331 48.1847C54.6262 48.1655 54.5161 48.1757 54.4146 48.2142L52.5906 48.8058L53.5506 46.9158C53.621 46.7742 53.6327 46.6106 53.5832 46.4604C53.5336 46.3102 53.4268 46.1857 53.2859 46.1138C53.1451 46.042 52.9815 46.0286 52.8309 46.0767C52.6802 46.1247 52.5546 46.2303 52.4813 46.3704L50.9735 49.3296L48.7997 50.0316V47.7396L51.1469 45.3924C51.2478 45.2779 51.3012 45.1293 51.2964 44.9767C51.2915 44.8242 51.2287 44.6793 51.1208 44.5714C51.0129 44.4635 50.8679 44.4008 50.7153 44.3961C50.5628 44.3913 50.4142 44.4449 50.2997 44.5458L48.7995 46.0456V44.1293C48.7995 43.9701 48.7363 43.8175 48.6238 43.705C48.5113 43.5925 48.3587 43.5293 48.1996 43.5293C48.0404 43.5293 47.8878 43.5925 47.7753 43.705C47.6628 43.8175 47.5996 43.9701 47.5996 44.1293V46.0444L46.0995 44.5445C46.0443 44.4867 45.9781 44.4406 45.9048 44.4088C45.8314 44.3771 45.7525 44.3602 45.6726 44.3594C45.5927 44.3585 45.5134 44.3736 45.4395 44.4037C45.3655 44.4339 45.2982 44.4786 45.2417 44.5351C45.1852 44.5916 45.1406 44.6588 45.1104 44.7328C45.0803 44.8068 45.0652 44.886 45.066 44.9659C45.0669 45.0458 45.0837 45.1248 45.1155 45.1981C45.1473 45.2714 45.1934 45.3376 45.2511 45.3929L47.5995 47.7395V50.0314L45.4227 49.3247L43.9149 46.3654C43.8417 46.2253 43.7161 46.1197 43.5654 46.0717C43.4147 46.0236 43.2512 46.037 43.1103 46.1088C42.9695 46.1807 42.8626 46.3052 42.8131 46.4554C42.7635 46.6056 42.7752 46.7693 42.8457 46.9108L43.8087 48.8008L41.9847 48.2092C41.9087 48.1803 41.8276 48.167 41.7463 48.1704C41.6651 48.1737 41.5853 48.1935 41.512 48.2286C41.4386 48.2637 41.3731 48.3134 41.3195 48.3746C41.2659 48.4358 41.2254 48.5072 41.2002 48.5846C41.1751 48.6619 41.166 48.7436 41.1734 48.8246C41.1808 48.9056 41.2046 48.9842 41.2434 49.0558C41.2821 49.1273 41.335 49.1902 41.3988 49.2406C41.4626 49.2911 41.536 49.328 41.6145 49.3492L43.4355 49.9402L41.5486 50.9002C41.4115 50.9751 41.3091 51.1004 41.263 51.2496C41.2169 51.3988 41.2308 51.5601 41.3017 51.6992C41.3726 51.8384 41.495 51.9444 41.6428 51.9947C41.7906 52.045 41.9523 52.0358 42.0933 51.9688L45.0496 50.4653Z" fill="#EC7216"/>
<defs>
<filter id="filter0_d_188_122" x="0.267128" y="0.215739" width="109.963" height="110.468" filterUnits="userSpaceOnUse" color-interpolation-filters="sRGB">
<feFlood flood-opacity="0" result="BackgroundImageFix"/>
<feColorMatrix in="SourceAlpha" type="matrix" values="0 0 0 0 0 0 0 0 0 0 0 0 0 0 0 0 0 0 127 0" result="hardAlpha"/>
<feOffset dy="8.95056"/>
<feGaussianBlur stdDeviation="12.8664"/>
<feComposite in2="hardAlpha" operator="out"/>
<feColorMatrix type="matrix" values="0 0 0 0 0 0 0 0 0 0 0 0 0 0 0 0 0 0 0.07 0"/>
<feBlend mode="normal" in2="BackgroundImageFix" result="effect1_dropShadow_188_122"/>
<feBlend mode="normal" in="SourceGraphic" in2="effect1_dropShadow_188_122" result="shape"/>
</filter>
</defs>
</svg>
