<svg width="36" height="36" viewBox="0 0 36 36" fill="none" xmlns="http://www.w3.org/2000/svg">
<g clip-path="url(#clip0_129_10)">
<path opacity="0.929" fill-rule="evenodd" clip-rule="evenodd" d="M35.9648 23.7258C35.9648 23.9368 35.9648 24.1477 35.9648 24.3587C35.764 24.5413 35.5297 24.6701 35.2617 24.7454C30.9961 26.2922 26.7305 27.8391 22.4648 29.386C22.2624 31.6037 21.0906 33.01 18.9492 33.6047C16.4796 33.9465 14.757 32.9738 13.7812 30.6868C13.4197 29.3908 13.5603 28.1486 14.2031 26.9602C14.4615 26.5968 14.731 26.2453 15.0117 25.9055C12.5731 19.1166 10.1004 12.3432 7.59375 5.58521C5.47286 6.38598 3.34004 7.15944 1.19531 7.90553C1.04489 7.85378 0.904261 7.78346 0.773438 7.69459C0.500098 7.00867 0.230567 6.32898 -0.0351562 5.65552C-0.0351562 5.44459 -0.0351562 5.23365 -0.0351562 5.02271C0.122411 4.87179 0.309911 4.76632 0.527344 4.70631C2.8378 3.85803 5.15811 3.03772 7.48828 2.24537C9.04521 2.1154 10.0882 2.78337 10.6172 4.24927C13.1015 11.093 15.586 17.9368 18.0703 24.7805C18.4273 24.917 18.7906 24.9638 19.1602 24.9212C17.1207 19.2954 15.0816 13.6704 13.043 8.04615C13.1206 7.74577 13.3081 7.54658 13.6055 7.44849C17.5614 6.00882 21.5223 4.59085 25.4883 3.19459C25.805 3.17116 26.0043 3.31178 26.0859 3.61646C26.4376 4.51894 26.754 5.433 27.0352 6.35865C26.9233 6.88336 26.6186 7.03569 26.1211 6.81568C25.7727 6.04028 25.4445 5.25512 25.1367 4.46021C23.9515 4.87859 22.7796 5.3239 21.6211 5.79615C21.8867 6.44469 22.1328 7.10094 22.3594 7.7649C22.4608 8.09621 22.3789 8.36572 22.1133 8.57349C21.152 8.9136 20.1911 9.25342 19.2305 9.59303C19.054 9.56961 18.9016 9.4993 18.7734 9.38209C18.4546 8.64838 18.1851 7.89835 17.9648 7.13209C17.1626 7.38001 16.3657 7.64952 15.5742 7.94068C15.1526 8.08152 14.7542 8.2573 14.3789 8.46803C15.2932 10.9531 16.2072 13.4374 17.1211 15.9212C20.6809 14.6135 24.2434 13.3127 27.8086 12.0188C27.8453 11.9794 27.8687 11.9325 27.8789 11.8782C27.4499 10.6965 27.028 9.51287 26.6133 8.3274C26.7564 7.84632 27.0612 7.69395 27.5273 7.87037C27.7021 8.09094 27.831 8.33703 27.9141 8.60865C29.5408 13.1375 31.1815 17.6609 32.8359 22.179C33.3566 21.9663 33.8839 21.7671 34.418 21.5813C34.7493 21.4798 35.0188 21.5618 35.2266 21.8274C35.4402 22.481 35.6863 23.1138 35.9648 23.7258ZM7.62891 3.33521C8.45585 3.25056 9.05351 3.57868 9.42188 4.31959C11.8924 11.1453 14.3768 17.9656 16.875 24.7805C16.9277 24.8603 16.916 24.9306 16.8398 24.9915C16.5546 25.0747 16.2851 25.1919 16.0312 25.343C13.5277 18.3947 10.9965 11.4572 8.4375 4.53052C8.25096 4.3411 8.02828 4.2825 7.76953 4.35474C5.68377 5.10073 3.59784 5.83901 1.51172 6.56959C1.45878 6.27588 1.36503 5.99463 1.23047 5.72584C3.35968 4.90681 5.4925 4.10993 7.62891 3.33521ZM20.4258 6.14771C20.5548 6.19147 20.6369 6.28522 20.6719 6.42896C20.7969 6.85115 20.9493 7.26132 21.1289 7.65943C20.6087 7.90707 20.0696 8.10634 19.5117 8.25709C19.3362 7.74289 19.1839 7.22722 19.0547 6.71021C19.5204 6.52806 19.9774 6.34056 20.4258 6.14771ZM28.2305 13.0383C29.4694 16.192 30.6413 19.3795 31.7461 22.6008C28.2781 23.8076 24.8212 25.0498 21.375 26.3274C21.1414 26.1409 20.907 25.9533 20.6719 25.7649C19.6328 22.835 18.5664 19.917 17.4727 17.011C18.6418 16.5705 19.8137 16.1369 20.9883 15.7102C21.2682 16.3269 21.5143 16.9597 21.7266 17.6087C21.821 18.0598 22.0905 18.2356 22.5352 18.136C23.4781 17.7983 24.4156 17.4467 25.3477 17.0813C25.4649 16.9531 25.5352 16.8008 25.5586 16.6243C25.3079 15.8837 25.05 15.1455 24.7852 14.4094C24.8086 14.3743 24.8321 14.3391 24.8555 14.304C25.9928 13.8939 27.1178 13.472 28.2305 13.0383ZM23.5898 14.7258C23.6599 14.7237 23.7068 14.7589 23.7305 14.8313C23.8807 15.3054 24.0447 15.7741 24.2227 16.2376C24.1942 16.304 24.1473 16.3509 24.082 16.3782C23.6147 16.5498 23.146 16.6904 22.6758 16.8001C22.4817 16.3235 22.2942 15.8431 22.1133 15.3587C22.6044 15.1329 23.0966 14.9219 23.5898 14.7258ZM34.2773 22.8118C34.3474 22.8097 34.3943 22.8448 34.418 22.9172C34.491 23.1716 34.5848 23.4177 34.6992 23.6555C30.5961 25.2139 26.471 26.7373 22.3242 28.2258C22.2346 27.9335 22.1174 27.6523 21.9727 27.3821C22.0096 27.3334 22.0565 27.2983 22.1133 27.2766C26.183 25.807 30.2377 24.3187 34.2773 22.8118ZM17.6836 25.9758C20.1275 26.111 21.3111 27.4002 21.2344 29.843C20.8863 31.3396 19.9605 32.2419 18.457 32.5501C16.8029 32.6663 15.6193 31.9748 14.9062 30.4758C14.3686 28.5494 14.9897 27.1314 16.7695 26.2219C17.0802 26.1269 17.3849 26.0448 17.6836 25.9758ZM17.8242 28.7883C18.5123 28.9001 18.6295 29.2165 18.1758 29.7376C17.6565 29.8041 17.4573 29.5815 17.5781 29.0696C17.6556 28.9677 17.7377 28.874 17.8242 28.7883Z" fill="#EC7216"/>
<path opacity="0.926" fill-rule="evenodd" clip-rule="evenodd" d="M17.6836 27.6631C19.0291 27.6843 19.6502 28.3639 19.5469 29.7021C19.2281 30.6178 18.5836 31.0045 17.6133 30.8623C16.8325 30.6263 16.4107 30.0989 16.3477 29.2803C16.4481 28.4419 16.8934 27.9029 17.6836 27.6631ZM17.8242 28.7881C17.7377 28.8737 17.6556 28.9675 17.5781 29.0693C17.4573 29.5812 17.6565 29.8039 18.1758 29.7373C18.6295 29.2162 18.5123 28.8998 17.8242 28.7881Z" fill="#EC7216"/>
</g>
<defs>
<clipPath id="clip0_129_10">
<rect width="36" height="36" fill="white" transform="translate(0 -0.00488281)"/>
</clipPath>
</defs>
</svg>
