<svg width="72" height="66" viewBox="0 0 72 66" fill="none" xmlns="http://www.w3.org/2000/svg">
<mask id="path-1-outside-1_173_17" maskUnits="userSpaceOnUse" x="0" y="43" width="72" height="23" fill="black">
<rect fill="white" y="43" width="72" height="23"/>
<path d="M2 43H70V64H2V43Z"/>
</mask>
<path d="M70 64V66H72V64H70ZM2 64H0V66H2V64ZM68 43V64H72V43H68ZM70 62H2V66H70V62ZM4 64V43H0V64H4Z" fill="#EC7216" mask="url(#path-1-outside-1_173_17)"/>
<circle cx="71" cy="40" r="1" fill="#001C34"/>
<circle cx="1" cy="40" r="1" fill="#001C34"/>
<rect x="6" width="60" height="60" rx="8" fill="#EC7216"/>
<g clip-path="url(#clip0_173_17)">
<path d="M46.371 20.2056H25.6288V30.5767H46.371V20.2056ZM35.4233 29.4235H26.7819V21.3587H35.4233V29.4235ZM45.2179 29.4235H36.5765V21.3587H45.2179V29.4235ZM27.9351 35.1821C26.346 35.1821 25.0522 36.4759 25.0522 38.0649C25.0522 39.654 26.346 40.9478 27.9351 40.9478C29.5241 40.9478 30.8179 39.654 30.8179 38.0649C30.8179 36.4759 29.5241 35.1821 27.9351 35.1821ZM27.9351 39.7946C26.9788 39.7946 26.2054 39.0212 26.2054 38.0649C26.2054 37.1087 26.9788 36.3353 27.9351 36.3353C28.8913 36.3353 29.6647 37.1087 29.6647 38.0649C29.6647 39.0212 28.8843 39.7946 27.9351 39.7946ZM44.0647 35.1821C42.4757 35.1821 41.1819 36.4759 41.1819 38.0649C41.1819 39.654 42.4757 40.9478 44.0647 40.9478C45.6538 40.9478 46.9476 39.654 46.9476 38.0649C46.9476 36.4759 45.6538 35.1821 44.0647 35.1821ZM44.0647 39.7946C43.1085 39.7946 42.3351 39.0212 42.3351 38.0649C42.3351 37.1087 43.1085 36.3353 44.0647 36.3353C45.021 36.3353 45.7944 37.1087 45.7944 38.0649C45.7944 39.0212 45.021 39.7946 44.0647 39.7946ZM31.964 40.3712H40.0288V35.7657H31.964V40.3712ZM33.1171 36.9118H38.8827V39.2181H33.1171V36.9118Z" fill="white"/>
<path d="M53.2829 30.5766V22.5117H49.8235V21.6117C49.8235 18.6164 47.7634 16.0641 44.8103 15.4102C43.8048 15.1852 42.7853 15.0164 41.7587 14.8758V13.8703C41.7587 12.9141 40.9853 12.1406 40.029 12.1406H31.9642C31.0079 12.1406 30.2345 12.9141 30.2345 13.8703V14.8687C29.2149 15.0164 28.1954 15.1852 27.1829 15.4031C24.2298 16.057 22.1696 18.6094 22.1696 21.6047V22.5047H18.7173V30.5695H22.1767V35.2945C22.1767 35.7516 21.9517 36.1734 21.572 36.4266C20.8688 36.8977 20.454 37.6781 20.454 38.5219V42.0938C20.454 43.6828 21.7478 44.9766 23.3368 44.9766H23.9134V46.1297C23.9134 47.0859 24.6868 47.8594 25.6431 47.8594H27.9493C28.9056 47.8594 29.679 47.0859 29.679 46.1297V44.9766H42.3563V46.1297C42.3563 47.0859 43.1298 47.8594 44.086 47.8594H46.3923C47.3485 47.8594 48.122 47.0859 48.122 46.1297V44.9766H48.6985C50.2876 44.9766 51.5813 43.6828 51.5813 42.0938V38.5219C51.5813 37.6781 51.1595 36.8977 50.4634 36.4266C50.0837 36.1734 49.8587 35.7516 49.8587 35.2945V30.5695H53.2829V30.5766ZM49.8235 23.6648H52.1298V29.4234H49.8235V23.6648ZM31.3946 13.8703C31.3946 13.5539 31.6548 13.2937 31.9712 13.2937H40.036C40.3524 13.2937 40.6126 13.5539 40.6126 13.8703V14.7141C37.554 14.3695 34.4532 14.3695 31.3946 14.7141V13.8703ZM19.8704 29.4234V23.6648H22.1767V29.4234H19.8704ZM28.5118 46.1297C28.5118 46.4461 28.2517 46.7062 27.9353 46.7062H25.629C25.3126 46.7062 25.0524 46.4461 25.0524 46.1297V44.9766H28.5118V46.1297ZM46.9478 46.1297C46.9478 46.4461 46.6876 46.7062 46.3712 46.7062H44.0649C43.7485 46.7062 43.4884 46.4461 43.4884 46.1297V44.9766H46.9478V46.1297ZM50.4001 38.5289V42.1008C50.4001 43.057 49.6267 43.8305 48.6704 43.8305H23.3228C22.3665 43.8305 21.5931 43.057 21.5931 42.1008V38.5289C21.5931 38.0719 21.8181 37.65 22.1978 37.3969C22.9009 36.9258 23.3157 36.1453 23.3157 35.3016V21.6047C23.3157 19.1508 25.0103 17.0625 27.429 16.5281C30.2345 15.9094 33.1173 15.593 35.9931 15.593C38.8688 15.593 41.7517 15.9094 44.5571 16.5281C46.9759 17.0625 48.6704 19.1508 48.6704 21.6047V35.2945C48.6704 36.1383 49.0923 36.9188 49.7884 37.3898C50.1751 37.643 50.4001 38.0719 50.4001 38.5289Z" fill="white"/>
</g>
<defs>
<clipPath id="clip0_173_17">
<rect width="36" height="36" fill="white" transform="translate(18 12)"/>
</clipPath>
</defs>
</svg>
