<svg width="60" height="60" viewBox="0 0 60 60" fill="none" xmlns="http://www.w3.org/2000/svg">
<g clip-path="url(#clip0_4016_2057)">
<path opacity="0.906" fill-rule="evenodd" clip-rule="evenodd" d="M21.1523 0.761719C22.6758 0.761719 24.1992 0.761719 25.7227 0.761719C24.6089 3.84881 23.437 6.91522 22.207 9.96094C25.4126 9.92675 28.6157 9.94629 31.8164 10.0195C32.0775 9.93532 32.2923 9.77906 32.4609 9.55078C33.0273 8.8086 33.5938 8.0664 34.1602 7.32422C35.293 7.16797 36.4257 7.16797 37.5586 7.32422C36.8236 8.75518 36.1205 10.2005 35.4492 11.6602C36.0261 11.983 36.5535 12.3736 37.0313 12.832C37.1238 13.1993 37.0848 13.5509 36.9141 13.8867C36.4556 14.2431 35.9673 14.5556 35.4492 14.8242C36.2507 16.3093 36.9538 17.8328 37.5586 19.3945C36.4642 19.414 35.3704 19.3945 34.2773 19.3359C33.5903 18.5278 32.9457 17.6879 32.3438 16.8164C32.2317 16.653 32.0755 16.5749 31.875 16.582C28.6939 16.6968 25.5103 16.7358 22.3242 16.6992C23.4529 19.7576 24.6638 22.785 25.957 25.7812C24.3996 25.9873 22.8372 26.0067 21.2695 25.8398C19.1602 22.832 17.0508 19.8243 14.9414 16.8164C11.9382 16.955 9.34057 16.0175 7.14844 14.0039C7.07031 13.6133 7.07031 13.2226 7.14844 12.832C8.55919 11.4136 10.2584 10.5347 12.2461 10.1953C13.1439 10.0928 14.0422 9.99516 14.9414 9.90234C17.0147 6.85337 19.085 3.8065 21.1523 0.761719ZM21.9727 2.05078C22.5989 2.03133 23.2239 2.05085 23.8477 2.10938C22.797 4.73452 21.7813 7.37123 20.8008 10.0195C19.3939 10.039 17.9877 10.0195 16.582 9.96094C18.3946 7.331 20.1914 4.69429 21.9727 2.05078ZM34.9805 8.49609C35.1414 8.47773 35.2977 8.49727 35.4492 8.55469C35.0116 9.41081 34.5625 10.2507 34.1016 11.0742C33.8797 10.9926 33.6649 10.895 33.457 10.7812C33.3456 10.6972 33.3261 10.5995 33.3984 10.4883C33.9832 9.86334 34.5105 9.19928 34.9805 8.49609ZM13.8867 11.3086C19.7462 11.2891 25.6056 11.3086 31.4648 11.3672C32.7703 11.9222 34.0204 12.5667 35.2148 13.3008C34.0039 13.9453 32.7929 14.5898 31.582 15.2344C25.45 15.3963 19.3172 15.4354 13.1836 15.3516C11.4499 15.1718 9.9265 14.5273 8.61328 13.418C9.53724 12.5372 10.631 11.9513 11.8945 11.6602C12.5713 11.5195 13.2354 11.4023 13.8867 11.3086ZM34.043 15.4102C34.5531 16.2143 35.0218 17.0542 35.4492 17.9297C35.293 18.0079 35.1367 18.0079 34.9805 17.9297C34.4336 17.2656 33.8868 16.6016 33.3398 15.9375C33.6032 15.7879 33.8375 15.6121 34.043 15.4102ZM16.582 16.8164C17.9695 16.6611 19.3758 16.6611 20.8008 16.8164C21.8404 19.3834 22.895 21.9421 23.9648 24.4922C23.2973 24.5895 22.6332 24.5699 21.9727 24.4336C20.202 21.8661 18.4051 19.327 16.582 16.8164Z" fill="#EC7216"/>
<path opacity="0.866" fill-rule="evenodd" clip-rule="evenodd" d="M38.6133 9.78516C39.8289 10.2563 40.9617 10.8813 42.0117 11.6602C41.7795 12.048 41.5061 12.3996 41.1914 12.7148C40.1455 12.0956 39.1298 11.4511 38.1445 10.7812C38.2864 10.4391 38.4427 10.107 38.6133 9.78516Z" fill="#EC7216"/>
<path opacity="0.882" fill-rule="evenodd" clip-rule="evenodd" d="M15.0586 12.7148C15.6055 12.7148 16.1523 12.7148 16.6992 12.7148C16.6992 13.1446 16.6992 13.5742 16.6992 14.0039C16.1523 14.0039 15.6055 14.0039 15.0586 14.0039C15.0586 13.5742 15.0586 13.1446 15.0586 12.7148Z" fill="#EC7216"/>
<path opacity="0.937" fill-rule="evenodd" clip-rule="evenodd" d="M18.3398 12.7148C19.9805 12.7148 21.6211 12.7148 23.2617 12.7148C23.2527 13.1502 23.2917 13.5798 23.3789 14.0039C21.6993 14.0039 20.0195 14.0039 18.3398 14.0039C18.3398 13.5742 18.3398 13.1446 18.3398 12.7148Z" fill="#EC7216"/>
<path opacity="0.846" fill-rule="evenodd" clip-rule="evenodd" d="M44.707 14.004C44.8303 13.9865 44.9475 14.006 45.0586 14.0626C45.9654 14.8909 46.7857 15.7892 47.5195 16.7579C47.1809 17.1208 46.7902 17.3552 46.3477 17.461C45.6287 16.6248 44.867 15.824 44.0625 15.0587C44.152 14.6477 44.367 14.2961 44.707 14.004Z" fill="#EC7216"/>
<path opacity="0.771" fill-rule="evenodd" clip-rule="evenodd" d="M8.37891 16.2305C8.76243 16.4571 9.11399 16.7306 9.43359 17.0508C9.29289 17.3331 9.09757 17.5675 8.84766 17.7539C8.47972 17.5227 8.12816 17.2687 7.79297 16.9922C7.96867 16.7194 8.16398 16.4654 8.37891 16.2305Z" fill="#EC7216"/>
<path opacity="0.862" fill-rule="evenodd" clip-rule="evenodd" d="M49.2773 19.8632C49.4505 19.8325 49.6068 19.8715 49.7461 19.9804C50.3524 21.0754 50.8603 22.2082 51.2695 23.3788C50.8814 23.4366 50.5103 23.5538 50.1562 23.7304C49.5773 22.6705 49.011 21.5963 48.457 20.5077C48.7349 20.2916 49.0084 20.0768 49.2773 19.8632Z" fill="#EC7216"/>
<path opacity="0.866" fill-rule="evenodd" clip-rule="evenodd" d="M5.68359 20.0977C6.16025 20.1601 6.55087 20.3749 6.85547 20.7422C6.30401 21.786 5.83526 22.8601 5.44922 23.9648C4.93332 23.9246 4.50364 23.7293 4.16016 23.3789C4.6052 22.2545 5.11301 21.1608 5.68359 20.0977Z" fill="#EC7216"/>
<path opacity="0.921" fill-rule="evenodd" clip-rule="evenodd" d="M11.7773 26.0742C13.1446 26.0742 14.5117 26.0742 15.8789 26.0742C15.7772 27.5598 15.66 29.0442 15.5273 30.5273C15.2148 30.5273 14.9024 30.5273 14.5898 30.5273C14.5898 31.1133 14.5898 31.6992 14.5898 32.2852C14.275 32.2659 13.9624 32.2855 13.6523 32.3438C13.3194 32.8727 13.4757 33.1071 14.1211 33.0469C14.1993 32.9297 14.2773 32.8125 14.3555 32.6953C14.7834 32.6368 15.213 32.6174 15.6445 32.6367C15.6725 32.8672 15.6335 33.0821 15.5273 33.2812C19.1157 36.0491 22.6704 38.8616 26.1914 41.7188C26.4816 42.02 26.8331 42.1958 27.2461 42.2461C27.2461 47.8711 27.2461 53.4961 27.2461 59.1211C18.3398 59.1211 9.43359 59.1211 0.527344 59.1211C0.527344 53.4961 0.527344 47.8711 0.527344 42.2461C0.962946 42.1257 1.35357 41.9108 1.69922 41.6016C5.15625 38.8477 8.61328 36.0938 12.0703 33.3398C11.9427 32.3694 12.2748 31.6271 13.0664 31.1133C13.178 30.9322 13.217 30.7369 13.1836 30.5273C12.8711 30.5273 12.5586 30.5273 12.2461 30.5273C12.1051 29.0393 11.9489 27.5549 11.7773 26.0742ZM13.3008 27.3633C13.6914 27.3633 14.0821 27.3633 14.4727 27.3633C14.3966 27.9066 14.338 28.4534 14.2969 29.0039C14.0179 29.1135 13.7249 29.1525 13.418 29.1211C13.4047 28.533 13.3656 27.9471 13.3008 27.3633ZM13.0664 34.2773C13.594 34.5834 14.1213 34.5834 14.6484 34.2773C17.9563 36.9564 21.2961 39.5931 24.668 42.1875C24.005 42.246 23.3409 42.2655 22.6758 42.2461C22.6758 42.8711 22.6758 43.4961 22.6758 44.1211C22.0898 44.1211 21.5039 44.1211 20.918 44.1211C20.9994 43.2977 20.8627 42.5164 20.5078 41.7773C19.375 40.6836 18.2422 40.6836 17.1094 41.7773C17.0312 41.9336 16.9532 42.0899 16.875 42.2461C16.8165 42.8699 16.797 43.4948 16.8164 44.1211C14.8632 44.1211 12.9102 44.1211 10.957 44.1211C11.0601 43.2529 10.9233 42.4325 10.5469 41.6602C9.72778 40.8964 8.80982 40.7597 7.79297 41.25C6.92449 42.0055 6.612 42.9626 6.85547 44.1211C6.26953 44.1211 5.68359 44.1211 5.09766 44.1211C5.09766 43.4961 5.09766 42.8711 5.09766 42.2461C4.43245 42.2655 3.76839 42.246 3.10547 42.1875C6.44771 39.5667 9.76803 36.93 13.0664 34.2773ZM8.73047 42.2461C9.03505 42.2518 9.28896 42.369 9.49219 42.5977C9.65243 43.0898 9.71102 43.5976 9.66797 44.1211C9.19922 44.1211 8.73047 44.1211 8.26172 44.1211C8.2423 43.6118 8.26184 43.104 8.32031 42.5977C8.4545 42.4645 8.59122 42.3473 8.73047 42.2461ZM18.6914 42.2461C19.0117 42.2986 19.2655 42.4548 19.4531 42.7148C19.5116 43.182 19.5312 43.6507 19.5117 44.1211C19.043 44.1211 18.5742 44.1211 18.1055 44.1211C18.086 43.6507 18.1056 43.182 18.1641 42.7148C18.3278 42.5309 18.5036 42.3745 18.6914 42.2461ZM1.81641 43.5352C2.4414 43.5352 3.06641 43.5352 3.69141 43.5352C3.69141 44.1993 3.69141 44.8632 3.69141 45.5273C10.4492 45.5273 17.207 45.5273 23.9648 45.5273C23.9648 44.8632 23.9648 44.1993 23.9648 43.5352C24.6289 43.5352 25.2929 43.5352 25.957 43.5352C25.957 48.3008 25.957 53.0664 25.957 57.832C17.9101 57.832 9.86329 57.832 1.81641 57.832C1.81641 53.0664 1.81641 48.3008 1.81641 43.5352Z" fill="#EC7216"/>
<path opacity="0.866" fill-rule="evenodd" clip-rule="evenodd" d="M51.9727 26.7773C52.1289 26.7773 52.2852 26.7773 52.4414 26.7773C52.623 27.7889 52.7793 28.8045 52.9102 29.8242C52.4436 29.8853 51.9749 29.9243 51.5039 29.9414C51.4676 28.9615 51.3113 28.0044 51.0352 27.0703C51.3725 27.0063 51.6851 26.9087 51.9727 26.7773Z" fill="#EC7216"/>
<path opacity="0.874" fill-rule="evenodd" clip-rule="evenodd" d="M2.98828 27.0117C3.46321 27.0989 3.93196 27.2161 4.39453 27.3633C4.11043 28.56 3.91513 29.771 3.80859 30.9961C3.38259 30.9241 2.9529 30.885 2.51953 30.8789C2.61004 29.5814 2.76629 28.2923 2.98828 27.0117Z" fill="#EC7216"/>
<path opacity="0.919" fill-rule="evenodd" clip-rule="evenodd" d="M37.7925 30.293C44.98 30.293 52.1675 30.293 59.355 30.293C59.355 35.2539 59.355 40.2149 59.355 45.1758C58.5347 45.1758 57.7144 45.1758 56.8941 45.1758C56.5604 46.5434 55.6815 47.2465 54.2573 47.2852C52.9539 47.1721 52.075 46.508 51.6206 45.293C50.2144 45.1368 48.8081 45.1368 47.4019 45.293C46.7333 46.9554 45.5224 47.5609 43.7691 47.1094C42.9141 46.7818 42.3673 46.1763 42.1284 45.293C40.4488 45.1368 38.769 45.1368 37.0894 45.293C36.7132 46.5485 35.8733 47.2125 34.5698 47.2852C33.198 47.2215 32.3973 46.5184 32.1675 45.1758C31.6597 45.1758 31.1518 45.1758 30.6441 45.1758C30.6245 42.9879 30.6441 40.8005 30.7027 38.6133C31.523 37.1289 32.3433 35.6446 33.1636 34.1602C34.6972 34.0443 36.2402 34.0051 37.7925 34.043C37.7925 32.7929 37.7925 31.543 37.7925 30.293ZM39.0816 31.6992C45.4097 31.6992 51.7378 31.6992 58.0659 31.6992C58.0659 35.7618 58.0659 39.8242 58.0659 43.8867C57.6753 43.8867 57.2846 43.8867 56.8941 43.8867C56.3297 42.1781 55.1578 41.5336 53.3784 41.9531C52.5349 42.3083 51.949 42.9138 51.6206 43.7695C50.2144 43.9257 48.8081 43.9257 47.4019 43.7695C46.4946 41.846 45.0884 41.3577 43.1831 42.3047C42.6723 42.6833 42.3207 43.1715 42.1284 43.7695C41.1158 43.8865 40.1002 43.9255 39.0816 43.8867C39.0816 39.8242 39.0816 35.7618 39.0816 31.6992ZM34.0425 35.332C35.2925 35.332 36.5425 35.332 37.7925 35.332C37.7925 36.3086 37.7925 37.2852 37.7925 38.2617C36.0329 38.3007 34.2751 38.2616 32.5191 38.1445C33.0894 37.2381 33.5972 36.3006 34.0425 35.332ZM31.9331 39.5508C33.8863 39.5508 35.8393 39.5508 37.7925 39.5508C37.7925 40.9961 37.7925 42.4414 37.7925 43.8867C37.5163 43.9058 37.2429 43.8864 36.9722 43.8281C36.0548 42.2334 34.7658 41.8427 33.105 42.6562C32.7185 42.945 32.445 43.316 32.2847 43.7695C32.188 43.8734 32.0708 43.9124 31.9331 43.8867C31.9331 42.4414 31.9331 40.9961 31.9331 39.5508ZM44.355 43.1836C45.6806 43.1225 46.2471 43.7475 46.0542 45.0586C45.6648 45.8095 45.0594 46.0635 44.2378 45.8203C43.3659 45.2786 43.1902 44.556 43.7105 43.6523C43.9228 43.4793 44.1376 43.323 44.355 43.1836ZM53.8472 43.1836C55.179 43.1283 55.7455 43.7534 55.5464 45.0586C55.157 45.8095 54.5516 46.0635 53.73 45.8203C52.875 45.2675 52.6992 44.5448 53.2027 43.6523C53.415 43.4793 53.6298 43.323 53.8472 43.1836ZM34.3941 43.5352C35.6236 43.729 35.9946 44.393 35.5073 45.5273C34.72 46.0785 34.056 45.9613 33.5152 45.1758C33.3291 44.3671 33.622 43.8202 34.3941 43.5352Z" fill="#EC7216"/>
<path opacity="0.939" fill-rule="evenodd" clip-rule="evenodd" d="M41.7773 33.457C42.2071 33.457 42.6367 33.457 43.0664 33.457C43.0664 35.4882 43.0664 37.5196 43.0664 39.5508C42.6367 39.5508 42.2071 39.5508 41.7773 39.5508C41.7773 37.5196 41.7773 35.4882 41.7773 33.457Z" fill="#EC7216"/>
<path opacity="0.939" fill-rule="evenodd" clip-rule="evenodd" d="M45.8789 33.457C46.3086 33.457 46.7382 33.457 47.168 33.457C47.168 35.4882 47.168 37.5196 47.168 39.5508C46.7382 39.5508 46.3086 39.5508 45.8789 39.5508C45.8789 37.5196 45.8789 35.4882 45.8789 33.457Z" fill="#EC7216"/>
<path opacity="0.939" fill-rule="evenodd" clip-rule="evenodd" d="M49.9805 33.457C50.4102 33.457 50.8398 33.457 51.2695 33.457C51.2695 35.4882 51.2695 37.5196 51.2695 39.5508C50.8398 39.5508 50.4102 39.5508 49.9805 39.5508C49.9805 37.5196 49.9805 35.4882 49.9805 33.457Z" fill="#EC7216"/>
<path opacity="0.861" fill-rule="evenodd" clip-rule="evenodd" d="M54.082 33.457C54.5508 33.457 55.0195 33.457 55.4883 33.457C55.4883 35.4882 55.4883 37.5196 55.4883 39.5508C55.0195 39.5508 54.5508 39.5508 54.082 39.5508C54.082 37.5196 54.082 35.4882 54.082 33.457Z" fill="#EC7216"/>
<path opacity="0.873" fill-rule="evenodd" clip-rule="evenodd" d="M3.45703 34.3945C3.61196 34.3745 3.74868 34.4136 3.86719 34.5116C3.99402 35.7316 4.1698 36.9425 4.39453 38.1445C3.99496 38.1775 3.60434 38.2557 3.22266 38.3788C2.82464 37.124 2.59027 35.8349 2.51953 34.5116C2.85766 34.5475 3.17017 34.5085 3.45703 34.3945Z" fill="#EC7216"/>
<path opacity="0.932" fill-rule="evenodd" clip-rule="evenodd" d="M3.92578 47.4023C4.35547 47.4023 4.78515 47.4023 5.21484 47.4023C5.21484 50.2148 5.21484 53.0273 5.21484 55.8398C4.78515 55.8398 4.35547 55.8398 3.92578 55.8398C3.92578 53.0273 3.92578 50.2148 3.92578 47.4023Z" fill="#EC7216"/>
<path opacity="0.932" fill-rule="evenodd" clip-rule="evenodd" d="M7.67578 47.4023C8.10547 47.4023 8.53515 47.4023 8.96484 47.4023C8.96484 50.2148 8.96484 53.0273 8.96484 55.8398C8.53515 55.8398 8.10547 55.8398 7.67578 55.8398C7.67578 53.0273 7.67578 50.2148 7.67578 47.4023Z" fill="#EC7216"/>
<path opacity="0.854" fill-rule="evenodd" clip-rule="evenodd" d="M11.3086 47.4023C11.7773 47.4023 12.2461 47.4023 12.7148 47.4023C12.7148 50.2148 12.7148 53.0273 12.7148 55.8398C12.2461 55.8398 11.7773 55.8398 11.3086 55.8398C11.3086 53.0273 11.3086 50.2148 11.3086 47.4023Z" fill="#EC7216"/>
<path opacity="0.932" fill-rule="evenodd" clip-rule="evenodd" d="M15.0586 47.4023C15.4883 47.4023 15.9179 47.4023 16.3477 47.4023C16.3477 50.2148 16.3477 53.0273 16.3477 55.8398C15.9179 55.8398 15.4883 55.8398 15.0586 55.8398C15.0586 53.0273 15.0586 50.2148 15.0586 47.4023Z" fill="#EC7216"/>
<path opacity="0.932" fill-rule="evenodd" clip-rule="evenodd" d="M18.8086 47.4023C19.2383 47.4023 19.6679 47.4023 20.0977 47.4023C20.0977 50.2148 20.0977 53.0273 20.0977 55.8398C19.6679 55.8398 19.2383 55.8398 18.8086 55.8398C18.8086 53.0273 18.8086 50.2148 18.8086 47.4023Z" fill="#EC7216"/>
<path opacity="0.854" fill-rule="evenodd" clip-rule="evenodd" d="M22.4414 47.4023C22.9102 47.4023 23.3789 47.4023 23.8477 47.4023C23.8477 50.2148 23.8477 53.0273 23.8477 55.8398C23.3789 55.8398 22.9102 55.8398 22.4414 55.8398C22.4414 53.0273 22.4414 50.2148 22.4414 47.4023Z" fill="#EC7216"/>
<path opacity="0.866" fill-rule="evenodd" clip-rule="evenodd" d="M46.4648 47.4023C46.8896 47.6157 47.2802 47.8893 47.6367 48.2227C46.8172 49.2374 45.9188 50.1749 44.9414 51.0352C44.6692 50.7274 44.3957 50.4149 44.1211 50.0977C44.9925 49.2662 45.7737 48.3677 46.4648 47.4023Z" fill="#EC7216"/>
<path opacity="0.862" fill-rule="evenodd" clip-rule="evenodd" d="M41.1914 52.3242C41.621 52.533 41.9334 52.865 42.1289 53.3203C41.1029 54.1648 39.9702 54.7897 38.7305 55.1953C38.4724 54.8576 38.3357 54.4864 38.3203 54.082C39.3338 53.5666 40.2908 52.9807 41.1914 52.3242Z" fill="#EC7216"/>
<path opacity="0.874" fill-rule="evenodd" clip-rule="evenodd" d="M34.8633 55.3711C35.0796 55.6985 35.2359 56.0696 35.332 56.4844C35.315 56.5748 35.276 56.653 35.2148 56.7188C34.0376 57.0868 32.8463 57.3798 31.6406 57.5977C31.5427 57.1438 31.445 56.6945 31.3477 56.25C32.5611 56.0638 33.733 55.7708 34.8633 55.3711Z" fill="#EC7216"/>
</g>
<defs>
<clipPath id="clip0_4016_2057">
<rect width="60" height="60" fill="white"/>
</clipPath>
</defs>
</svg>
