<svg width="60" height="60" viewBox="0 0 60 60" fill="none" xmlns="http://www.w3.org/2000/svg">
<g clip-path="url(#clip0_4016_2033)">
<path opacity="0.923" fill-rule="evenodd" clip-rule="evenodd" d="M31.8164 2.05086C41.1762 1.70132 48.4614 5.37319 53.6719 13.0665C57.7071 20.0822 58.215 27.3478 55.1953 34.8634C54.7992 35.6751 54.3891 36.4759 53.9648 37.2657C55.3211 41.3931 56.5711 45.5532 57.7148 49.7462C58.0623 49.9964 58.3553 50.3089 58.5938 50.6837C58.8527 51.5588 58.8137 52.4182 58.4766 53.2618C58.311 53.4861 58.0961 53.6423 57.832 53.7306C57.7686 54.1095 57.6124 54.4415 57.3633 54.7266C56.4743 54.8558 55.5759 54.9535 54.668 55.0196C53.3025 57.3839 51.2713 58.2628 48.5742 57.6563C47.1601 57.1797 46.1054 56.2813 45.4102 54.961C42.7539 54.922 40.0977 54.8829 37.4414 54.8438C36.9287 54.6445 36.7334 54.2735 36.8555 53.7306C36.0342 53.7111 35.2139 53.7306 34.3945 53.7891C34.0443 54.7266 33.3802 55.3126 32.4023 55.547C29.3945 55.6251 26.3868 55.6251 23.3789 55.547C22.4377 55.3283 21.8127 54.7619 21.5039 53.8477C20.6472 53.7112 19.7878 53.6918 18.9258 53.7891C17.7891 57.151 15.4843 58.4011 12.0117 57.5391C10.2909 56.8152 9.23624 55.5456 8.84766 53.7306C7.90935 53.75 6.97185 53.7306 6.03516 53.672C4.45313 52.4805 2.8711 51.2892 1.28907 50.0977C1.21094 42.4024 1.21094 34.7072 1.28907 27.0118C1.38672 26.9142 1.48438 26.8165 1.58203 26.7188C3.30211 26.6993 5.02087 26.6407 6.73828 26.5431C5.86323 24.9103 5.2187 23.1915 4.80469 21.3868C4.6838 16.9217 6.81271 14.246 11.1914 13.3595C12.0144 13.3129 12.8347 13.3129 13.6523 13.3595C17.912 6.73597 23.9667 2.96644 31.8164 2.05086ZM32.0508 3.5743C32.872 3.55481 33.6923 3.57435 34.5117 3.63289C34.1406 4.00399 33.7696 4.37508 33.3984 4.74618C32.6479 5.64558 32.7064 6.48543 33.5742 7.26571C36.5036 8.5553 37.8902 10.8014 37.7344 14.004C37.3927 15.3102 36.5333 15.8961 35.1562 15.7618C33.4962 15.6013 31.836 15.4449 30.1758 15.2931C29.2964 15.2927 28.4761 15.5076 27.7148 15.9376C27.245 16.4075 26.9521 16.9739 26.8359 17.6368C26.71 18.8321 26.4756 20.004 26.1328 21.1524C25.7476 21.8048 25.1811 22.215 24.4336 22.3829C22.648 22.648 20.8512 22.7457 19.043 22.6759C19.9078 18.8009 18.6188 15.8907 15.1758 13.9454C19.1501 7.8356 24.7751 4.37857 32.0508 3.5743ZM36.7383 3.80868C42.6264 4.66157 47.392 7.41547 51.0352 12.0704C50.4751 12.0198 49.9086 11.9612 49.3359 11.8946C48.4739 11.857 47.7708 12.1695 47.2266 12.8321C46.8061 13.5557 46.4154 14.298 46.0547 15.0587C45.1979 15.9911 44.4558 17.0068 43.8281 18.1056C43.5588 19.0992 43.7541 19.9977 44.4141 20.8009C45.2223 21.599 45.8864 22.4975 46.4062 23.4962C46.4844 23.8477 46.4844 24.1993 46.4062 24.5509C45.8545 25.991 45.4834 27.4754 45.293 29.004C45.3521 29.4779 45.4302 29.9466 45.5273 30.4102C44.7882 30.5466 44.046 30.5662 43.3008 30.4688C44.3636 28.6659 44.2073 26.9861 42.832 25.4298C41.5242 24.5698 40.0788 24.1597 38.4961 24.1993C36.6686 24.2484 34.9107 24.6195 33.2227 25.3126C32.5569 25.6844 31.932 26.114 31.3477 26.6016C26.6994 26.6602 22.0509 26.6798 17.4023 26.6602C17.7286 25.7732 18.1193 24.9138 18.5742 24.0821C20.1314 24.2166 21.6939 24.2362 23.2617 24.1407C24.8161 24.1182 26.1247 23.5517 27.1875 22.4415C27.3734 22.1872 27.5297 21.9137 27.6563 21.6212C27.9882 20.4307 28.2226 19.2197 28.3594 17.9884C28.6153 17.1357 29.2013 16.7451 30.1172 16.8165C31.9673 17.0582 33.8229 17.1949 35.6836 17.2266C38.1267 17.0684 39.3376 15.7598 39.3164 13.3009C39.2804 11.0225 38.4601 9.08892 36.8555 7.50008C36.0875 6.94591 35.3063 6.41857 34.5117 5.91805C35.1854 5.12671 35.9277 4.42358 36.7383 3.80868ZM48.9258 13.4181C50.1683 13.4797 51.3598 13.7532 52.5 14.2384C55.9182 20.218 56.5042 26.4681 54.2578 32.9884C53.9612 33.855 53.5706 34.6753 53.0859 35.4493C52.2227 33.8053 51.0313 32.4576 49.5117 31.4063C48.7778 30.986 47.9966 30.693 47.168 30.5274C47.0174 30.0037 46.9002 29.4764 46.8164 28.9454C47.1136 27.5449 47.4847 26.1581 47.9297 24.7852C48.0777 23.8866 47.9605 23.0273 47.5781 22.2071C46.9984 21.3225 46.3343 20.5022 45.5859 19.7462C45.2044 19.2073 45.2044 18.6606 45.5859 18.1056C46.7992 16.8906 47.7367 15.4843 48.3984 13.8868C48.5621 13.7028 48.7379 13.5465 48.9258 13.4181ZM11.8945 14.8243C15.4352 15.1293 17.4274 17.0434 17.8711 20.5665C17.6455 22.044 17.1963 23.4502 16.5234 24.7852C15.1579 27.5172 13.6736 30.1734 12.0703 32.754C9.86699 29.4415 8.03105 25.9258 6.5625 22.2071C5.88224 19.0897 6.95645 16.8045 9.78516 15.3516C10.4759 15.0621 11.1791 14.8863 11.8945 14.8243ZM38.2617 25.7227C39.3615 25.7232 40.4162 25.938 41.4258 26.3673C42.565 27.1982 42.7798 28.2334 42.0703 29.4727C41.8555 29.8439 41.5625 30.1368 41.1914 30.3516C40.2669 30.5198 39.3294 30.5784 38.3789 30.5274C38.3984 29.3548 38.3789 28.183 38.3203 27.0118C38.2227 26.9142 38.125 26.8165 38.0273 26.7188C36.7383 26.6798 35.4492 26.6407 34.1602 26.6016C35.5014 26.1055 36.8685 25.8125 38.2617 25.7227ZM2.75391 28.1837C4.35594 28.1641 5.95751 28.1837 7.5586 28.2423C8.80819 30.5471 10.1754 32.7737 11.6602 34.922C12.2196 35.0815 12.6298 34.9057 12.8906 34.3946C14.1522 32.4091 15.3435 30.3778 16.4648 28.3009C23.2613 28.1837 30.0581 28.1447 36.8555 28.1837C36.8555 35.0587 36.8555 41.9336 36.8555 48.8087C30.2538 48.8282 23.6522 48.8087 17.0508 48.7501C15.5247 47.6023 13.845 47.3288 12.0117 47.9298C11.5045 48.1441 11.0358 48.4175 10.6055 48.7501C7.98858 48.8087 5.37139 48.8282 2.75391 48.8087C2.75391 41.9336 2.75391 35.0587 2.75391 28.1837ZM38.3789 32.0509C41.2308 32.0313 44.0823 32.0509 46.9336 32.1095C48.4339 32.4491 49.645 33.2304 50.5664 34.4532C48.418 34.4922 46.2695 34.5314 44.1211 34.5704C44.0138 34.6142 43.916 34.6728 43.8281 34.7462C43.6937 36.1221 43.6351 37.5088 43.6523 38.9063C43.6719 40.215 43.6914 41.5235 43.7109 42.8321C43.7548 42.9395 43.8134 43.0372 43.8867 43.1251C47.353 43.299 50.8295 43.3576 54.3164 43.3009C54.7758 45.1092 55.2837 46.906 55.8398 48.6915C55.0223 48.8279 54.202 48.8475 53.3789 48.7501C51.1893 47.2659 49.0017 47.2659 46.8164 48.7501C44.0041 48.8087 41.1916 48.8282 38.3789 48.8087C38.3789 43.2227 38.3789 37.6368 38.3789 32.0509ZM45.1758 36.0352C47.3245 36.0157 49.473 36.0352 51.6211 36.0938C52.5702 37.8865 53.3125 39.7615 53.8477 41.7188C50.9573 41.7774 48.0667 41.797 45.1758 41.7774C45.1758 39.8634 45.1758 37.9493 45.1758 36.0352ZM13.1836 49.1602C16.1113 49.1386 17.498 50.5838 17.3438 53.4962C16.7093 55.5351 15.3226 56.4531 13.1836 56.2501C10.9526 55.5434 10.0347 54.0396 10.4297 51.7384C10.9203 50.4075 11.8383 49.5481 13.1836 49.1602ZM49.3945 49.1602C52.3793 49.1566 53.766 50.641 53.5547 53.6134C52.8687 55.587 51.482 56.4659 49.3945 56.2501C47.1642 55.5438 46.2462 54.0399 46.6406 51.7384C47.1312 50.4075 48.0492 49.5481 49.3945 49.1602ZM4.27735 50.4493C4.72247 50.3341 5.19122 50.295 5.6836 50.3321C5.70289 50.6858 5.68336 51.0373 5.625 51.3868C5.22005 50.9998 4.77082 50.6873 4.27735 50.4493ZM7.20703 50.3321C7.91124 50.3127 8.61436 50.3322 9.31641 50.3907C9.03976 50.9277 8.84446 51.494 8.73047 52.0899C8.22858 52.2062 7.72077 52.2453 7.20703 52.2071C7.20703 51.5822 7.20703 50.9571 7.20703 50.3321ZM18.457 50.3321C24.5898 50.3321 30.7227 50.3321 36.8555 50.3321C36.8555 50.9571 36.8555 51.5822 36.8555 52.2071C35.9926 52.2459 35.1332 52.2068 34.2773 52.0899C33.9695 51.3329 33.4227 50.8446 32.6367 50.6251C29.5117 50.5469 26.3868 50.5469 23.2617 50.6251C22.459 50.8808 21.873 51.3887 21.5039 52.1485C20.6454 52.2071 19.7861 52.2266 18.9258 52.2071C18.8794 51.553 18.7232 50.928 18.457 50.3321ZM38.3789 50.3321C40.762 50.3125 43.1448 50.3321 45.5273 50.3907C45.0742 51.3314 44.8789 52.3275 44.9414 53.379C42.7539 53.379 40.5664 53.379 38.3789 53.379C38.3789 52.3633 38.3789 51.3478 38.3789 50.3321ZM54.668 50.3321C55.1367 50.3321 55.6055 50.3321 56.0742 50.3321C56.0742 51.3478 56.0742 52.3633 56.0742 53.379C55.7617 53.379 55.4493 53.379 55.1367 53.379C55.2541 52.3258 55.0978 51.3103 54.668 50.3321ZM23.6133 52.0899C24.043 52.0899 24.4726 52.0899 24.9023 52.0899C24.9023 52.754 24.9023 53.418 24.9023 54.0821C24.5098 54.1015 24.1192 54.0819 23.7305 54.0235C22.7013 53.4413 22.6623 52.7968 23.6133 52.0899ZM26.4258 52.0899C27.4414 52.0899 28.457 52.0899 29.4727 52.0899C29.4727 52.754 29.4727 53.418 29.4727 54.0821C28.457 54.0821 27.4414 54.0821 26.4258 54.0821C26.4258 53.418 26.4258 52.754 26.4258 52.0899ZM30.9961 52.0899C31.5196 52.0469 32.0273 52.1055 32.5195 52.2657C33.0741 52.9956 32.9569 53.5815 32.168 54.0235C31.7793 54.0819 31.3887 54.1015 30.9961 54.0821C30.9961 53.418 30.9961 52.754 30.9961 52.0899Z" fill="#EC7216"/>
<path opacity="0.905" fill-rule="evenodd" clip-rule="evenodd" d="M11.4254 17.5198C13.9375 17.4258 15.3438 18.6171 15.6441 21.094C15.627 21.6897 15.4904 22.2561 15.234 22.7932C14.5174 23.2332 14.0681 23.0574 13.8863 22.2659C14.4495 20.4807 13.8245 19.4065 12.0113 19.0432C10.5423 19.2864 9.89779 20.1457 10.0777 21.6214C10.2308 22.1268 10.5238 22.537 10.9566 22.8518C11.515 23.0091 12.0424 23.2239 12.5387 23.4964C12.7611 24.2489 12.4877 24.6395 11.7183 24.6682C9.28465 24.1789 8.22996 22.6945 8.55428 20.2151C9.00678 18.7662 9.96382 17.8677 11.4254 17.5198Z" fill="#EC7216"/>
<path opacity="0.926" fill-rule="evenodd" clip-rule="evenodd" d="M15.5276 32.7539C20.6059 32.7344 25.684 32.7539 30.762 32.8125C31.4916 33.2381 31.5306 33.7069 30.8792 34.2188C25.7229 34.2969 20.5667 34.2969 15.4104 34.2188C14.93 33.685 14.969 33.1967 15.5276 32.7539Z" fill="#EC7216"/>
<path opacity="0.919" fill-rule="evenodd" clip-rule="evenodd" d="M20.9179 36.7383C24.1994 36.7187 27.4806 36.7383 30.7616 36.7969C31.4323 37.168 31.5105 37.6368 30.996 38.2031C27.5976 38.2813 24.1991 38.2813 20.8007 38.2031C20.3125 37.6603 20.3515 37.1721 20.9179 36.7383Z" fill="#EC7216"/>
<path opacity="0.911" fill-rule="evenodd" clip-rule="evenodd" d="M25.6057 40.7227C27.3249 40.7031 29.0437 40.7227 30.762 40.7813C31.4326 41.1524 31.5108 41.6211 30.9964 42.1875C29.1604 42.2657 27.3245 42.2657 25.4885 42.1875C25.0081 41.6537 25.0471 41.1654 25.6057 40.7227Z" fill="#EC7216"/>
<path opacity="0.881" fill-rule="evenodd" clip-rule="evenodd" d="M40.1367 43.4179C40.5682 43.3985 40.9978 43.418 41.4258 43.4765C41.8946 43.9452 41.8946 44.414 41.4258 44.8827C40.9961 44.9609 40.5665 44.9609 40.1367 44.8827C39.6735 44.3946 39.6735 43.9064 40.1367 43.4179Z" fill="#EC7216"/>
<path opacity="0.905" fill-rule="evenodd" clip-rule="evenodd" d="M13.5356 51.2695C15.1153 51.3825 15.6036 52.1637 15.0004 53.6133C14.095 54.4121 13.2747 54.3341 12.5395 53.3789C12.234 52.3455 12.566 51.6424 13.5356 51.2695Z" fill="#EC7216"/>
<path opacity="0.908" fill-rule="evenodd" clip-rule="evenodd" d="M49.7464 51.2695C51.2155 51.3511 51.7429 52.0932 51.3284 53.4961C50.3585 54.4632 49.4992 54.3851 48.7503 53.2617C48.5304 52.295 48.8624 51.6309 49.7464 51.2695Z" fill="#EC7216"/>
<path opacity="0.93" fill-rule="evenodd" clip-rule="evenodd" d="M29.7071 4.74609C32.7213 4.85061 34.5377 6.37405 35.1564 9.31641C35.3088 12.3654 33.9221 14.299 30.9962 15.1172C27.7187 15.4309 25.6679 14.0051 24.8439 10.8398C24.6758 7.35755 26.297 5.3263 29.7071 4.74609ZM29.4728 6.73828C27.8713 7.26718 26.9728 8.38046 26.7775 10.0781C27.0752 11.9385 28.1495 13.0126 30.0001 13.3008C31.9611 13.078 33.0354 11.9843 33.2228 10.0195C32.9282 7.84012 31.6781 6.74637 29.4728 6.73828Z" fill="#EC7216"/>
</g>
<defs>
<clipPath id="clip0_4016_2033">
<rect width="60" height="60" fill="white"/>
</clipPath>
</defs>
</svg>
