<svg width="14" height="16" viewBox="0 0 14 16" fill="none" xmlns="http://www.w3.org/2000/svg">
<path d="M4.33301 3.83301C4.05967 3.83301 3.83301 3.60634 3.83301 3.33301V1.33301C3.83301 1.05967 4.05967 0.833008 4.33301 0.833008C4.60634 0.833008 4.83301 1.05967 4.83301 1.33301V3.33301C4.83301 3.60634 4.60634 3.83301 4.33301 3.83301ZM9.66634 3.83301C9.39301 3.83301 9.16634 3.60634 9.16634 3.33301V1.33301C9.16634 1.05967 9.39301 0.833008 9.66634 0.833008C9.93967 0.833008 10.1663 1.05967 10.1663 1.33301V3.33301C10.1663 3.60634 9.93967 3.83301 9.66634 3.83301ZM4.66634 9.66634C4.57967 9.66634 4.49301 9.64634 4.41301 9.61301C4.32634 9.57967 4.25967 9.53301 4.19301 9.47301C4.07301 9.34634 3.99967 9.17968 3.99967 8.99967C3.99967 8.91301 4.01967 8.82634 4.05301 8.74634C4.08634 8.66634 4.13301 8.59301 4.19301 8.52634C4.25967 8.46634 4.32634 8.41967 4.41301 8.38634C4.65301 8.28634 4.95301 8.33967 5.13967 8.52634C5.25967 8.65301 5.33301 8.82634 5.33301 8.99967C5.33301 9.03967 5.32634 9.08634 5.31967 9.13301C5.31301 9.17301 5.29967 9.21301 5.27967 9.25301C5.26634 9.29301 5.24634 9.33301 5.21967 9.37301C5.19967 9.40634 5.16634 9.43967 5.13967 9.47301C5.01301 9.59301 4.83967 9.66634 4.66634 9.66634ZM6.99967 9.66634C6.91301 9.66634 6.82634 9.64634 6.74634 9.61301C6.65967 9.57967 6.59301 9.53301 6.52634 9.47301C6.40634 9.34634 6.33301 9.17968 6.33301 8.99967C6.33301 8.91301 6.35301 8.82634 6.38634 8.74634C6.41967 8.66634 6.46634 8.59301 6.52634 8.52634C6.59301 8.46634 6.65967 8.41967 6.74634 8.38634C6.98634 8.27967 7.28634 8.33967 7.47301 8.52634C7.59301 8.65301 7.66634 8.82634 7.66634 8.99967C7.66634 9.03967 7.65967 9.08634 7.65301 9.13301C7.64634 9.17301 7.63301 9.21301 7.61301 9.25301C7.59967 9.29301 7.57967 9.33301 7.55301 9.37301C7.53301 9.40634 7.49967 9.43967 7.47301 9.47301C7.34634 9.59301 7.17301 9.66634 6.99967 9.66634ZM9.33301 9.66634C9.24634 9.66634 9.15967 9.64634 9.07967 9.61301C8.99301 9.57967 8.92634 9.53301 8.85967 9.47301L8.77967 9.37301C8.75442 9.33586 8.73424 9.2955 8.71967 9.25301C8.70042 9.21523 8.68693 9.17478 8.67967 9.13301C8.67301 9.08634 8.66634 9.03967 8.66634 8.99967C8.66634 8.82634 8.73967 8.65301 8.85967 8.52634C8.92634 8.46634 8.99301 8.41967 9.07967 8.38634C9.32634 8.27967 9.61967 8.33967 9.80634 8.52634C9.92634 8.65301 9.99967 8.82634 9.99967 8.99967C9.99967 9.03967 9.99301 9.08634 9.98634 9.13301C9.97967 9.17301 9.96634 9.21301 9.94634 9.25301C9.93301 9.29301 9.91301 9.33301 9.88634 9.37301C9.86634 9.40634 9.83301 9.43967 9.80634 9.47301C9.67967 9.59301 9.50634 9.66634 9.33301 9.66634ZM4.66634 11.9997C4.57967 11.9997 4.49301 11.9797 4.41301 11.9463C4.33301 11.913 4.25967 11.8663 4.19301 11.8063C4.07301 11.6797 3.99967 11.5063 3.99967 11.333C3.99967 11.2463 4.01967 11.1597 4.05301 11.0797C4.08634 10.993 4.13301 10.9197 4.19301 10.8597C4.43967 10.613 4.89301 10.613 5.13967 10.8597C5.25967 10.9863 5.33301 11.1597 5.33301 11.333C5.33301 11.5063 5.25967 11.6797 5.13967 11.8063C5.01301 11.9263 4.83967 11.9997 4.66634 11.9997ZM6.99967 11.9997C6.82634 11.9997 6.65301 11.9263 6.52634 11.8063C6.40634 11.6797 6.33301 11.5063 6.33301 11.333C6.33301 11.2463 6.35301 11.1597 6.38634 11.0797C6.41967 10.993 6.46634 10.9197 6.52634 10.8597C6.77301 10.613 7.22634 10.613 7.47301 10.8597C7.53301 10.9197 7.57967 10.993 7.61301 11.0797C7.64634 11.1597 7.66634 11.2463 7.66634 11.333C7.66634 11.5063 7.59301 11.6797 7.47301 11.8063C7.34634 11.9263 7.17301 11.9997 6.99967 11.9997ZM9.33301 11.9997C9.15967 11.9997 8.98634 11.9263 8.85967 11.8063C8.79799 11.7437 8.75027 11.6687 8.71967 11.5863C8.68634 11.5063 8.66634 11.4197 8.66634 11.333C8.66634 11.2463 8.68634 11.1597 8.71967 11.0797C8.75301 10.993 8.79967 10.9197 8.85967 10.8597C9.01301 10.7063 9.24634 10.633 9.45967 10.6797C9.50634 10.6863 9.54634 10.6997 9.58634 10.7197C9.62634 10.733 9.66634 10.753 9.70634 10.7797C9.73967 10.7997 9.77301 10.833 9.80634 10.8597C9.92634 10.9863 9.99967 11.1597 9.99967 11.333C9.99967 11.5063 9.92634 11.6797 9.80634 11.8063C9.67967 11.9263 9.50634 11.9997 9.33301 11.9997ZM12.6663 6.55967H1.33301C1.05967 6.55967 0.833008 6.33301 0.833008 6.05967C0.833008 5.78634 1.05967 5.55967 1.33301 5.55967H12.6663C12.9397 5.55967 13.1663 5.78634 13.1663 6.05967C13.1663 6.33301 12.9397 6.55967 12.6663 6.55967Z" fill="#EC7216"/>
<path d="M9.66667 15.1663H4.33333C1.9 15.1663 0.5 13.7663 0.5 11.333V5.66634C0.5 3.23301 1.9 1.83301 4.33333 1.83301H9.66667C12.1 1.83301 13.5 3.23301 13.5 5.66634V11.333C13.5 13.7663 12.1 15.1663 9.66667 15.1663ZM4.33333 2.83301C2.42667 2.83301 1.5 3.75967 1.5 5.66634V11.333C1.5 13.2397 2.42667 14.1663 4.33333 14.1663H9.66667C11.5733 14.1663 12.5 13.2397 12.5 11.333V5.66634C12.5 3.75967 11.5733 2.83301 9.66667 2.83301H4.33333Z" fill="#EC7216"/>
</svg>
