<svg width="45" height="45" viewBox="0 0 45 45" fill="none" xmlns="http://www.w3.org/2000/svg">
<g clip-path="url(#clip0_4016_1980)">
<path opacity="0.95" fill-rule="evenodd" clip-rule="evenodd" d="M9.36035 -0.0439453C11.0889 -0.0439453 12.8174 -0.0439453 14.5459 -0.0439453C14.7195 0.0568108 14.8513 0.203295 14.9414 0.395508C14.959 0.769336 15.0029 1.13555 15.0732 1.49414C21.7817 2.19428 28.4906 2.88275 35.2002 3.55957C35.4424 1.72061 36.4678 0.592678 38.2764 0.175781C40.2194 -0.0762235 41.6109 0.670847 42.4512 2.41699C43.0472 4.16411 42.6662 5.65825 41.3086 6.89941C41.2646 11.0595 41.25 15.2196 41.2646 19.3799C42.3833 19.343 43.4965 19.3869 44.6045 19.5117C44.7104 19.6327 44.8276 19.7351 44.9561 19.8193C44.9561 28.0811 44.9561 36.3428 44.9561 44.6045C44.8095 44.6924 44.6924 44.8095 44.6045 44.9561C38.8623 44.9561 33.1201 44.9561 27.3779 44.9561C27.2043 44.8553 27.0725 44.7088 26.9824 44.5166C26.9238 40.0342 26.9238 35.5518 26.9824 31.0693C27.1373 30.8261 27.357 30.6942 27.6416 30.6738C28.1388 30.63 28.6369 30.6153 29.1357 30.6299C29.1211 27.1142 29.1357 23.5985 29.1797 20.083C29.2236 19.6875 29.4434 19.4678 29.8389 19.4238C32.1238 19.3799 34.409 19.3652 36.6943 19.3799C36.709 15.2196 36.6943 11.0595 36.6504 6.89941C36.0742 6.45543 35.6493 5.89879 35.376 5.22949C28.5852 4.48148 21.7883 3.77836 14.9854 3.12012C14.9999 3.67753 14.9854 4.23417 14.9414 4.79004C14.8388 4.95117 14.707 5.083 14.5459 5.18555C13.9607 5.22946 13.3748 5.24411 12.7881 5.22949C12.7881 5.72754 12.7881 6.22558 12.7881 6.72363C14.6537 7.09581 15.6498 8.23839 15.7764 10.1514C15.662 11.3206 15.1347 12.2581 14.1943 12.9639C16.7432 14.3554 19.292 15.7471 21.8408 17.1387C22.3974 17.1679 22.9541 17.1973 23.5107 17.2266C23.6677 17.2956 23.7996 17.398 23.9062 17.5342C24.0069 19.4195 24.0508 21.3092 24.0381 23.2031C24.0508 25.0971 24.0069 26.9867 23.9062 28.8721C23.7996 29.0082 23.6677 29.1107 23.5107 29.1797C15.8056 29.2383 8.10059 29.2383 0.395508 29.1797C0.203295 29.0896 0.0568108 28.9578 -0.0439453 28.7842C-0.0439453 25.0635 -0.0439453 21.3427 -0.0439453 17.6221C0.0568108 17.4485 0.203295 17.3167 0.395508 17.2266C0.688476 17.1973 0.981448 17.1679 1.27441 17.1387C4.1748 15.6885 7.0752 14.2383 9.97559 12.7881C10.0653 12.744 10.08 12.6854 10.0195 12.6123C9.31641 11.9091 8.95025 11.0595 8.9209 10.0635C9.44824 10.0635 9.97559 10.0635 10.5029 10.0635C10.711 11.5168 11.5312 12.0881 12.9639 11.7773C14.0236 11.2351 14.3604 10.4001 13.9746 9.27246C13.4253 8.45329 12.649 8.08708 11.6455 8.17383C11.4885 8.10488 11.3567 8.00234 11.25 7.86621C11.2061 6.9878 11.1915 6.10889 11.2061 5.22949C10.5901 5.24411 9.97488 5.22946 9.36035 5.18555C9.19925 5.083 9.06741 4.95117 8.96484 4.79004C8.90622 3.32519 8.90622 1.86035 8.96484 0.395508C9.05493 0.203295 9.18677 0.0568108 9.36035 -0.0439453ZM10.5029 1.53809C11.4697 1.53809 12.4365 1.53809 13.4033 1.53809C13.4033 2.24121 13.4033 2.94434 13.4033 3.64746C12.4365 3.64746 11.4697 3.64746 10.5029 3.64746C10.5029 2.94434 10.5029 2.24121 10.5029 1.53809ZM38.4521 1.71387C40.1954 1.62393 41.089 2.44424 41.1328 4.1748C40.7496 5.67744 39.7975 6.27803 38.2764 5.97656C36.7688 5.23292 36.4025 4.10498 37.1777 2.59277C37.5273 2.17741 37.9521 1.88445 38.4521 1.71387ZM38.8037 3.55957C39.1971 3.58596 39.3144 3.77639 39.1553 4.13086C38.6438 4.17711 38.5267 3.98667 38.8037 3.55957ZM38.2764 7.60254C38.7451 7.71972 39.2139 7.71972 39.6826 7.60254C39.6826 11.5283 39.6826 15.4541 39.6826 19.3799C39.2139 19.3799 38.7451 19.3799 38.2764 19.3799C38.2764 15.4541 38.2764 11.5283 38.2764 7.60254ZM11.9092 13.5791C14.1041 14.7646 16.3013 15.9511 18.501 17.1387C13.9599 17.1973 9.41897 17.1973 4.87793 17.1387C7.24072 15.972 9.58447 14.7855 11.9092 13.5791ZM1.53809 18.7646C8.51074 18.7646 15.4834 18.7646 22.4561 18.7646C22.4561 21.7237 22.4561 24.6826 22.4561 27.6416C15.4834 27.6416 8.51074 27.6416 1.53809 27.6416C1.53809 24.6826 1.53809 21.7237 1.53809 18.7646ZM30.7178 20.9619C33.4424 20.9619 36.167 20.9619 38.8916 20.9619C38.8916 24.1846 38.8916 27.4072 38.8916 30.6299C36.167 30.6299 33.4424 30.6299 30.7178 30.6299C30.7178 27.4072 30.7178 24.1846 30.7178 20.9619ZM40.4736 20.9619C41.4404 20.9619 42.4072 20.9619 43.374 20.9619C43.4032 22.106 43.3739 23.2486 43.2861 24.3896C42.3761 23.6114 41.4533 22.8496 40.5176 22.1045C40.4737 21.7247 40.459 21.3439 40.4736 20.9619ZM40.4736 24.2139C41.2914 24.8 42.0824 25.4298 42.8467 26.1035C42.0703 26.6455 41.2939 27.1875 40.5176 27.7295C40.4736 26.558 40.459 25.3861 40.4736 24.2139ZM43.2861 27.7295C43.3881 28.8569 43.4028 29.9994 43.3301 31.1572C42.5748 30.5378 41.8278 29.9079 41.0889 29.2676C41.8371 28.767 42.5695 28.2542 43.2861 27.7295ZM40.4736 30.8936C41.2758 31.5342 42.0668 32.1934 42.8467 32.8711C42.097 33.401 41.3352 33.9137 40.5615 34.4092C40.4737 33.2387 40.4444 32.0669 40.4736 30.8936ZM28.5205 32.2119C31.9775 32.2119 35.4346 32.2119 38.8916 32.2119C38.8916 35.9326 38.8916 39.6534 38.8916 43.374C35.4346 43.374 31.9775 43.374 28.5205 43.374C28.5205 39.6534 28.5205 35.9326 28.5205 32.2119ZM43.2861 34.4971C43.3881 35.6244 43.4028 36.767 43.3301 37.9248C42.583 37.2949 41.8359 36.6651 41.0889 36.0352C41.8271 35.5205 42.5595 35.0078 43.2861 34.4971ZM40.4736 37.6611C41.2758 38.3018 42.0668 38.9609 42.8467 39.6387C42.097 40.1686 41.3352 40.6813 40.5615 41.1768C40.4737 40.0063 40.4444 38.8345 40.4736 37.6611ZM43.2861 41.2646C43.3733 41.9516 43.4027 42.6547 43.374 43.374C42.4072 43.374 41.4404 43.374 40.4736 43.374C40.479 43.1902 40.5669 43.0583 40.7373 42.9785C41.6025 42.4193 42.452 41.848 43.2861 41.2646Z" fill="#EC7216"/>
<path opacity="0.878" fill-rule="evenodd" clip-rule="evenodd" d="M38.4524 2.7686C39.7248 2.64881 40.2374 3.20545 39.9905 4.43852C39.5906 5.04802 39.0485 5.20916 38.3645 4.92192C37.5742 4.17107 37.6035 3.4533 38.4524 2.7686ZM38.8039 3.55961C38.5269 3.98672 38.6441 4.17715 39.1555 4.1309C39.3146 3.77643 39.1973 3.586 38.8039 3.55961Z" fill="#EC7216"/>
<path opacity="0.938" fill-rule="evenodd" clip-rule="evenodd" d="M3.64746 20.1709C4.1748 20.1709 4.70215 20.1709 5.22949 20.1709C5.22949 22.1924 5.22949 24.2139 5.22949 26.2354C4.70215 26.2354 4.1748 26.2354 3.64746 26.2354C3.64746 24.2139 3.64746 22.1924 3.64746 20.1709Z" fill="#EC7216"/>
<path opacity="0.938" fill-rule="evenodd" clip-rule="evenodd" d="M7.42676 20.1709C7.9541 20.1709 8.48145 20.1709 9.00879 20.1709C9.00879 22.1924 9.00879 24.2139 9.00879 26.2354C8.48145 26.2354 7.9541 26.2354 7.42676 26.2354C7.42676 24.2139 7.42676 22.1924 7.42676 20.1709Z" fill="#EC7216"/>
<path opacity="0.938" fill-rule="evenodd" clip-rule="evenodd" d="M11.2061 20.1709C11.7334 20.1709 12.2607 20.1709 12.7881 20.1709C12.7881 22.1924 12.7881 24.2139 12.7881 26.2354C12.2607 26.2354 11.7334 26.2354 11.2061 26.2354C11.2061 24.2139 11.2061 22.1924 11.2061 20.1709Z" fill="#EC7216"/>
<path opacity="0.938" fill-rule="evenodd" clip-rule="evenodd" d="M14.8975 20.1709C15.4248 20.1709 15.9521 20.1709 16.4795 20.1709C16.4795 22.1924 16.4795 24.2139 16.4795 26.2354C15.9521 26.2354 15.4248 26.2354 14.8975 26.2354C14.8975 24.2139 14.8975 22.1924 14.8975 20.1709Z" fill="#EC7216"/>
<path opacity="0.938" fill-rule="evenodd" clip-rule="evenodd" d="M18.6768 20.1709C19.2041 20.1709 19.7314 20.1709 20.2588 20.1709C20.2588 22.1924 20.2588 24.2139 20.2588 26.2354C19.7314 26.2354 19.2041 26.2354 18.6768 26.2354C18.6768 24.2139 18.6768 22.1924 18.6768 20.1709Z" fill="#EC7216"/>
<path opacity="0.949" fill-rule="evenodd" clip-rule="evenodd" d="M23.5986 44.9561C15.835 44.9561 8.07129 44.9561 0.307617 44.9561C0.219727 44.8096 0.102539 44.6924 -0.0439453 44.6045C-0.0439453 40.8545 -0.0439453 37.1045 -0.0439453 33.3545C0.075066 33.1615 0.250847 33.0297 0.483399 32.959C8.15918 32.9004 15.835 32.9004 23.5107 32.959C23.7887 33.0891 23.9499 33.3088 23.9941 33.6182C24.0528 37.1631 24.0528 40.7081 23.9941 44.253C23.9545 44.5411 23.8227 44.7754 23.5986 44.9561ZM1.53809 34.4971C8.51074 34.4971 15.4834 34.4971 22.4561 34.4971C22.4561 37.4561 22.4561 40.415 22.4561 43.374C15.4834 43.374 8.51074 43.374 1.53809 43.374C1.53809 40.415 1.53809 37.4561 1.53809 34.4971Z" fill="#EC7216"/>
<path opacity="0.938" fill-rule="evenodd" clip-rule="evenodd" d="M3.64746 35.9033C4.1748 35.9033 4.70215 35.9033 5.22949 35.9033C5.22949 37.9248 5.22949 39.9463 5.22949 41.9678C4.70215 41.9678 4.1748 41.9678 3.64746 41.9678C3.64746 39.9463 3.64746 37.9248 3.64746 35.9033Z" fill="#EC7216"/>
<path opacity="0.938" fill-rule="evenodd" clip-rule="evenodd" d="M7.42676 35.9033C7.9541 35.9033 8.48145 35.9033 9.00879 35.9033C9.00879 37.9248 9.00879 39.9463 9.00879 41.9678C8.48145 41.9678 7.9541 41.9678 7.42676 41.9678C7.42676 39.9463 7.42676 37.9248 7.42676 35.9033Z" fill="#EC7216"/>
<path opacity="0.938" fill-rule="evenodd" clip-rule="evenodd" d="M11.2061 35.9033C11.7334 35.9033 12.2607 35.9033 12.7881 35.9033C12.7881 37.9248 12.7881 39.9463 12.7881 41.9678C12.2607 41.9678 11.7334 41.9678 11.2061 41.9678C11.2061 39.9463 11.2061 37.9248 11.2061 35.9033Z" fill="#EC7216"/>
<path opacity="0.938" fill-rule="evenodd" clip-rule="evenodd" d="M14.8975 35.9033C15.4248 35.9033 15.9521 35.9033 16.4795 35.9033C16.4795 37.9248 16.4795 39.9463 16.4795 41.9678C15.9521 41.9678 15.4248 41.9678 14.8975 41.9678C14.8975 39.9463 14.8975 37.9248 14.8975 35.9033Z" fill="#EC7216"/>
<path opacity="0.938" fill-rule="evenodd" clip-rule="evenodd" d="M18.6768 35.9033C19.2041 35.9033 19.7314 35.9033 20.2588 35.9033C20.2588 37.9248 20.2588 39.9463 20.2588 41.9678C19.7314 41.9678 19.2041 41.9678 18.6768 41.9678C18.6768 39.9463 18.6768 37.9248 18.6768 35.9033Z" fill="#EC7216"/>
</g>
<defs>
<clipPath id="clip0_4016_1980">
<rect width="45" height="45" fill="white"/>
</clipPath>
</defs>
</svg>
