<svg width="14" height="14" viewBox="0 0 14 14" fill="none" xmlns="http://www.w3.org/2000/svg">
<path d="M12.333 0.333984H4.33301C3.59967 0.333984 2.99967 0.933984 2.99967 1.66732V3.00065H1.66634C0.933008 3.00065 0.333008 3.60065 0.333008 4.33398V13.6673L2.99967 11.0007H9.66634C10.3997 11.0007 10.9997 10.4007 10.9997 9.66732V8.33398L13.6663 11.0007V1.66732C13.6663 0.933984 13.0663 0.333984 12.333 0.333984ZM4.33301 7.66732C3.96534 7.66732 3.66634 7.36832 3.66634 7.00065V1.66732C3.66634 1.29965 3.96534 1.00065 4.33301 1.00065H12.333C12.7007 1.00065 12.9997 1.29965 12.9997 1.66732V9.39132L11.2757 7.66732H4.33301ZM10.333 9.66732C10.333 10.035 10.034 10.334 9.66634 10.334H2.72367L0.999674 12.058V4.33398C0.999674 3.96632 1.29867 3.66732 1.66634 3.66732H2.99967V7.00065C2.99967 7.73398 3.59967 8.33398 4.33301 8.33398H10.333V9.66732Z" fill="#EC7216"/>
</svg>
