<svg width="10" height="10" viewBox="0 0 10 10" fill="none" xmlns="http://www.w3.org/2000/svg">
<g clip-path="url(#clip0_289_268)">
<path d="M0.947952 9.93744C0.70278 9.9517 0.461663 9.87019 0.275444 9.71011C-0.0918148 9.34067 -0.0918148 8.74399 0.275444 8.37455L8.31722 0.332744C8.6992 -0.0246894 9.29859 -0.00481991 9.65603 0.377162C9.97924 0.722587 9.99808 1.25351 9.70013 1.62096L1.61098 9.71011C1.42716 9.86788 1.18991 9.94923 0.947952 9.93744Z" fill="#EC7216"/>
<path d="M8.98047 9.93746C8.73199 9.9364 8.49384 9.83777 8.31742 9.66278L0.275612 1.62095C-0.0646345 1.22362 -0.0183762 0.625662 0.378952 0.285384C0.733579 -0.0183051 1.25658 -0.0183051 1.61118 0.285384L9.70033 8.32719C10.0822 8.68472 10.102 9.28414 9.74444 9.66603C9.73021 9.68122 9.71552 9.69591 9.70033 9.71013C9.50226 9.88238 9.24158 9.9647 8.98047 9.93746Z" fill="#EC7216"/>
</g>
<defs>
<clipPath id="clip0_289_268">
<rect width="10" height="10" fill="white"/>
</clipPath>
</defs>
</svg>
