<svg width="27" height="20" viewBox="0 0 27 20" fill="none" xmlns="http://www.w3.org/2000/svg">
<path d="M15.5846 13.0086C14.9202 13.4515 14.1484 13.6856 13.3527 13.6856C12.5571 13.6856 11.7853 13.4515 11.1209 13.0086L0.17781 5.71291C0.117097 5.67244 0.0579488 5.63024 0 5.58684V17.5416C0 18.9122 1.11229 20 2.45841 20H24.247C25.6176 20 26.7054 18.8877 26.7054 17.5416V5.58679C26.6474 5.63029 26.5881 5.67259 26.5272 5.71312L15.5846 13.0086Z" fill="#EC7216"/>
<path d="M1.04579 4.41224L11.9889 11.7079C12.4032 11.9841 12.8779 12.1222 13.3527 12.1222C13.8275 12.1222 14.3023 11.9841 14.7165 11.7079L25.6597 4.41224C26.3145 3.97593 26.7055 3.2457 26.7055 2.45758C26.7055 1.10243 25.603 0 24.2479 0H2.45758C1.10249 5.21591e-05 0 1.10249 0 2.45888C0 3.2457 0.390985 3.97593 1.04579 4.41224Z" fill="#EC7216"/>
</svg>
