<svg width="45" height="45" viewBox="0 0 45 45" fill="none" xmlns="http://www.w3.org/2000/svg">
<g clip-path="url(#clip0_4016_1967)">
<path opacity="0.948" fill-rule="evenodd" clip-rule="evenodd" d="M44.9561 27.3779C44.9561 28.7256 44.9561 30.0733 44.9561 31.4209C42.9638 31.4209 40.9717 31.4209 38.9795 31.4209C38.9795 30.9522 38.9795 30.4834 38.9795 30.0146C40.5323 30.0146 42.0849 30.0146 43.6377 30.0146C43.6377 29.6045 43.6377 29.1944 43.6377 28.7842C40.1221 28.7842 36.6064 28.7842 33.0908 28.7842C33.0908 29.1944 33.0908 29.6045 33.0908 30.0146C34.6436 30.0146 36.1963 30.0146 37.749 30.0146C37.749 30.4834 37.749 30.9522 37.749 31.4209C36.1963 31.4209 34.6436 31.4209 33.0908 31.4209C33.0762 31.8906 33.0909 32.3593 33.1348 32.8271C35.2171 34.7156 35.5686 36.8835 34.1895 39.3311C32.7117 41.1514 30.8514 41.6935 28.6084 40.957C27.024 40.2373 26.0866 39.0214 25.7959 37.3096C22.6313 37.2803 19.4672 37.3096 16.3037 37.3975C14.4977 40.438 11.8317 41.683 8.30566 41.1328C6.09468 40.629 4.45406 39.384 3.38379 37.3975C2.24271 37.3097 1.10014 37.2804 -0.0439453 37.3096C-0.0439453 32.915 -0.0439453 28.5205 -0.0439453 24.126C0.339481 23.2451 1.01331 22.7764 1.97754 22.7197C1.97754 18.5596 1.97754 14.3994 1.97754 10.2393C2.44629 10.2393 2.91504 10.2393 3.38379 10.2393C3.38379 14.3994 3.38379 18.5596 3.38379 22.7197C3.79395 22.7197 4.2041 22.7197 4.61426 22.7197C4.61426 17.2412 4.61426 11.7627 4.61426 6.28418C9.85869 6.25489 15.1029 6.28418 20.3467 6.37207C22.6494 13.3388 24.9346 20.3114 27.2021 27.29C27.2226 27.4159 27.2812 27.4598 27.3779 27.4219C27.6709 27.1289 27.9639 26.8359 28.2568 26.543C25.9871 19.6167 23.7167 12.688 21.4453 5.75684C21.3172 5.54063 21.1561 5.3502 20.9619 5.18555C15.227 5.0397 9.48472 5.01041 3.73535 5.09766C3.63281 5.2002 3.53028 5.30273 3.42773 5.40528C3.3838 6.60609 3.36915 7.80726 3.38379 9.00879C2.91504 9.00879 2.44629 9.00879 1.97754 9.00879C1.93914 7.62677 1.98308 6.24983 2.10938 4.87793C2.40065 4.29357 2.85476 3.89807 3.47168 3.69141C9.33108 3.63281 15.1904 3.63281 21.0498 3.69141C21.8993 3.89642 22.4706 4.40911 22.7637 5.22949C25.0196 12.1142 27.2754 18.9991 29.5312 25.8838C30.2546 26.0554 31.0017 26.1139 31.7725 26.0596C31.7725 19.4678 31.7725 12.876 31.7725 6.28418C33.0908 6.28418 34.4092 6.28418 35.7275 6.28418C35.7275 8.48145 35.7275 10.6787 35.7275 12.876C38.3643 12.876 41.001 12.876 43.6377 12.876C43.6377 17.71 43.6377 22.5439 43.6377 27.3779C44.0771 27.3779 44.5166 27.3779 44.9561 27.3779ZM6.02051 7.69043C10.4444 7.67578 14.8683 7.69043 19.292 7.73438C21.0259 12.9361 22.7251 18.1509 24.3896 23.3789C23.9776 24.0266 23.4942 24.6271 22.9395 25.1807C22.6318 24.9317 22.3242 24.6826 22.0166 24.4336C22.2815 24.1103 22.5452 23.788 22.8076 23.4668C22.5281 23.1206 22.2058 22.813 21.8408 22.5439C20.8987 23.5154 20.0198 24.5407 19.2041 25.6201C19.53 25.9462 19.8816 26.2391 20.2588 26.499C20.5509 26.1919 20.8293 25.8696 21.0938 25.5322C21.4165 25.782 21.7241 26.0457 22.0166 26.3232C21.2861 27.2151 20.539 28.094 19.7754 28.96C17.8887 26.8681 15.9698 24.8026 14.0186 22.7637C11.3527 22.7197 8.68669 22.705 6.02051 22.7197C6.02051 17.71 6.02051 12.7002 6.02051 7.69043ZM33.0908 7.69043C33.5303 7.69043 33.9697 7.69043 34.4092 7.69043C34.4092 14.253 34.4092 20.8154 34.4092 27.3779C33.9697 27.3779 33.5303 27.3779 33.0908 27.3779C33.0908 20.8154 33.0908 14.253 33.0908 7.69043ZM35.7275 14.2822C36.167 14.2822 36.6064 14.2822 37.0459 14.2822C37.0459 15.3662 37.0459 16.4502 37.0459 17.5342C38.3643 17.5342 39.6826 17.5342 41.001 17.5342C41.001 16.4502 41.001 15.3662 41.001 14.2822C41.4404 14.2822 41.8799 14.2822 42.3193 14.2822C42.3193 16.2158 42.3193 18.1494 42.3193 20.083C40.1221 20.083 37.9248 20.083 35.7275 20.083C35.7275 18.1494 35.7275 16.2158 35.7275 14.2822ZM38.3643 14.2822C38.8037 14.2822 39.2432 14.2822 39.6826 14.2822C39.6826 14.8975 39.6826 15.5127 39.6826 16.1279C39.2432 16.1279 38.8037 16.1279 38.3643 16.1279C38.3643 15.5127 38.3643 14.8975 38.3643 14.2822ZM35.7275 21.4893C36.167 21.4893 36.6064 21.4893 37.0459 21.4893C37.0459 22.6026 37.0459 23.7158 37.0459 24.8291C38.3643 24.8291 39.6826 24.8291 41.001 24.8291C41.001 23.7158 41.001 22.6026 41.001 21.4893C41.4404 21.4893 41.8799 21.4893 42.3193 21.4893C42.3193 23.4521 42.3193 25.4151 42.3193 27.3779C40.1221 27.3779 37.9248 27.3779 35.7275 27.3779C35.7275 25.4151 35.7275 23.4521 35.7275 21.4893ZM38.3643 21.4893C38.8037 21.4893 39.2432 21.4893 39.6826 21.4893C39.6826 22.1338 39.6826 22.7784 39.6826 23.4229C39.2432 23.4229 38.8037 23.4229 38.3643 23.4229C38.3643 22.7784 38.3643 22.1338 38.3643 21.4893ZM1.80176 24.126C5.66906 24.1113 9.53622 24.126 13.4033 24.1699C15.3925 26.3644 17.414 28.5324 19.4678 30.6738C21.6943 30.7325 23.9209 30.7325 26.1475 30.6738C27.2021 29.6191 28.2568 28.5645 29.3115 27.5098C30.1313 27.4658 30.9517 27.4512 31.7725 27.4658C31.7871 29.0481 31.7725 30.6301 31.7285 32.2119C29.1053 31.6045 27.201 32.5127 26.0156 34.9365C25.8783 35.2454 25.8051 35.5677 25.7959 35.9033C22.8369 35.9033 19.878 35.9033 16.9189 35.9033C17.6512 32.0447 16.3035 29.1882 12.876 27.334C9.48946 26.054 6.57441 26.7426 4.13086 29.3994C2.68302 31.3501 2.22891 33.5181 2.76855 35.9033C2.2705 35.9033 1.77246 35.9033 1.27441 35.9033C1.25976 32.2118 1.27441 28.5204 1.31836 24.8291C1.36141 24.5087 1.52254 24.2742 1.80176 24.126ZM24.917 25.0928C25.38 26.2706 25.7755 27.4717 26.1035 28.6963C25.9131 28.8867 25.7227 29.0771 25.5322 29.2676C24.1552 29.3262 22.7783 29.3262 21.4014 29.2676C22.5587 27.8614 23.7306 26.4698 24.917 25.0928ZM9.36035 28.0811C12.1339 28.0533 14.1115 29.2838 15.293 31.7725C16.2569 34.7101 15.5098 37.0978 13.0518 38.9355C10.5622 40.311 8.18916 40.1353 5.93262 38.4082C4.03264 36.5266 3.51994 34.3147 4.39453 31.7725C5.39161 29.6464 7.04688 28.4159 9.36035 28.0811ZM9.53613 30.7178C12.0226 30.8748 13.1797 32.1932 13.0078 34.6729C12.4104 36.5285 11.136 37.3634 9.18457 37.1777C7.27371 36.5642 6.43874 35.2605 6.67969 33.2666C7.10722 31.817 8.05937 30.9674 9.53613 30.7178ZM30.0146 33.3545C31.9409 33.3623 33.1274 34.2998 33.5742 36.167C33.6665 38.0664 32.8023 39.2822 30.9814 39.8145C28.9549 39.9842 27.6804 39.0907 27.1582 37.1338C27.0643 35.0752 28.0165 33.8155 30.0146 33.3545ZM30.2783 35.9912C31.0436 36.1958 31.1607 36.5913 30.6299 37.1777C29.9259 37.2356 29.6769 36.9279 29.8828 36.2549C30.0067 36.1423 30.1385 36.0544 30.2783 35.9912Z" fill="#EC7216"/>
<path opacity="0.879" fill-rule="evenodd" clip-rule="evenodd" d="M14.3701 8.9209C14.8388 8.9209 15.3076 8.9209 15.7764 8.9209C15.7764 9.38962 15.7764 9.85843 15.7764 10.3271C15.3076 10.3271 14.8388 10.3271 14.3701 10.3271C14.3701 9.85843 14.3701 9.38962 14.3701 8.9209Z" fill="#EC7216"/>
<path opacity="0.879" fill-rule="evenodd" clip-rule="evenodd" d="M17.0068 8.9209C17.4756 8.9209 17.9444 8.9209 18.4131 8.9209C18.4131 9.38962 18.4131 9.85843 18.4131 10.3271C17.9444 10.3271 17.4756 10.3271 17.0068 10.3271C17.0068 9.85843 17.0068 9.38962 17.0068 8.9209Z" fill="#EC7216"/>
<path opacity="0.925" fill-rule="evenodd" clip-rule="evenodd" d="M9.44869 29.3115C12.9842 29.522 14.6395 31.3971 14.4145 34.9365C13.8819 36.934 12.6075 38.1499 10.5913 38.584C7.83931 38.7904 6.06685 37.5746 5.27388 34.9365C4.97323 32.7408 5.7496 31.0562 7.60299 29.8828C8.19995 29.5951 8.81517 29.4046 9.44869 29.3115ZM9.53658 30.7178C8.05982 30.9674 7.10767 31.817 6.68013 33.2666C6.43919 35.2605 7.27415 36.5642 9.18502 37.1777C11.1365 37.3634 12.4109 36.5285 13.0083 34.6729C13.1802 32.1932 12.023 30.8748 9.53658 30.7178Z" fill="#EC7216"/>
<path opacity="0.925" fill-rule="evenodd" clip-rule="evenodd" d="M30.1022 34.585C31.6952 34.6397 32.4423 35.4601 32.3434 37.0459C31.763 38.568 30.723 38.9928 29.2233 38.3203C28.0898 37.2379 28.0604 36.1245 29.1354 34.9805C29.4477 34.7941 29.77 34.6622 30.1022 34.585ZM30.278 35.9912C30.1382 36.0544 30.0063 36.1423 29.8825 36.2549C29.6766 36.9279 29.9256 37.2356 30.6296 37.1777C31.1604 36.5913 31.0433 36.1958 30.278 35.9912Z" fill="#EC7216"/>
</g>
<defs>
<clipPath id="clip0_4016_1967">
<rect width="45" height="45" fill="white"/>
</clipPath>
</defs>
</svg>
