<svg width="50" height="50" viewBox="0 0 50 50" fill="none" xmlns="http://www.w3.org/2000/svg">
<g clip-path="url(#clip0_173_155)">
<path fill-rule="evenodd" clip-rule="evenodd" d="M16.2505 37.8345C17.7386 34.5192 21.0867 32.2114 24.9525 32.2114C28.8181 32.2114 32.1662 34.5191 33.6543 37.8343C33.8804 38.3377 34.0615 38.8601 34.1956 39.3954C34.3266 39.9186 34.0086 40.4489 33.4855 40.5799C32.9623 40.7109 32.432 40.393 32.301 39.8698C32.1949 39.4462 32.0516 39.0329 31.8727 38.6346L31.8726 38.6343C30.6899 35.9993 28.0258 34.1645 24.9525 34.1645C21.8792 34.1645 19.215 35.9993 18.0323 38.6343L18.0323 38.6344C17.8393 39.0642 17.6877 39.5115 17.5796 39.9701C17.4558 40.495 16.9298 40.8202 16.4049 40.6964C15.88 40.5725 15.5548 40.0466 15.6786 39.5217C15.8153 38.9424 16.0068 38.3775 16.2505 37.8346" fill="white"/>
<path fill-rule="evenodd" clip-rule="evenodd" d="M23.476 24.7407C21.5078 25.556 20.5731 27.8125 21.3884 29.7807C22.2036 31.749 24.4601 32.6836 26.4284 31.8684C28.3966 31.0531 29.3313 28.7966 28.516 26.8284C27.7007 24.8601 25.4442 23.9255 23.476 24.7407ZM19.5839 30.5281C18.3559 27.5634 19.7638 24.1644 22.7286 22.9363C25.6934 21.7083 29.0924 23.1162 30.3204 26.081C31.5485 29.0458 30.1406 32.4447 27.1758 33.6728C24.211 34.9008 20.812 33.4929 19.5839 30.5281Z" fill="white"/>
<path fill-rule="evenodd" clip-rule="evenodd" d="M2.29661 26.7798C1.48134 28.748 2.416 31.0045 4.38423 31.8198C6.35246 32.635 8.60893 31.7004 9.42419 29.7322C10.2395 27.7639 9.3048 25.5075 7.33657 24.6922C5.36835 23.8769 3.11188 24.8116 2.29661 26.7798ZM3.6368 33.6242C0.672002 32.3962 -0.735906 28.9972 0.492155 26.0324C1.72022 23.0676 5.1192 21.6597 8.084 22.8877C11.0488 24.1158 12.4567 27.5148 11.2286 30.4796C10.0006 33.4444 6.6016 34.8523 3.6368 33.6242Z" fill="white"/>
<path fill-rule="evenodd" clip-rule="evenodd" d="M44.1406 24.3989C42.0102 24.3989 40.2832 26.126 40.2832 28.2564C40.2832 30.3867 42.0102 32.1138 44.1406 32.1138C46.271 32.1138 47.998 30.3867 47.998 28.2564C47.998 26.126 46.271 24.3989 44.1406 24.3989ZM38.3301 28.2564C38.3301 25.0473 40.9315 22.4458 44.1406 22.4458C47.3497 22.4458 49.9512 25.0473 49.9512 28.2564C49.9512 31.4654 47.3497 34.0669 44.1406 34.0669C40.9315 34.0669 38.3301 31.4654 38.3301 28.2564Z" fill="white"/>
<path fill-rule="evenodd" clip-rule="evenodd" d="M25 0C25.31 0 25.6016 0.147183 25.7857 0.396591L28.4219 3.96787L32.633 5.37147C32.9271 5.4695 33.1572 5.70133 33.253 5.99615C33.3488 6.29097 33.2989 6.61376 33.1186 6.86593L30.5368 10.4767L30.5032 14.9154C30.5008 15.2254 30.3515 15.5159 30.1007 15.6981C29.8499 15.8803 29.5275 15.9326 29.2319 15.8391L25 14.4994L20.7681 15.8391C20.4726 15.9326 20.1502 15.8803 19.8994 15.6981C19.6486 15.5159 19.4992 15.2254 19.4968 14.9154L19.4632 10.4767L16.8814 6.86593C16.7011 6.61376 16.6513 6.29097 16.7471 5.99615C16.8429 5.70133 17.0729 5.4695 17.367 5.37147L21.5781 3.96787L24.2143 0.396591C24.3984 0.147183 24.69 0 25 0ZM25 2.62091L22.9659 5.37654C22.8464 5.5384 22.6799 5.65941 22.489 5.72302L19.2397 6.80606L21.2318 9.59222C21.3488 9.75587 21.4124 9.95166 21.414 10.1528L21.4399 13.5778L24.7053 12.544C24.8971 12.4833 25.1029 12.4833 25.2947 12.544L28.5601 13.5777L28.5861 10.1528C28.5876 9.95166 28.6512 9.75586 28.7682 9.59222L30.7604 6.80606L27.511 5.72302C27.3202 5.65941 27.1536 5.5384 27.0341 5.37654L25 2.62091ZM7.56833 5.02459C7.87833 5.02459 8.16992 5.17177 8.35403 5.42118L10.7083 8.61052L14.4689 9.86393C14.763 9.96195 14.9931 10.1938 15.0889 10.4886C15.1847 10.7834 15.1348 11.1062 14.9545 11.3584L12.6489 14.583L12.6188 18.5469C12.6164 18.8569 12.467 19.1473 12.2163 19.3295C11.9655 19.5118 11.6431 19.5641 11.3475 19.4705L7.56834 18.2742L3.78916 19.4705C3.49362 19.5641 3.17121 19.5117 2.92042 19.3295C2.66962 19.1473 2.52025 18.8569 2.5179 18.5469L2.48791 14.583L0.182193 11.3584C0.00188211 11.1062 -0.0479922 10.7834 0.0478051 10.4886C0.143602 10.1938 0.373691 9.96195 0.667787 9.86393L4.42847 8.61052L6.78264 5.4212C6.96674 5.17178 7.25833 5.02459 7.56833 5.02459ZM42.4317 5.02459C42.7417 5.02459 43.0333 5.17178 43.2174 5.4212L45.5716 8.61052L49.3322 9.86393C49.6263 9.96195 49.8564 10.1938 49.9522 10.4886C50.048 10.7834 49.9981 11.1062 49.8178 11.3584L47.5121 14.583L47.4821 18.5469C47.4798 18.8569 47.3304 19.1473 47.0796 19.3295C46.8288 19.5117 46.5064 19.5641 46.2109 19.4705L42.4317 18.2742L38.6524 19.4705C38.3569 19.5641 38.0344 19.5117 37.7837 19.3295C37.5329 19.1473 37.3835 18.8569 37.3811 18.5469L37.3512 14.583L35.0455 11.3584C34.8652 11.1062 34.8153 10.7834 34.9111 10.4886C35.0069 10.1938 35.237 9.96195 35.5311 9.86393L39.2917 8.61052L41.646 5.42118C41.8301 5.17177 42.1217 5.02459 42.4317 5.02459ZM42.4317 7.64552L40.6795 10.0192C40.56 10.1811 40.3935 10.3021 40.2026 10.3657L37.4038 11.2985L39.1197 13.6985C39.2368 13.8621 39.3004 14.0579 39.3019 14.2591L39.3242 17.2092L42.137 16.3188C42.3288 16.2581 42.5346 16.2581 42.7264 16.3188L45.5391 17.2092L45.5614 14.2591C45.5629 14.0579 45.6265 13.8621 45.7435 13.6984L47.4596 11.2985L44.6607 10.3657C44.4698 10.3021 44.3032 10.1811 44.1838 10.0192L42.4317 7.64552ZM7.56836 7.64552L9.32053 10.0192C9.44001 10.1811 9.60657 10.3021 9.79743 10.3657L12.5963 11.2985L10.8803 13.6985C10.7633 13.8621 10.6997 14.0579 10.6981 14.259L10.6758 17.2092L7.86307 16.3188C7.67127 16.2581 7.46541 16.2581 7.27361 16.3188L4.46096 17.2092L4.43864 14.2591C4.43712 14.0579 4.3735 13.8621 4.25648 13.6984L2.54045 11.2985L5.33934 10.3657C5.53021 10.3021 5.69678 10.1811 5.81626 10.0192L7.56836 7.64552ZM6.8961e-06 38.0218C6.8961e-06 34.7971 2.63447 32.1625 5.85936 32.1625C9.08427 32.1625 11.7187 34.7972 11.7187 38.0218V38.2813H15.1367C17.0185 38.2813 18.5546 39.8171 18.5546 41.6993C18.5546 42.2229 18.4358 42.7197 18.2237 43.1641H31.7762C31.5641 42.7197 31.4453 42.223 31.4453 41.6993C31.4453 39.8172 32.9814 38.2814 34.8633 38.2814H38.2812V38.0219C38.2812 34.7974 40.9156 32.1626 44.1406 32.1626C47.3654 32.1626 49.9999 34.7971 49.9999 38.0219V49.0233C49.9999 49.5627 49.5627 49.9999 49.0234 49.9999H0.97657C0.437229 49.9999 6.8961e-06 49.5627 6.8961e-06 49.0233V38.0218ZM34.8434 43.1641C34.8433 43.1641 34.8431 43.1641 34.843 43.1641C34.0487 43.1532 33.3984 42.4958 33.3984 41.6993C33.3984 40.896 34.06 40.2345 34.8633 40.2345H39.2578C39.7971 40.2345 40.2343 39.7973 40.2343 39.258V38.0219C40.2343 35.876 41.9944 34.1157 44.1406 34.1157C46.2868 34.1157 48.0468 35.8757 48.0468 38.0219V48.0468H40.2344V45.1172H41.6993C43.5814 45.1172 45.1172 43.5814 45.1172 41.6993V38.2426C45.1172 37.7033 44.68 37.2661 44.1407 37.2661C43.6013 37.2661 43.1641 37.7033 43.1641 38.2426V41.6993C43.1641 42.5027 42.5027 43.1641 41.6993 43.1641H34.8434ZM38.2813 45.1172H11.7187V48.0468H38.2813V45.1172ZM9.76559 48.0468V45.1172H8.30076C6.41865 45.1172 4.8828 43.5814 4.8828 41.6993V38.2426C4.8828 37.7033 5.32002 37.2661 5.85936 37.2661C6.3987 37.2661 6.83593 37.7033 6.83593 38.2426V41.6993C6.83593 42.5027 7.49733 43.1641 8.30076 43.1641H15.1394C15.1419 43.1641 15.1443 43.164 15.1468 43.164C15.9456 43.1586 16.6015 42.4993 16.6015 41.6993C16.6015 40.8959 15.94 40.2344 15.1367 40.2344H10.7422C10.2028 40.2344 9.76559 39.7972 9.76559 39.2579V38.0218C9.76559 35.8758 8.00553 34.1156 5.85936 34.1156C3.71318 34.1156 1.95313 35.8757 1.95313 38.0218V48.0468H9.76559Z" fill="white"/>
</g>
<defs>
<clipPath id="clip0_173_155">
<rect width="50" height="50" fill="white"/>
</clipPath>
</defs>
</svg>
