<svg width="50" height="50" viewBox="0 0 50 50" fill="none" xmlns="http://www.w3.org/2000/svg">
<path fill-rule="evenodd" clip-rule="evenodd" d="M23.7303 16.9922C23.4373 16.9922 23.242 16.8945 23.0467 16.6992C22.4607 16.1133 22.7537 15.4297 22.8514 15.1367L24.0232 12.5977L24.1209 12.5L35.156 1.46484L35.3514 1.26953L37.8904 0.195312C38.0857 0.0976562 38.3787 0 38.574 0C38.867 0 39.16 0.0976562 39.3553 0.292969C39.8435 0.78125 39.6482 1.46484 39.5506 1.85547L38.4764 4.39453C38.4764 4.49219 38.3787 4.58984 38.3787 4.58984L27.3435 15.625C27.2459 15.7227 27.2459 15.8203 27.1482 15.8203L24.5115 16.7969C24.3162 16.8945 24.0232 16.9922 23.7303 16.9922ZM24.9998 13.1836L23.9256 15.625V15.8203C23.9256 15.7227 24.0232 15.7227 24.1209 15.7227L26.5623 14.7461L37.4021 3.90625L38.3787 1.36719C38.4764 1.36719 38.4764 1.26953 38.4764 1.17188L38.3787 1.26953L35.9373 2.34375L24.9998 13.1836Z" fill="white"/>
<path fill-rule="evenodd" clip-rule="evenodd" d="M37.1094 19.043H36.9141C36.7188 19.043 36.6211 18.9453 36.5234 18.75L31.6406 10.2539C31.543 10.0586 31.543 9.76562 31.7383 9.57031L34.1797 7.12891C34.2773 7.03125 34.4727 6.93359 34.668 7.03125C34.8633 7.03125 35.0586 7.12891 35.1562 7.32422L38.9648 16.5039C39.2578 17.1875 39.0625 17.9688 38.3789 18.3594L37.4023 18.9453C37.3047 19.043 37.207 19.043 37.1094 19.043ZM32.9102 10.0586L37.3047 17.6758L37.793 17.3828C37.9883 17.2852 37.8906 16.9922 37.8906 16.8945L34.375 8.59375L32.9102 10.0586ZM29.7852 8.20312C29.6875 8.20312 29.5898 8.20312 29.4922 8.10547L20.9961 3.22266C20.8008 3.125 20.7031 2.73438 20.8008 2.44141L21.3867 1.36719C21.6797 0.976562 22.168 0.683594 22.6562 0.683594C22.8516 0.683594 23.1445 0.78125 23.3398 0.878906L32.4219 4.6875C32.6172 4.78516 32.7148 4.88281 32.8125 5.07812C32.8125 5.27344 32.8125 5.46875 32.6172 5.66406L30.1758 8.00781C30.0781 8.10547 29.9805 8.20312 29.7852 8.20312ZM22.168 2.53906L29.6875 6.93359L31.1523 5.37109L22.8516 1.95312C22.8516 1.85547 22.7539 1.85547 22.6562 1.85547C22.4609 1.85547 22.4609 1.95312 22.4609 1.95312L22.168 2.53906ZM24.4141 21.4844H24.3164C24.1211 21.4844 23.9258 21.2891 23.8281 21.1914L22.0703 17.5781L18.5547 15.8203C18.3594 15.7227 18.2617 15.625 18.1641 15.4297C18.1641 15.2344 18.2617 15.0391 18.3594 14.9414L19.6289 13.6719C19.7266 13.5742 19.8242 13.4766 20.0195 13.4766L23.9258 13.2812C24.1211 13.2812 24.3164 13.3789 24.4141 13.4766L24.5117 13.5742C24.6094 13.7695 24.707 13.9648 24.6094 14.2578L23.9258 15.625V15.8203C23.9258 15.7227 24.0234 15.7227 24.1211 15.7227L25.5859 15.1367C25.7812 15.0391 26.0742 15.1367 26.1719 15.2344C26.2695 15.4297 26.3672 15.5273 26.3672 15.7227L26.1719 19.7266C26.1719 19.8242 26.1719 20.0195 25.9766 20.1172L24.8047 21.2891C24.707 21.3867 24.5117 21.4844 24.4141 21.4844ZM19.8242 15.1367L22.7539 16.6016C22.9492 16.6992 23.0469 16.7969 23.0469 16.8945L24.5117 19.9219L25 19.4336L25.1953 16.6016L24.5117 16.7969C24.3164 16.8945 24.0234 16.9922 23.7305 16.9922C23.4375 16.9922 23.2422 16.8945 23.0469 16.6992C22.4609 16.1133 22.7539 15.4297 22.8516 15.1367L23.1445 14.5508L20.3125 14.6484L19.8242 15.1367ZM43.5547 45.7031H38.4766C38.1836 45.7031 37.8906 45.5078 37.8906 45.1172C37.8906 43.1641 36.3281 41.5039 34.2773 41.5039H34.082C32.1289 41.5039 30.4688 43.1641 30.4688 45.1172C30.4688 45.5078 30.1758 45.7031 29.8828 45.7031H20.2148C19.9219 45.7031 19.6289 45.5078 19.6289 45.1172C19.6289 43.1641 17.9688 41.5039 15.918 41.5039C13.8672 41.5039 12.207 43.1641 12.207 45.1172C12.207 45.5078 12.0117 45.7031 11.6211 45.7031H6.44531C6.15234 45.7031 5.85938 45.5078 5.85938 45.1172V38.1836C5.85938 37.793 6.15234 37.5977 6.44531 37.5977H43.5547C43.8477 37.5977 44.1406 37.793 44.1406 38.1836V45.1172C44.1406 45.5078 43.8477 45.7031 43.5547 45.7031ZM39.0625 44.5312H42.9688V38.7695H7.03125V44.5312H11.1328C11.4258 42.1875 13.4766 40.332 15.918 40.332C18.457 40.332 20.5078 42.1875 20.8008 44.5312H29.2969C29.5898 42.1875 31.6406 40.332 34.082 40.332H34.2773C36.7188 40.332 38.7695 42.1875 39.0625 44.5312Z" fill="white"/>
<path fill-rule="evenodd" clip-rule="evenodd" d="M43.5547 38.7695H29.5898C29.2969 38.7695 29.0039 38.4766 29.0039 38.1836V22.2656C29.0039 21.875 29.2969 21.6797 29.5898 21.6797H37.6953C38.2812 21.6797 38.8672 22.0703 43.3594 29.8828C43.6523 30.4688 43.9453 30.8594 44.043 31.0547C44.043 31.1523 44.1406 31.25 44.1406 31.3477V38.1836C44.1406 38.4766 43.8477 38.7695 43.5547 38.7695ZM30.1758 37.5977H42.9688V31.543C42.7734 31.25 42.5781 30.957 42.3828 30.4688C41.3086 28.7109 38.3789 23.5352 37.5977 22.8516H30.1758V37.5977Z" fill="white"/>
<path fill-rule="evenodd" clip-rule="evenodd" d="M43.5547 31.9336H29.5898C29.2969 31.9336 29.0039 31.6406 29.0039 31.3477C29.0039 31.0547 29.2969 30.7617 29.5898 30.7617H43.5547C43.8477 30.7617 44.1406 31.0547 44.1406 31.3477C44.1406 31.6406 43.8477 31.9336 43.5547 31.9336ZM15.918 50C13.2812 50 11.1328 47.8516 11.1328 45.1172C11.1328 42.4805 13.2812 40.332 15.918 40.332C18.6523 40.332 20.8008 42.4805 20.8008 45.1172C20.8008 47.8516 18.6523 50 15.918 50ZM15.918 41.5039C13.9648 41.5039 12.3047 43.1641 12.3047 45.1172C12.3047 47.168 13.9648 48.8281 15.918 48.8281C17.9688 48.8281 19.6289 47.168 19.6289 45.1172C19.6289 43.1641 17.9688 41.5039 15.918 41.5039ZM34.2773 50C31.543 50 29.3945 47.8516 29.3945 45.1172C29.3945 42.4805 31.543 40.332 34.2773 40.332C36.9141 40.332 39.0625 42.4805 39.0625 45.1172C39.0625 47.8516 36.9141 50 34.2773 50ZM34.2773 41.5039C32.2266 41.5039 30.5664 43.1641 30.5664 45.1172C30.5664 47.168 32.2266 48.8281 34.2773 48.8281C36.3281 48.8281 37.8906 47.168 37.8906 45.1172C37.8906 43.1641 36.3281 41.5039 34.2773 41.5039Z" fill="white"/>
<path fill-rule="evenodd" clip-rule="evenodd" d="M15.918 47.6562C14.5508 47.6562 13.4766 46.4844 13.4766 45.1172C13.4766 43.75 14.5508 42.6758 15.918 42.6758C17.2852 42.6758 18.457 43.75 18.457 45.1172C18.457 46.4844 17.2852 47.6562 15.918 47.6562ZM15.918 43.8477C15.2344 43.8477 14.6484 44.4336 14.6484 45.1172C14.6484 45.8984 15.2344 46.4844 15.918 46.4844C16.6992 46.4844 17.2852 45.8984 17.2852 45.1172C17.2852 44.4336 16.6992 43.8477 15.918 43.8477ZM34.2773 47.6562C32.9102 47.6562 31.7383 46.4844 31.7383 45.1172C31.7383 43.75 32.9102 42.6758 34.2773 42.6758C35.6445 42.6758 36.7188 43.75 36.7188 45.1172C36.7188 46.4844 35.6445 47.6562 34.2773 47.6562ZM34.2773 43.8477C33.4961 43.8477 32.9102 44.4336 32.9102 45.1172C32.9102 45.8984 33.4961 46.4844 34.2773 46.4844C34.9609 46.4844 35.5469 45.8984 35.5469 45.1172C35.5469 44.4336 34.9609 43.8477 34.2773 43.8477ZM14.1602 35.0586H11.6211C11.3281 35.0586 10.9375 34.7656 10.9375 34.375V32.0312C10.9375 31.7383 11.2305 31.4453 11.5234 31.4453H14.2578C14.5508 31.4453 14.8438 31.7383 14.8438 32.0312V34.375C14.8438 34.7656 14.5508 35.0586 14.1602 35.0586ZM12.1094 33.8867H13.6719V32.6172H12.1094V33.8867Z" fill="white"/>
<path fill-rule="evenodd" clip-rule="evenodd" d="M16.7969 38.7695H8.98438C8.59375 38.7695 8.30078 38.3789 8.30078 37.9883V32.1289C8.30078 31.7383 8.59375 31.4453 8.98438 31.4453H16.7969C17.1875 31.4453 17.4805 31.7383 17.4805 32.1289V37.9883C17.4805 38.3789 17.1875 38.7695 16.7969 38.7695ZM9.47266 37.5977H16.3086V32.6172H9.47266V37.5977ZM24.3164 35.0586H21.875C21.4844 35.0586 21.1914 34.7656 21.1914 34.375V32.0312C21.1914 31.7383 21.3867 31.4453 21.7773 31.4453H24.4141C24.707 31.4453 25 31.7383 25 32.0312V34.375C25 34.7656 24.707 35.0586 24.3164 35.0586ZM22.3633 33.8867H23.8281V32.6172H22.3633V33.8867Z" fill="white"/>
<path fill-rule="evenodd" clip-rule="evenodd" d="M26.9531 38.7695H19.2383C18.8477 38.7695 18.457 38.3789 18.457 37.9883V32.1289C18.457 31.7383 18.8477 31.4453 19.2383 31.4453H26.9531C27.3438 31.4453 27.7344 31.7383 27.7344 32.1289V37.9883C27.7344 38.3789 27.3438 38.7695 26.9531 38.7695ZM19.6289 37.5977H26.5625V32.6172H19.6289V37.5977ZM14.1602 26.5625H11.6211C11.3281 26.5625 10.9375 26.2695 10.9375 25.8789V23.5352C10.9375 23.1445 11.2305 22.9492 11.5234 22.9492H14.2578C14.5508 22.9492 14.8438 23.1445 14.8438 23.5352V25.8789C14.8438 26.2695 14.5508 26.5625 14.1602 26.5625ZM12.1094 25.3906H13.6719V24.1211H12.1094V25.3906Z" fill="white"/>
<path fill-rule="evenodd" clip-rule="evenodd" d="M16.7969 30.1758H8.98438C8.59375 30.1758 8.30078 29.8828 8.30078 29.4922V23.6328C8.30078 23.2422 8.59375 22.9492 8.98438 22.9492H16.7969C17.1875 22.9492 17.4805 23.2422 17.4805 23.6328V29.4922C17.4805 29.8828 17.1875 30.1758 16.7969 30.1758ZM9.47266 29.0039H16.3086V24.1211H9.47266V29.0039ZM24.3164 26.5625H21.875C21.4844 26.5625 21.1914 26.2695 21.1914 25.8789V23.5352C21.1914 23.1445 21.3867 22.9492 21.7773 22.9492H24.4141C24.707 22.9492 25 23.1445 25 23.5352V25.8789C25 26.2695 24.707 26.5625 24.3164 26.5625ZM22.3633 25.3906H23.8281V24.1211H22.3633V25.3906Z" fill="white"/>
<path fill-rule="evenodd" clip-rule="evenodd" d="M26.9531 30.1758H19.2383C18.8477 30.1758 18.457 29.8828 18.457 29.4922V23.6328C18.457 23.2422 18.8477 22.9492 19.2383 22.9492H26.9531C27.3438 22.9492 27.7344 23.2422 27.7344 23.6328V29.4922C27.7344 29.8828 27.3438 30.1758 26.9531 30.1758ZM19.6289 29.0039H26.5625V24.1211H19.6289V29.0039ZM41.7969 50H8.39844C8.10547 50 7.8125 49.707 7.8125 49.4141C7.8125 49.1211 8.10547 48.8281 8.39844 48.8281H41.7969C42.0898 48.8281 42.3828 49.1211 42.3828 49.4141C42.3828 49.707 42.0898 50 41.7969 50Z" fill="white"/>
</svg>
