<svg width="54" height="60" viewBox="0 0 54 60" fill="none" xmlns="http://www.w3.org/2000/svg">
<path d="M27.0014 0.935455C21.0348 0.940149 15.3139 3.31272 11.0951 7.53212C6.8764 11.7515 4.50473 17.4728 4.50098 23.4394C4.50379 29.4061 6.87527 35.1275 11.0943 39.3465C15.3134 43.5656 21.0348 45.9371 27.0014 45.9399C32.968 45.9371 38.6895 43.5656 42.9085 39.3465C47.1276 35.1275 49.4991 29.4061 49.5019 23.4394C49.4981 17.4722 47.126 11.7504 42.9065 7.53087C38.687 3.31137 32.9652 0.93921 26.9979 0.935455H27.0014ZM27.0014 2.8099C29.7105 2.80897 32.3931 3.34198 34.896 4.37847C37.3989 5.41496 39.673 6.9346 41.5883 8.85051C43.5035 10.7664 45.0224 13.041 46.058 15.5443C47.0936 18.0476 47.6257 20.7304 47.6239 23.4394C47.6239 34.842 38.404 44.0619 27.0014 44.0619C15.5988 44.0619 6.37897 34.842 6.37897 23.4394C6.3771 20.7307 6.90908 18.0482 7.94449 15.5451C8.97989 13.0421 10.4984 10.7676 12.4133 8.85176C14.3282 6.9359 16.6018 5.41619 19.1044 4.37949C21.6069 3.34279 24.2891 2.80944 26.9979 2.8099H27.0014Z" fill="white"/>
<path d="M27.0015 6.56235C22.5272 6.56704 18.2375 8.34678 15.074 11.5109C11.9105 14.6751 10.1317 18.9651 10.1279 23.4394C10.1308 27.9137 11.9094 32.204 15.0732 35.3678C18.237 38.5315 22.5272 40.3102 27.0015 40.313C31.4758 40.3102 35.766 38.5315 38.9298 35.3678C42.0936 32.204 43.8722 27.9137 43.8751 23.4394C43.8713 18.9651 42.0925 14.6751 38.929 11.5109C35.7655 8.34678 31.4758 6.56704 27.0015 6.56235ZM27.0015 8.43679C28.9716 8.43586 30.9226 8.82333 32.7428 9.57704C34.563 10.3308 36.2168 11.4359 37.6096 12.8293C39.0023 14.2227 40.1067 15.877 40.8595 17.6976C41.6124 19.5182 41.9989 21.4693 41.9971 23.4394C41.9994 25.4095 41.6132 27.3607 40.8604 29.1813C40.1077 31.0019 39.0033 32.6562 37.6104 34.0494C36.2175 35.4426 34.5635 36.5474 32.7431 37.3006C30.9227 38.0537 28.9716 38.4404 27.0015 38.4386C25.0308 38.4409 23.079 38.0546 21.2578 37.3017C19.4365 36.5488 17.7817 35.4442 16.3878 34.0511C14.994 32.6579 13.8886 31.0035 13.1349 29.1827C12.3812 27.3618 11.9939 25.4102 11.9953 23.4394C11.9939 21.4686 12.3811 19.5168 13.1348 17.6957C13.8885 15.8746 14.9938 14.22 16.3876 12.8266C17.7814 11.4331 19.4363 10.3282 21.2575 9.57494C23.0787 8.82169 25.0306 8.43493 27.0015 8.43679ZM9.27754 36.3267L0.472245 51.5739C0.384256 51.7302 0.342901 51.9085 0.353073 52.0876C0.363245 52.2667 0.424519 52.4392 0.529643 52.5846C0.634767 52.73 0.77934 52.8422 0.946252 52.908C1.11317 52.9738 1.29543 52.9903 1.47148 52.9558L10.4398 51.1841L13.3879 59.8441C13.4462 60.0145 13.5524 60.1646 13.6937 60.2763C13.835 60.3881 14.0054 60.4569 14.1847 60.4744C14.364 60.492 14.5445 60.4576 14.7048 60.3754C14.8651 60.2931 14.9984 60.1665 15.0887 60.0106L23.7168 45.0718L22.0904 44.1292L14.4969 57.2752L11.9528 49.7986C11.8792 49.5846 11.7307 49.4043 11.5347 49.291C11.3388 49.1777 11.1085 49.139 10.8862 49.1821L3.13332 50.7093L10.9004 37.2657L9.27754 36.3267ZM44.7255 36.3267L43.1062 37.2692L50.8697 50.7128L43.1203 49.1856C42.8981 49.1426 42.6678 49.1813 42.4718 49.2945C42.2758 49.4078 42.1274 49.5881 42.0538 49.8022L39.5061 57.2787L31.9162 44.1328L30.2862 45.0753L38.9108 60.0106C39.0011 60.1665 39.1344 60.2931 39.2946 60.3754C39.4549 60.4576 39.6355 60.492 39.8148 60.4744C39.9941 60.4569 40.1645 60.3881 40.3058 60.2763C40.4471 60.1646 40.5533 60.0145 40.6116 59.8441L43.5632 51.1841L52.528 52.9558C52.704 52.9903 52.8863 52.9738 53.0532 52.908C53.2201 52.8422 53.3647 52.73 53.4698 52.5846C53.575 52.4392 53.6362 52.2667 53.6464 52.0876C53.6566 51.9085 53.6152 51.7302 53.5272 51.5739L44.7255 36.3267Z" fill="white"/>
<path d="M27.0019 12.9971C26.3357 12.9971 26.2224 13.2877 26.0452 13.4684C25.0211 14.6519 23.6428 17.0897 23.1325 17.8976C21.4104 18.3263 19.5785 18.6842 18.0265 19.2937C17.7997 19.4071 17.4915 19.4319 17.2824 20.0626C17.0804 20.6969 17.3143 20.8917 17.4312 21.115C18.186 22.38 20.3333 24.7576 20.7443 25.2536C20.638 27.1423 20.3793 28.8431 20.4963 30.5404C20.5317 30.7884 20.4573 31.0896 20.9923 31.4829C21.5309 31.8727 21.7967 31.7097 22.0447 31.6672C23.5223 31.3128 26.1727 30.1293 27.0019 29.7998C28.6673 30.4341 30.3185 31.2455 31.9555 31.6672C32.2036 31.7097 32.4693 31.8727 33.0079 31.4829C33.5465 31.0931 33.4686 30.7884 33.504 30.5404C33.6316 29.0769 33.302 25.8985 33.256 25.2536C34.2127 24.1339 35.2402 22.9327 36.1438 21.7811C36.6576 21.2213 36.8667 20.626 36.7178 20.0626C36.5655 19.4992 36.204 19.4071 35.9773 19.2937C34.3225 18.6382 32.5685 18.3263 30.8713 17.8976C29.8933 16.4094 29.0358 14.7723 27.9551 13.4684C27.7779 13.2912 27.668 12.9971 26.9984 12.9971H27.0019ZM27.0019 15.2755C27.824 16.4767 28.5149 17.6992 29.298 18.8933C29.4256 19.0704 29.4681 19.1945 29.7693 19.4142C30.0705 19.6303 30.1909 19.6303 30.4 19.6976C31.7996 20.0697 33.1674 20.3744 34.5528 20.7606C33.6741 21.9229 32.7174 22.954 31.8244 24.0702C31.6933 24.2473 31.5941 24.3182 31.4772 24.6725C31.3638 25.0269 31.3992 25.1473 31.4028 25.3635C31.4736 26.8163 31.6083 28.2124 31.6721 29.651C30.113 29.1088 28.4547 28.2336 27.0019 27.9253C26.6298 27.9253 26.5306 27.9998 26.3216 28.0671C24.9645 28.5844 23.6747 29.1443 22.3282 29.6474C22.3742 28.1876 22.5337 26.795 22.601 25.3635C22.601 25.1473 22.6365 25.0233 22.5231 24.6725C22.4097 24.3182 22.3105 24.2473 22.1758 24.0702C21.29 22.9504 20.234 21.7599 19.4474 20.7606C20.847 20.3496 22.2219 20.0661 23.6038 19.6976C23.8129 19.6303 23.9333 19.6303 24.2345 19.4142C24.5322 19.1945 24.5782 19.0704 24.7022 18.8933C25.1983 18.1633 25.6802 17.3484 26.1019 16.661C26.3875 16.1899 26.6876 15.7279 27.0019 15.2755Z" fill="white"/>
</svg>
