<svg width="40" height="40" viewBox="0 0 40 40" fill="none" xmlns="http://www.w3.org/2000/svg">
<g clip-path="url(#clip0_227_433)">
<path d="M0.253261 32.3549L2.746 34.07C3.8897 34.8569 5.22064 35.2598 6.56336 35.2598C7.43522 35.2595 8.29873 35.0901 9.10611 34.7611L12.2922 33.4657C13.0271 33.1669 13.8173 33.0285 14.6099 33.0598C15.4026 33.091 16.1794 33.2912 16.8885 33.6469L16.9769 33.6913C18.8697 34.6409 21.1299 34.6409 23.0225 33.6913L23.111 33.6469C23.8201 33.2912 24.5969 33.0911 25.3896 33.0598C26.1822 33.0285 26.9724 33.1669 27.7073 33.4657L30.8933 34.7611C33.0015 35.6181 35.3788 35.3597 37.2535 34.0699L39.7462 32.3548C39.8741 32.2669 39.9617 32.1317 39.99 31.9791C40.0182 31.8265 39.9846 31.6689 39.8966 31.5411C39.8087 31.4132 39.6735 31.3256 39.5209 31.2973C39.3683 31.2691 39.2107 31.3027 39.0829 31.3907L36.5901 33.1057C35.0409 34.1717 33.076 34.3852 31.3341 33.6769L31.081 33.574C32.6999 30.8101 33.7726 28.0713 34.2714 25.4239C34.2988 25.2764 34.2913 25.1246 34.2494 24.9805C34.2075 24.8365 34.1323 24.7043 34.03 24.5946C33.8724 24.4265 33.713 24.2601 33.5517 24.0956L33.0989 19.9932C33.0727 19.7534 32.9588 19.5317 32.7791 19.3708C32.5994 19.2098 32.3665 19.1209 32.1253 19.1212H31.8317L30.8588 14.0617C30.817 13.8456 30.7013 13.6507 30.5316 13.5104C30.3619 13.3702 30.1486 13.2934 29.9285 13.2931H29.4485L29.1553 11.3977C29.1302 11.2456 29.0461 11.1094 28.9212 11.0189C28.7964 10.9284 28.6408 10.8909 28.4884 10.9145C28.336 10.9381 28.1991 11.0208 28.1073 11.1448C28.0156 11.2688 27.9766 11.424 27.9987 11.5766L28.2642 13.2931H25.1514L24.344 8.07369H27.4568L27.6129 9.08295C27.6367 9.23629 27.7204 9.37392 27.8456 9.46557C27.9708 9.55723 28.1273 9.59542 28.2806 9.57175C28.3566 9.56001 28.4295 9.53342 28.4951 9.49351C28.5608 9.4536 28.618 9.40115 28.6633 9.33915C28.7087 9.27715 28.7415 9.20681 28.7597 9.13216C28.7779 9.05751 28.7812 8.97999 28.7695 8.90405L28.0346 4.15341C27.9438 3.56592 27.4464 3.13954 26.852 3.13954H23.5809L23.3846 1.87032C23.2937 1.28282 22.7963 0.856445 22.2019 0.856445H17.7975C17.2031 0.856445 16.7057 1.28282 16.6148 1.87032L16.4185 3.13954H13.1474C12.553 3.13954 12.0556 3.56592 11.9648 4.15341L10.551 13.2932H10.0709C9.85077 13.2935 9.63757 13.3703 9.46785 13.5105C9.29813 13.6507 9.18247 13.8456 9.14068 14.0617L8.16777 19.1212H8.07071C7.82945 19.121 7.59662 19.2099 7.41691 19.3709C7.23719 19.5319 7.12328 19.7535 7.09702 19.9933L6.66916 23.8708C6.43201 24.1082 6.19875 24.3495 5.96947 24.5945C5.86715 24.7043 5.79201 24.8365 5.75008 24.9806C5.70816 25.1247 5.70062 25.2766 5.72808 25.4241C5.98758 26.8013 6.40639 28.2177 6.97281 29.6339C7.03176 29.7761 7.14437 29.8894 7.28625 29.9491C7.42813 30.0089 7.58784 30.0104 7.73078 29.9532C7.87372 29.896 7.98838 29.7848 8.0499 29.6437C8.11143 29.5026 8.11487 29.3429 8.05947 29.1992C7.91351 28.8336 7.77672 28.4644 7.64925 28.092C10.7505 25.0316 14.6097 22.5656 19.4146 20.5748V33.2028C18.755 33.1338 18.1057 32.9483 17.5017 32.6453L17.4132 32.6009C16.5552 32.1705 15.6152 31.9283 14.656 31.8905C13.6969 31.8526 12.7407 32.0201 11.8515 32.3816L10.0147 33.1283C9.67956 32.563 9.36537 31.9965 9.07982 31.4388C9.04506 31.37 8.99704 31.3087 8.93851 31.2585C8.87999 31.2083 8.81211 31.1701 8.73879 31.1462C8.66547 31.1223 8.58815 31.1131 8.51128 31.1192C8.4344 31.1253 8.35949 31.1465 8.29085 31.1817C8.2222 31.2168 8.16118 31.2652 8.11129 31.324C8.0614 31.3828 8.02363 31.4509 8.00014 31.5243C7.97665 31.5978 7.96791 31.6752 7.97443 31.752C7.98094 31.8288 8.00258 31.9036 8.0381 31.9721C8.3163 32.5143 8.60985 33.0485 8.9184 33.5741L8.66522 33.677C6.9235 34.3852 4.95849 34.1718 3.40925 33.1058L0.916509 31.3907C0.853225 31.3465 0.78181 31.3152 0.706382 31.2987C0.630953 31.2822 0.553002 31.2808 0.477022 31.2945C0.401042 31.3083 0.328535 31.3369 0.26368 31.3788C0.198826 31.4207 0.142906 31.4751 0.0991444 31.5387C0.0553829 31.6023 0.024645 31.674 0.00870227 31.7495C-0.00724045 31.8251 -0.00807263 31.903 0.00625367 31.9789C0.02058 32.0548 0.0497814 32.1271 0.092175 32.1916C0.134568 32.2561 0.189316 32.3116 0.253261 32.3549ZM28.148 32.3817C27.2587 32.0202 26.3026 31.8527 25.3434 31.8905C24.3842 31.9284 23.4442 32.1706 22.5862 32.601L22.4977 32.6454C21.8937 32.9484 21.2444 33.1339 20.5848 33.2028V20.5751C21.2704 20.8588 21.9493 21.1585 22.621 21.4739C22.7611 21.5383 22.9211 21.5447 23.0659 21.4918C23.2108 21.4388 23.3289 21.3308 23.3946 21.1913C23.4603 21.0517 23.4682 20.8919 23.4166 20.7465C23.365 20.6011 23.2581 20.482 23.1192 20.415C22.3085 20.0335 21.4564 19.6633 20.5848 19.3114V17.03C25.7829 19.184 29.8837 21.899 33.1007 25.3148C33.0003 25.8289 32.8796 26.3389 32.7389 26.8436C30.6351 24.8499 28.1635 23.0733 25.3748 21.5567C25.2384 21.4826 25.0782 21.4656 24.9294 21.5096C24.7806 21.5536 24.6553 21.6549 24.5811 21.7912C24.507 21.9276 24.4901 22.0878 24.534 22.2366C24.578 22.3855 24.6793 22.5107 24.8157 22.5849C27.7009 24.1539 30.2328 26.0063 32.3491 28.0927C31.7811 29.7465 30.9911 31.4305 29.9847 33.1285L28.148 32.3817ZM32.234 22.8258C31.2477 21.9298 30.1923 21.0862 29.0636 20.2917H31.9543L32.234 22.8258ZM17.1504 6.06373H22.8489L23.9672 13.2934H16.0321L17.1504 6.06373ZM26.8521 4.31C26.8652 4.31 26.8762 4.31944 26.8781 4.33247L27.2759 6.90362H24.1631L23.7619 4.31008L26.8521 4.31ZM17.7975 2.02698H22.2019C22.2148 2.02698 22.226 2.03665 22.228 2.04945L22.6679 4.89351H17.3315L17.7714 2.04937C17.7723 2.04311 17.7755 2.0374 17.7803 2.03329C17.7851 2.02917 17.7912 2.02693 17.7975 2.02698ZM13.1473 4.31H16.2375L15.8363 6.90354H12.7236L13.1213 4.33239C13.1222 4.32615 13.1254 4.32045 13.1301 4.31634C13.1349 4.31222 13.141 4.30997 13.1473 4.31ZM12.5425 8.07392H15.6552L14.8478 13.2934H11.7352L12.5425 8.07392ZM10.2551 14.4637H29.7443L30.6399 19.1213H27.2911C25.2166 17.8373 22.9184 16.6948 20.3723 15.6799C20.1327 15.5844 19.8656 15.5845 19.6262 15.6803C17.0805 16.6951 14.7825 17.8375 12.7083 19.1213H9.35952L10.2551 14.4637ZM8.2415 20.2916H10.9356C9.8899 21.0277 8.90677 21.8059 7.98356 22.629L8.2415 20.2916ZM7.26016 26.84C7.11969 26.3365 6.99905 25.8277 6.89854 25.3147C10.1156 21.899 14.2167 19.1839 19.4145 17.0299V19.3106C14.4818 21.3014 10.4923 23.7718 7.26016 26.84Z" fill="white"/>
<path d="M39.083 35.2753L36.5903 36.9904C35.0412 38.0563 33.0764 38.2697 31.3342 37.5615L28.1482 36.2662C27.259 35.9047 26.3028 35.7372 25.3436 35.775C24.3845 35.8129 23.4444 36.0551 22.5864 36.4855L22.4979 36.5299C20.9337 37.3145 19.066 37.3145 17.5019 36.5299L17.4134 36.4855C16.5555 36.0551 15.6154 35.8128 14.6563 35.775C13.6971 35.7372 12.7409 35.9046 11.8517 36.2662L8.66553 37.5615C6.92374 38.2697 4.9588 38.0563 3.40956 36.9904L0.916821 35.2753C0.853512 35.2317 0.782245 35.201 0.707088 35.185C0.631931 35.169 0.554356 35.168 0.478792 35.1819C0.403229 35.1959 0.331156 35.2246 0.26669 35.2664C0.202224 35.3083 0.146626 35.3624 0.103072 35.4257C0.0595167 35.489 0.0288575 35.5602 0.0128449 35.6354C-0.00316761 35.7106 -0.00421989 35.7881 0.00974818 35.8637C0.0237162 35.9393 0.0524311 36.0113 0.0942532 36.0758C0.136075 36.1403 0.190186 36.1959 0.253495 36.2394L2.74623 37.9545C3.88993 38.7414 5.22087 39.1444 6.5636 39.1444C7.43545 39.144 8.29896 38.9747 9.10635 38.6456L12.2925 37.3503C13.0274 37.0515 13.8175 36.9131 14.6102 36.9444C15.4028 36.9757 16.1796 37.1758 16.8887 37.5315L16.9772 37.5759C18.8701 38.5254 21.1301 38.5254 23.0228 37.5759L23.1112 37.5315C23.8203 37.1758 24.5971 36.9756 25.3898 36.9444C26.1824 36.9131 26.9726 37.0515 27.7075 37.3503L30.8935 38.6456C33.0017 39.5026 35.3791 39.2442 37.2537 37.9545L39.7464 36.2393C39.8101 36.1959 39.8645 36.1404 39.9066 36.0759C39.9487 36.0114 39.9777 35.9392 39.9918 35.8634C40.006 35.7877 40.0051 35.7099 39.9891 35.6346C39.9731 35.5592 39.9424 35.4877 39.8987 35.4243C39.855 35.3608 39.7993 35.3066 39.7346 35.2647C39.6699 35.2229 39.5976 35.1942 39.5218 35.1804C39.446 35.1665 39.3683 35.1678 39.293 35.1841C39.2177 35.2003 39.1463 35.2313 39.083 35.2753ZM27.1194 17.1254H27.6093C27.9326 17.1254 28.1945 16.8634 28.1945 16.5402C28.1945 16.2171 27.9326 15.9551 27.6093 15.9551H27.1194C26.9643 15.9551 26.8154 16.0167 26.7057 16.1265C26.5959 16.2362 26.5343 16.385 26.5343 16.5402C26.5343 16.6954 26.5959 16.8443 26.7057 16.954C26.8154 17.0637 26.9643 17.1254 27.1194 17.1254ZM12.8803 17.1254C13.2036 17.1254 13.4655 16.8634 13.4655 16.5402C13.4655 16.2171 13.2036 15.9551 12.8803 15.9551H12.3904C12.0672 15.9551 11.8053 16.2171 11.8053 16.5402C11.8053 16.8634 12.0672 17.1254 12.3904 17.1254H12.8803Z" fill="white"/>
</g>
<defs>
<clipPath id="clip0_227_433">
<rect width="40" height="40" fill="white"/>
</clipPath>
</defs>
</svg>
