<svg width="40" height="40" viewBox="0 0 40 40" fill="none" xmlns="http://www.w3.org/2000/svg">
<g clip-path="url(#clip0_227_415)">
<path d="M31.5234 9.11719H8.47656V20.6406H31.5234V9.11719ZM19.3594 19.3594H9.75781V10.3984H19.3594V19.3594ZM30.2422 19.3594H20.6406V10.3984H30.2422V19.3594ZM11.0391 25.7578C9.27344 25.7578 7.83594 27.1953 7.83594 28.9609C7.83594 30.7266 9.27344 32.1641 11.0391 32.1641C12.8047 32.1641 14.2422 30.7266 14.2422 28.9609C14.2422 27.1953 12.8047 25.7578 11.0391 25.7578ZM11.0391 30.8828C9.97656 30.8828 9.11719 30.0234 9.11719 28.9609C9.11719 27.8984 9.97656 27.0391 11.0391 27.0391C12.1016 27.0391 12.9609 27.8984 12.9609 28.9609C12.9609 30.0234 12.0938 30.8828 11.0391 30.8828ZM28.9609 25.7578C27.1953 25.7578 25.7578 27.1953 25.7578 28.9609C25.7578 30.7266 27.1953 32.1641 28.9609 32.1641C30.7266 32.1641 32.1641 30.7266 32.1641 28.9609C32.1641 27.1953 30.7266 25.7578 28.9609 25.7578ZM28.9609 30.8828C27.8984 30.8828 27.0391 30.0234 27.0391 28.9609C27.0391 27.8984 27.8984 27.0391 28.9609 27.0391C30.0234 27.0391 30.8828 27.8984 30.8828 28.9609C30.8828 30.0234 30.0234 30.8828 28.9609 30.8828ZM15.5156 31.5234H24.4766V26.4062H15.5156V31.5234ZM16.7969 27.6797H23.2031V30.2422H16.7969V27.6797Z" fill="white"/>
<path d="M39.2031 20.6406V11.6797H35.3594V10.6797C35.3594 7.35156 33.0703 4.51562 29.7891 3.78906C28.6719 3.53906 27.5391 3.35156 26.3984 3.19531V2.07812C26.3984 1.01562 25.5391 0.15625 24.4766 0.15625H15.5156C14.4531 0.15625 13.5938 1.01562 13.5938 2.07812V3.1875C12.4609 3.35156 11.3281 3.53906 10.2031 3.78125C6.92188 4.50781 4.63281 7.34375 4.63281 10.6719V11.6719H0.796875V20.6328H4.64063V25.8828C4.64063 26.3906 4.39063 26.8594 3.96875 27.1406C3.1875 27.6641 2.72656 28.5312 2.72656 29.4688V33.4375C2.72656 35.2031 4.16406 36.6406 5.92969 36.6406H6.57031V37.9219C6.57031 38.9844 7.42969 39.8438 8.49219 39.8438H11.0547C12.1172 39.8438 12.9766 38.9844 12.9766 37.9219V36.6406H27.0625V37.9219C27.0625 38.9844 27.9219 39.8438 28.9844 39.8438H31.5469C32.6094 39.8438 33.4688 38.9844 33.4688 37.9219V36.6406H34.1094C35.875 36.6406 37.3125 35.2031 37.3125 33.4375V29.4688C37.3125 28.5312 36.8438 27.6641 36.0703 27.1406C35.6484 26.8594 35.3984 26.3906 35.3984 25.8828V20.6328H39.2031V20.6406ZM35.3594 12.9609H37.9219V19.3594H35.3594V12.9609ZM14.8828 2.07812C14.8828 1.72656 15.1719 1.4375 15.5234 1.4375H24.4844C24.8359 1.4375 25.125 1.72656 25.125 2.07812V3.01562C21.7266 2.63281 18.2813 2.63281 14.8828 3.01562V2.07812ZM2.07813 19.3594V12.9609H4.64063V19.3594H2.07813ZM11.6797 37.9219C11.6797 38.2734 11.3906 38.5625 11.0391 38.5625H8.47656C8.125 38.5625 7.83594 38.2734 7.83594 37.9219V36.6406H11.6797V37.9219ZM32.1641 37.9219C32.1641 38.2734 31.875 38.5625 31.5234 38.5625H28.9609C28.6094 38.5625 28.3203 38.2734 28.3203 37.9219V36.6406H32.1641V37.9219ZM36 29.4766V33.4453C36 34.5078 35.1406 35.3672 34.0781 35.3672H5.91406C4.85156 35.3672 3.99219 34.5078 3.99219 33.4453V29.4766C3.99219 28.9688 4.24219 28.5 4.66406 28.2188C5.44531 27.6953 5.90625 26.8281 5.90625 25.8906V10.6719C5.90625 7.94531 7.78906 5.625 10.4766 5.03125C13.5938 4.34375 16.7969 3.99219 19.9922 3.99219C23.1875 3.99219 26.3906 4.34375 29.5078 5.03125C32.1953 5.625 34.0781 7.94531 34.0781 10.6719V25.8828C34.0781 26.8203 34.5469 27.6875 35.3203 28.2109C35.75 28.4922 36 28.9688 36 29.4766Z" fill="white"/>
</g>
<defs>
<clipPath id="clip0_227_415">
<rect width="40" height="40" fill="white"/>
</clipPath>
</defs>
</svg>
