<svg width="40" height="40" viewBox="0 0 40 40" fill="none" xmlns="http://www.w3.org/2000/svg">
<g clip-path="url(#clip0_227_470)">
<path d="M0.186142 38.9811L8.4606 30.9066C8.23204 30.3599 8.1146 29.7731 8.11513 29.1805V9.88797C8.11513 7.40742 10.1259 5.39664 12.6065 5.39664H19.4722V4.27945C18.6429 4.13016 18.0115 3.40352 18.0115 2.5318V1.18773H16.9434C15.9054 1.18773 15.064 2.02922 15.064 3.06719V3.35602C15.064 3.68125 14.8134 3.96477 14.4884 3.97453C14.4089 3.97698 14.3297 3.96344 14.2556 3.93471C14.1814 3.90598 14.1138 3.86265 14.0567 3.80729C13.9996 3.75193 13.9542 3.68566 13.9232 3.61242C13.8922 3.53918 13.8762 3.46047 13.8762 3.38094V3.06711C13.8762 1.3732 15.2495 0 16.9434 0H23.3877C25.0816 0 26.4549 1.37328 26.4549 3.06719V3.35602C26.4549 3.68125 26.2043 3.96477 25.8793 3.97453C25.7999 3.97698 25.7207 3.96344 25.6465 3.93471C25.5724 3.90598 25.5047 3.86265 25.4476 3.80729C25.3905 3.75193 25.3451 3.68566 25.3141 3.61242C25.2831 3.53918 25.2672 3.46047 25.2672 3.38094V3.06711C25.2672 2.02914 24.4257 1.18766 23.3877 1.18766H22.3196V2.5318C22.3196 3.47211 21.5852 4.24352 20.66 4.30391V5.3968H22.0983C22.2557 5.3968 22.4068 5.45936 22.5182 5.57073C22.6295 5.68209 22.6921 5.83313 22.6921 5.99062C22.6921 6.14812 22.6295 6.29916 22.5182 6.41052C22.4068 6.52189 22.2557 6.58445 22.0983 6.58445H12.6065C10.7818 6.58445 9.30286 8.06359 9.30286 9.88805V29.1805C9.30286 31.005 10.782 32.4841 12.6065 32.4841H15.8305V31.5609C15.8305 30.2953 16.8565 29.2694 18.1221 29.2694H22.2088C23.4744 29.2694 24.5004 30.2954 24.5004 31.5609V32.4841H27.7245C29.5491 32.4841 31.0281 31.0049 31.0281 29.1805V9.88797C31.0281 8.06336 29.549 6.58437 27.7245 6.58437H24.8695C24.712 6.58437 24.561 6.52181 24.4496 6.41045C24.3382 6.29908 24.2757 6.14804 24.2757 5.99055C24.2757 5.83305 24.3382 5.68201 24.4496 5.57065C24.561 5.45928 24.712 5.39672 24.8695 5.39672H27.7245C30.205 5.39672 32.2158 7.4075 32.2158 9.88805V29.1805C32.2162 29.8152 32.0812 30.4427 31.8197 31.021L39.8144 38.8227C39.9266 38.9329 39.9905 39.083 39.9922 39.2402C39.9938 39.3973 39.9331 39.5488 39.8233 39.6613C39.7135 39.7738 39.5636 39.8382 39.4065 39.8403C39.2493 39.8425 39.0977 39.7822 38.9848 39.6728L31.1754 32.0516C30.8823 32.4029 30.5378 32.7076 30.1534 32.9555L34.5756 38.893C34.6413 38.9813 34.6812 39.0861 34.6909 39.1957C34.7005 39.3054 34.6795 39.4155 34.6301 39.5139C34.5808 39.6123 34.505 39.695 34.4114 39.7529C34.3178 39.8108 34.2099 39.8415 34.0998 39.8416C33.9186 39.8416 33.7397 39.7589 33.6231 39.6023L32.4729 38.058H7.64677L6.37849 39.7607C6.32323 39.835 6.25133 39.8954 6.16854 39.9369C6.08576 39.9785 5.99439 40 5.90177 39.9999C5.76661 39.9999 5.6302 39.954 5.51739 39.8584C5.27583 39.6536 5.24888 39.289 5.43802 39.035L10.0368 32.8606C9.67653 32.6082 9.355 32.3047 9.08232 31.9595L1.01575 39.8311C0.904953 39.9395 0.756065 40.0001 0.601067 39.9999C0.521828 40 0.443375 39.9842 0.370358 39.9535C0.29734 39.9227 0.231243 39.8776 0.175987 39.8208C0.121487 39.765 0.0785141 39.699 0.0495262 39.6266C0.0205383 39.5542 0.00610352 39.4768 0.00704575 39.3988C0.00798798 39.3209 0.024292 39.2438 0.0550232 39.1721C0.0857544 39.1005 0.13031 39.0355 0.186142 38.9811ZM20.5434 3.12047C20.8679 3.12039 21.1319 2.85641 21.1319 2.53188V1.18773H19.1993V2.53188C19.1993 2.85641 19.4633 3.12047 19.7879 3.12047H20.5434ZM23.3128 31.5609C23.3128 30.9522 22.8175 30.457 22.2089 30.457H18.1222C17.5134 30.457 17.0183 30.9523 17.0183 31.5609V32.4841H23.3127V31.5609H23.3128ZM8.53122 36.8704H31.5883L29.056 33.4704C28.6249 33.6042 28.1761 33.6721 27.7247 33.6718H12.6065C12.0953 33.672 11.5878 33.5845 11.1061 33.4132L8.53122 36.8704Z" fill="white"/>
<path d="M11.1388 10.6232H17.2559C17.5318 9.26969 18.7314 8.24805 20.1652 8.24805C21.5991 8.24805 22.7987 9.26961 23.0746 10.6232H29.1912C29.2692 10.6232 29.3465 10.6385 29.4185 10.6684C29.4906 10.6982 29.556 10.742 29.6112 10.7971C29.6663 10.8523 29.7101 10.9177 29.7399 10.9898C29.7697 11.0618 29.7851 11.139 29.7851 11.217V22.6191C29.7851 22.6971 29.7697 22.7744 29.7399 22.8464C29.7101 22.9185 29.6663 22.9839 29.6112 23.0391C29.556 23.0942 29.4906 23.1379 29.4185 23.1678C29.3465 23.1976 29.2692 23.213 29.1912 23.213H17.6639C17.5064 23.213 17.3554 23.1504 17.244 23.039C17.1326 22.9277 17.0701 22.7766 17.0701 22.6191C17.0701 22.4616 17.1326 22.3106 17.244 22.1992C17.3554 22.0879 17.5064 22.0253 17.6639 22.0253H28.5975V11.8109H23.0748C22.799 13.1646 21.5992 14.1865 20.1653 14.1865C18.7314 14.1865 17.5316 13.1647 17.2559 11.8109H11.7327V22.0253H14.8927C15.0501 22.0253 15.2012 22.0879 15.3126 22.1992C15.4239 22.3106 15.4865 22.4616 15.4865 22.6191C15.4865 22.7766 15.4239 22.9277 15.3126 23.039C15.2012 23.1504 15.0501 23.213 14.8927 23.213H11.1389C11.0609 23.213 10.9837 23.1976 10.9116 23.1678C10.8396 23.1379 10.7741 23.0942 10.719 23.0391C10.6638 22.9839 10.6201 22.9185 10.5903 22.8464C10.5604 22.7744 10.5451 22.6971 10.5451 22.6191V11.217H10.545C10.545 11.139 10.5603 11.0618 10.5902 10.9898C10.62 10.9177 10.6638 10.8523 10.7189 10.7971C10.774 10.742 10.8395 10.6982 10.9116 10.6684C10.9836 10.6385 11.0608 10.6232 11.1388 10.6232ZM20.1653 12.9987C21.1477 12.9987 21.9468 12.1995 21.9468 11.2172C21.9468 10.2348 21.1477 9.4357 20.1653 9.4357C19.183 9.4357 18.3838 10.2348 18.3838 11.2172C18.3838 12.1995 19.183 12.9987 20.1653 12.9987ZM24.5413 24.2423H29.1913C29.2693 24.2423 29.3465 24.2577 29.4186 24.2875C29.4906 24.3174 29.5561 24.3611 29.6113 24.4162C29.6664 24.4714 29.7101 24.5369 29.74 24.6089C29.7698 24.681 29.7852 24.7582 29.7852 24.8362V27.2112C29.7852 27.2892 29.7698 27.3664 29.74 27.4384C29.7101 27.5105 29.6664 27.576 29.6113 27.6311C29.5561 27.6862 29.4906 27.73 29.4186 27.7598C29.3465 27.7897 29.2693 27.805 29.1913 27.805H24.5413C24.4633 27.805 24.3861 27.7897 24.3141 27.7598C24.242 27.73 24.1765 27.6862 24.1214 27.6311C24.0663 27.576 24.0225 27.5105 23.9927 27.4384C23.9628 27.3664 23.9475 27.2892 23.9475 27.2112V24.8362C23.9475 24.6787 24.0101 24.5277 24.1215 24.4163C24.2328 24.3049 24.3838 24.2424 24.5413 24.2423ZM25.1352 26.6173H28.5975V25.4301H25.1352V26.6173ZM11.1388 24.2423H15.7889C15.8669 24.2423 15.9441 24.2577 16.0162 24.2875C16.0882 24.3174 16.1537 24.3611 16.2088 24.4162C16.264 24.4714 16.3077 24.5369 16.3376 24.6089C16.3674 24.681 16.3827 24.7582 16.3827 24.8362V27.2112C16.3827 27.2892 16.3674 27.3664 16.3376 27.4384C16.3077 27.5105 16.264 27.576 16.2088 27.6311C16.1537 27.6862 16.0882 27.73 16.0162 27.7598C15.9441 27.7897 15.8669 27.805 15.7889 27.805H11.1388C11.0608 27.805 10.9836 27.7897 10.9116 27.7598C10.8395 27.73 10.774 27.6862 10.7189 27.6311C10.6638 27.576 10.62 27.5105 10.5902 27.4384C10.5603 27.3664 10.545 27.2892 10.545 27.2112V24.8362C10.545 24.7582 10.5603 24.681 10.5902 24.6089C10.62 24.5369 10.6638 24.4714 10.7189 24.4162C10.774 24.3611 10.8395 24.3174 10.9116 24.2875C10.9836 24.2577 11.0608 24.2423 11.1388 24.2423ZM11.7327 26.6173H15.195V25.4301H11.7327V26.6173Z" fill="white"/>
</g>
<defs>
<clipPath id="clip0_227_470">
<rect width="40" height="40" fill="white" transform="matrix(-1 0 0 1 40 0)"/>
</clipPath>
</defs>
</svg>
