<svg width="40" height="40" viewBox="0 0 40 40" fill="none" xmlns="http://www.w3.org/2000/svg">
<g clip-path="url(#clip0_227_452)">
<path d="M19.4375 8.8125C19.25 8.8125 19.125 8.75 19 8.625C18.75 8.375 18.75 8 19 7.75L19.375 7.375C19.6875 7 19.6875 6.4375 19.375 6.125C19.0625 5.8125 18.5 5.8125 18.125 6.125L16.0625 8.1875C15.8125 8.4375 15.4375 8.4375 15.1875 8.1875C14.9375 7.9375 14.9375 7.5625 15.1875 7.3125L17.25 5.25C18.125 4.4375 19.4375 4.4375 20.25 5.25C21.0625 6.0625 21.0625 7.375 20.25 8.25L19.875 8.625C19.75 8.75 19.625 8.8125 19.4375 8.8125ZM11.3125 7.875C11.125 7.875 11 7.8125 10.875 7.6875C10.625 7.4375 10.625 7.0625 10.875 6.8125L11.5 6.1875C11.8125 5.8125 11.8125 5.25 11.5 4.9375C11.1875 4.625 10.5625 4.625 10.25 4.9375L7.9375 7.25C7.6875 7.5 7.3125 7.5 7.0625 7.25C6.8125 7 6.8125 6.625 7.0625 6.375L9.375 4.0625C10.125 3.3125 11.625 3.3125 12.375 4.0625C13.1875 4.875 13.1875 6.1875 12.375 7.0625L11.75 7.6875C11.625 7.8125 11.5 7.875 11.3125 7.875Z" fill="white"/>
<path d="M16.9375 18.4379C16.8125 18.4379 16.6875 18.3754 16.5625 18.3129C12.8125 15.8129 6.3125 12.1254 1.0625 10.0004C0.875 9.93791 0.6875 9.81291 0.5 9.62541C-0.1875 8.93791 -0.1875 7.87541 0.5 7.12541L0.5625 7.06291C1.5625 6.12541 2.9375 5.68791 4.375 5.81291L19.4375 7.56291L25.125 8.50041C25.4375 8.56291 25.6875 8.87541 25.625 9.18791C25.5625 9.50041 25.25 9.75041 24.9375 9.68791L19.25 8.75041L4.25 7.06291C3.1875 6.93791 2.1875 7.31291 1.375 8.00041C1.1875 8.25041 1.1875 8.56291 1.375 8.75041C1.4375 8.81291 1.5 8.81291 1.5625 8.87541C6.8125 11.0004 13.4375 14.7504 17.25 17.3129C17.5625 17.5004 17.625 17.8754 17.4375 18.1879C17.3125 18.3129 17.125 18.4379 16.9375 18.4379ZM32.5 24.8754C32.3125 24.8754 32.1875 24.8129 32.0625 24.6879C31.8125 24.4379 31.8125 24.0629 32.0625 23.8129L34.125 21.7504C34.4375 21.3754 34.4375 20.8129 34.125 20.5004C33.8125 20.1879 33.25 20.1879 32.875 20.5004L32.5 20.8754C32.25 21.1254 31.875 21.1254 31.625 20.8754C31.375 20.6254 31.375 20.2504 31.625 20.0004L32 19.6254C32.875 18.8129 34.1875 18.8129 35 19.6254C35.8125 20.4379 35.8125 21.7504 35 22.6254L32.9375 24.6879C32.8125 24.8129 32.6875 24.8754 32.5 24.8754ZM33.4375 32.9379C33.25 32.9379 33.125 32.8754 33 32.7504C32.75 32.5004 32.75 32.1254 33 31.8754L35.25 29.5629C35.5625 29.1879 35.5625 28.6254 35.25 28.3129C34.9375 28.0004 34.375 28.0004 34 28.3129L33.375 28.9379C33.125 29.1879 32.75 29.1879 32.5 28.9379C32.25 28.6879 32.25 28.3129 32.5 28.0629L33.125 27.4379C34 26.6254 35.3125 26.6254 36.125 27.4379C36.9375 28.2504 36.9375 29.5629 36.125 30.4379L33.875 32.7504C33.75 32.8754 33.625 32.9379 33.4375 32.9379Z" fill="white"/>
<path d="M31.8125 39.8125C31.375 39.8125 30.875 39.625 30.5625 39.3125C30.375 39.125 30.25 38.9375 30.1875 38.75C28 33.4375 24.3125 26.75 21.75 22.875C21.5625 22.5625 21.625 22.1875 21.9375 22C22.25 21.8125 22.625 21.875 22.8125 22.1875C25.4375 26.125 29.1875 32.875 31.375 38.25C31.4375 38.3125 31.4375 38.375 31.5 38.4375C31.6875 38.625 32.0625 38.625 32.25 38.4375C33 37.6875 33.375 36.625 33.25 35.5625L31.5 20.4375L30.625 14.5C30.5625 14.1875 30.8125 13.8125 31.125 13.8125C31.4375 13.75 31.8125 14 31.8125 14.3125L32.6875 20.25L34.4375 35.375C34.5625 36.8125 34.0625 38.25 33.0625 39.25C32.75 39.6875 32.25 39.8125 31.8125 39.8125ZM8.875 29.875C8.75 29.875 8.625 29.8125 8.5 29.75L1.8125 25.25C1.5 25 1.3125 24.625 1.25 24.25C1.25 23.875 1.375 23.5625 1.625 23.25L2.75 22.125C3.125 21.75 3.5 21.75 3.8125 21.75H3.9375L11.0625 23.5C11.375 23.5625 11.625 23.9375 11.5 24.25C11.4375 24.5625 11.0625 24.8125 10.75 24.6875L3.8125 23.0625H3.6875L2.5625 24.1875L9.25 28.75C9.5625 28.9375 9.625 29.3125 9.4375 29.625C9.25 29.75 9.0625 29.875 8.875 29.875ZM15.9375 38.6875H15.75C15.375 38.625 15.0625 38.4375 14.875 38.125L10 30.875C9.8125 30.5625 9.875 30.1875 10.1875 30C10.5 29.8125 10.875 29.875 11.0625 30.1875L15.9375 37.375L17 36.3125L14.875 28.875C14.75 28.5625 15 28.1875 15.3125 28.125C15.625 28.0625 16 28.25 16.0625 28.5625L18.1875 36C18.3125 36.375 18.1875 36.875 17.8125 37.25L16.6875 38.375C16.5625 38.5625 16.25 38.6875 15.9375 38.6875Z" fill="white"/>
<path d="M11.3121 30.9375C11.1246 30.9375 10.8746 30.9375 10.6871 30.875C10.3746 30.8125 10.1246 30.5 10.1871 30.1875C10.2496 29.875 10.5621 29.625 10.8746 29.6875C12.1871 29.875 14.3746 29 14.9996 28.375L35.8121 9.375C37.8746 7.375 39.4996 3.1875 38.2496 1.875C37.9371 1.5625 37.4371 1.375 36.7496 1.4375C34.8746 1.4375 32.1246 2.75 30.6246 4.25L11.3746 24.625C10.7496 25.25 9.81215 27.3125 10.0621 28.6875C10.1246 29 9.87465 29.375 9.56215 29.375C9.24965 29.4375 8.87465 29.1875 8.87465 28.875C8.56215 27.0625 9.68715 24.625 10.5621 23.75L29.8121 3.3125C31.5621 1.5 34.6246 0.125 36.8121 0.0625H36.8746C37.8746 0.0625 38.6871 0.3125 39.2496 0.875C41.2496 2.9375 39.1871 7.8125 36.8121 10.125L15.9371 29.1875C15.1871 30 13.0621 30.9375 11.3121 30.9375Z" fill="white"/>
<path d="M35.5 6.875C35.1875 6.875 34.875 6.625 34.875 6.3125C34.8125 5.75 34.375 5.375 33.75 5.3125H33.625C33.25 5.3125 33 5.0625 33 4.6875C33 4.3125 33.25 4.0625 33.625 4.0625H33.8125C35.125 4.125 36.0625 5 36.125 6.1875C36.125 6.5625 35.875 6.875 35.5 6.875ZM8.5625 32.6875C8.125 32.6875 7.6875 32.5 7.375 32.1875C7.0625 31.875 6.875 31.5 6.875 31.0625C6.875 30.625 7.0625 30.1875 7.3125 29.875L10.875 26.3125C11.4375 25.75 12.625 25.75 13.1875 26.3125C13.5 26.625 13.625 27 13.625 27.5C13.625 28 13.4375 28.375 13.1875 28.6875L9.625 32.25C9.4375 32.5 9 32.6875 8.5625 32.6875ZM12.125 27.125C12 27.125 11.9375 27.1875 11.875 27.25L8.3125 30.8125C8.25 30.875 8.1875 31 8.1875 31.0625C8.1875 31.1875 8.25 31.25 8.3125 31.3125C8.5 31.5 8.6875 31.5 8.8125 31.375L12.4375 27.75C12.5 27.6875 12.5625 27.5625 12.5625 27.5C12.5625 27.4375 12.5 27.3125 12.4375 27.25C12.3125 27.125 12.1875 27.125 12.125 27.125Z" fill="white"/>
</g>
<defs>
<clipPath id="clip0_227_452">
<rect width="40" height="40" fill="white"/>
</clipPath>
</defs>
</svg>
