<svg width="33" height="45" viewBox="0 0 33 45" fill="none" xmlns="http://www.w3.org/2000/svg">
<path d="M3.14914 14.3587C3.25414 14.6188 3.50653 14.7889 3.78684 14.7889H3.79022L7.36618 14.7714L7.41991 26.1377C7.42176 26.5162 7.72909 26.822 8.10766 26.822H8.11104L10.4113 26.8107H10.4116C10.3533 26.4367 10.3229 26.0591 10.3201 25.6805C10.3198 25.5985 10.3244 25.5171 10.3269 25.4358L8.79208 25.4435L8.73835 14.0772V14.0769C8.73651 13.6983 8.42917 13.3925 8.05061 13.3925H8.04723L5.51082 13.4048L17.8274 1.6353L30.254 13.2837L27.7173 13.296C27.3375 13.2979 27.0311 13.607 27.0329 13.9868L27.0864 25.3531L25.4367 25.3614C25.4444 25.4928 25.4502 25.6248 25.4511 25.7572C25.4502 26.0848 25.429 26.4121 25.387 26.7372L27.7806 26.7256V26.7253C28.1604 26.7234 28.4668 26.4142 28.4652 26.0344L28.4118 14.6682L31.9878 14.6507V14.6504C32.2693 14.6488 32.5217 14.476 32.6246 14.2141C32.7274 13.9519 32.6602 13.6537 32.4548 13.4609L18.2935 0.187044C18.027 -0.0628789 17.6119 -0.0607253 17.3479 0.191649L3.31235 13.6047H3.31205C3.10849 13.7993 3.04432 14.098 3.14963 14.3593L3.14914 14.3587Z" fill="#EC7216"/>
<path d="M11.6954 25.6622C11.7031 27.318 12.3583 28.905 13.5211 30.084C14.6838 31.263 16.2613 31.9406 17.9168 31.9714L17.9727 31.9717C19.5944 31.9769 21.1498 31.3294 22.2886 30.1753C23.4486 29.0064 24.0921 27.4219 24.0755 25.7753C24.054 23.5202 22.8498 21.4419 20.9041 20.3012L20.8959 19.0372H20.8962C20.8937 18.6684 20.7436 18.3163 20.4789 18.0593L19.9339 17.53C19.9511 17.5236 19.968 17.5171 19.9849 17.5101L19.9852 17.5104C20.3119 17.375 20.5738 17.1192 20.7169 16.7956C20.8596 16.4723 20.8725 16.1063 20.7528 15.7735C20.633 15.441 20.3899 15.1671 20.0736 15.009L20.0626 15.0035C20.0073 14.947 19.9474 14.8954 19.8836 14.849L19.6892 14.7087L20.0368 14.4167C20.3306 14.1699 20.5078 13.8116 20.5259 13.4284C20.544 13.0453 20.4012 12.6719 20.132 12.3984L19.7341 11.9943L20.3478 11.4057C20.3589 11.395 20.3699 11.3842 20.3807 11.3732V11.3735C20.5858 11.1917 20.7316 10.9532 20.8004 10.6879C20.8688 10.4226 20.8569 10.1429 20.7657 9.8847C20.7497 9.57767 20.6315 9.28507 20.4295 9.05327L18.6417 6.99986L18.642 6.99955C18.3807 6.69959 18.0024 6.52734 17.6045 6.52734C17.5766 6.52734 17.5487 6.52826 17.5204 6.5298V6.53011C17.0939 6.5562 16.7037 6.7788 16.4645 7.13281L15.2883 8.87426V8.87456C15.1126 9.13431 15.0313 9.44594 15.0574 9.75849L15.1093 20.4527C12.9521 21.5583 11.685 23.4779 11.6954 25.6624L11.6954 25.6622ZM19.4589 16.2397H19.4586L19.4583 16.2394L19.4589 16.2397ZM16.0748 21.515C16.3269 21.4027 16.4884 21.1515 16.4866 20.8755L16.4328 9.75682C16.4325 9.71629 16.4307 9.67884 16.4279 9.64475L17.6045 7.9033L19.3923 9.95672L19.396 10.4139L18.287 11.4774H18.2867C18.1519 11.607 18.0749 11.7851 18.0724 11.9717C18.0696 12.1584 18.1421 12.3383 18.2729 12.4716L19.152 13.3641L18.1387 14.2151H18.139C17.9751 14.3536 17.8836 14.5599 17.8916 14.7746C17.8993 14.9892 18.0049 15.1881 18.1783 15.3146L19.0776 15.9643L18.2112 16.7242L18.2115 16.7245C18.0654 16.8531 17.9794 17.0368 17.9748 17.2314C17.9683 17.4264 18.0451 17.6149 18.186 17.75L19.5206 19.0466L19.5314 20.7131V20.7128C19.5323 20.9765 19.6824 21.2166 19.9186 21.3336C20.746 21.7453 21.4439 22.3778 21.9348 23.1614C22.4254 23.9446 22.6904 24.8485 22.6999 25.773V25.7822C22.7137 27.0634 22.2139 28.2967 21.3122 29.2071C20.431 30.1002 19.2275 30.6013 17.9726 30.5967C17.9582 30.5967 17.9435 30.5967 17.929 30.5964V30.5967C16.6358 30.5712 15.404 30.041 14.4961 29.1196C13.5885 28.1982 13.077 26.9581 13.0709 25.6649V25.6563C13.0586 23.1258 15.1673 21.9177 16.0749 21.5154L16.0748 21.515Z" fill="#EC7216"/>
<path d="M17.885 28.8779C18.6151 28.8792 19.3161 28.5899 19.8328 28.0739C20.3498 27.5578 20.6402 26.8574 20.6402 26.1273C20.6402 25.3968 20.3501 24.6965 19.833 24.1804C19.3163 23.6643 18.6157 23.375 17.8853 23.376H17.8711C16.8902 23.3812 15.9863 23.9084 15.4987 24.7595C15.0111 25.6109 15.0136 26.6573 15.5054 27.5061C15.9973 28.3551 16.9036 28.8776 17.8849 28.8779H17.885ZM17.8786 24.7515H17.8853C18.376 24.7515 18.8295 25.0127 19.0757 25.4374C19.3216 25.8617 19.3229 26.3852 19.0788 26.8111C18.8347 27.2369 18.3824 27.5003 17.8918 27.5025H17.885C17.3941 27.5025 16.9406 27.2412 16.6944 26.8166C16.4485 26.3923 16.4472 25.8688 16.6913 25.4429C16.9354 25.017 17.3877 24.7536 17.8783 24.7515H17.8786Z" fill="#EC7216"/>
<path d="M0.945192 30.8819C0.55864 31.2697 0.343726 31.7962 0.347711 32.3437L0.390695 41.1775C0.393458 41.7228 0.612063 42.245 0.998615 42.6298C1.38517 43.0145 1.90833 43.2306 2.45365 43.2306H2.46409L4.52638 43.2208C5.02684 43.219 5.50951 43.0344 5.88403 42.7025C6.25861 42.3703 6.49932 41.9131 6.56134 41.4164L8.17357 40.8951C8.42718 40.8134 8.70228 40.8284 8.94544 40.9371L15.2457 43.7508V43.7505C16.1882 44.1732 17.281 44.0876 18.1461 43.5236C18.16 43.5143 18.1735 43.5051 18.1864 43.4953L28.8421 35.4475C29.3849 35.0969 29.7641 34.5433 29.8952 33.9108C30.0263 33.2783 29.8979 32.6194 29.5393 32.0821C29.1804 31.5448 28.621 31.1742 27.9864 31.0529C27.3517 30.9317 26.695 31.0701 26.1636 31.4373L21.0617 35.297C20.5603 34.6593 19.4483 34.4185 18.2207 34.1539C16.1267 33.7689 14.0994 33.0839 12.2008 32.1204C9.72518 30.8177 7.68741 30.764 6.15747 31.1339C6.08808 31.0354 6.01071 30.9433 5.92536 30.8579C5.54004 30.4744 5.01777 30.2595 4.47402 30.2607H4.46358L2.40129 30.2706C1.85386 30.2718 1.32943 30.4919 0.945389 30.8822L0.945192 30.8819ZM11.5608 33.3375H11.5605C13.5685 34.3614 15.714 35.0891 17.9308 35.498C19.4893 35.8342 20.0005 35.9927 19.9569 36.2678H19.9565C19.8601 36.7326 19.5451 37.1222 19.1107 37.3135C17.7168 38.0489 15.2433 37.7111 12.4972 36.4087V36.409C12.3323 36.3304 12.1429 36.3209 11.971 36.382C11.799 36.4431 11.6584 36.5705 11.5801 36.7354C11.5021 36.9003 11.4926 37.0897 11.554 37.2616C11.6157 37.4336 11.7431 37.5739 11.908 37.6519C13.8856 38.5895 15.7379 39.0682 17.2897 39.0682H17.29C18.1423 39.0912 18.9876 38.9067 19.7526 38.53C20.4303 38.1972 20.9516 37.6138 21.207 36.9037C21.2245 36.8926 21.2433 36.8843 21.2602 36.8715L26.9675 32.5528C27.2656 32.348 27.6516 32.3216 27.9752 32.4837C28.308 32.6572 28.5241 32.9934 28.5438 33.3683C28.5637 33.7429 28.3838 34.1002 28.0713 34.3075C28.0574 34.3164 28.0439 34.3259 28.031 34.3357L17.3792 42.3812C16.907 42.6799 16.3166 42.7223 15.8069 42.4941L9.50639 39.6805V39.6802C8.95281 39.4327 8.32739 39.3993 7.75079 39.586L6.57392 39.9664L6.53738 32.4389C7.78334 32.161 9.46584 32.2353 11.5607 33.3373L11.5608 33.3375ZM4.4703 31.636H4.47368C4.85194 31.636 5.15928 31.9421 5.16112 32.3203L5.2041 41.1541C5.20502 41.3365 5.13318 41.5118 5.00484 41.6414C4.8765 41.771 4.7021 41.844 4.51973 41.845L2.45744 41.8548H2.45406C2.07549 41.8548 1.76815 41.549 1.76631 41.1704L1.72333 32.3366C1.72241 32.1542 1.79395 31.9789 1.92259 31.8494C2.05093 31.7195 2.22563 31.6464 2.40801 31.6455L4.4703 31.636Z" fill="#EC7216"/>
</svg>
