<svg width="19" height="11" viewBox="0 0 19 11" fill="none" xmlns="http://www.w3.org/2000/svg">
<path d="M5.14567 9.42861H3.56234C3.45736 9.42861 3.35667 9.38722 3.28244 9.31354C3.20821 9.23987 3.1665 9.13994 3.1665 9.03575C3.1665 8.93156 3.20821 8.83163 3.28244 8.75796C3.35667 8.68428 3.45736 8.64289 3.56234 8.64289H5.14567C5.25065 8.64289 5.35133 8.68428 5.42557 8.75796C5.4998 8.83163 5.5415 8.93156 5.5415 9.03575C5.5415 9.13994 5.4998 9.23987 5.42557 9.31354C5.35133 9.38722 5.25065 9.42861 5.14567 9.42861ZM18.0103 9.42861H17.0207C16.9157 9.42861 16.815 9.38722 16.7408 9.31354C16.6665 9.23987 16.6248 9.13994 16.6248 9.03575C16.6248 8.93156 16.6665 8.83163 16.7408 8.75796C16.815 8.68428 16.9157 8.64289 17.0207 8.64289H17.6817L18.2153 5.82061C18.2082 4.37646 16.9653 3.14289 15.4373 3.14289H12.8383L11.5788 8.64289H13.854C13.959 8.64289 14.0597 8.68428 14.1339 8.75796C14.2081 8.83163 14.2498 8.93156 14.2498 9.03575C14.2498 9.13994 14.2081 9.23987 14.1339 9.31354C14.0597 9.38722 13.959 9.42861 13.854 9.42861H11.0832C11.0238 9.42864 10.9651 9.4154 10.9116 9.38988C10.8581 9.36435 10.811 9.3272 10.7739 9.28116C10.7368 9.23513 10.7106 9.1814 10.6972 9.12396C10.6839 9.06651 10.6838 9.00683 10.6968 8.94932L12.1361 2.66361C12.1559 2.57659 12.2049 2.49883 12.2751 2.44314C12.3453 2.38745 12.4325 2.35713 12.5224 2.35718H15.4373C17.4015 2.35718 18.9998 3.94353 18.9998 5.89289L18.399 9.10803C18.3821 9.19813 18.334 9.27952 18.263 9.33808C18.192 9.39665 18.1026 9.42867 18.0103 9.42861Z" fill="#EC7216"/>
<path d="M15.4375 11C14.3466 11 13.4583 10.1192 13.4583 9.0357C13.4583 7.9522 14.3466 7.07141 15.4375 7.07141C16.5284 7.07141 17.4167 7.9522 17.4167 9.0357C17.4167 10.1192 16.5284 11 15.4375 11ZM15.4375 7.85713C14.7828 7.85713 14.25 8.38591 14.25 9.0357C14.25 9.68548 14.7828 10.2143 15.4375 10.2143C16.0922 10.2143 16.625 9.68548 16.625 9.0357C16.625 8.38591 16.0922 7.85713 15.4375 7.85713ZM6.72917 11C5.63825 11 4.75 10.1192 4.75 9.0357C4.75 7.9522 5.63825 7.07141 6.72917 7.07141C7.82008 7.07141 8.70833 7.9522 8.70833 9.0357C8.70833 10.1192 7.82008 11 6.72917 11ZM6.72917 7.85713C6.07446 7.85713 5.54167 8.38591 5.54167 9.0357C5.54167 9.68548 6.07446 10.2143 6.72917 10.2143C7.38387 10.2143 7.91667 9.68548 7.91667 9.0357C7.91667 8.38591 7.38387 7.85713 6.72917 7.85713ZM5.14583 2.35713H1.97917C1.87418 2.35713 1.7735 2.31574 1.69927 2.24206C1.62504 2.16839 1.58333 2.06846 1.58333 1.96427C1.58333 1.86008 1.62504 1.76015 1.69927 1.68648C1.7735 1.6128 1.87418 1.57141 1.97917 1.57141H5.14583C5.25081 1.57141 5.3515 1.6128 5.42573 1.68648C5.49996 1.76015 5.54167 1.86008 5.54167 1.96427C5.54167 2.06846 5.49996 2.16839 5.42573 2.24206C5.3515 2.31574 5.25081 2.35713 5.14583 2.35713ZM5.14583 4.71427H1.1875C1.08252 4.71427 0.981837 4.67288 0.907603 4.5992C0.83337 4.52553 0.791667 4.4256 0.791667 4.32141C0.791667 4.21722 0.83337 4.11729 0.907603 4.04362C0.981837 3.96994 1.08252 3.92855 1.1875 3.92855H5.14583C5.25081 3.92855 5.3515 3.96994 5.42573 4.04362C5.49996 4.11729 5.54167 4.21722 5.54167 4.32141C5.54167 4.4256 5.49996 4.52553 5.42573 4.5992C5.3515 4.67288 5.25081 4.71427 5.14583 4.71427ZM5.14583 7.07141H0.395833C0.290852 7.07141 0.19017 7.03002 0.115937 6.95635C0.0417038 6.88267 0 6.78275 0 6.67855C0 6.57436 0.0417038 6.47444 0.115937 6.40076C0.19017 6.32709 0.290852 6.2857 0.395833 6.2857H5.14583C5.25081 6.2857 5.3515 6.32709 5.42573 6.40076C5.49996 6.47444 5.54167 6.57436 5.54167 6.67855C5.54167 6.78275 5.49996 6.88267 5.42573 6.95635C5.3515 7.03002 5.25081 7.07141 5.14583 7.07141Z" fill="#EC7216"/>
<path d="M11.0832 9.42857H8.31234C8.20736 9.42857 8.10667 9.38718 8.03244 9.31351C7.95821 9.23983 7.9165 9.13991 7.9165 9.03571C7.9165 8.93152 7.95821 8.8316 8.03244 8.75792C8.10667 8.68425 8.20736 8.64286 8.31234 8.64286H10.7673L12.566 0.785714H3.56234C3.45736 0.785714 3.35667 0.744324 3.28244 0.670649C3.20821 0.596974 3.1665 0.497049 3.1665 0.392857C3.1665 0.288665 3.20821 0.18874 3.28244 0.115065C3.35667 0.0413903 3.45736 4.9146e-08 3.56234 4.9146e-08H13.0623C13.1217 -2.94351e-05 13.1804 0.0132078 13.2339 0.038731C13.2875 0.0642542 13.3345 0.101409 13.3716 0.147441C13.4087 0.193474 13.4349 0.247203 13.4483 0.304648C13.4616 0.362093 13.4617 0.42178 13.4487 0.479286L11.4695 9.12214C11.4497 9.20916 11.4007 9.28691 11.3305 9.34261C11.2603 9.3983 11.1731 9.42862 11.0832 9.42857Z" fill="#EC7216"/>
</svg>
