<svg width="40" height="40" viewBox="0 0 40 40" fill="none" xmlns="http://www.w3.org/2000/svg">
<rect width="40" height="40" fill="#B6B6B6"/>
<g id="03 Home" clip-path="url(#clip0_0_1)">
<rect width="1920" height="9911" transform="translate(-715 -6928)" fill="white"/>
<rect id="Rectangle 19565" x="-715" y="-441" width="1920" height="1271" fill="#020E28"/>
<g id="Group 1597883895">
<g id="Ellipse 2803">
<circle cx="19.5" cy="19.5" r="31.5" fill="#FFF1F2"/>
<circle cx="19.5" cy="19.5" r="31" stroke="white" stroke-opacity="0.35"/>
</g>
<g id="international-shipping" clip-path="url(#clip1_0_1)">
<g id="Group">
<path id="Vector" opacity="0.94" fill-rule="evenodd" clip-rule="evenodd" d="M6.83604 -0.0390625C8.71104 -0.0390625 10.586 -0.0390625 12.461 -0.0390625C12.5895 0.0247215 12.6806 0.128888 12.7345 0.273438C12.7735 2.27848 12.7866 4.28369 12.7735 6.28906C13.6073 6.27606 14.4406 6.28908 15.2735 6.32813C15.6426 6.51838 15.7598 6.81786 15.6251 7.22656C13.7821 9.68852 11.9201 12.1364 10.0392 14.5703C9.60877 14.7338 9.25721 14.6297 8.98448 14.2578C7.21364 11.9141 5.44281 9.57031 3.67198 7.22656C3.54944 6.82615 3.66663 6.52667 4.02354 6.32813C4.85647 6.28908 5.6898 6.27606 6.52354 6.28906C6.51052 4.30973 6.52354 2.33055 6.5626 0.351563C6.61707 0.188719 6.70822 0.0585108 6.83604 -0.0390625ZM7.85167 1.21094C9.07565 1.21094 10.2996 1.21094 11.5235 1.21094C11.5105 3.21631 11.5235 5.22152 11.5626 7.22656C11.6017 7.36979 11.6928 7.46094 11.836 7.5C12.4627 7.51316 13.0877 7.55222 13.711 7.61719C12.401 9.37906 11.0728 11.1238 9.72667 12.8516C8.35448 11.1239 7.00032 9.37914 5.66417 7.61719C6.28755 7.55222 6.91255 7.51316 7.53917 7.5C7.60427 7.4349 7.66938 7.36979 7.73448 7.30469C7.84877 5.27745 7.88784 3.2462 7.85167 1.21094Z" fill="#EC7216"/>
</g>
<g id="Group_2">
<path id="Vector_2" opacity="0.929" fill-rule="evenodd" clip-rule="evenodd" d="M25.7418 -0.0390625C25.898 -0.0390625 26.0543 -0.0390625 26.2105 -0.0390625C28.2244 1.08535 30.2557 2.19212 32.3043 3.28125C32.4345 3.33334 32.5647 3.33334 32.6949 3.28125C34.3537 2.62131 36.0724 2.33485 37.8512 2.42188C38.8665 2.56705 39.5696 3.10091 39.9605 4.02344C39.9605 4.46615 39.9605 4.90885 39.9605 5.35156C39.6259 6.21304 39.1051 6.95523 38.398 7.57812C37.4436 8.36141 36.441 9.0775 35.3902 9.72656C34.9651 11.9906 34.5485 14.2563 34.1402 16.5234C34.1121 16.6735 34.0469 16.8037 33.9449 16.9141C33.199 17.2365 32.4438 17.5359 31.6793 17.8125C31.2611 17.9094 30.9616 17.7661 30.7809 17.3828C30.6746 15.6343 30.5313 13.8895 30.3512 12.1484C27.6718 13.2108 24.9374 14.1092 22.148 14.8438C21.6562 15.8926 21.1744 16.9473 20.7027 18.0078C20.6376 18.0729 20.5725 18.138 20.5074 18.2031C19.9695 18.3536 19.4226 18.4708 18.8668 18.5547C18.3904 18.534 18.1299 18.2866 18.0855 17.8125C18.205 16.9891 18.3352 16.1688 18.4762 15.3516C18.043 15.3517 17.6003 15.3387 17.148 15.3125C16.4526 15.2419 16.1791 14.8643 16.3277 14.1797C16.5679 13.6869 16.8933 13.2572 17.3043 12.8906C16.6012 12.4479 15.898 12.0052 15.1949 11.5625C14.8169 11.313 14.7257 10.9874 14.9215 10.5859C15.3831 10.0835 15.917 9.69289 16.523 9.41406C17.6662 9.69656 18.799 10.0091 19.9215 10.3516C22.3231 8.71414 24.7841 7.1647 27.3043 5.70312C26.0133 4.49019 24.7502 3.25321 23.5152 1.99219C23.4025 1.62406 23.4936 1.32459 23.7887 1.09375C24.4446 0.714056 25.0957 0.336452 25.7418 -0.0390625ZM25.8199 1.36719C26.0692 1.41345 26.3036 1.5046 26.523 1.64062C28.3798 2.69026 30.2548 3.70588 32.148 4.6875C32.2783 4.73959 32.4084 4.73959 32.5387 4.6875C33.5815 4.29008 34.6491 3.97758 35.7418 3.75C36.363 3.63736 36.988 3.61132 37.6168 3.67188C38.5429 3.87134 38.8424 4.4052 38.5152 5.27344C38.1473 5.87621 37.6916 6.41006 37.148 6.875C36.2401 7.57425 35.2896 8.21227 34.2965 8.78906C33.7737 11.1552 33.2659 13.525 32.773 15.8984C32.4842 15.9973 32.2108 16.1275 31.9527 16.2891C31.8151 14.5188 31.6849 12.748 31.5621 10.9766C31.435 10.6652 31.2006 10.509 30.859 10.5078C27.7328 11.7234 24.5426 12.7521 21.2887 13.5938C21.2044 13.6684 21.1133 13.7335 21.0152 13.7891C20.5345 14.9066 20.0137 16.0003 19.4527 17.0703C19.5309 16.1849 19.609 15.2995 19.6871 14.4141C19.6258 14.2745 19.5347 14.1573 19.4137 14.0625C18.9189 14.0365 18.4241 14.0104 17.9293 13.9844C18.1493 13.6888 18.3967 13.4154 18.6715 13.1641C18.7873 12.9139 18.8134 12.6534 18.7496 12.3828C18.0541 11.8462 17.3379 11.3384 16.6012 10.8594C16.6422 10.8053 16.6943 10.7662 16.7574 10.7422C17.9193 11.1042 19.0912 11.4038 20.273 11.6406C23.0914 9.70359 25.995 7.89367 28.984 6.21094C29.0978 5.98703 29.1238 5.75266 29.0621 5.50781C27.7706 4.24223 26.4555 3.00525 25.1168 1.79688C25.3823 1.69085 25.6166 1.54763 25.8199 1.36719Z" fill="#EC7216"/>
</g>
<g id="Group_3">
<path id="Vector_3" opacity="0.939" fill-rule="evenodd" clip-rule="evenodd" d="M39.9609 26.6804C39.9609 29.8575 39.9609 33.0346 39.9609 36.2117C39.8972 36.3401 39.793 36.4312 39.6484 36.4851C38.8155 36.5242 37.9822 36.5372 37.1484 36.5242C37.0491 38.2889 36.1637 39.4347 34.4922 39.9617C34.0234 39.9617 33.5547 39.9617 33.0859 39.9617C31.3759 39.4601 30.4905 38.3143 30.4297 36.5242C28.2422 36.5242 26.0547 36.5242 23.8672 36.5242C23.8058 38.3164 22.9203 39.4622 21.2109 39.9617C20.7422 39.9617 20.2734 39.9617 19.8047 39.9617C18.0953 39.4622 17.2098 38.3164 17.1484 36.5242C15.9502 36.5372 14.7523 36.5242 13.5547 36.4851C13.4337 36.3903 13.3426 36.2731 13.2812 36.1336C13.2678 35.7921 13.2288 35.4536 13.1641 35.1179C8.66805 36.2624 4.93109 35.0645 1.95312 31.5242C0.898195 30.0639 0.234132 28.4493 -0.0390625 26.6804C-0.0390625 25.8471 -0.0390625 25.0138 -0.0390625 24.1804C0.847562 19.3743 3.6861 16.4447 8.47656 15.3914C12.4299 14.8597 15.6982 16.0966 18.2812 19.1023C20.6661 22.3386 21.1088 25.8282 19.6094 29.5711C19.4178 29.9935 19.1964 30.3972 18.9453 30.782C22.539 30.8211 26.1327 30.8341 29.7266 30.8211C29.7135 27.4876 29.7266 24.1543 29.7656 20.8211C29.7967 20.6076 29.9139 20.4644 30.1172 20.3914C31.862 20.3393 33.6068 20.3393 35.3516 20.3914C36.1082 20.5675 36.668 20.9972 37.0312 21.6804C38.0306 23.3417 39.0072 25.0084 39.9609 26.6804ZM10.1172 16.5242C10.349 16.5624 10.5573 16.6535 10.7422 16.7976C11.6134 17.912 12.1603 19.175 12.3828 20.5867C10.9235 20.6127 9.46523 20.5867 8.00781 20.5086C8.2793 19.185 8.80016 17.974 9.57031 16.8757C9.74687 16.7361 9.92914 16.6189 10.1172 16.5242ZM7.77344 16.8367C7.84188 16.8265 7.89398 16.8525 7.92969 16.9148C7.34179 18.0535 6.92513 19.2515 6.67969 20.5086C5.37656 20.5346 4.07448 20.5085 2.77344 20.4304C4.03055 18.6566 5.69721 17.4587 7.77344 16.8367ZM12.3828 16.9148C14.5641 17.3965 16.3088 18.5683 17.6172 20.4304C16.3159 20.5215 15.0138 20.5346 13.7109 20.4695C13.5466 19.7732 13.3512 19.0832 13.125 18.3992C12.928 17.8696 12.6806 17.3747 12.3828 16.9148ZM22.8516 21.6023C24.4662 21.6023 26.0807 21.6023 27.6953 21.6023C27.6953 22.3054 27.6953 23.0086 27.6953 23.7117C26.0807 23.7117 24.4662 23.7117 22.8516 23.7117C22.8516 23.0086 22.8516 22.3054 22.8516 21.6023ZM31.0547 21.6023C32.331 21.5893 33.607 21.6023 34.8828 21.6414C35.4482 21.7639 35.8519 22.0893 36.0938 22.6179C36.8847 23.9786 37.705 25.3198 38.5547 26.6414C36.0548 26.6804 33.5548 26.6935 31.0547 26.6804C31.0547 24.9877 31.0547 23.295 31.0547 21.6023ZM1.99219 21.8367C3.47656 21.8367 4.96094 21.8367 6.44531 21.8367C6.33703 22.7975 6.25891 23.7611 6.21094 24.7273C4.54427 24.7273 2.8776 24.7273 1.21094 24.7273C1.33766 23.7254 1.59808 22.7619 1.99219 21.8367ZM7.77344 21.8367C9.41406 21.8367 11.0547 21.8367 12.6953 21.8367C12.8071 22.7966 12.8592 23.7601 12.8516 24.7273C11.0805 24.7404 9.30969 24.7273 7.53906 24.6882C7.61027 23.7412 7.6884 22.7907 7.77344 21.8367ZM13.8672 21.9148C15.3785 21.8888 16.8889 21.9148 18.3984 21.9929C18.8534 22.875 19.0877 23.8125 19.1016 24.8054C17.4349 24.8054 15.7682 24.8054 14.1016 24.8054C14.1111 23.8332 14.033 22.8696 13.8672 21.9148ZM1.21094 26.0554C2.8776 26.0554 4.54427 26.0554 6.21094 26.0554C6.25325 27.0222 6.33138 27.9857 6.44531 28.9461C4.96071 28.9591 3.47634 28.9461 1.99219 28.907C1.59195 27.9962 1.33152 27.0457 1.21094 26.0554ZM7.53906 26.0554C9.30992 26.0554 11.0807 26.0554 12.8516 26.0554C12.8013 27.0215 12.7232 27.985 12.6172 28.9461C11.0018 28.9721 9.38719 28.9461 7.77344 28.8679C7.63969 27.9367 7.56156 26.9992 7.53906 26.0554ZM14.1797 26.0554C15.8463 26.0554 17.513 26.0554 19.1797 26.0554C19.0834 27.053 18.8229 28.0035 18.3984 28.907C16.9143 28.9461 15.4299 28.9591 13.9453 28.9461C14.0751 27.9872 14.1532 27.0236 14.1797 26.0554ZM22.8516 26.8367C24.4662 26.8367 26.0807 26.8367 27.6953 26.8367C27.6953 27.5398 27.6953 28.2429 27.6953 28.9461C26.0807 28.9461 24.4662 28.9461 22.8516 28.9461C22.8516 28.2429 22.8516 27.5398 22.8516 26.8367ZM31.0547 27.9304C33.6068 27.9304 36.1588 27.9304 38.7109 27.9304C38.7109 28.894 38.7109 29.8575 38.7109 30.8211C36.1588 30.8211 33.6068 30.8211 31.0547 30.8211C31.0547 29.8575 31.0547 28.894 31.0547 27.9304ZM2.77344 30.2742C4.10156 30.2742 5.42969 30.2742 6.75781 30.2742C6.94867 31.5629 7.36534 32.7739 8.00781 33.907C5.76102 33.4179 4.01623 32.2069 2.77344 30.2742ZM8.00781 30.3523C9.45344 30.2486 10.9118 30.2486 12.3828 30.3523C10.9098 35.5579 9.45148 35.5579 8.00781 30.3523ZM13.7891 30.2742C15.1174 30.2611 16.4455 30.2742 17.7734 30.3132C16.4316 32.1369 14.6737 33.3739 12.5 34.0242C13.0284 32.8168 13.458 31.5668 13.7891 30.2742ZM17.7734 32.1492C24.7526 32.1492 31.7318 32.1492 38.7109 32.1492C38.7109 33.1908 38.7109 34.2325 38.7109 35.2742C38.1114 35.2872 37.5124 35.2742 36.9141 35.2351C36.0554 33.6371 34.7273 33.0121 32.9297 33.3601C31.9103 33.6734 31.1551 34.2984 30.6641 35.2351C28.3203 35.2872 25.9766 35.2872 23.6328 35.2351C22.7741 33.6371 21.446 33.0121 19.6484 33.3601C18.6306 33.6754 17.8754 34.3004 17.3828 35.2351C16.4457 35.2742 15.5082 35.2872 14.5703 35.2742C14.5481 35.0182 14.5741 34.7708 14.6484 34.532C15.8866 33.98 16.9282 33.1857 17.7734 32.1492ZM20.0391 34.5711C21.532 34.5015 22.3913 35.2047 22.6172 36.6804C22.4729 37.9375 21.7698 38.6147 20.5078 38.7117C19.279 38.5636 18.5759 37.8736 18.3984 36.6414C18.5276 35.6144 19.0745 34.9243 20.0391 34.5711ZM33.3203 34.5711C34.8284 34.5033 35.6878 35.2195 35.8984 36.7195C35.6361 38.1016 34.8028 38.7526 33.3984 38.6726C31.8194 38.1018 31.3636 37.0471 32.0312 35.5086C32.3655 35.056 32.7952 34.7435 33.3203 34.5711Z" fill="#EC7216"/>
</g>
<g id="Group_4">
<path id="Vector_4" opacity="0.94" fill-rule="evenodd" clip-rule="evenodd" d="M21.9141 20.3516C24.1538 20.3385 26.3934 20.3516 28.6328 20.3906C28.724 20.4818 28.8151 20.5729 28.9063 20.6641C28.9584 22.0182 28.9584 23.3724 28.9063 24.7266C28.8114 24.8476 28.6942 24.9387 28.5547 25C26.3672 25.0521 24.1797 25.0521 21.9922 25C21.7365 24.9266 21.5933 24.7573 21.5625 24.4922C21.5104 23.2943 21.5104 22.0963 21.5625 20.8984C21.6039 20.6574 21.7211 20.4752 21.9141 20.3516ZM22.8516 21.6016C22.8516 22.3047 22.8516 23.0078 22.8516 23.7109C24.4662 23.7109 26.0807 23.7109 27.6953 23.7109C27.6953 23.0078 27.6953 22.3047 27.6953 21.6016C26.0807 21.6016 24.4662 21.6016 22.8516 21.6016Z" fill="#EC7216"/>
</g>
<g id="Group_5">
<path id="Vector_5" opacity="0.94" fill-rule="evenodd" clip-rule="evenodd" d="M21.9141 25.5859C24.1538 25.5729 26.3934 25.5859 28.6328 25.625C28.724 25.7162 28.8151 25.8073 28.9063 25.8984C28.9822 27.2858 28.9562 28.6659 28.8281 30.0391C28.7117 30.1566 28.5685 30.2217 28.3985 30.2344C26.2061 30.3106 24.0186 30.2845 21.836 30.1563C21.6588 30.0345 21.5677 29.8653 21.5625 29.6484C21.5104 28.4766 21.5104 27.3047 21.5625 26.1328C21.5738 25.8756 21.691 25.6933 21.9141 25.5859ZM22.8516 26.8359C22.8516 27.5391 22.8516 28.2422 22.8516 28.9453C24.4662 28.9453 26.0807 28.9453 27.6953 28.9453C27.6953 28.2422 27.6953 27.5391 27.6953 26.8359C26.0807 26.8359 24.4662 26.8359 22.8516 26.8359Z" fill="#EC7216"/>
</g>
</g>
<rect id="Rectangle 19567" x="-35.5" y="-35.5" width="273" height="110" rx="9.5" stroke="white" stroke-opacity="0.35"/>
</g>
</g>
<defs>
<clipPath id="clip0_0_1">
<rect width="1920" height="9911" fill="white" transform="translate(-715 -6928)"/>
</clipPath>
<clipPath id="clip1_0_1">
<rect width="40" height="40" fill="white"/>
</clipPath>
</defs>
</svg>
