<svg width="50" height="50" viewBox="0 0 50 50" fill="none" xmlns="http://www.w3.org/2000/svg">
<g clip-path="url(#clip0_173_168)">
<path opacity="0.94" fill-rule="evenodd" clip-rule="evenodd" d="M8.54505 -0.0488281C10.8888 -0.0488281 13.2326 -0.0488281 15.5763 -0.0488281C15.7368 0.0309019 15.8507 0.16111 15.9181 0.341797C15.9669 2.8481 15.9832 5.35461 15.9669 7.86133C17.0091 7.84507 18.0508 7.86135 19.0919 7.91016C19.5533 8.14798 19.6997 8.52232 19.5314 9.0332C17.2276 12.1106 14.9001 15.1705 12.549 18.2129C12.011 18.4173 11.5715 18.2871 11.2306 17.8223C9.01705 14.8926 6.80352 11.9629 4.58997 9.0332C4.4368 8.53269 4.58328 8.15834 5.02943 7.91016C6.07059 7.86135 7.11225 7.84507 8.15443 7.86133C8.13816 5.38716 8.15443 2.91319 8.20325 0.439453C8.27134 0.235898 8.38528 0.0731385 8.54505 -0.0488281ZM9.81458 1.51367C11.3446 1.51367 12.8744 1.51367 14.4044 1.51367C14.3881 4.02039 14.4044 6.52691 14.4533 9.0332C14.5021 9.21224 14.616 9.32617 14.7951 9.375C15.5784 9.39145 16.3596 9.44027 17.1388 9.52149C15.5012 11.7238 13.841 13.9048 12.1583 16.0645C10.4431 13.9049 8.7504 11.7239 7.08021 9.52149C7.85944 9.44027 8.64069 9.39145 9.42396 9.375C9.50533 9.29362 9.58672 9.21224 9.6681 9.13086C9.81097 6.59681 9.8598 4.05774 9.81458 1.51367Z" fill="white"/>
<path opacity="0.929" fill-rule="evenodd" clip-rule="evenodd" d="M32.178 -0.0488281C32.3733 -0.0488281 32.5686 -0.0488281 32.7639 -0.0488281C35.2813 1.35669 37.8204 2.74015 40.3811 4.10156C40.5439 4.16667 40.7066 4.16667 40.8694 4.10156C42.9428 3.27664 45.0912 2.91856 47.3147 3.02734C48.5838 3.20881 49.4627 3.87613 49.9514 5.0293C49.9514 5.58269 49.9514 6.13606 49.9514 6.68945C49.5331 7.7663 48.8822 8.69403 47.9983 9.47266C46.8052 10.4518 45.552 11.3469 44.2385 12.1582C43.7072 14.9883 43.1864 17.8203 42.676 20.6543C42.6409 20.8419 42.5594 21.0047 42.4319 21.1426C41.4995 21.5456 40.5555 21.9199 39.5998 22.2656C39.0771 22.3867 38.7028 22.2076 38.4768 21.7285C38.344 19.5429 38.1649 17.3619 37.9397 15.1855C34.5905 16.5135 31.1725 17.6365 27.6858 18.5547C27.071 19.8657 26.4688 21.1841 25.8791 22.5098C25.7978 22.5911 25.7163 22.6726 25.635 22.7539C24.9626 22.942 24.279 23.0885 23.5842 23.1934C22.9887 23.1675 22.6631 22.8582 22.6077 22.2656C22.757 21.2364 22.9198 20.211 23.0959 19.1895C22.5545 19.1896 22.0011 19.1734 21.4358 19.1406C20.5664 19.0523 20.2246 18.5804 20.4104 17.7246C20.7106 17.1086 21.1174 16.5715 21.6311 16.1133C20.7522 15.5599 19.8733 15.0065 18.9944 14.4531C18.5218 14.1412 18.4078 13.7343 18.6526 13.2324C19.2296 12.6044 19.897 12.1161 20.6545 11.7676C22.0834 12.1207 23.4995 12.5113 24.9026 12.9395C27.9046 10.8927 30.9808 8.95587 34.1311 7.12891C32.5173 5.61273 30.9385 4.06651 29.3948 2.49023C29.2538 2.03008 29.3677 1.65573 29.7366 1.36719C30.5565 0.89257 31.3704 0.420565 32.178 -0.0488281ZM32.2756 1.70898C32.5872 1.76682 32.8802 1.88075 33.1545 2.05078C35.4755 3.36282 37.8193 4.63235 40.1858 5.85938C40.3486 5.92448 40.5113 5.92448 40.6741 5.85938C41.9776 5.3626 43.3121 4.97197 44.678 4.6875C45.4545 4.5467 46.2358 4.51415 47.0217 4.58984C48.1793 4.83917 48.5538 5.50649 48.1448 6.5918C47.6849 7.34526 47.1153 8.01258 46.4358 8.59375C45.3009 9.46781 44.1127 10.2653 42.8713 10.9863C42.2179 13.9439 41.5831 16.9062 40.967 19.873C40.606 19.9967 40.2642 20.1594 39.9416 20.3613C39.7697 18.1484 39.6069 15.935 39.4534 13.7207C39.2945 13.3315 39.0015 13.1362 38.5745 13.1348C34.6667 14.6543 30.679 15.9401 26.6116 16.9922C26.5062 17.0855 26.3923 17.1669 26.2698 17.2363C25.6689 18.6332 25.0178 20.0004 24.3166 21.3379C24.4143 20.2312 24.512 19.1243 24.6096 18.0176C24.5329 17.8432 24.4191 17.6967 24.2678 17.5781C23.6494 17.5456 23.0308 17.513 22.4123 17.4805C22.6873 17.111 22.9966 16.7692 23.3401 16.4551C23.4849 16.1424 23.5175 15.8168 23.4377 15.4785C22.5683 14.8077 21.6731 14.1729 20.7522 13.5742C20.8035 13.5066 20.8686 13.4578 20.9475 13.4277C22.3998 13.8803 23.8647 14.2547 25.342 14.5508C28.865 12.1295 32.4945 9.86709 36.2307 7.76367C36.373 7.48379 36.4055 7.19082 36.3284 6.88477C34.714 5.30278 33.0701 3.75656 31.3967 2.24609C31.7286 2.11356 32.0215 1.93453 32.2756 1.70898Z" fill="white"/>
<path opacity="0.939" fill-rule="evenodd" clip-rule="evenodd" d="M49.9512 33.3501C49.9512 37.3214 49.9512 41.2927 49.9512 45.2641C49.8715 45.4247 49.7412 45.5385 49.5605 45.6059C48.5194 45.6547 47.4777 45.6711 46.4355 45.6547C46.3114 47.8606 45.2047 49.2928 43.1152 49.9516C42.5293 49.9516 41.9434 49.9516 41.3574 49.9516C39.2198 49.3247 38.1131 47.8924 38.0371 45.6547C35.3027 45.6547 32.5684 45.6547 29.834 45.6547C29.7572 47.895 28.6504 49.3272 26.5137 49.9516C25.9277 49.9516 25.3418 49.9516 24.7559 49.9516C22.6191 49.3272 21.5123 47.895 21.4355 45.6547C19.9378 45.6711 18.4404 45.6547 16.9434 45.6059C16.7921 45.4874 16.6782 45.3409 16.6016 45.1665C16.5848 44.7396 16.5359 44.3165 16.4551 43.8969C10.8351 45.3275 6.16387 43.8301 2.44141 39.4047C1.12274 37.5794 0.292665 35.5611 -0.0488281 33.3501C-0.0488281 32.3084 -0.0488281 31.2668 -0.0488281 30.2251C1.05945 24.2174 4.60763 20.5553 10.5957 19.2387C15.5374 18.5741 19.6228 20.1203 22.8516 23.8774C25.8326 27.9228 26.386 32.2847 24.5117 36.9633C24.2723 37.4914 23.9955 37.996 23.6816 38.477C28.1737 38.5258 32.6659 38.5421 37.1582 38.5258C37.1419 34.359 37.1582 30.1923 37.207 26.0258C37.2459 25.759 37.3924 25.58 37.6465 25.4887C39.8274 25.4236 42.0085 25.4236 44.1895 25.4887C45.1353 25.7089 45.8351 26.2461 46.2891 27.1001C47.5383 29.1766 48.759 31.26 49.9512 33.3501ZM12.6465 20.6547C12.9362 20.7025 13.1966 20.8164 13.4277 20.9965C14.5168 22.3895 15.2004 23.9683 15.4785 25.7329C13.6544 25.7654 11.8315 25.7329 10.0098 25.6352C10.3491 23.9807 11.0002 22.467 11.9629 21.0942C12.1836 20.9196 12.4114 20.7731 12.6465 20.6547ZM9.7168 21.0454C9.80234 21.0326 9.86748 21.0651 9.91211 21.143C9.17724 22.5664 8.65641 24.0638 8.34961 25.6352C6.7207 25.6677 5.0931 25.6351 3.4668 25.5376C5.03818 23.3203 7.12151 21.8229 9.7168 21.0454ZM15.4785 21.143C18.2051 21.7451 20.386 23.2099 22.0215 25.5376C20.3948 25.6514 18.7673 25.6677 17.1387 25.5864C16.9332 24.7161 16.6891 23.8535 16.4062 22.9985C16.1601 22.3365 15.8508 21.7179 15.4785 21.143ZM28.5645 27.0024C30.5827 27.0024 32.6009 27.0024 34.6191 27.0024C34.6191 27.8813 34.6191 28.7602 34.6191 29.6391C32.6009 29.6391 30.5827 29.6391 28.5645 29.6391C28.5645 28.7602 28.5645 27.8813 28.5645 27.0024ZM38.8184 27.0024C40.4138 26.9861 42.0088 27.0024 43.6035 27.0512C44.3103 27.2044 44.8148 27.6112 45.1172 28.2719C46.1059 29.9728 47.1312 31.6493 48.1934 33.3012C45.0686 33.3501 41.9436 33.3664 38.8184 33.3501C38.8184 31.2341 38.8184 29.1183 38.8184 27.0024ZM2.49023 27.2954C4.3457 27.2954 6.20117 27.2954 8.05664 27.2954C7.92129 28.4964 7.82363 29.7008 7.76367 30.9087C5.68034 30.9087 3.597 30.9087 1.51367 30.9087C1.67208 29.6563 1.9976 28.4519 2.49023 27.2954ZM9.7168 27.2954C11.7676 27.2954 13.8184 27.2954 15.8691 27.2954C16.0089 28.4953 16.074 29.6997 16.0645 30.9087C13.8507 30.925 11.6371 30.9087 9.42383 30.8598C9.51284 29.676 9.6105 28.4878 9.7168 27.2954ZM17.334 27.393C19.2231 27.3605 21.1111 27.393 22.998 27.4907C23.5667 28.5933 23.8597 29.7652 23.877 31.0063C21.7937 31.0063 19.7103 31.0063 17.627 31.0063C17.6389 29.791 17.5412 28.5865 17.334 27.393ZM1.51367 32.5688C3.597 32.5688 5.68034 32.5688 7.76367 32.5688C7.81656 33.7773 7.91422 34.9817 8.05664 36.1821C6.20089 36.1984 4.34542 36.1821 2.49023 36.1333C1.98993 34.9948 1.6644 33.8067 1.51367 32.5688ZM9.42383 32.5688C11.6374 32.5688 13.8509 32.5688 16.0645 32.5688C16.0017 33.7763 15.904 34.9807 15.7715 36.1821C13.7522 36.2146 11.734 36.1821 9.7168 36.0844C9.54961 34.9204 9.45195 33.7485 9.42383 32.5688ZM17.7246 32.5688C19.8079 32.5688 21.8913 32.5688 23.9746 32.5688C23.8542 33.8158 23.5286 35.0039 22.998 36.1333C21.1429 36.1821 19.2874 36.1984 17.4316 36.1821C17.5938 34.9835 17.6915 33.7791 17.7246 32.5688ZM28.5645 33.5454C30.5827 33.5454 32.6009 33.5454 34.6191 33.5454C34.6191 34.4243 34.6191 35.3032 34.6191 36.1821C32.6009 36.1821 30.5827 36.1821 28.5645 36.1821C28.5645 35.3032 28.5645 34.4243 28.5645 33.5454ZM38.8184 34.9126C42.0085 34.9126 45.1985 34.9126 48.3887 34.9126C48.3887 36.117 48.3887 37.3214 48.3887 38.5258C45.1985 38.5258 42.0085 38.5258 38.8184 38.5258C38.8184 37.3214 38.8184 36.117 38.8184 34.9126ZM3.4668 37.8422C5.12695 37.8422 6.78711 37.8422 8.44727 37.8422C8.68584 39.4532 9.20667 40.9669 10.0098 42.3833C7.20128 41.7718 5.02029 40.2582 3.4668 37.8422ZM10.0098 37.9399C11.8168 37.8102 13.6397 37.8102 15.4785 37.9399C13.6373 44.4468 11.8144 44.4468 10.0098 37.9399ZM17.2363 37.8422C18.8968 37.8259 20.5569 37.8422 22.2168 37.8911C20.5395 40.1707 18.3422 41.7169 15.625 42.5297C16.2854 41.0206 16.8226 39.4581 17.2363 37.8422ZM22.2168 40.186C30.9407 40.186 39.6647 40.186 48.3887 40.186C48.3887 41.488 48.3887 42.7902 48.3887 44.0922C47.6393 44.1085 46.8905 44.0922 46.1426 44.0434C45.0692 42.0459 43.4091 41.2646 41.1621 41.6997C39.8879 42.0913 38.9438 42.8725 38.3301 44.0434C35.4004 44.1086 32.4707 44.1086 29.541 44.0434C28.4677 42.0459 26.8075 41.2646 24.5605 41.6997C23.2883 42.0938 22.3442 42.8751 21.7285 44.0434C20.5571 44.0922 19.3853 44.1086 18.2129 44.0922C18.1852 43.7722 18.2177 43.463 18.3105 43.1645C19.8582 42.4745 21.1603 41.4816 22.2168 40.186ZM25.0488 43.2133C26.9149 43.1264 27.9892 44.0053 28.2715 45.8501C28.0911 47.4214 27.2122 48.2678 25.6348 48.3891C24.0987 48.2041 23.2198 47.3415 22.998 45.8012C23.1595 44.5175 23.8431 43.6548 25.0488 43.2133ZM41.6504 43.2133C43.5355 43.1287 44.6098 44.0239 44.873 45.8989C44.5451 47.6265 43.5035 48.4403 41.748 48.3403C39.7742 47.6267 39.2045 46.3084 40.0391 44.3852C40.4569 43.8195 40.994 43.4289 41.6504 43.2133Z" fill="white"/>
<path opacity="0.94" fill-rule="evenodd" clip-rule="evenodd" d="M27.3926 25.4397C30.1923 25.4234 32.9917 25.4397 35.791 25.4885C35.905 25.6025 36.0189 25.7164 36.1328 25.8303C36.198 27.523 36.198 29.2158 36.1328 30.9085C36.0143 31.0597 35.8678 31.1736 35.6934 31.2503C32.959 31.3154 30.2246 31.3154 27.4903 31.2503C27.1706 31.1585 26.9916 30.9468 26.9531 30.6155C26.888 29.1181 26.888 27.6207 26.9531 26.1233C27.0049 25.822 27.1514 25.5942 27.3926 25.4397ZM28.5645 27.0022C28.5645 27.8811 28.5645 28.76 28.5645 29.6389C30.5827 29.6389 32.6009 29.6389 34.6192 29.6389C34.6192 28.76 34.6192 27.8811 34.6192 27.0022C32.6009 27.0022 30.5827 27.0022 28.5645 27.0022Z" fill="white"/>
<path opacity="0.94" fill-rule="evenodd" clip-rule="evenodd" d="M27.3926 31.9827C30.1923 31.9664 32.9917 31.9827 35.791 32.0315C35.905 32.1455 36.0189 32.2593 36.1328 32.3733C36.2278 34.1075 36.1952 35.8327 36.0352 37.5491C35.8896 37.696 35.7106 37.7773 35.4981 37.7932C32.7576 37.8884 30.0233 37.8558 27.2949 37.6956C27.0735 37.5434 26.9596 37.3319 26.9531 37.0608C26.888 35.596 26.888 34.1311 26.9531 32.6663C26.9673 32.3447 27.1138 32.1169 27.3926 31.9827ZM28.5645 33.5452C28.5645 34.4241 28.5645 35.303 28.5645 36.1819C30.5827 36.1819 32.6009 36.1819 34.6192 36.1819C34.6192 35.303 34.6192 34.4241 34.6192 33.5452C32.6009 33.5452 30.5827 33.5452 28.5645 33.5452Z" fill="white"/>
</g>
<defs>
<clipPath id="clip0_173_168">
<rect width="50" height="50" fill="white"/>
</clipPath>
</defs>
</svg>
