<svg width="21" height="30" viewBox="0 0 21 30" fill="none" xmlns="http://www.w3.org/2000/svg">
<path d="M10.2162 0C4.5831 0 0 4.98457 0 11.1111C0 12.9503 0.422795 14.7739 1.22654 16.3913L9.65754 29.6419C9.76978 29.863 9.98366 30 10.2162 30C10.4488 30 10.6627 29.863 10.7749 29.6419L19.209 16.3859C20.0096 14.7739 20.4324 12.9503 20.4324 11.1111C20.4324 4.98457 15.8493 0 10.2162 0ZM10.2162 16.6667C7.39966 16.6667 5.10814 14.1744 5.10814 11.1111C5.10814 8.04785 7.39966 5.5556 10.2162 5.5556C13.0328 5.5556 15.3243 8.04785 15.3243 11.1111C15.3243 14.1744 13.0328 16.6667 10.2162 16.6667Z" fill="#EC7216"/>
</svg>
