<svg width="16" height="16" viewBox="0 0 16 16" fill="none" xmlns="http://www.w3.org/2000/svg">
<g clip-path="url(#clip0_311_350)">
<path d="M15.8593 3.17969L11.0068 8.00091L15.8593 12.8221C15.947 12.6388 16.0002 12.4361 16.0002 12.2197V3.78216C16.0002 3.56569 15.947 3.36303 15.8593 3.17969Z" fill="#EC7216"/>
<path d="M14.5937 2.375H1.40618C1.18971 2.375 0.987055 2.42822 0.803711 2.51594L7.00568 8.68666C7.55406 9.23503 8.4458 9.23503 8.99418 8.68666L15.1961 2.51594C15.0128 2.42822 14.8101 2.375 14.5937 2.375Z" fill="#EC7216"/>
<path d="M0.140938 3.17969C0.0532188 3.36303 0 3.56569 0 3.78216V12.2197C0 12.4361 0.0532188 12.6388 0.140938 12.8221L4.99341 8.00091L0.140938 3.17969Z" fill="#EC7216"/>
<path d="M10.3437 8.66211L9.65702 9.34877C8.7433 10.2625 7.25652 10.2625 6.3428 9.34877L5.65618 8.66211L0.803711 13.4833C0.987055 13.571 1.18971 13.6243 1.40618 13.6243H14.5937C14.8101 13.6243 15.0128 13.571 15.1961 13.4833L10.3437 8.66211Z" fill="#EC7216"/>
</g>
<defs>
<clipPath id="clip0_311_350">
<rect width="16" height="16" fill="white"/>
</clipPath>
</defs>
</svg>
