<svg width="33" height="44" viewBox="0 0 33 44" fill="none" xmlns="http://www.w3.org/2000/svg">
<path d="M25.7096 29.1404L21.5874 27.8888V25.3373C22.3655 24.7407 22.9532 23.9241 23.2627 22.9846L23.8475 21.211C24.7342 20.9501 25.4186 20.1985 25.5744 19.2638L25.8763 17.4505C26.0306 16.5264 25.7085 15.5984 25.0149 14.9681L24.9832 14.939C25.0962 14.3904 25.1538 13.8327 25.1583 13.2739H27.2002C27.7546 13.2739 28.204 12.8245 28.204 12.2701C28.204 11.7157 27.7546 11.2663 27.2002 11.2663H26.0475V10.0656C26.0475 6.17645 23.3306 2.91213 19.6955 2.06515V1.32413C19.6955 0.769727 19.2461 0.320312 18.6917 0.320312H14.253C13.6986 0.320312 13.2492 0.769727 13.2492 1.32413V2.06579C9.6142 2.91276 6.89718 6.17677 6.89718 10.0662V11.2669H5.74455C5.19015 11.2669 4.74073 11.7163 4.74073 12.2707C4.74073 12.8251 5.19015 13.2745 5.74455 13.2745H7.92377C7.92826 13.8331 7.98587 14.3907 8.09886 14.9393L8.06685 14.9684C7.37321 15.5987 7.05091 16.5267 7.20513 17.4511L7.50698 19.2644C7.66286 20.1991 8.34691 20.9507 9.23387 21.2119L9.81836 22.9853C10.1202 23.9008 10.6874 24.6991 11.4364 25.2918V27.8894L7.31423 29.1409C3.36583 30.34 0.712891 33.9184 0.712891 38.045V42.564C0.712891 43.1185 1.16231 43.5679 1.71671 43.5679H31.3067C31.8611 43.5679 32.3106 43.1185 32.3106 42.564V38.045C32.3106 33.918 29.6576 30.3397 25.7092 29.1409L25.7096 29.1404ZM9.2265 38.0174C9.2265 38.5199 8.81774 38.9287 8.31553 38.9287C7.81332 38.9287 7.40455 38.5199 7.40455 38.0174C7.40455 37.5152 7.81332 37.1064 8.31553 37.1064C8.81775 37.1067 9.2265 37.5152 9.2265 38.0174ZM7.69455 41.5593V40.2763C7.89269 40.3308 8.10011 40.3624 8.31553 40.3624C9.38884 40.3624 10.2937 39.6368 10.5709 38.6512H22.1086C22.3858 39.6371 23.2911 40.3624 24.364 40.3624C24.7081 40.3624 25.0343 40.2863 25.329 40.1521V41.5593L7.69455 41.5593ZM25.2757 38.0174C25.2757 38.5199 24.8669 38.9287 24.3647 38.9287C23.8625 38.9287 23.4537 38.5199 23.4537 38.0174C23.4537 37.5152 23.8625 37.1064 24.3647 37.1064C24.8669 37.1067 25.2757 37.5152 25.2757 38.0174ZM25.3298 31.1319V35.8827C25.035 35.7489 24.7088 35.6724 24.3647 35.6724C24.0206 35.6724 23.6944 35.7486 23.4 35.8827V30.5369L25.1265 31.0612C25.1954 31.082 25.2613 31.1088 25.3298 31.1319ZM21.9656 30.1015V37.2175L17.2061 37.2172V32.2525L19.6964 33.9721C19.8184 34.0562 19.9605 34.0991 20.1039 34.0991C20.206 34.0991 20.3088 34.0774 20.4048 34.0332C20.635 33.9269 20.7921 33.7064 20.8171 33.4541L21.1798 29.862L21.9656 30.1015ZM15.1597 30.9648L13.5115 32.1031L13.2916 29.9261L15.1597 30.9648ZM13.4443 28.3704V26.5485L13.677 26.6877C14.4775 27.1675 15.3936 27.4214 16.3264 27.4214H16.7553C17.6884 27.4214 18.6045 27.1675 19.4044 26.6877L19.5795 26.5827V28.3704L16.512 30.0753L13.4443 28.3704ZM19.7322 29.9261L19.5123 32.103L17.8641 30.9647L19.7322 29.9261ZM8.90488 10.0661C8.90488 7.29184 10.7339 4.9375 13.2492 4.1437V4.57423C13.2492 5.12863 13.6986 5.57805 14.253 5.57805C14.8075 5.57805 15.2569 5.12863 15.2569 4.57423V2.32781H17.688V4.57423C17.688 5.12863 18.1374 5.57805 18.6918 5.57805C19.2462 5.57805 19.6956 5.12863 19.6956 4.57423V4.1437C22.2109 4.93722 24.04 7.29151 24.04 10.0661V11.2667H8.90488V10.0661ZM10.0169 19.3151L9.87538 19.3001C9.67916 19.2792 9.51943 19.1285 9.4871 18.9342L9.18525 17.1208C9.14364 16.8728 9.23039 16.6234 9.41636 16.4544L9.88946 16.0245C10.1715 15.7684 10.2841 15.3747 10.1804 15.0083C10.0201 14.4417 9.93779 13.8585 9.93139 13.2746H23.1498C23.1434 13.8588 23.0611 14.442 22.9008 15.0086C22.7971 15.3751 22.9097 15.7685 23.1917 16.0249L23.6645 16.4544C23.8508 16.6241 23.9372 16.8731 23.8959 17.1212L23.5941 18.9345C23.5618 19.1291 23.402 19.2796 23.2055 19.3004L23.0666 19.3154C22.6204 19.3622 22.2417 19.6679 22.1027 20.0929L21.3563 22.3566C21.1389 23.016 20.6914 23.5756 20.0964 23.9324L18.3724 24.966C17.8839 25.2589 17.325 25.4141 16.7556 25.4141H16.3267C15.7572 25.4141 15.1981 25.2592 14.7096 24.966L12.9856 23.9324C12.3905 23.5755 11.9427 23.016 11.7254 22.3566L10.9795 20.0942C10.84 19.6672 10.461 19.3616 10.017 19.3151L10.0169 19.3151ZM11.844 29.8621L12.2066 33.4542C12.2322 33.7065 12.3891 33.9267 12.6189 34.0333C12.7146 34.0775 12.8174 34.0992 12.9198 34.0992C13.0632 34.0992 13.2053 34.0563 13.3273 33.9722L15.7715 32.2843V37.2169H10.5165C10.4938 37.1548 10.4688 37.094 10.4413 37.0341V30.2881L11.844 29.8621ZM9.00698 30.7235V35.7765C8.78804 35.709 8.55597 35.6722 8.31494 35.6722C8.09984 35.6722 7.89209 35.7039 7.69396 35.7583V31.1316C7.76214 31.1086 7.82808 31.0817 7.89722 31.0609L9.00698 30.7235ZM2.72064 38.0434C2.72064 35.418 4.09001 33.0759 6.26022 31.7831V36.8889C6.07552 37.2241 5.96989 37.6079 5.96989 38.0166C5.96989 38.4254 6.07552 38.8095 6.26022 39.1447V41.5588H2.72064V38.0434ZM30.303 41.5587H26.7635V31.7836C28.9337 33.0764 30.303 35.4185 30.303 38.0439V41.5587Z" fill="#EC7216"/>
<path d="M17.5302 7.3675H16.6353L17.2322 6.47185C17.3327 6.32108 17.3673 6.13191 17.3273 5.95393C17.2899 5.7862 17.189 5.6428 17.0632 5.56758C16.9125 5.46675 16.7233 5.43219 16.545 5.47251C16.3773 5.51028 16.2339 5.61079 16.1593 5.73595L14.8863 7.63156C14.7381 7.82938 14.7166 8.09282 14.8296 8.31944C14.9429 8.54606 15.167 8.68659 15.4141 8.68659H16.3091L15.7121 9.58224C15.5178 9.87321 15.5809 10.2474 15.8613 10.4721L15.9122 10.5044C15.9544 10.5255 16.1036 10.594 16.2489 10.594C16.4794 10.594 16.6862 10.4724 16.7937 10.2755L18.0581 8.39304C18.2063 8.19553 18.2281 7.93178 18.1148 7.70516C18.0072 7.49069 17.7943 7.3675 17.5302 7.3675Z" fill="#EC7216"/>
</svg>
