<svg width="39" height="33" viewBox="0 0 39 33" fill="none" xmlns="http://www.w3.org/2000/svg">
<path d="M7.18492 0.189453C5.25067 0.189453 3.66359 1.78341 3.66359 3.72623C3.66359 4.40836 3.86346 5.05013 4.20027 5.59129C2.93285 5.87777 1.90304 6.83679 1.90304 8.14711V13.4521H1.02281C0.995176 13.4508 0.96785 13.4508 0.940216 13.4521C0.486429 13.4952 0.140388 13.8786 0.142589 14.3365V17.8729C0.142589 18.3614 0.536505 18.757 1.02282 18.7574H3.66361V31.1358C3.66392 31.6243 4.05783 32.0199 4.54416 32.0202H34.4748C34.9612 32.0199 35.3551 31.6243 35.3554 31.1358V18.7574H37.9962C38.4825 18.7571 38.8764 18.3614 38.8764 17.8729V14.3365C38.8764 13.848 38.4825 13.4524 37.9962 13.4521H37.1159V8.14711C37.1159 6.83679 36.0861 5.87778 34.8187 5.59129C35.1555 5.05009 35.3554 4.40839 35.3554 3.72623C35.3554 1.78349 33.7684 0.189453 31.8341 0.189453C29.8997 0.189453 28.3127 1.78341 28.3127 3.72623C28.3127 4.40836 28.5123 5.05013 28.8491 5.59129C27.5817 5.87777 26.5522 6.83679 26.5522 8.14711V13.4521H24.7914V8.14711C24.7914 6.83679 23.7619 5.87778 22.4945 5.59129C22.831 5.05009 23.0309 4.40839 23.0309 3.72623C23.0309 1.78349 21.4439 0.189453 19.5095 0.189453C17.5752 0.189453 15.9882 1.78341 15.9882 3.72623C15.9882 4.40836 16.1881 5.05013 16.5246 5.59129C15.2572 5.87777 14.2277 6.83679 14.2277 8.14711V13.4521H12.4669V8.14711C12.4669 6.83679 11.4374 5.87778 10.17 5.59129C10.5068 5.05009 10.7064 4.40839 10.7064 3.72623C10.7064 1.78349 9.11935 0.189453 7.18502 0.189453H7.18492ZM7.18492 1.95796C8.16773 1.95796 8.94571 2.73907 8.94571 3.72615C8.94571 4.71327 8.1677 5.49466 7.18492 5.49466C6.20211 5.49466 5.42445 4.71324 5.42445 3.72615C5.42445 2.73903 6.20215 1.95796 7.18492 1.95796ZM19.5093 1.95796C20.4921 1.95796 21.2698 2.73907 21.2698 3.72615C21.2698 4.71327 20.4921 5.49466 19.5093 5.49466C18.5266 5.49466 17.7488 4.71324 17.7488 3.72615C17.7488 2.73903 18.5266 1.95796 19.5093 1.95796ZM31.8337 1.95796C32.8165 1.95796 33.5942 2.73907 33.5942 3.72615C33.5942 4.71327 32.8165 5.49466 31.8337 5.49466C30.8509 5.49466 30.0729 4.71324 30.0729 3.72615C30.0729 2.73903 30.8509 1.95796 31.8337 1.95796ZM4.98414 7.26293H9.38571C10.227 7.26293 10.7063 7.76065 10.7063 8.14703V13.452H3.66359V8.14703C3.66359 7.76063 4.14286 7.26293 4.98414 7.26293ZM17.3085 7.26293H21.7101C22.5514 7.26293 23.0307 7.76065 23.0307 8.14703V13.452H15.988V8.14703C15.988 7.76063 16.4673 7.26293 17.3085 7.26293ZM29.6329 7.26293H34.0345C34.8758 7.26293 35.3551 7.76065 35.3551 8.14703V13.452H28.3124V8.14703C28.3124 7.76063 28.7917 7.26293 29.6329 7.26293ZM1.90304 15.2205H37.1156V16.9887H1.90304V15.2205ZM5.42437 18.7573H33.5944V30.2516H5.42437V18.7573Z" fill="#EC7216"/>
</svg>
