<svg width="36" height="36" viewBox="0 0 36 36" fill="none" xmlns="http://www.w3.org/2000/svg">
<path opacity="0.906" fill-rule="evenodd" clip-rule="evenodd" d="M12.6212 -0.00488281C13.5535 -0.00488281 14.4857 -0.00488281 15.418 -0.00488281C14.7365 1.89945 14.0193 3.79101 13.2666 5.66982C15.2283 5.64873 17.1884 5.66078 19.1471 5.70596C19.3069 5.65401 19.4383 5.55762 19.5415 5.4168C19.8881 4.95898 20.2348 4.50114 20.5814 4.04331C21.2746 3.94693 21.9678 3.94693 22.6611 4.04331C22.2113 4.92603 21.781 5.81759 21.3702 6.71801C21.7233 6.91717 22.046 7.15811 22.3383 7.4409C22.395 7.66746 22.3711 7.88432 22.2666 8.0915C21.9861 8.31133 21.6873 8.50413 21.3702 8.66982C21.8607 9.58594 22.2909 10.5257 22.6611 11.4891C21.9913 11.5011 21.322 11.4891 20.6531 11.4529C20.2326 10.9544 19.8382 10.4363 19.4698 9.89873C19.4013 9.79796 19.3057 9.74974 19.183 9.75415C17.2363 9.82493 15.2881 9.849 13.3383 9.82644C14.029 11.713 14.77 13.5806 15.5614 15.4289C14.6084 15.5559 13.6522 15.5679 12.6929 15.465C11.4021 13.6096 10.1112 11.7542 8.82041 9.89873C6.98262 9.98425 5.39296 9.40594 4.05148 8.16379C4.00367 7.92285 4.00367 7.68184 4.05148 7.4409C4.9148 6.56594 5.95464 6.02377 7.17101 5.81439C7.7204 5.75116 8.27015 5.69092 8.82041 5.63367C10.0892 3.75286 11.3561 1.87334 12.6212 -0.00488281ZM13.1232 0.790298C13.5064 0.778298 13.8889 0.790341 14.2706 0.826443C13.6276 2.44581 13.0061 4.07231 12.4061 5.70596C11.5452 5.718 10.6846 5.70595 9.82439 5.66982C10.9336 4.0475 12.0332 2.42099 13.1232 0.790298ZM21.0834 4.7662C21.1818 4.75487 21.2775 4.76692 21.3702 4.80235C21.1024 5.33046 20.8276 5.84854 20.5455 6.35656C20.4098 6.30623 20.2783 6.24599 20.1511 6.17584C20.0829 6.12397 20.071 6.06373 20.1152 5.99512C20.4731 5.60961 20.7958 5.19997 21.0834 4.7662ZM8.17499 6.50114C11.7607 6.48909 15.3464 6.50114 18.932 6.53729C19.7309 6.87965 20.4958 7.27724 21.2268 7.73006C20.4858 8.12765 19.7447 8.52524 19.0037 8.92283C15.2511 9.02273 11.4982 9.0468 7.74471 8.99512C6.68379 8.88423 5.75152 8.48664 4.9479 7.80235C5.51331 7.25902 6.18263 6.89758 6.95587 6.71801C7.37001 6.63125 7.77641 6.55896 8.17499 6.50114ZM20.5097 9.03126C20.8218 9.52731 21.1087 10.0454 21.3702 10.5855C21.2746 10.6337 21.179 10.6337 21.0834 10.5855C20.7487 10.1758 20.4141 9.76623 20.0794 9.35656C20.2405 9.26425 20.3839 9.15582 20.5097 9.03126ZM9.82439 9.89873C10.6735 9.80295 11.534 9.80295 12.4061 9.89873C13.0422 11.4822 13.6877 13.0606 14.3423 14.6337C13.9338 14.6937 13.5274 14.6816 13.1232 14.5975C12.0396 13.0137 10.94 11.4475 9.82439 9.89873Z" fill="#EC7216"/>
<path opacity="0.866" fill-rule="evenodd" clip-rule="evenodd" d="M23.3064 5.56152C24.0503 5.85216 24.7435 6.2377 25.3861 6.71815C25.2439 6.95743 25.0766 7.17429 24.8841 7.36875C24.244 6.98678 23.6225 6.58918 23.0195 6.17598C23.1064 5.9649 23.202 5.76008 23.3064 5.56152Z" fill="#EC7216"/>
<path opacity="0.882" fill-rule="evenodd" clip-rule="evenodd" d="M8.89258 7.36914C9.22726 7.36914 9.56188 7.36914 9.89656 7.36914C9.89656 7.63422 9.89656 7.89924 9.89656 8.16432C9.56188 8.16432 9.22726 8.16432 8.89258 8.16432C8.89258 7.89924 8.89258 7.63422 8.89258 7.36914Z" fill="#EC7216"/>
<path opacity="0.937" fill-rule="evenodd" clip-rule="evenodd" d="M10.9004 7.36914C11.9044 7.36914 12.9084 7.36914 13.9123 7.36914C13.9068 7.63769 13.9307 7.90271 13.9841 8.16432C12.9562 8.16432 11.9283 8.16432 10.9004 8.16432C10.9004 7.89924 10.9004 7.63422 10.9004 7.36914Z" fill="#EC7216"/>
<path opacity="0.846" fill-rule="evenodd" clip-rule="evenodd" d="M27.036 8.16398C27.1115 8.1532 27.1832 8.1652 27.2512 8.20012C27.8061 8.71106 28.3081 9.26523 28.7571 9.86277C28.5499 10.0867 28.3108 10.2312 28.04 10.2965C27.6 9.78065 27.1339 9.2867 26.6416 8.81458C26.6964 8.56106 26.8279 8.34419 27.036 8.16398Z" fill="#EC7216"/>
<path opacity="0.771" fill-rule="evenodd" clip-rule="evenodd" d="M4.80485 9.53711C5.03955 9.67692 5.25469 9.84564 5.45027 10.0431C5.36417 10.2173 5.24464 10.3619 5.09171 10.4769C4.86655 10.3342 4.65141 10.1776 4.44629 10.007C4.55381 9.8387 4.67333 9.68205 4.80485 9.53711Z" fill="#EC7216"/>
<path opacity="0.862" fill-rule="evenodd" clip-rule="evenodd" d="M29.833 11.7787C29.939 11.7598 30.0346 11.7838 30.1199 11.851C30.4909 12.5265 30.8017 13.2253 31.0522 13.9474C30.8147 13.983 30.5875 14.0553 30.3709 14.1643C30.0166 13.5105 29.67 12.8478 29.3311 12.1763C29.5011 12.043 29.6685 11.9105 29.833 11.7787Z" fill="#EC7216"/>
<path opacity="0.866" fill-rule="evenodd" clip-rule="evenodd" d="M3.15493 11.9229C3.44662 11.9614 3.68566 12.0939 3.87206 12.3204C3.53459 12.9643 3.24774 13.6269 3.0115 14.3084C2.6958 14.2836 2.43285 14.1631 2.22266 13.9469C2.495 13.2533 2.80576 12.5787 3.15493 11.9229Z" fill="#EC7216"/>
<path opacity="0.921" fill-rule="evenodd" clip-rule="evenodd" d="M6.88446 15.6094C7.72114 15.6094 8.55775 15.6094 9.39443 15.6094C9.33218 16.5258 9.26047 17.4415 9.17929 18.3564C8.98803 18.3564 8.79684 18.3564 8.60558 18.3564C8.60558 18.7178 8.60558 19.0793 8.60558 19.4407C8.41289 19.4288 8.22163 19.4409 8.03188 19.4768C7.82814 19.8032 7.9238 19.9477 8.31873 19.9106C8.36656 19.8383 8.41432 19.766 8.46215 19.6937C8.72405 19.6576 8.98695 19.6456 9.251 19.6576C9.26814 19.7998 9.24426 19.9323 9.17929 20.0552C11.3752 21.7626 13.5505 23.4975 15.7052 25.26C15.8827 25.4458 16.0979 25.5543 16.3506 25.5853C16.3506 29.0552 16.3506 32.525 16.3506 35.9949C10.9004 35.9949 5.4502 35.9949 0 35.9949C0 32.525 0 29.0552 0 25.5853C0.266568 25.511 0.505614 25.3785 0.717132 25.1877C2.83267 23.4889 4.94821 21.7901 7.06375 20.0913C6.98565 19.4927 7.18889 19.0348 7.67331 18.7178C7.74158 18.6061 7.76546 18.4856 7.74502 18.3564C7.55376 18.3564 7.36258 18.3564 7.17132 18.3564C7.08505 17.4384 6.98945 16.5227 6.88446 15.6094ZM7.81674 16.4046C8.05576 16.4046 8.29485 16.4046 8.53387 16.4046C8.48733 16.7397 8.45147 17.077 8.4263 17.4166C8.25555 17.4842 8.07627 17.5083 7.88845 17.4889C7.88035 17.1261 7.85639 16.7647 7.81674 16.4046ZM7.67331 20.6696C7.99616 20.8584 8.31887 20.8584 8.64144 20.6696C10.6657 22.3222 12.7095 23.9487 14.7729 25.5491C14.3672 25.5852 13.9608 25.5973 13.5538 25.5853C13.5538 25.9708 13.5538 26.3564 13.5538 26.7419C13.1952 26.7419 12.8367 26.7419 12.4781 26.7419C12.5279 26.234 12.4442 25.752 12.2271 25.2961C11.5338 24.6214 10.8407 24.6214 10.1474 25.2961C10.0996 25.3925 10.0518 25.4889 10.004 25.5853C9.9682 25.9701 9.95623 26.3556 9.96813 26.7419C8.77289 26.7419 7.57772 26.7419 6.38247 26.7419C6.44552 26.2063 6.36185 25.7003 6.13148 25.2238C5.63023 24.7527 5.06848 24.6684 4.44622 24.9708C3.91475 25.4369 3.72352 26.0273 3.87251 26.7419C3.51395 26.7419 3.15538 26.7419 2.79681 26.7419C2.79681 26.3564 2.79681 25.9708 2.79681 25.5853C2.38974 25.5973 1.98336 25.5852 1.57769 25.5491C3.62299 23.9325 5.65486 22.306 7.67331 20.6696ZM5.01992 25.5853C5.20631 25.5888 5.36169 25.6611 5.48606 25.8021C5.58412 26.1058 5.61997 26.419 5.59363 26.7419C5.30677 26.7419 5.01992 26.7419 4.73307 26.7419C4.72119 26.4277 4.73314 26.1145 4.76893 25.8021C4.85104 25.72 4.93471 25.6477 5.01992 25.5853ZM11.1155 25.5853C11.3115 25.6177 11.4669 25.714 11.5817 25.8744C11.6175 26.1626 11.6294 26.4517 11.6175 26.7419C11.3307 26.7419 11.0438 26.7419 10.757 26.7419C10.7451 26.4517 10.757 26.1626 10.7928 25.8744C10.893 25.7609 11.0006 25.6645 11.1155 25.5853ZM0.788845 26.3805C1.17131 26.3805 1.55379 26.3805 1.93626 26.3805C1.93626 26.7901 1.93626 27.1997 1.93626 27.6094C6.07172 27.6094 10.2072 27.6094 14.3426 27.6094C14.3426 27.1997 14.3426 26.7901 14.3426 26.3805C14.749 26.3805 15.1554 26.3805 15.5618 26.3805C15.5618 29.3202 15.5618 32.26 15.5618 35.1997C10.6374 35.1997 5.71315 35.1997 0.788845 35.1997C0.788845 32.26 0.788845 29.3202 0.788845 26.3805Z" fill="#EC7216"/>
<path opacity="0.866" fill-rule="evenodd" clip-rule="evenodd" d="M31.4819 16.0439C31.5775 16.0439 31.6732 16.0439 31.7688 16.0439C31.8799 16.6679 31.9755 17.2944 32.0556 17.9235C31.7701 17.9611 31.4833 17.9852 31.1951 17.9958C31.1728 17.3913 31.0772 16.8009 30.9082 16.2247C31.1147 16.1852 31.3059 16.125 31.4819 16.0439Z" fill="#EC7216"/>
<path opacity="0.874" fill-rule="evenodd" clip-rule="evenodd" d="M1.5056 16.1885C1.79623 16.2423 2.08309 16.3145 2.36616 16.4053C2.19231 17.1436 2.07279 17.8906 2.00759 18.6463C1.7469 18.6019 1.48395 18.5778 1.21875 18.574C1.27413 17.7736 1.36976 16.9785 1.5056 16.1885Z" fill="#EC7216"/>
<path opacity="0.919" fill-rule="evenodd" clip-rule="evenodd" d="M22.8048 18.2119C27.2032 18.2119 31.6016 18.2119 36 18.2119C36 21.2721 36 24.3324 36 27.3926C35.498 27.3926 34.996 27.3926 34.494 27.3926C34.2899 28.2363 33.752 28.67 32.8805 28.6938C32.0828 28.6241 31.545 28.2144 31.2669 27.4649C30.4064 27.3686 29.5458 27.3686 28.6853 27.4649C28.2761 28.4904 27.5351 28.8639 26.4621 28.5854C25.9389 28.3834 25.6043 28.0098 25.4582 27.4649C24.4303 27.3686 23.4024 27.3686 22.3745 27.4649C22.1443 28.2394 21.6303 28.649 20.8327 28.6938C19.9932 28.6546 19.5032 28.2209 19.3625 27.3926C19.0518 27.3926 18.741 27.3926 18.4303 27.3926C18.4183 26.043 18.4303 24.6936 18.4661 23.3444C18.9681 22.4288 19.4701 21.5131 19.9721 20.5975C20.9106 20.526 21.8549 20.5018 22.8048 20.5252C22.8048 19.7541 22.8048 18.983 22.8048 18.2119ZM23.5936 19.0794C27.4661 19.0794 31.3386 19.0794 35.2112 19.0794C35.2112 21.5854 35.2112 24.0914 35.2112 26.5975C34.9721 26.5975 34.733 26.5975 34.494 26.5975C34.1487 25.5435 33.4315 25.1459 32.3426 25.4047C31.8264 25.6238 31.4679 25.9973 31.2669 26.5252C30.4064 26.6215 29.5458 26.6215 28.6853 26.5252C28.1301 25.3386 27.2695 25.0374 26.1036 25.6216C25.791 25.8551 25.5758 26.1563 25.4582 26.5252C24.8385 26.5973 24.217 26.6214 23.5936 26.5975C23.5936 24.0914 23.5936 21.5854 23.5936 19.0794ZM20.51 21.3203C21.2749 21.3203 22.0398 21.3203 22.8048 21.3203C22.8048 21.9227 22.8048 22.5252 22.8048 23.1276C21.728 23.1516 20.6523 23.1275 19.5777 23.0553C19.9267 22.4961 20.2374 21.9178 20.51 21.3203ZM19.2191 23.9228C20.4144 23.9228 21.6095 23.9228 22.8048 23.9228C22.8048 24.8143 22.8048 25.7059 22.8048 26.5975C22.6357 26.6092 22.4684 26.5972 22.3028 26.5613C21.7414 25.5776 20.9526 25.3366 19.9362 25.8384C19.6997 26.0165 19.5324 26.2454 19.4343 26.5252C19.3751 26.5892 19.3034 26.6133 19.2191 26.5975C19.2191 25.7059 19.2191 24.8143 19.2191 23.9228ZM26.8207 26.1637C27.6319 26.1261 27.9786 26.5116 27.8606 27.3203C27.6223 27.7836 27.2518 27.9402 26.749 27.7902C26.2155 27.456 26.1079 27.0103 26.4263 26.4529C26.5562 26.3461 26.6877 26.2497 26.8207 26.1637ZM32.6295 26.1637C33.4445 26.1296 33.7912 26.5152 33.6693 27.3203C33.431 27.7836 33.0605 27.9402 32.5578 27.7902C32.0345 27.4492 31.927 27.0034 32.2351 26.4529C32.365 26.3461 32.4965 26.2497 32.6295 26.1637ZM20.7251 26.3806C21.4775 26.5002 21.7046 26.9097 21.4064 27.6095C20.9245 27.9495 20.5182 27.8772 20.1872 27.3926C20.0734 26.8938 20.2526 26.5564 20.7251 26.3806Z" fill="#EC7216"/>
<path opacity="0.939" fill-rule="evenodd" clip-rule="evenodd" d="M25.2432 20.1631C25.5061 20.1631 25.769 20.1631 26.032 20.1631C26.032 21.4161 26.032 22.6691 26.032 23.9221C25.769 23.9221 25.5061 23.9221 25.2432 23.9221C25.2432 22.6691 25.2432 21.4161 25.2432 20.1631Z" fill="#EC7216"/>
<path opacity="0.939" fill-rule="evenodd" clip-rule="evenodd" d="M27.7529 20.1631C28.0159 20.1631 28.2788 20.1631 28.5418 20.1631C28.5418 21.4161 28.5418 22.6691 28.5418 23.9221C28.2788 23.9221 28.0159 23.9221 27.7529 23.9221C27.7529 22.6691 27.7529 21.4161 27.7529 20.1631Z" fill="#EC7216"/>
<path opacity="0.939" fill-rule="evenodd" clip-rule="evenodd" d="M30.2627 20.1631C30.5257 20.1631 30.7886 20.1631 31.0515 20.1631C31.0515 21.4161 31.0515 22.6691 31.0515 23.9221C30.7886 23.9221 30.5257 23.9221 30.2627 23.9221C30.2627 22.6691 30.2627 21.4161 30.2627 20.1631Z" fill="#EC7216"/>
<path opacity="0.861" fill-rule="evenodd" clip-rule="evenodd" d="M32.7725 20.1631C33.0593 20.1631 33.3462 20.1631 33.633 20.1631C33.633 21.4161 33.633 22.6691 33.633 23.9221C33.3462 23.9221 33.0593 23.9221 32.7725 23.9221C32.7725 22.6691 32.7725 21.4161 32.7725 20.1631Z" fill="#EC7216"/>
<path opacity="0.873" fill-rule="evenodd" clip-rule="evenodd" d="M1.79246 20.7424C1.88727 20.7301 1.97093 20.7542 2.04345 20.8147C2.12107 21.5672 2.22864 22.3142 2.36616 23.0556C2.12164 23.076 1.8826 23.1242 1.64903 23.2002C1.40546 22.4261 1.26204 21.631 1.21875 20.8147C1.42567 20.8368 1.61691 20.8127 1.79246 20.7424Z" fill="#EC7216"/>
<path opacity="0.932" fill-rule="evenodd" clip-rule="evenodd" d="M2.08008 28.7656C2.34303 28.7656 2.60597 28.7656 2.86892 28.7656C2.86892 30.5006 2.86892 32.2355 2.86892 33.9704C2.60597 33.9704 2.34303 33.9704 2.08008 33.9704C2.08008 32.2355 2.08008 30.5006 2.08008 28.7656Z" fill="#EC7216"/>
<path opacity="0.932" fill-rule="evenodd" clip-rule="evenodd" d="M4.37402 28.7656C4.63697 28.7656 4.89992 28.7656 5.16287 28.7656C5.16287 30.5006 5.16287 32.2355 5.16287 33.9704C4.89992 33.9704 4.63697 33.9704 4.37402 33.9704C4.37402 32.2355 4.37402 30.5006 4.37402 28.7656Z" fill="#EC7216"/>
<path opacity="0.854" fill-rule="evenodd" clip-rule="evenodd" d="M6.59766 28.7656C6.88451 28.7656 7.17136 28.7656 7.45821 28.7656C7.45821 30.5006 7.45821 32.2355 7.45821 33.9704C7.17136 33.9704 6.88451 33.9704 6.59766 33.9704C6.59766 32.2355 6.59766 30.5006 6.59766 28.7656Z" fill="#EC7216"/>
<path opacity="0.932" fill-rule="evenodd" clip-rule="evenodd" d="M8.89258 28.7656C9.15555 28.7656 9.41845 28.7656 9.68142 28.7656C9.68142 30.5006 9.68142 32.2355 9.68142 33.9704C9.41845 33.9704 9.15555 33.9704 8.89258 33.9704C8.89258 32.2355 8.89258 30.5006 8.89258 28.7656Z" fill="#EC7216"/>
<path opacity="0.932" fill-rule="evenodd" clip-rule="evenodd" d="M11.1875 28.7656C11.4505 28.7656 11.7134 28.7656 11.9763 28.7656C11.9763 30.5006 11.9763 32.2355 11.9763 33.9704C11.7134 33.9704 11.4505 33.9704 11.1875 33.9704C11.1875 32.2355 11.1875 30.5006 11.1875 28.7656Z" fill="#EC7216"/>
<path opacity="0.854" fill-rule="evenodd" clip-rule="evenodd" d="M13.4102 28.7656C13.697 28.7656 13.9839 28.7656 14.2707 28.7656C14.2707 30.5006 14.2707 32.2355 14.2707 33.9704C13.9839 33.9704 13.697 33.9704 13.4102 33.9704C13.4102 32.2355 13.4102 30.5006 13.4102 28.7656Z" fill="#EC7216"/>
<path opacity="0.866" fill-rule="evenodd" clip-rule="evenodd" d="M28.112 28.7656C28.372 28.8973 28.611 29.066 28.8291 29.2716C28.3276 29.8976 27.7778 30.4759 27.1797 31.0066C27.0131 30.8168 26.8458 30.624 26.6777 30.4283C27.211 29.9154 27.689 29.3611 28.112 28.7656Z" fill="#EC7216"/>
<path opacity="0.862" fill-rule="evenodd" clip-rule="evenodd" d="M24.8849 31.8018C25.1478 31.9306 25.339 32.1354 25.4586 32.4162C24.8308 32.9371 24.1376 33.3226 23.3789 33.5728C23.221 33.3645 23.1373 33.1356 23.1279 32.8861C23.7481 32.5682 24.3338 32.2067 24.8849 31.8018Z" fill="#EC7216"/>
<path opacity="0.874" fill-rule="evenodd" clip-rule="evenodd" d="M21.0117 33.6816C21.1441 33.8836 21.2398 34.1126 21.2986 34.3684C21.2882 34.4242 21.2643 34.4724 21.2269 34.513C20.5065 34.74 19.7774 34.9207 19.0396 35.0551C18.9797 34.7752 18.9199 34.498 18.8604 34.2238C19.6029 34.1089 20.3201 33.9282 21.0117 33.6816Z" fill="#EC7216"/>
</svg>
