<svg width="40" height="40" viewBox="0 0 40 40" fill="none" xmlns="http://www.w3.org/2000/svg">
<g clip-path="url(#clip0_194_115)">
<path d="M19.4375 8.8125C19.25 8.8125 19.125 8.75 19 8.625C18.75 8.375 18.75 8 19 7.75L19.375 7.375C19.6875 7 19.6875 6.4375 19.375 6.125C19.0625 5.8125 18.5 5.8125 18.125 6.125L16.0625 8.1875C15.8125 8.4375 15.4375 8.4375 15.1875 8.1875C14.9375 7.9375 14.9375 7.5625 15.1875 7.3125L17.25 5.25C18.125 4.4375 19.4375 4.4375 20.25 5.25C21.0625 6.0625 21.0625 7.375 20.25 8.25L19.875 8.625C19.75 8.75 19.625 8.8125 19.4375 8.8125ZM11.3125 7.875C11.125 7.875 11 7.8125 10.875 7.6875C10.625 7.4375 10.625 7.0625 10.875 6.8125L11.5 6.1875C11.8125 5.8125 11.8125 5.25 11.5 4.9375C11.1875 4.625 10.5625 4.625 10.25 4.9375L7.9375 7.25C7.6875 7.5 7.3125 7.5 7.0625 7.25C6.8125 7 6.8125 6.625 7.0625 6.375L9.375 4.0625C10.125 3.3125 11.625 3.3125 12.375 4.0625C13.1875 4.875 13.1875 6.1875 12.375 7.0625L11.75 7.6875C11.625 7.8125 11.5 7.875 11.3125 7.875Z" fill="#EC7216"/>
<path d="M16.9375 18.4379C16.8125 18.4379 16.6875 18.3754 16.5625 18.3129C12.8125 15.8129 6.3125 12.1254 1.0625 10.0004C0.875 9.93791 0.6875 9.81291 0.5 9.62541C-0.1875 8.93791 -0.1875 7.87541 0.5 7.12541L0.5625 7.06291C1.5625 6.12541 2.9375 5.68791 4.375 5.81291L19.4375 7.56291L25.125 8.50041C25.4375 8.56291 25.6875 8.87541 25.625 9.18791C25.5625 9.50041 25.25 9.75041 24.9375 9.68791L19.25 8.75041L4.25 7.06291C3.1875 6.93791 2.1875 7.31291 1.375 8.00041C1.1875 8.25041 1.1875 8.56291 1.375 8.75041C1.4375 8.81291 1.5 8.81291 1.5625 8.87541C6.8125 11.0004 13.4375 14.7504 17.25 17.3129C17.5625 17.5004 17.625 17.8754 17.4375 18.1879C17.3125 18.3129 17.125 18.4379 16.9375 18.4379ZM32.5 24.8754C32.3125 24.8754 32.1875 24.8129 32.0625 24.6879C31.8125 24.4379 31.8125 24.0629 32.0625 23.8129L34.125 21.7504C34.4375 21.3754 34.4375 20.8129 34.125 20.5004C33.8125 20.1879 33.25 20.1879 32.875 20.5004L32.5 20.8754C32.25 21.1254 31.875 21.1254 31.625 20.8754C31.375 20.6254 31.375 20.2504 31.625 20.0004L32 19.6254C32.875 18.8129 34.1875 18.8129 35 19.6254C35.8125 20.4379 35.8125 21.7504 35 22.6254L32.9375 24.6879C32.8125 24.8129 32.6875 24.8754 32.5 24.8754ZM33.4375 32.9379C33.25 32.9379 33.125 32.8754 33 32.7504C32.75 32.5004 32.75 32.1254 33 31.8754L35.25 29.5629C35.5625 29.1879 35.5625 28.6254 35.25 28.3129C34.9375 28.0004 34.375 28.0004 34 28.3129L33.375 28.9379C33.125 29.1879 32.75 29.1879 32.5 28.9379C32.25 28.6879 32.25 28.3129 32.5 28.0629L33.125 27.4379C34 26.6254 35.3125 26.6254 36.125 27.4379C36.9375 28.2504 36.9375 29.5629 36.125 30.4379L33.875 32.7504C33.75 32.8754 33.625 32.9379 33.4375 32.9379Z" fill="#EC7216"/>
<path d="M31.8125 39.8124C31.375 39.8124 30.875 39.6249 30.5625 39.3124C30.375 39.1249 30.25 38.9374 30.1875 38.7499C28 33.4374 24.3125 26.7499 21.75 22.8749C21.5625 22.5624 21.625 22.1874 21.9375 21.9999C22.25 21.8124 22.625 21.8749 22.8125 22.1874C25.4375 26.1249 29.1875 32.8749 31.375 38.2499C31.4375 38.3124 31.4375 38.3749 31.5 38.4374C31.6875 38.6249 32.0625 38.6249 32.25 38.4374C33 37.6874 33.375 36.6249 33.25 35.5624L31.5 20.4374L30.625 14.4999C30.5625 14.1874 30.8125 13.8124 31.125 13.8124C31.4375 13.7499 31.8125 13.9999 31.8125 14.3124L32.6875 20.2499L34.4375 35.3749C34.5625 36.8124 34.0625 38.2499 33.0625 39.2499C32.75 39.6874 32.25 39.8124 31.8125 39.8124ZM8.875 29.8749C8.75 29.8749 8.625 29.8124 8.5 29.7499L1.8125 25.2499C1.5 24.9999 1.3125 24.6249 1.25 24.2499C1.25 23.8749 1.375 23.5624 1.625 23.2499L2.75 22.1249C3.125 21.7499 3.5 21.7499 3.8125 21.7499H3.9375L11.0625 23.4999C11.375 23.5624 11.625 23.9374 11.5 24.2499C11.4375 24.5624 11.0625 24.8124 10.75 24.6874L3.8125 23.0624H3.6875L2.5625 24.1874L9.25 28.7499C9.5625 28.9374 9.625 29.3124 9.4375 29.6249C9.25 29.7499 9.0625 29.8749 8.875 29.8749ZM15.9375 38.6874H15.75C15.375 38.6249 15.0625 38.4374 14.875 38.1249L10 30.8749C9.8125 30.5624 9.875 30.1874 10.1875 29.9999C10.5 29.8124 10.875 29.8749 11.0625 30.1874L15.9375 37.3749L17 36.3124L14.875 28.8749C14.75 28.5624 15 28.1874 15.3125 28.1249C15.625 28.0624 16 28.2499 16.0625 28.5624L18.1875 35.9999C18.3125 36.3749 18.1875 36.8749 17.8125 37.2499L16.6875 38.3749C16.5625 38.5624 16.25 38.6874 15.9375 38.6874Z" fill="#EC7216"/>
<path d="M11.4909 30.875C11.3034 30.875 11.0534 30.875 10.8659 30.8125C10.5534 30.75 10.3034 30.4375 10.3659 30.125C10.4284 29.8125 10.7409 29.5625 11.0534 29.625C12.3659 29.8125 14.5534 28.9375 15.1784 28.3125L35.9909 9.3125C38.0534 7.3125 39.6784 3.125 38.4284 1.8125C38.1159 1.5 37.6159 1.3125 36.9284 1.375C35.0534 1.375 32.3034 2.6875 30.8034 4.1875L11.5534 24.5625C10.9284 25.1875 9.99086 27.25 10.2409 28.625C10.3034 28.9375 10.0534 29.3125 9.74086 29.3125C9.42836 29.375 9.05336 29.125 9.05336 28.8125C8.74086 27 9.86586 24.5625 10.7409 23.6875L29.9909 3.25C31.7409 1.4375 34.8034 0.0625 36.9909 0H37.0534C38.0534 0 38.8659 0.25 39.4284 0.8125C41.4284 2.875 39.3659 7.75 36.9909 10.0625L16.1159 29.125C15.3659 29.9375 13.2409 30.875 11.4909 30.875Z" fill="#EC7216"/>
<path d="M35.5 6.875C35.1875 6.875 34.875 6.625 34.875 6.3125C34.8125 5.75 34.375 5.375 33.75 5.3125H33.625C33.25 5.3125 33 5.0625 33 4.6875C33 4.3125 33.25 4.0625 33.625 4.0625H33.8125C35.125 4.125 36.0625 5 36.125 6.1875C36.125 6.5625 35.875 6.875 35.5 6.875ZM8.5625 32.6875C8.125 32.6875 7.6875 32.5 7.375 32.1875C7.0625 31.875 6.875 31.5 6.875 31.0625C6.875 30.625 7.0625 30.1875 7.3125 29.875L10.875 26.3125C11.4375 25.75 12.625 25.75 13.1875 26.3125C13.5 26.625 13.625 27 13.625 27.5C13.625 28 13.4375 28.375 13.1875 28.6875L9.625 32.25C9.4375 32.5 9 32.6875 8.5625 32.6875ZM12.125 27.125C12 27.125 11.9375 27.1875 11.875 27.25L8.3125 30.8125C8.25 30.875 8.1875 31 8.1875 31.0625C8.1875 31.1875 8.25 31.25 8.3125 31.3125C8.5 31.5 8.6875 31.5 8.8125 31.375L12.4375 27.75C12.5 27.6875 12.5625 27.5625 12.5625 27.5C12.5625 27.4375 12.5 27.3125 12.4375 27.25C12.3125 27.125 12.1875 27.125 12.125 27.125Z" fill="#EC7216"/>
</g>
<defs>
<clipPath id="clip0_194_115">
<rect width="40" height="40" fill="white"/>
</clipPath>
</defs>
</svg>
