<svg width="40" height="28" viewBox="0 0 40 28" fill="none" xmlns="http://www.w3.org/2000/svg">
<path fill-rule="evenodd" clip-rule="evenodd" d="M12.8348 14.8339C12.9218 14.8339 13.0088 14.8564 13.084 14.9021C13.2264 14.9869 13.3055 15.1378 13.2881 15.2929C13.0389 17.553 12.3988 19.6595 11.3852 21.5542C10.4896 23.2277 9.31697 24.6967 7.88246 25.9454C14.8848 22.5149 17.7348 15.1958 16.7734 9.28258C16.1697 5.57078 13.762 1.60382 8.81529 1.60382C4.5459 1.6038 1.0716 4.78771 1.0716 8.70107C1.07168 12.6137 4.54587 15.7976 8.81529 15.7976C10.1461 15.7976 11.458 15.4829 12.6108 14.8876C12.6804 14.8513 12.7579 14.834 12.8347 14.8339L12.8348 14.8339ZM4.92258 27.935C4.74768 27.935 4.5831 27.8422 4.50714 27.6906C4.41298 27.4999 4.48658 27.2744 4.68041 27.1628C9.93176 24.1522 11.7342 19.5536 12.2817 15.9702C11.1938 16.4052 10.0109 16.6329 8.81538 16.6329C4.04272 16.6329 0.160156 13.0741 0.160156 8.70109C0.160233 4.32729 4.0427 0.768555 8.81538 0.768555C11.197 0.768508 13.2905 1.62124 14.8698 3.23387C16.3146 4.70866 17.2846 6.75784 17.6747 9.16008C18.8236 16.2232 14.7907 25.1978 5.05549 27.9169C5.01117 27.9292 4.96605 27.935 4.9226 27.935L4.92258 27.935Z" fill="#EC7216"/>
<path fill-rule="evenodd" clip-rule="evenodd" d="M34.9355 14.8339C35.0226 14.8339 35.1096 14.8564 35.1855 14.9021C35.328 14.9869 35.4063 15.1378 35.3897 15.2929C35.1404 17.553 34.4996 19.6595 33.486 21.5542C32.5904 23.2277 31.4185 24.6967 29.9841 25.9454C36.9849 22.5149 39.8355 15.1958 38.8742 9.28258C38.2706 5.57078 35.8636 1.60382 30.9169 1.60382C26.6467 1.6038 23.1732 4.78771 23.1732 8.70107C23.1732 12.6137 26.6466 15.7976 30.9169 15.7976C32.247 15.7976 33.5596 15.4829 34.7124 14.8876C34.7821 14.8513 34.8587 14.834 34.9355 14.8339L34.9355 14.8339ZM27.0233 27.935C26.8485 27.935 26.6839 27.8422 26.6087 27.6907C26.5138 27.4999 26.5881 27.2745 26.7812 27.1628C32.0334 24.1522 33.8349 19.5536 34.3824 15.9702C33.2946 16.4052 32.1124 16.6329 30.9169 16.6329C26.1443 16.6329 22.2617 13.0741 22.2617 8.7011C22.2618 4.3273 26.1442 0.768555 30.9169 0.768555C33.2977 0.768508 35.3912 1.62124 36.9705 3.23387C38.4154 4.70866 39.3853 6.75784 39.7762 9.15936C40.9243 16.2232 36.8914 25.1978 27.1562 27.9169C27.112 27.9292 27.0676 27.935 27.0233 27.935V27.935Z" fill="#EC7216"/>
</svg>
