<svg width="24" height="24" viewBox="0 0 24 24" fill="none" xmlns="http://www.w3.org/2000/svg">
<g clip-path="url(#clip0_311_232)">
<path opacity="0.956" fill-rule="evenodd" clip-rule="evenodd" d="M4.42969 -0.0234375C4.89844 -0.0234375 5.36719 -0.0234375 5.83594 -0.0234375C8.18531 0.427386 9.64627 1.81801 10.2188 4.14844C10.4501 5.46352 10.2314 6.69792 9.5625 7.85156C8.33006 9.83981 7.10348 11.832 5.88281 13.8281C6.16355 14.0143 6.36666 14.2642 6.49219 14.5781C7.85156 14.5937 9.21094 14.6094 10.5703 14.625C11.5625 14.8672 12.1797 15.4844 12.4219 16.4766C12.5834 17.5514 12.2162 18.3873 11.3203 18.9844C11.0843 19.1151 10.8343 19.2089 10.5703 19.2656C8.53908 19.2812 6.5078 19.2969 4.47656 19.3125C3.47062 19.4436 3.02531 20.0139 3.14062 21.0234C3.28906 21.5469 3.625 21.8828 4.14844 22.0312C5.89706 22.0917 7.64709 22.1229 9.39844 22.125C9.65231 22.3411 9.69919 22.599 9.53906 22.8984C9.49219 22.9375 9.44531 22.9766 9.39844 23.0156C7.60158 23.0469 5.80467 23.0469 4.00781 23.0156C3.01562 22.7734 2.39844 22.1563 2.15625 21.1641C1.9947 20.0893 2.36189 19.2533 3.25781 18.6562C3.4938 18.5255 3.7438 18.4318 4.00781 18.375C6.14977 18.3733 8.29041 18.342 10.4297 18.2812C11.354 17.9323 11.6587 17.2838 11.3438 16.3359C11.0684 15.8583 10.6544 15.6005 10.1016 15.5625C8.89842 15.5312 7.69533 15.5312 6.49219 15.5625C6.14231 16.2922 5.5642 16.5891 4.75781 16.4531C3.94479 16.148 3.60885 15.5621 3.75 14.6953C3.86415 14.3336 4.07509 14.0445 4.38281 13.8281C3.16213 11.832 1.93557 9.83981 0.703125 7.85156C0.342919 7.2158 0.100732 6.54394 -0.0234375 5.83594C-0.0234375 5.36719 -0.0234375 4.89844 -0.0234375 4.42969C0.476564 1.96094 1.96094 0.476564 4.42969 -0.0234375ZM5.08594 0.914062C7.16719 1.03499 8.53439 2.08186 9.1875 4.05469C9.44297 5.13347 9.318 6.16472 8.8125 7.14844C7.59525 9.15464 6.36867 11.1546 5.13281 13.1484C3.89695 11.1546 2.67039 9.15464 1.45312 7.14844C0.634177 5.41645 0.821677 3.80709 2.01562 2.32031C2.8532 1.43982 3.87663 0.971067 5.08594 0.914062ZM4.80469 3.77344C5.98331 3.72546 6.53798 4.28796 6.46875 5.46094C6.11977 6.38522 5.47134 6.68991 4.52344 6.375C3.78112 5.89762 3.5858 5.2492 3.9375 4.42969C4.14966 4.10182 4.43872 3.88306 4.80469 3.77344ZM4.94531 14.6484C5.42152 14.5855 5.61684 14.7886 5.53125 15.2578C5.39334 15.4759 5.19802 15.5462 4.94531 15.4688C4.72711 15.333 4.6568 15.1377 4.73438 14.8828C4.78242 14.7803 4.85273 14.7022 4.94531 14.6484Z" fill="#EC7216"/>
<path opacity="0.945" fill-rule="evenodd" clip-rule="evenodd" d="M4.66397 2.78897C5.73816 2.65057 6.57413 3.02557 7.17178 3.91397C7.73035 5.07122 7.55067 6.09464 6.63272 6.98428C5.76474 7.5668 4.8585 7.62928 3.91397 7.17178C3.01805 6.57469 2.65086 5.73877 2.81241 4.66397C3.06311 3.67111 3.68029 3.04611 4.66397 2.78897ZM4.8046 3.77334C4.43862 3.88297 4.14956 4.10172 3.93741 4.42959C3.58571 5.24911 3.78102 5.89753 4.52335 6.37491C5.47125 6.68981 6.11967 6.38513 6.46866 5.46084C6.53789 4.28786 5.98322 3.72536 4.8046 3.77334Z" fill="#EC7216"/>
<path opacity="0.949" fill-rule="evenodd" clip-rule="evenodd" d="M23.9762 12.211C23.9762 12.6798 23.9762 13.1485 23.9762 13.6173C23.8586 14.2901 23.632 14.9307 23.2965 15.5391C22.0778 17.4454 20.859 19.3516 19.6403 21.2579C19.609 21.3048 19.609 21.3516 19.6403 21.3985C20.1513 21.7903 20.3388 22.306 20.2028 22.9454C20.0457 23.4695 19.7098 23.8133 19.195 23.9766C18.945 23.9766 18.6949 23.9766 18.445 23.9766C17.9765 23.8286 17.6484 23.524 17.4606 23.0626C16.0231 23.047 14.5856 23.0313 13.1481 23.0157C12.9243 22.8444 12.8539 22.6178 12.9371 22.336C12.9918 22.2501 13.0622 22.1798 13.1481 22.1251C14.5856 22.1095 16.0231 22.0938 17.4606 22.0782C17.5924 21.7818 17.7799 21.5318 18.0231 21.3282C16.8612 19.4655 15.6815 17.614 14.484 15.7735C13.5508 14.2028 13.4102 12.5621 14.0621 10.8516C15.183 8.60711 17.0033 7.58369 19.5231 7.78131C22.0002 8.26628 23.4846 9.74284 23.9762 12.211ZM18.7731 8.69538C20.8543 8.81631 22.2215 9.86317 22.8746 11.836C23.1301 12.9148 23.0051 13.946 22.4996 14.9298C21.2841 16.8457 20.0575 18.7519 18.82 20.6485C17.5824 18.7519 16.3558 16.8457 15.1403 14.9298C14.3213 13.1978 14.5088 11.5884 15.7028 10.1016C16.5403 9.22113 17.5638 8.75238 18.7731 8.69538ZM18.4918 11.5548C19.6705 11.5068 20.2251 12.0693 20.1559 13.2423C19.8069 14.1665 19.1585 14.4712 18.2106 14.1563C17.4683 13.6789 17.2729 13.0305 17.6246 12.211C17.8368 11.8831 18.1259 11.6644 18.4918 11.5548ZM18.6325 22.1485C19.1087 22.0856 19.304 22.2887 19.2184 22.7579C19.0805 22.976 18.8852 23.0463 18.6325 22.9688C18.4143 22.833 18.3439 22.6377 18.4215 22.3829C18.4696 22.2804 18.5399 22.2022 18.6325 22.1485Z" fill="#EC7216"/>
<path opacity="0.945" fill-rule="evenodd" clip-rule="evenodd" d="M18.3515 10.5702C19.4257 10.4318 20.2616 10.8068 20.8593 11.6952C21.4178 12.8525 21.2382 13.8759 20.3202 14.7655C19.4522 15.3481 18.546 15.4105 17.6015 14.953C16.7055 14.3559 16.3384 13.52 16.4999 12.4452C16.7506 11.4524 17.3678 10.8274 18.3515 10.5702ZM18.4921 11.5546C18.1261 11.6642 17.8371 11.883 17.6249 12.2109C17.2732 13.0304 17.4685 13.6788 18.2108 14.1562C19.1587 14.4711 19.8072 14.1664 20.1562 13.2421C20.2254 12.0691 19.6707 11.5066 18.4921 11.5546Z" fill="#EC7216"/>
<path opacity="0.908" fill-rule="evenodd" clip-rule="evenodd" d="M11.0387 22.1015C11.593 22.0229 11.8195 22.2573 11.7184 22.8046C11.5471 23.0284 11.3205 23.0987 11.0387 23.0155C10.8149 22.8442 10.7446 22.6176 10.8278 22.3358C10.8918 22.2486 10.9621 22.1705 11.0387 22.1015Z" fill="#EC7216"/>
</g>
<defs>
<clipPath id="clip0_311_232">
<rect width="24" height="24" fill="white"/>
</clipPath>
</defs>
</svg>
