<svg width="72" height="66" viewBox="0 0 72 66" fill="none" xmlns="http://www.w3.org/2000/svg">
<mask id="path-1-outside-1_173_10" maskUnits="userSpaceOnUse" x="0" y="43" width="72" height="23" fill="black">
<rect fill="white" y="43" width="72" height="23"/>
<path d="M2 43H70V64H2V43Z"/>
</mask>
<path d="M70 64V66H72V64H70ZM2 64H0V66H2V64ZM68 43V64H72V43H68ZM70 62H2V66H70V62ZM4 64V43H0V64H4Z" fill="#EC7216" mask="url(#path-1-outside-1_173_10)"/>
<circle cx="71" cy="40" r="1" fill="#001C34"/>
<circle cx="1" cy="40" r="1" fill="#001C34"/>
<rect x="6" width="60" height="60" rx="8" fill="#EC7216"/>
<g clip-path="url(#clip0_173_10)">
<path d="M18.228 41.1191L20.4715 42.6627C21.5008 43.3709 22.6987 43.7336 23.9071 43.7336C24.6918 43.7332 25.469 43.5808 26.1956 43.2847L29.0631 42.1188C29.7245 41.8499 30.4356 41.7254 31.149 41.7535C31.8624 41.7816 32.5616 41.9618 33.1997 42.2819L33.2793 42.3219C34.9828 43.1765 37.017 43.1765 38.7204 42.3219L38.8 42.2819C39.4382 41.9618 40.1373 41.7817 40.8507 41.7535C41.5641 41.7254 42.2753 41.8499 42.9366 42.1188L45.804 43.2847C47.7014 44.056 49.841 43.8234 51.5282 42.6626L53.7717 41.1191C53.8868 41.0399 53.9657 40.9183 53.9911 40.7809C54.0164 40.6436 53.9862 40.5018 53.9071 40.3867C53.8279 40.2716 53.7063 40.1927 53.5689 40.1673C53.4316 40.1419 53.2898 40.1721 53.1747 40.2513L50.9312 41.7948C49.5369 42.7542 47.7685 42.9463 46.2008 42.3089L45.973 42.2163C47.43 39.7288 48.3954 37.2639 48.8443 34.8812C48.8691 34.7485 48.8623 34.6118 48.8245 34.4822C48.7868 34.3525 48.7192 34.2336 48.6271 34.1348C48.4853 33.9835 48.3418 33.8338 48.1966 33.6858L47.7891 29.9936C47.7655 29.7778 47.663 29.5783 47.5012 29.4334C47.3395 29.2885 47.13 29.2085 46.9129 29.2088H46.6486L45.773 24.6553C45.7354 24.4607 45.6313 24.2853 45.4785 24.1591C45.3258 24.0329 45.1339 23.9638 44.9357 23.9635H44.5037L44.2399 22.2577C44.2173 22.1207 44.1416 21.9982 44.0292 21.9168C43.9168 21.8353 43.7768 21.8015 43.6397 21.8227C43.5025 21.844 43.3792 21.9185 43.2967 22.0301C43.2142 22.1416 43.179 22.2813 43.1989 22.4187L43.4378 23.9635H40.6364L39.9097 19.266H42.7112L42.8517 20.1744C42.8731 20.3124 42.9484 20.4362 43.0611 20.5187C43.1738 20.6012 43.3146 20.6356 43.4527 20.6143C43.521 20.6037 43.5866 20.5798 43.6457 20.5439C43.7048 20.508 43.7563 20.4607 43.7971 20.4049C43.838 20.3491 43.8674 20.2858 43.8838 20.2187C43.9002 20.1515 43.9032 20.0817 43.8926 20.0134L43.2313 15.7378C43.1495 15.209 42.7019 14.8253 42.1669 14.8253H39.2229L39.0462 13.683C38.9645 13.1542 38.5168 12.7705 37.9818 12.7705H34.0179C33.4829 12.7705 33.0352 13.1542 32.9535 13.683L32.7768 14.8253H29.8328C29.2978 14.8253 28.8501 15.209 28.7684 15.7378L27.496 23.9636H27.0639C26.8658 23.9638 26.6739 24.033 26.5212 24.1592C26.3684 24.2853 26.2643 24.4607 26.2267 24.6553L25.3511 29.2088H25.2637C25.0466 29.2086 24.8371 29.2886 24.6753 29.4335C24.5136 29.5784 24.411 29.7779 24.3874 29.9937L24.0023 33.4834C23.7889 33.6971 23.579 33.9142 23.3726 34.1348C23.2805 34.2335 23.2129 34.3526 23.1752 34.4822C23.1374 34.6119 23.1307 34.7486 23.1554 34.8814C23.3889 36.1209 23.7658 37.3957 24.2756 38.6702C24.3287 38.7982 24.43 38.9001 24.5577 38.9539C24.6854 39.0077 24.8292 39.009 24.9578 38.9576C25.0865 38.9061 25.1896 38.806 25.245 38.679C25.3004 38.552 25.3035 38.4083 25.2536 38.279C25.1223 37.95 24.9991 37.6177 24.8844 37.2825C27.6756 34.5282 31.1488 32.3087 35.4732 30.517V41.8822C34.8796 41.8201 34.2952 41.6532 33.7516 41.3805L33.672 41.3405C32.8998 40.9532 32.0538 40.7352 31.1905 40.7011C30.3273 40.6671 29.4667 40.8178 28.6664 41.1431L27.0134 41.8152C26.7117 41.3064 26.4289 40.7966 26.1719 40.2946C26.1407 40.2327 26.0974 40.1775 26.0448 40.1323C25.9921 40.0871 25.931 40.0528 25.865 40.0313C25.799 40.0098 25.7294 40.0015 25.6602 40.007C25.5911 40.0125 25.5236 40.0316 25.4619 40.0632C25.4001 40.0949 25.3452 40.1384 25.3003 40.1913C25.2554 40.2442 25.2214 40.3055 25.2002 40.3716C25.1791 40.4377 25.1712 40.5073 25.1771 40.5765C25.1829 40.6457 25.2024 40.713 25.2344 40.7746C25.4848 41.2626 25.749 41.7434 26.0267 42.2164L25.7988 42.309C24.2313 42.9463 22.4627 42.7543 21.0684 41.7949L18.825 40.2514C18.768 40.2116 18.7037 40.1834 18.6358 40.1686C18.568 40.1537 18.4978 40.1524 18.4294 40.1648C18.361 40.1772 18.2958 40.203 18.2374 40.2407C18.179 40.2784 18.1287 40.3273 18.0893 40.3845C18.0499 40.4418 18.0223 40.5063 18.0079 40.5743C17.9936 40.6423 17.9928 40.7124 18.0057 40.7807C18.0186 40.849 18.0449 40.9141 18.0831 40.9721C18.1212 41.0302 18.1705 41.0802 18.228 41.1191ZM43.3333 41.1432C42.533 40.8178 41.6724 40.6671 40.8091 40.7012C39.9459 40.7352 39.0999 40.9532 38.3277 41.3406L38.248 41.3806C37.7044 41.6533 37.12 41.8202 36.5264 41.8823V30.5173C37.1435 30.7727 37.7545 31.0424 38.359 31.3262C38.4851 31.3842 38.629 31.3899 38.7594 31.3423C38.8898 31.2947 38.9961 31.1975 39.0552 31.0719C39.1143 30.9463 39.1214 30.8024 39.075 30.6716C39.0286 30.5407 38.9324 30.4335 38.8074 30.3732C38.0777 30.0298 37.3109 29.6967 36.5264 29.3799V27.3267C41.2047 29.2653 44.8954 31.7088 47.7907 34.783C47.7004 35.2458 47.5917 35.7048 47.4651 36.1589C45.5717 34.3647 43.3473 32.7657 40.8374 31.4007C40.7147 31.334 40.5705 31.3188 40.4365 31.3584C40.3026 31.3979 40.1899 31.4891 40.1231 31.6118C40.0564 31.7345 40.0412 31.8787 40.0807 32.0127C40.1203 32.1466 40.2115 32.2594 40.3342 32.3261C42.9309 33.7382 45.2096 35.4054 47.1143 37.2831C46.6031 38.7715 45.8921 40.2872 44.9863 41.8153L43.3333 41.1432ZM47.0107 32.5429C46.123 31.7365 45.1731 30.9773 44.1574 30.2622H46.7589L47.0107 32.5429ZM33.4355 17.4571H38.5641L39.5706 23.9637H32.429L33.4355 17.4571ZM42.167 15.8787C42.1788 15.8787 42.1887 15.8872 42.1904 15.8989L42.5484 18.213H39.7469L39.3858 15.8788L42.167 15.8787ZM34.0179 13.824H37.9818C37.9934 13.824 38.0035 13.8327 38.0053 13.8442L38.4012 16.4039H33.5984L33.9944 13.8441C33.9952 13.8385 33.998 13.8334 34.0024 13.8297C34.0067 13.826 34.0122 13.8239 34.0179 13.824ZM29.8327 15.8787H32.6138L32.2527 18.2129H29.4513L29.8093 15.8989C29.8101 15.8932 29.8129 15.8881 29.8172 15.8844C29.8215 15.8807 29.827 15.8787 29.8327 15.8787ZM29.2884 19.2662H32.0898L31.3632 23.9637H28.5617L29.2884 19.2662ZM27.2297 25.017H44.7699L45.576 29.2089H42.5621C40.6951 28.0533 38.6266 27.025 36.3351 26.1116C36.1196 26.0256 35.8792 26.0258 35.6637 26.112C33.3726 27.0253 31.3044 28.0535 29.4376 29.2089H26.4237L27.2297 25.017ZM25.4174 30.2622H27.8421C26.901 30.9247 26.0162 31.625 25.1853 32.3658L25.4174 30.2622ZM24.5342 36.1557C24.4078 35.7026 24.2992 35.2446 24.2088 34.7829C27.1042 31.7088 30.7951 29.2652 35.4732 27.3266V29.3792C31.0337 31.1709 27.4432 33.3943 24.5342 36.1557Z" fill="white"/>
<path d="M53.1747 43.7473L50.9313 45.2909C49.5371 46.2502 47.7688 46.4423 46.2008 45.805L43.3334 44.6391C42.5331 44.3138 41.6725 44.1631 40.8093 44.1971C39.946 44.2311 39.1 44.4491 38.3278 44.8365L38.2481 44.8765C36.8403 45.5826 35.1594 45.5826 33.7517 44.8765L33.6721 44.8365C32.8999 44.4491 32.0539 44.2311 31.1906 44.1971C30.3274 44.163 29.4668 44.3137 28.6665 44.6391L25.799 45.805C24.2314 46.4423 22.4629 46.2502 21.0686 45.2909L18.8251 43.7473C18.7682 43.7081 18.704 43.6805 18.6364 43.6661C18.5687 43.6517 18.4989 43.6507 18.4309 43.6633C18.3629 43.6759 18.298 43.7017 18.24 43.7393C18.182 43.777 18.132 43.8257 18.0928 43.8827C18.0536 43.9396 18.026 44.0038 18.0116 44.0714C17.9971 44.1391 17.9962 44.2089 18.0088 44.2769C18.0213 44.3449 18.0472 44.4098 18.0848 44.4678C18.1225 44.5258 18.1712 44.5758 18.2281 44.615L20.4716 46.1586C21.5009 46.8669 22.6988 47.2295 23.9072 47.2295C24.6919 47.2292 25.4691 47.0768 26.1957 46.7806L29.0633 45.6148C29.7246 45.3459 30.4358 45.2214 31.1492 45.2495C31.8625 45.2776 32.5617 45.4578 33.1998 45.7779L33.2794 45.8179C34.9831 46.6724 37.0171 46.6724 38.7205 45.8179L38.8001 45.7779C39.4383 45.4578 40.1374 45.2776 40.8508 45.2495C41.5642 45.2214 42.2754 45.3459 42.9367 45.6148L45.8042 46.7806C47.7015 47.5519 49.8412 47.3193 51.5283 46.1586L53.7718 44.615C53.8291 44.5759 53.8781 44.5259 53.916 44.4678C53.9539 44.4098 53.9799 44.3448 53.9927 44.2766C54.0054 44.2085 54.0045 44.1385 53.9902 44.0707C53.9758 44.0028 53.9481 43.9385 53.9088 43.8814C53.8695 43.8243 53.8193 43.7755 53.7611 43.7378C53.7029 43.7001 53.6378 43.6743 53.5696 43.6619C53.5014 43.6494 53.4314 43.6506 53.3637 43.6652C53.2959 43.6799 53.2317 43.7078 53.1747 43.7473ZM42.4075 27.4124H42.8484C43.1393 27.4124 43.375 27.1766 43.375 26.8858C43.375 26.5949 43.1393 26.3591 42.8484 26.3591H42.4075C42.2678 26.3591 42.1339 26.4146 42.0351 26.5134C41.9363 26.6121 41.8809 26.7461 41.8809 26.8858C41.8809 27.0254 41.9363 27.1594 42.0351 27.2582C42.1339 27.3569 42.2678 27.4124 42.4075 27.4124ZM29.5923 27.4124C29.8832 27.4124 30.1189 27.1766 30.1189 26.8858C30.1189 26.5949 29.8832 26.3591 29.5923 26.3591H29.1514C28.8605 26.3591 28.6248 26.5949 28.6248 26.8858C28.6248 27.1766 28.8605 27.4124 29.1514 27.4124H29.5923Z" fill="white"/>
</g>
<defs>
<clipPath id="clip0_173_10">
<rect width="36" height="36" fill="white" transform="translate(18 12)"/>
</clipPath>
</defs>
</svg>
