<svg width="19" height="11" viewBox="0 0 19 11" fill="none" xmlns="http://www.w3.org/2000/svg">
<path d="M5.14616 9.42885H3.56283C3.45784 9.42885 3.35716 9.38746 3.28293 9.31379C3.2087 9.24011 3.16699 9.14019 3.16699 9.03599C3.16699 8.9318 3.2087 8.83188 3.28293 8.7582C3.35716 8.68453 3.45784 8.64314 3.56283 8.64314H5.14616C5.25114 8.64314 5.35182 8.68453 5.42606 8.7582C5.50029 8.83188 5.54199 8.9318 5.54199 9.03599C5.54199 9.14019 5.50029 9.24011 5.42606 9.31379C5.35182 9.38746 5.25114 9.42885 5.14616 9.42885ZM18.0107 9.42885H17.0212C16.9162 9.42885 16.8155 9.38746 16.7413 9.31379C16.667 9.24011 16.6253 9.14019 16.6253 9.03599C16.6253 8.9318 16.667 8.83188 16.7413 8.7582C16.8155 8.68453 16.9162 8.64314 17.0212 8.64314H17.6822L18.2158 5.82085C18.2087 4.37671 16.9657 3.14314 15.4378 3.14314H12.8388L11.5792 8.64314H13.8545C13.9595 8.64314 14.0602 8.68453 14.1344 8.7582C14.2086 8.83188 14.2503 8.9318 14.2503 9.03599C14.2503 9.14019 14.2086 9.24011 14.1344 9.31379C14.0602 9.38746 13.9595 9.42885 13.8545 9.42885H11.0837C11.0243 9.42888 10.9656 9.41564 10.9121 9.39012C10.8585 9.3646 10.8115 9.32744 10.7744 9.28141C10.7373 9.23538 10.7111 9.18165 10.6977 9.1242C10.6844 9.06676 10.6843 9.00707 10.6973 8.94956L12.1366 2.66385C12.1564 2.57683 12.2054 2.49908 12.2756 2.44339C12.3458 2.38769 12.433 2.35738 12.5229 2.35742H15.4378C17.402 2.35742 19.0003 3.94378 19.0003 5.89314L18.3995 9.10828C18.3826 9.19837 18.3345 9.27977 18.2635 9.33833C18.1925 9.39689 18.1031 9.42892 18.0107 9.42885Z" fill="white"/>
<path d="M15.4375 10.9999C14.3466 10.9999 13.4583 10.1191 13.4583 9.03557C13.4583 7.95207 14.3466 7.07129 15.4375 7.07129C16.5284 7.07129 17.4167 7.95207 17.4167 9.03557C17.4167 10.1191 16.5284 10.9999 15.4375 10.9999ZM15.4375 7.857C14.7828 7.857 14.25 8.38579 14.25 9.03557C14.25 9.68536 14.7828 10.2141 15.4375 10.2141C16.0922 10.2141 16.625 9.68536 16.625 9.03557C16.625 8.38579 16.0922 7.857 15.4375 7.857ZM6.72917 10.9999C5.63825 10.9999 4.75 10.1191 4.75 9.03557C4.75 7.95207 5.63825 7.07129 6.72917 7.07129C7.82008 7.07129 8.70833 7.95207 8.70833 9.03557C8.70833 10.1191 7.82008 10.9999 6.72917 10.9999ZM6.72917 7.857C6.07446 7.857 5.54167 8.38579 5.54167 9.03557C5.54167 9.68536 6.07446 10.2141 6.72917 10.2141C7.38387 10.2141 7.91667 9.68536 7.91667 9.03557C7.91667 8.38579 7.38387 7.857 6.72917 7.857ZM5.14583 2.357H1.97917C1.87418 2.357 1.7735 2.31561 1.69927 2.24194C1.62504 2.16826 1.58333 2.06834 1.58333 1.96415C1.58333 1.85995 1.62504 1.76003 1.69927 1.68635C1.7735 1.61268 1.87418 1.57129 1.97917 1.57129H5.14583C5.25081 1.57129 5.3515 1.61268 5.42573 1.68635C5.49996 1.76003 5.54167 1.85995 5.54167 1.96415C5.54167 2.06834 5.49996 2.16826 5.42573 2.24194C5.3515 2.31561 5.25081 2.357 5.14583 2.357ZM5.14583 4.71415H1.1875C1.08252 4.71415 0.981837 4.67276 0.907603 4.59908C0.83337 4.52541 0.791667 4.42548 0.791667 4.32129C0.791667 4.2171 0.83337 4.11717 0.907603 4.0435C0.981837 3.96982 1.08252 3.92843 1.1875 3.92843H5.14583C5.25081 3.92843 5.3515 3.96982 5.42573 4.0435C5.49996 4.11717 5.54167 4.2171 5.54167 4.32129C5.54167 4.42548 5.49996 4.52541 5.42573 4.59908C5.3515 4.67276 5.25081 4.71415 5.14583 4.71415ZM5.14583 7.07129H0.395833C0.290852 7.07129 0.19017 7.0299 0.115937 6.95622C0.0417038 6.88255 0 6.78262 0 6.67843C0 6.57424 0.0417038 6.47431 0.115937 6.40064C0.19017 6.32696 0.290852 6.28557 0.395833 6.28557H5.14583C5.25081 6.28557 5.3515 6.32696 5.42573 6.40064C5.49996 6.47431 5.54167 6.57424 5.54167 6.67843C5.54167 6.78262 5.49996 6.88255 5.42573 6.95622C5.3515 7.0299 5.25081 7.07129 5.14583 7.07129Z" fill="white"/>
<path d="M11.0837 9.42857H8.31283C8.20784 9.42857 8.10716 9.38718 8.03293 9.31351C7.9587 9.23983 7.91699 9.13991 7.91699 9.03571C7.91699 8.93152 7.9587 8.8316 8.03293 8.75792C8.10716 8.68425 8.20784 8.64286 8.31283 8.64286H10.7678L12.5665 0.785714H3.56283C3.45784 0.785714 3.35716 0.744324 3.28293 0.670649C3.2087 0.596974 3.16699 0.497049 3.16699 0.392857C3.16699 0.288665 3.2087 0.18874 3.28293 0.115065C3.35716 0.0413903 3.45784 4.9146e-08 3.56283 4.9146e-08H13.0628C13.1222 -2.94351e-05 13.1809 0.0132078 13.2344 0.038731C13.2879 0.0642542 13.335 0.101409 13.3721 0.147441C13.4092 0.193474 13.4354 0.247203 13.4488 0.304648C13.4621 0.362093 13.4622 0.42178 13.4492 0.479286L11.47 9.12214C11.4502 9.20916 11.4012 9.28691 11.331 9.34261C11.2608 9.3983 11.1735 9.42862 11.0837 9.42857Z" fill="white"/>
</svg>
