<svg width="32" height="42" viewBox="0 0 32 42" fill="none" xmlns="http://www.w3.org/2000/svg">
<path d="M12.3736 4.30308C12.8557 4.30308 13.2941 3.90872 13.2941 3.38259V1.01619C13.2941 0.534096 12.8997 0.0957031 12.3736 0.0957031C11.8478 0.0957031 11.4531 0.490059 11.4531 1.01619L11.4534 3.38259C11.4971 3.9084 11.8915 4.30308 12.3736 4.30308Z" fill="#EC7216"/>
<path d="M8.12101 5.53024C8.29618 5.70541 8.51537 5.79315 8.77826 5.79315C8.99745 5.79315 9.26036 5.70541 9.43552 5.53024C9.78616 5.1796 9.78616 4.60976 9.43552 4.25947L7.77008 2.59404C7.41944 2.24339 6.8496 2.24339 6.49931 2.59404C6.14867 2.94468 6.14867 3.51452 6.49931 3.86481L8.12101 5.53024Z" fill="#EC7216"/>
<path d="M16.0093 5.79315C16.2285 5.79315 16.4914 5.70541 16.6666 5.53024L18.332 3.86481C18.6826 3.51417 18.6826 2.94432 18.332 2.59404C17.9814 2.24339 17.4115 2.24339 17.0612 2.59404L15.3958 4.25916C15.0452 4.6098 15.0452 5.17964 15.3958 5.52993C15.571 5.7054 15.7901 5.79315 16.0093 5.79315Z" fill="#EC7216"/>
<path d="M31.5684 30.5542C31.5684 28.6258 29.9907 27.0481 28.0186 27.0481C27.3173 27.0481 26.616 27.2673 26.0465 27.618C25.5207 26.3472 24.2496 25.4704 22.8034 25.4704C22.1021 25.4704 21.4008 25.6896 20.8313 26.0403C20.3055 24.7695 19.0344 23.8928 17.5882 23.8928C16.9747 23.8928 16.4048 24.0242 15.9228 24.3311V20.2992H19.8669C20.3927 20.2992 20.7874 19.9049 20.7874 19.3787V8.42244C20.7874 7.89663 20.393 7.50195 19.8669 7.50195L4.87866 7.50226C4.35285 7.50226 3.95818 7.89662 3.95818 8.42274V19.379C3.95818 19.9048 4.35253 20.2995 4.87866 20.2995H8.86683V34.1921L6.54379 31.8691C5.31668 30.6857 3.43204 30.4665 2.02979 31.4307C1.19703 32.0005 0.627229 32.8769 0.495754 33.8848C0.364302 34.8927 0.627205 35.9009 1.28445 36.6896L5.27262 41.4227C5.44779 41.6419 5.711 41.7734 5.97389 41.7734C6.19308 41.7734 6.41227 41.6856 6.58743 41.5542C6.98179 41.2035 7.02581 40.6337 6.71888 40.2394L2.73071 35.5499C2.42379 35.1556 2.29233 34.7172 2.33636 34.2351C2.42409 33.753 2.687 33.3146 3.08134 33.0517C3.7386 32.6133 4.65905 32.7011 5.22886 33.2709L8.07734 36.1194C8.51571 36.5578 9.17297 36.6892 9.74277 36.47C10.3126 36.2508 10.7069 35.6813 10.7069 35.0675V16.4864C10.7069 15.5659 11.4519 14.8209 12.3724 14.8209C12.8107 14.7772 13.2488 14.9961 13.5557 15.303C13.8626 15.61 14.0378 16.048 14.0378 16.4864V29.1519C14.0378 29.6777 14.4762 30.0723 14.9583 30.0723C15.4841 30.0723 15.8788 29.634 15.8788 29.1519V27.4427C15.8788 26.5222 16.6238 25.7772 17.5442 25.7772C18.4647 25.7772 19.2097 26.5222 19.2097 27.4427V30.7296C19.2097 31.2554 19.648 31.6501 20.1301 31.6501C20.6559 31.6501 21.0506 31.2117 21.0506 30.7296V29.0204C21.0506 28.0999 21.7956 27.355 22.7161 27.355C23.6365 27.355 24.3815 28.0999 24.3815 29.0204L24.3806 32.3073C24.3806 32.8331 24.819 33.2278 25.3011 33.2278C25.8269 33.2278 26.2215 32.7894 26.2215 32.3073V30.6858V30.5544C26.2215 29.6339 26.9665 28.8889 27.887 28.8889C28.8074 28.8889 29.5524 29.6339 29.5524 30.5544V40.7656C29.5524 41.2914 29.9908 41.6861 30.4729 41.6861C30.9987 41.6861 31.3934 41.2477 31.3934 40.7656L31.5684 30.5542ZM12.3729 12.9365C10.4445 12.9365 8.86683 14.5142 8.86683 16.4863V18.4147H5.84282V9.34285H18.9904V18.4147H15.9664V16.4863C15.9664 15.5221 15.6157 14.6456 14.9145 13.9881C14.2135 13.3308 13.4248 12.9802 12.3728 12.9362L12.3729 12.9365Z" fill="#EC7216"/>
</svg>
