<svg width="28" height="28" viewBox="0 0 28 28" fill="none" xmlns="http://www.w3.org/2000/svg">
<path d="M21.2866 18.5228C20.3718 17.6197 19.2298 17.6197 18.3209 18.5228C17.6276 19.2103 16.9343 19.8978 16.2526 20.597C16.0661 20.7893 15.9088 20.83 15.6816 20.7019C15.233 20.4572 14.7552 20.2591 14.324 19.9911C12.3139 18.7267 10.6301 17.1012 9.13857 15.2717C8.39862 14.3628 7.74024 13.3898 7.27995 12.2944C7.18673 12.073 7.20421 11.9274 7.38483 11.7467C8.07817 11.0767 8.75403 10.3892 9.43571 9.70168C10.3854 8.74615 10.3854 7.62749 9.42988 6.66613C8.88803 6.11846 8.34618 5.58243 7.80433 5.03475C7.24499 4.47542 6.69149 3.91026 6.12633 3.35675C5.21159 2.46532 4.06962 2.46532 3.16071 3.36258C2.46154 4.05009 1.79151 4.75508 1.08069 5.43094C0.422311 6.05436 0.0902076 6.81762 0.0202911 7.70906C-0.09041 9.15982 0.264999 10.529 0.766067 11.8633C1.79151 14.625 3.35298 17.0779 5.24655 19.3268C7.80433 22.3682 10.8573 24.7745 14.4289 26.5108C16.037 27.2915 17.7033 27.8916 19.5153 27.9907C20.7622 28.0606 21.8459 27.746 22.714 26.773C23.3083 26.1087 23.9783 25.5028 24.6076 24.8677C25.5398 23.9239 25.5456 22.7819 24.6192 21.8497C23.5122 20.7368 22.3994 19.6298 21.2866 18.5228Z" fill="#EC7216"/>
<path d="M20.1713 13.8741L22.3212 13.507C21.9833 11.5319 21.051 9.74319 19.6352 8.32156C18.1379 6.82418 16.2443 5.88031 14.1584 5.58899L13.8555 7.75057C15.4694 7.9778 16.9376 8.7061 18.0971 9.86555C19.1924 10.9609 19.9091 12.3476 20.1713 13.8741Z" fill="#EC7216"/>
<path d="M23.5288 4.53292C21.0468 2.05088 17.9064 0.483589 14.4397 0L14.1367 2.16158C17.1315 2.58108 19.8466 3.93863 21.9907 6.07691C24.0241 8.11031 25.3583 10.6797 25.8419 13.5055L27.9918 13.1385C27.4267 9.86405 25.8827 6.8926 23.5288 4.53292Z" fill="#EC7216"/>
</svg>
