<svg width="16" height="16" viewBox="0 0 16 16" fill="none" xmlns="http://www.w3.org/2000/svg">
<g clip-path="url(#clip0_311_363)">
<path d="M12.1641 10.5834C11.6414 10.0673 10.9888 10.0673 10.4694 10.5834C10.0732 10.9762 9.67699 11.3691 9.28744 11.7686C9.1809 11.8785 9.091 11.9018 8.96115 11.8286C8.70479 11.6887 8.43177 11.5755 8.18539 11.4224C7.03673 10.6999 6.07452 9.77097 5.22218 8.72552C4.79934 8.20613 4.42312 7.65011 4.16009 7.02417C4.10682 6.89765 4.11681 6.81442 4.22002 6.7112C4.61622 6.32832 5.00244 5.93544 5.39198 5.54257C5.93469 4.99654 5.93469 4.35728 5.38866 3.80792C5.07902 3.49495 4.76938 3.18865 4.45974 2.87568C4.14011 2.55605 3.82381 2.23309 3.50086 1.9168C2.97813 1.40739 2.32556 1.40739 1.80617 1.92012C1.40663 2.313 1.02375 2.71586 0.617555 3.10208C0.241327 3.45833 0.0515486 3.89449 0.0115952 4.40389C-0.0516643 5.23293 0.151432 6.01535 0.437765 6.77779C1.02375 8.35595 1.91604 9.75765 2.99811 11.0428C4.45974 12.7808 6.20437 14.1559 8.24532 15.148C9.16425 15.5942 10.1165 15.9371 11.1519 15.9937C11.8644 16.0337 12.4837 15.8539 12.9798 15.2979C13.3194 14.9183 13.7023 14.572 14.0619 14.2091C14.5946 13.6698 14.5979 13.0172 14.0685 12.4845C13.4359 11.8485 12.8 11.2159 12.1641 10.5834Z" fill="#EC7216"/>
<path d="M11.5281 7.92979L12.7566 7.72003C12.5635 6.59135 12.0308 5.56921 11.2218 4.75682C10.3661 3.90116 9.28402 3.36178 8.09208 3.19531L7.91895 4.43054C8.8412 4.56039 9.68022 4.97657 10.3428 5.63913C10.9687 6.26506 11.3782 7.05747 11.5281 7.92979Z" fill="#EC7216"/>
<path d="M13.4491 2.59031C12.0308 1.17197 10.2362 0.276344 8.25516 0L8.08203 1.23523C9.79337 1.47495 11.3449 2.25071 12.5701 3.47262C13.7321 4.63459 14.4946 6.10288 14.7709 7.71766L15.9995 7.50791C15.6765 5.63676 14.7942 3.93874 13.4491 2.59031Z" fill="#EC7216"/>
</g>
<defs>
<clipPath id="clip0_311_363">
<rect width="16" height="16" fill="white"/>
</clipPath>
</defs>
</svg>
