<svg width="40" height="33" viewBox="0 0 40 33" fill="none" xmlns="http://www.w3.org/2000/svg">
<path opacity="0.936" fill-rule="evenodd" clip-rule="evenodd" d="M15.8983 0.695312C22.5601 0.892008 27.3908 3.93888 30.3905 9.83594C30.8122 10.8273 31.1637 11.843 31.4452 12.8828C34.0929 14.3726 36.7101 15.909 39.2968 17.4922C39.3489 20.7734 39.3489 24.0547 39.2968 27.3359C36.5899 28.9998 33.8425 30.6014 31.0546 32.1406C30.7458 32.2119 30.4594 32.1598 30.1952 31.9844C28.5609 31.0013 26.9073 30.0509 25.2343 29.1328C20.1745 32.4043 14.8751 32.834 9.33584 30.4219C4.50861 27.9105 1.63101 23.9652 0.703026 18.5859C0.0402805 11.9051 2.47517 6.70977 8.00771 3C10.4497 1.55632 13.0799 0.788094 15.8983 0.695312ZM15.664 2.02344C19.0427 1.9692 22.0635 2.95878 24.7265 4.99219C23.9415 5.26741 23.2124 5.64502 22.539 6.125C22.0499 6.69359 21.8155 7.35766 21.8358 8.11719C21.8426 8.67836 21.9337 9.22523 22.1093 9.75781C22.279 10.0846 22.5525 10.2538 22.9296 10.2656C24.0797 10.2904 25.2255 10.2252 26.3671 10.0703C26.9729 10.1632 27.0771 10.4497 26.6796 10.9297C25.3665 11.0667 24.0644 11.0016 22.7733 10.7344C21.8472 10.6315 21.1831 11.0091 20.7812 11.8672C20.7133 12.0298 20.6742 12.199 20.664 12.375C20.7103 12.571 20.7233 12.7663 20.703 12.9609C20.2386 13.6089 19.874 14.312 19.6093 15.0703C19.4124 16.0945 19.7119 16.9408 20.5077 17.6094C20.9694 18.0485 21.5162 18.322 22.1483 18.4297C22.2134 21.346 22.2525 24.2627 22.2655 27.1797C22.3532 27.3456 22.4704 27.4888 22.6171 27.6094C23.0466 27.8371 23.4633 28.0845 23.8671 28.3516C20.1908 30.6569 16.2584 31.2167 12.0702 30.0312C6.22271 28.0112 2.85032 23.9357 1.95303 17.8047C1.75682 15.8069 1.96514 13.8538 2.57803 11.9453C3.66293 13.9937 5.23845 15.5432 7.30459 16.5938C7.72682 16.911 8.02631 17.3147 8.20303 17.8047C8.28256 18.4534 8.33467 19.1044 8.35928 19.7578C8.40975 21.0303 8.99568 21.9548 10.1171 22.5312C10.6828 23.0241 11.0604 23.636 11.2499 24.3672C11.476 25.3852 11.7104 26.4008 11.953 27.4141C12.1465 28.2314 12.5502 28.9215 13.164 29.4844C13.9776 29.8882 14.6677 29.719 15.2343 28.9766C15.8076 27.9593 16.1462 26.8655 16.2499 25.6953C16.3587 25.3995 16.4889 25.1131 16.6405 24.8359C17.1578 24.1362 17.7047 23.4591 18.2812 22.8047C19.1078 21.6796 19.4203 20.4296 19.2187 19.0547C18.9266 18.5021 18.523 18.0464 18.0077 17.6875C16.5333 16.7813 14.9447 16.1563 13.2421 15.8125C12.4597 15.8213 11.6785 15.8474 10.8983 15.8906C10.4032 15.2913 9.98654 14.6402 9.64834 13.9375C9.65967 13.8772 9.68568 13.8251 9.72646 13.7812C10.6537 13.6949 11.5391 13.4605 12.3827 13.0781C12.5259 12.9349 12.6692 12.7916 12.8124 12.6484C12.9448 12.2229 13.1011 11.8062 13.2812 11.3984C14.4531 10.3768 15.8203 9.79086 17.3827 9.64062C18.0959 9.42188 18.4996 8.94016 18.5937 8.19531C18.753 7.46672 18.7791 6.73758 18.6718 6.00781C18.5663 5.6418 18.345 5.36837 18.0077 5.1875C17.4176 5.00171 16.8187 4.84546 16.2108 4.71875C15.7033 4.32148 15.1564 3.98294 14.5702 3.70312C14.106 3.59329 13.6372 3.56725 13.164 3.625C12.3192 3.77833 11.4729 3.92155 10.6249 4.05469C10.2343 4.01889 9.8567 3.92774 9.49209 3.78125C10.7558 3.056 12.11 2.56121 13.5546 2.29688C14.2669 2.18511 14.97 2.09396 15.664 2.02344ZM7.85146 4.67969C8.48217 4.85082 9.10717 5.04613 9.72646 5.26562C10.0217 5.33641 10.3212 5.37548 10.6249 5.38281C11.5034 5.28005 12.3758 5.13682 13.2421 4.95312C13.5025 4.90104 13.7629 4.90104 14.0233 4.95312C14.5374 5.23232 15.0322 5.54482 15.5077 5.89062C16.0949 6.08836 16.6939 6.24461 17.3046 6.35938C17.3535 6.41797 17.3926 6.48313 17.4218 6.55469C17.4202 7.13969 17.329 7.71258 17.1483 8.27344C16.3122 8.47977 15.4789 8.70117 14.6483 8.9375C13.9458 9.28867 13.2687 9.6793 12.6171 10.1094C12.0949 10.6328 11.7564 11.2578 11.6015 11.9844C10.8338 12.2166 10.0526 12.3989 9.25771 12.5312C8.45264 12.8523 8.1531 13.4383 8.35928 14.2891C8.68209 15.0289 9.07271 15.732 9.53115 16.3984C9.9017 17.0135 10.4486 17.2999 11.1718 17.2578C11.7065 17.2143 12.2403 17.1623 12.7733 17.1016C14.5427 17.4007 16.1573 18.0648 17.6171 19.0938C18.0637 19.5963 18.1288 20.1562 17.8124 20.7734C17.7036 21.0692 17.5734 21.3556 17.4218 21.6328C16.8865 22.3903 16.3137 23.1195 15.703 23.8203C15.5208 24.1328 15.3384 24.4453 15.1562 24.7578C14.9051 25.6911 14.6708 26.6286 14.453 27.5703C14.341 27.8736 14.1718 28.134 13.9452 28.3516C13.7187 28.134 13.5494 27.8736 13.4374 27.5703C13.0816 26.4426 12.7951 25.2967 12.578 24.1328C12.3546 23.1776 11.8988 22.3573 11.2108 21.6719C10.6301 21.375 10.1744 20.9453 9.84365 20.3828C9.691 19.478 9.58685 18.5666 9.53115 17.6484C9.3031 16.7169 8.79529 15.9747 8.00771 15.4219C5.7031 14.3413 4.1406 12.5965 3.32021 10.1875C4.38799 7.98695 5.8984 6.15102 7.85146 4.67969ZM25.8983 6.00781C25.9561 5.99758 26.0082 6.01062 26.0546 6.04688C28.0337 7.97359 29.3487 10.2783 29.9999 12.9609C27.578 14.3672 25.1562 15.7734 22.7343 17.1797C21.7738 17.0654 21.1618 16.5445 20.8983 15.6172C20.9057 15.4279 20.9447 15.2456 21.0155 15.0703C21.3593 14.5435 21.6718 13.9966 21.953 13.4297C22.0437 13.0456 22.0958 12.655 22.1093 12.2578C22.1922 12.1485 22.2964 12.0704 22.4218 12.0234C23.9317 12.3137 25.4551 12.4048 26.9921 12.2969C27.5887 12.0646 27.9662 11.6349 28.1249 11.0078C28.4037 9.61375 27.8308 8.85859 26.4062 8.74219C25.354 8.8582 24.2993 8.93633 23.2421 8.97656C23.1002 8.38836 23.1393 7.81539 23.3593 7.25781C23.5983 7.01453 23.8718 6.81922 24.1796 6.67188C24.7572 6.4407 25.3301 6.2193 25.8983 6.00781ZM30.7421 14.0547C31.2441 14.308 31.739 14.5815 32.2265 14.875C30.0911 16.125 27.9556 17.375 25.8202 18.625C25.7421 18.6771 25.664 18.6771 25.5858 18.625C25.156 18.3449 24.7133 18.0845 24.2577 17.8438C26.4241 16.5787 28.5855 15.3156 30.7421 14.0547ZM33.5546 15.6953C33.8369 15.8365 34.1233 15.9797 34.414 16.125C34.5086 16.1948 34.5086 16.2598 34.414 16.3203C32.2786 17.5443 30.1431 18.7682 28.0077 19.9922C27.6827 19.8428 27.3702 19.6735 27.0702 19.4844C29.2366 18.2193 31.398 16.9562 33.5546 15.6953ZM35.8202 17.0234C36.3492 17.275 36.87 17.5484 37.3827 17.8438C35.1825 19.087 32.995 20.3501 30.8202 21.6328C30.3581 21.3823 29.9024 21.1219 29.453 20.8516C29.3993 20.7866 29.4123 20.7345 29.4921 20.6953C31.6192 19.489 33.7286 18.265 35.8202 17.0234ZM38.0077 18.9766C38.0987 21.4894 38.1117 24.0154 38.0468 26.5547C35.8721 27.8505 33.6846 29.1265 31.4843 30.3828C31.4322 27.8568 31.4322 25.3307 31.4843 22.8047C33.6829 21.5561 35.8574 20.2801 38.0077 18.9766ZM23.5546 19.0547C24.0508 19.2834 24.5326 19.5438 24.9999 19.8359C25.0023 21.0411 25.0544 22.239 25.1562 23.4297C26.0419 24.0875 26.9925 24.6344 28.0077 25.0703C28.2664 25.0263 28.4617 24.896 28.5937 24.6797C28.6197 23.7682 28.6458 22.8568 28.6718 21.9453C29.1536 22.2122 29.6223 22.4986 30.078 22.8047C30.1431 25.3051 30.1301 27.8051 30.039 30.3047C27.9036 29.0807 25.7681 27.8568 23.6327 26.6328C23.5546 24.1073 23.5286 21.5812 23.5546 19.0547ZM26.3671 20.6172C26.6709 20.7888 26.9704 20.9711 27.2655 21.1641C27.3176 21.8412 27.3176 22.5182 27.2655 23.1953C26.979 23.013 26.6926 22.8307 26.4062 22.6484C26.3671 21.9719 26.3541 21.2948 26.3671 20.6172Z" fill="#EC7216"/>
</svg>
