<svg width="40" height="40" viewBox="0 0 40 40" fill="none" xmlns="http://www.w3.org/2000/svg">
<path opacity="0.936" fill-rule="evenodd" clip-rule="evenodd" d="M15.8983 2.69531C22.5601 2.89201 27.3908 5.93888 30.3905 11.8359C30.8122 12.8273 31.1637 13.843 31.4452 14.8828C34.0929 16.3726 36.7101 17.909 39.2968 19.4922C39.3489 22.7734 39.3489 26.0547 39.2968 29.3359C36.5899 30.9998 33.8425 32.6014 31.0546 34.1406C30.7458 34.2119 30.4594 34.1598 30.1952 33.9844C28.5609 33.0013 26.9073 32.0509 25.2343 31.1328C20.1745 34.4043 14.8751 34.834 9.33584 32.4219C4.50861 29.9105 1.63101 25.9652 0.703026 20.5859C0.0402805 13.9051 2.47517 8.70977 8.00771 5C10.4497 3.55632 13.0799 2.78809 15.8983 2.69531ZM15.664 4.02344C19.0427 3.9692 22.0635 4.95878 24.7265 6.99219C23.9415 7.26741 23.2124 7.64502 22.539 8.125C22.0499 8.69359 21.8155 9.35766 21.8358 10.1172C21.8426 10.6784 21.9337 11.2252 22.1093 11.7578C22.279 12.0846 22.5525 12.2538 22.9296 12.2656C24.0797 12.2904 25.2255 12.2252 26.3671 12.0703C26.9729 12.1632 27.0771 12.4497 26.6796 12.9297C25.3665 13.0667 24.0644 13.0016 22.7733 12.7344C21.8472 12.6315 21.1831 13.0091 20.7812 13.8672C20.7133 14.0298 20.6742 14.199 20.664 14.375C20.7103 14.571 20.7233 14.7663 20.703 14.9609C20.2386 15.6089 19.874 16.312 19.6093 17.0703C19.4124 18.0945 19.7119 18.9408 20.5077 19.6094C20.9694 20.0485 21.5162 20.322 22.1483 20.4297C22.2134 23.346 22.2525 26.2627 22.2655 29.1797C22.3532 29.3456 22.4704 29.4888 22.6171 29.6094C23.0466 29.8371 23.4633 30.0845 23.8671 30.3516C20.1908 32.6569 16.2584 33.2167 12.0702 32.0312C6.22271 30.0112 2.85032 25.9357 1.95303 19.8047C1.75682 17.8069 1.96514 15.8538 2.57803 13.9453C3.66293 15.9937 5.23845 17.5432 7.30459 18.5938C7.72682 18.911 8.02631 19.3147 8.20303 19.8047C8.28256 20.4534 8.33467 21.1044 8.35928 21.7578C8.40975 23.0303 8.99568 23.9548 10.1171 24.5312C10.6828 25.0241 11.0604 25.636 11.2499 26.3672C11.476 27.3852 11.7104 28.4008 11.953 29.4141C12.1465 30.2314 12.5502 30.9215 13.164 31.4844C13.9776 31.8882 14.6677 31.719 15.2343 30.9766C15.8076 29.9593 16.1462 28.8655 16.2499 27.6953C16.3587 27.3995 16.4889 27.1131 16.6405 26.8359C17.1578 26.1362 17.7047 25.4591 18.2812 24.8047C19.1078 23.6796 19.4203 22.4296 19.2187 21.0547C18.9266 20.5021 18.523 20.0464 18.0077 19.6875C16.5333 18.7813 14.9447 18.1563 13.2421 17.8125C12.4597 17.8213 11.6785 17.8474 10.8983 17.8906C10.4032 17.2913 9.98654 16.6402 9.64834 15.9375C9.65967 15.8772 9.68568 15.8251 9.72646 15.7812C10.6537 15.6949 11.5391 15.4605 12.3827 15.0781C12.5259 14.9349 12.6692 14.7916 12.8124 14.6484C12.9448 14.2229 13.1011 13.8062 13.2812 13.3984C14.4531 12.3768 15.8203 11.7909 17.3827 11.6406C18.0959 11.4219 18.4996 10.9402 18.5937 10.1953C18.753 9.46672 18.7791 8.73758 18.6718 8.00781C18.5663 7.6418 18.345 7.36837 18.0077 7.1875C17.4176 7.00171 16.8187 6.84546 16.2108 6.71875C15.7033 6.32148 15.1564 5.98294 14.5702 5.70312C14.106 5.59329 13.6372 5.56725 13.164 5.625C12.3192 5.77833 11.4729 5.92155 10.6249 6.05469C10.2343 6.01889 9.8567 5.92774 9.49209 5.78125C10.7558 5.056 12.11 4.56121 13.5546 4.29688C14.2669 4.18511 14.97 4.09396 15.664 4.02344ZM7.85146 6.67969C8.48217 6.85082 9.10717 7.04613 9.72646 7.26562C10.0217 7.33641 10.3212 7.37548 10.6249 7.38281C11.5034 7.28005 12.3758 7.13682 13.2421 6.95312C13.5025 6.90104 13.7629 6.90104 14.0233 6.95312C14.5374 7.23232 15.0322 7.54482 15.5077 7.89062C16.0949 8.08836 16.6939 8.24461 17.3046 8.35938C17.3535 8.41797 17.3926 8.48313 17.4218 8.55469C17.4202 9.13969 17.329 9.71258 17.1483 10.2734C16.3122 10.4798 15.4789 10.7012 14.6483 10.9375C13.9458 11.2887 13.2687 11.6793 12.6171 12.1094C12.0949 12.6328 11.7564 13.2578 11.6015 13.9844C10.8338 14.2166 10.0526 14.3989 9.25771 14.5312C8.45264 14.8523 8.1531 15.4383 8.35928 16.2891C8.68209 17.0289 9.07271 17.732 9.53115 18.3984C9.9017 19.0135 10.4486 19.2999 11.1718 19.2578C11.7065 19.2143 12.2403 19.1623 12.7733 19.1016C14.5427 19.4007 16.1573 20.0648 17.6171 21.0938C18.0637 21.5963 18.1288 22.1562 17.8124 22.7734C17.7036 23.0692 17.5734 23.3556 17.4218 23.6328C16.8865 24.3903 16.3137 25.1195 15.703 25.8203C15.5208 26.1328 15.3384 26.4453 15.1562 26.7578C14.9051 27.6911 14.6708 28.6286 14.453 29.5703C14.341 29.8736 14.1718 30.134 13.9452 30.3516C13.7187 30.134 13.5494 29.8736 13.4374 29.5703C13.0816 28.4426 12.7951 27.2967 12.578 26.1328C12.3546 25.1776 11.8988 24.3573 11.2108 23.6719C10.6301 23.375 10.1744 22.9453 9.84365 22.3828C9.691 21.478 9.58685 20.5666 9.53115 19.6484C9.3031 18.7169 8.79529 17.9747 8.00771 17.4219C5.7031 16.3413 4.1406 14.5965 3.32021 12.1875C4.38799 9.98695 5.8984 8.15102 7.85146 6.67969ZM25.8983 8.00781C25.9561 7.99758 26.0082 8.01062 26.0546 8.04688C28.0337 9.97359 29.3487 12.2783 29.9999 14.9609C27.578 16.3672 25.1562 17.7734 22.7343 19.1797C21.7738 19.0654 21.1618 18.5445 20.8983 17.6172C20.9057 17.4279 20.9447 17.2456 21.0155 17.0703C21.3593 16.5435 21.6718 15.9966 21.953 15.4297C22.0437 15.0456 22.0958 14.655 22.1093 14.2578C22.1922 14.1485 22.2964 14.0704 22.4218 14.0234C23.9317 14.3137 25.4551 14.4048 26.9921 14.2969C27.5887 14.0646 27.9662 13.6349 28.1249 13.0078C28.4037 11.6138 27.8308 10.8586 26.4062 10.7422C25.354 10.8582 24.2993 10.9363 23.2421 10.9766C23.1002 10.3884 23.1393 9.81539 23.3593 9.25781C23.5983 9.01453 23.8718 8.81922 24.1796 8.67188C24.7572 8.4407 25.3301 8.2193 25.8983 8.00781ZM30.7421 16.0547C31.2441 16.308 31.739 16.5815 32.2265 16.875C30.0911 18.125 27.9556 19.375 25.8202 20.625C25.7421 20.6771 25.664 20.6771 25.5858 20.625C25.156 20.3449 24.7133 20.0845 24.2577 19.8438C26.4241 18.5787 28.5855 17.3156 30.7421 16.0547ZM33.5546 17.6953C33.8369 17.8365 34.1233 17.9797 34.414 18.125C34.5086 18.1948 34.5086 18.2598 34.414 18.3203C32.2786 19.5443 30.1431 20.7682 28.0077 21.9922C27.6827 21.8428 27.3702 21.6735 27.0702 21.4844C29.2366 20.2193 31.398 18.9562 33.5546 17.6953ZM35.8202 19.0234C36.3492 19.275 36.87 19.5484 37.3827 19.8438C35.1825 21.087 32.995 22.3501 30.8202 23.6328C30.3581 23.3823 29.9024 23.1219 29.453 22.8516C29.3993 22.7866 29.4123 22.7345 29.4921 22.6953C31.6192 21.489 33.7286 20.265 35.8202 19.0234ZM38.0077 20.9766C38.0987 23.4894 38.1117 26.0154 38.0468 28.5547C35.8721 29.8505 33.6846 31.1265 31.4843 32.3828C31.4322 29.8568 31.4322 27.3307 31.4843 24.8047C33.6829 23.5561 35.8574 22.2801 38.0077 20.9766ZM23.5546 21.0547C24.0508 21.2834 24.5326 21.5438 24.9999 21.8359C25.0023 23.0411 25.0544 24.239 25.1562 25.4297C26.0419 26.0875 26.9925 26.6344 28.0077 27.0703C28.2664 27.0263 28.4617 26.896 28.5937 26.6797C28.6197 25.7682 28.6458 24.8568 28.6718 23.9453C29.1536 24.2122 29.6223 24.4986 30.078 24.8047C30.1431 27.3051 30.1301 29.8051 30.039 32.3047C27.9036 31.0807 25.7681 29.8568 23.6327 28.6328C23.5546 26.1073 23.5286 23.5812 23.5546 21.0547ZM26.3671 22.6172C26.6709 22.7888 26.9704 22.9711 27.2655 23.1641C27.3176 23.8412 27.3176 24.5182 27.2655 25.1953C26.979 25.013 26.6926 24.8307 26.4062 24.6484C26.3671 23.9719 26.3541 23.2948 26.3671 22.6172Z" fill="#EC7216"/>
<path opacity="0.936" fill-rule="evenodd" clip-rule="evenodd" d="M36.9138 11.0548C37.1341 11.0351 37.3424 11.0741 37.5388 11.1719C38.1319 11.6444 38.7179 12.1262 39.2966 12.6173C39.3605 12.8879 39.3344 13.1483 39.2185 13.3985C38.6549 13.884 38.069 14.3398 37.4607 14.7657C36.9255 14.928 36.587 14.7458 36.4451 14.2188C36.4996 14.0271 36.5777 13.8448 36.6794 13.6719C35.143 13.6459 33.6066 13.6198 32.0701 13.5938C31.6563 13.473 31.4871 13.1995 31.5623 12.7735C31.6158 12.5737 31.733 12.4305 31.9138 12.3438C33.5284 12.3178 35.143 12.2917 36.7576 12.2657C36.3584 11.8147 36.4105 11.4111 36.9138 11.0548Z" fill="#EC7216"/>
<path opacity="0.936" fill-rule="evenodd" clip-rule="evenodd" d="M25.5078 33.3984C26.2772 33.5437 26.4595 33.9473 26.0547 34.6094C29.9609 34.6354 33.8672 34.6615 37.7734 34.6875C38.3984 35.1041 38.3984 35.5209 37.7734 35.9375C33.8672 35.9635 29.9609 35.9896 26.0547 36.0156C26.4558 36.6074 26.3125 37.011 25.625 37.2266C25.407 37.1802 25.2117 37.089 25.0391 36.9531C24.5703 36.5885 24.1016 36.224 23.6328 35.8594C23.3203 35.4948 23.3203 35.1302 23.6328 34.7656C24.2518 34.2881 24.8768 33.8324 25.5078 33.3984Z" fill="#EC7216"/>
</svg>
