<svg width="50" height="50" viewBox="0 0 50 50" fill="none" xmlns="http://www.w3.org/2000/svg">
<path opacity="0.936" fill-rule="evenodd" clip-rule="evenodd" d="M19.8732 3.36914C28.2003 3.61501 34.2388 7.4236 37.9884 14.7949C38.5155 16.0342 38.9549 17.3037 39.3068 18.6035C42.6163 20.4657 45.8878 22.3862 49.1212 24.3652C49.1864 28.4668 49.1864 32.5684 49.1212 36.6699C45.7376 38.7498 42.3033 40.7518 38.8185 42.6758C38.4325 42.7648 38.0744 42.6997 37.7443 42.4805C35.7014 41.2517 33.6344 40.0636 31.5431 38.916C25.2184 43.0054 18.5941 43.5425 11.67 40.5273C5.63601 37.3881 2.03901 32.4564 0.879027 25.7324C0.0505947 17.3813 3.09421 10.8872 10.0099 6.25C13.0624 4.4454 16.3501 3.48512 19.8732 3.36914ZM19.5802 5.0293C23.8036 4.96149 27.5796 6.19848 30.9083 8.74023C29.9272 9.08427 29.0157 9.55628 28.1739 10.1562C27.5626 10.867 27.2697 11.6971 27.295 12.6465C27.3034 13.3479 27.4174 14.0315 27.6368 14.6973C27.849 15.1058 28.1908 15.3173 28.6622 15.332C30.0998 15.363 31.5322 15.2815 32.9591 15.0879C33.7164 15.204 33.8466 15.5621 33.3497 16.1621C31.7084 16.3334 30.0808 16.252 28.4669 15.918C27.3092 15.7894 26.4791 16.2614 25.9767 17.334C25.8918 17.5372 25.843 17.7487 25.8302 17.9688C25.8881 18.2138 25.9043 18.4579 25.879 18.7012C25.2985 19.5111 24.8428 20.39 24.5118 21.3379C24.2657 22.6181 24.6402 23.676 25.6349 24.5117C26.2119 25.0606 26.8955 25.4024 27.6857 25.5371C27.767 29.1825 27.8158 32.8283 27.8322 36.4746C27.9417 36.682 28.0882 36.861 28.2716 37.0117C28.8085 37.2964 29.3294 37.6056 29.8341 37.9395C25.2387 40.8211 20.3233 41.5209 15.088 40.0391C7.77864 37.5141 3.56314 32.4196 2.44153 24.7559C2.19626 22.2586 2.45667 19.8172 3.22278 17.4316C4.57891 19.9922 6.5483 21.929 9.13098 23.2422C9.65876 23.6388 10.0331 24.1434 10.254 24.7559C10.3534 25.5667 10.4186 26.3805 10.4493 27.1973C10.5124 28.7879 11.2448 29.9435 12.6466 30.6641C13.3537 31.2801 13.8257 32.045 14.0626 32.959C14.3452 34.2314 14.6382 35.501 14.9415 36.7676C15.1834 37.7893 15.688 38.6519 16.4552 39.3555C17.4723 39.8603 18.3349 39.6487 19.0431 38.7207C19.7598 37.4491 20.183 36.0819 20.3126 34.6191C20.4487 34.2494 20.6114 33.8914 20.8009 33.5449C21.4475 32.6703 22.1311 31.8239 22.8517 31.0059C23.885 29.5995 24.2756 28.037 24.0236 26.3184C23.6585 25.6276 23.154 25.058 22.5099 24.6094C20.6669 23.4767 18.6812 22.6954 16.5529 22.2656C15.5749 22.2767 14.5984 22.3093 13.6232 22.3633C13.0042 21.6142 12.4834 20.8003 12.0607 19.9219C12.0748 19.8465 12.1073 19.7813 12.1583 19.7266C13.3174 19.6187 14.4241 19.3257 15.4786 18.8477C15.6576 18.6687 15.8367 18.4896 16.0157 18.3105C16.1813 17.7786 16.3766 17.2578 16.6017 16.748C18.0666 15.471 19.7756 14.7386 21.7286 14.5508C22.6201 14.2773 23.1247 13.6752 23.2423 12.7441C23.4415 11.8334 23.4741 10.922 23.34 10.0098C23.2081 9.55226 22.9315 9.21046 22.5099 8.98438C21.7723 8.75214 21.0237 8.55683 20.2638 8.39844C19.6293 7.90185 18.9457 7.47867 18.213 7.12891C17.6327 6.99161 17.0468 6.95906 16.4552 7.03125C15.3992 7.22291 14.3413 7.40194 13.2814 7.56836C12.7931 7.52361 12.3211 7.40968 11.8654 7.22656C13.445 6.32 15.1377 5.70151 16.9435 5.37109C17.8338 5.23139 18.7127 5.11745 19.5802 5.0293ZM9.81457 8.34961C10.603 8.56353 11.3842 8.80767 12.1583 9.08203C12.5274 9.17052 12.9017 9.21935 13.2814 9.22852C14.3795 9.10006 15.47 8.92103 16.5529 8.69141C16.8783 8.6263 17.2039 8.6263 17.5294 8.69141C18.172 9.0404 18.7905 9.43103 19.3849 9.86328C20.1189 10.1104 20.8676 10.3058 21.631 10.4492C21.6921 10.5225 21.7409 10.6039 21.7775 10.6934C21.7755 11.4246 21.6615 12.1407 21.4357 12.8418C20.3906 13.0997 19.3489 13.3765 18.3107 13.6719C17.4324 14.1108 16.5861 14.5991 15.7716 15.1367C15.1189 15.791 14.6957 16.5723 14.5021 17.4805C13.5425 17.7708 12.5659 17.9986 11.5724 18.1641C10.566 18.5654 10.1916 19.2979 10.4493 20.3613C10.8529 21.2861 11.3411 22.165 11.9142 22.998C12.3774 23.7669 13.061 24.1249 13.965 24.0723C14.6333 24.0179 15.3006 23.9528 15.9669 23.877C18.1786 24.2509 20.1969 25.081 22.0216 26.3672C22.5798 26.9953 22.6613 27.6952 22.2657 28.4668C22.1297 28.8365 21.967 29.1945 21.7775 29.541C21.1084 30.4879 20.3923 31.3994 19.629 32.2754C19.4012 32.666 19.1733 33.0566 18.9454 33.4473C18.6317 34.6139 18.3387 35.7857 18.0665 36.9629C17.9265 37.342 17.715 37.6675 17.4318 37.9395C17.1486 37.6675 16.937 37.342 16.797 36.9629C16.3523 35.5532 15.9942 34.1209 15.7228 32.666C15.4435 31.472 14.8738 30.4466 14.0138 29.5898C13.2879 29.2188 12.7183 28.6816 12.3048 27.9785C12.114 26.8475 11.9838 25.7082 11.9142 24.5605C11.6291 23.3961 10.9944 22.4684 10.0099 21.7773C7.12912 20.4266 5.17599 18.2456 4.15051 15.2344C5.48523 12.4837 7.37325 10.1888 9.81457 8.34961ZM32.3732 10.0098C32.4453 9.99697 32.5105 10.0133 32.5685 10.0586C35.0423 12.467 36.6862 15.3479 37.5001 18.7012C34.4728 20.459 31.4454 22.2168 28.4181 23.9746C27.2175 23.8317 26.4525 23.1807 26.1232 22.0215C26.1323 21.7849 26.1812 21.557 26.2697 21.3379C26.6993 20.6794 27.09 19.9958 27.4415 19.2871C27.5549 18.807 27.6199 18.3188 27.6368 17.8223C27.7406 17.6856 27.8707 17.588 28.0275 17.5293C29.9149 17.8921 31.8192 18.006 33.7404 17.8711C34.4861 17.5808 34.958 17.0437 35.1564 16.2598C35.5049 14.5172 34.7887 13.5732 33.0079 13.4277C31.6927 13.5728 30.3743 13.6704 29.0529 13.7207C28.8755 12.9854 28.9243 12.2692 29.1993 11.5723C29.4982 11.2682 29.84 11.024 30.2247 10.8398C30.9467 10.5509 31.6629 10.2741 32.3732 10.0098ZM38.4279 20.0684C39.0554 20.3851 39.674 20.7269 40.2833 21.0938C37.6141 22.6562 34.9447 24.2188 32.2755 25.7812C32.1779 25.8464 32.0802 25.8464 31.9825 25.7812C31.4452 25.4312 30.8918 25.1056 30.3224 24.8047C33.0304 23.2233 35.7322 21.6445 38.4279 20.0684ZM41.9435 22.1191C42.2964 22.2956 42.6544 22.4746 43.0177 22.6562C43.136 22.7435 43.136 22.8248 43.0177 22.9004C40.3485 24.4304 37.6791 25.9603 35.0099 27.4902C34.6036 27.3035 34.213 27.0919 33.838 26.8555C36.546 25.2741 39.2478 23.6953 41.9435 22.1191ZM44.7755 23.7793C45.4367 24.0938 46.0877 24.4355 46.7286 24.8047C43.9783 26.3588 41.244 27.9376 38.5255 29.541C37.9479 29.2278 37.3782 28.9023 36.8165 28.5645C36.7493 28.4832 36.7656 28.4182 36.8654 28.3691C39.5242 26.8612 42.161 25.3312 44.7755 23.7793ZM47.5099 26.2207C47.6236 29.3617 47.6399 32.5192 47.5587 35.6934C44.8404 37.3131 42.106 38.9081 39.3556 40.4785C39.2905 37.321 39.2905 34.1634 39.3556 31.0059C42.1039 29.4451 44.822 27.8501 47.5099 26.2207ZM29.4435 26.3184C30.0638 26.6042 30.666 26.9297 31.2501 27.2949C31.2531 28.8014 31.3183 30.2987 31.4454 31.7871C32.5527 32.6094 33.7408 33.293 35.0099 33.8379C35.3332 33.7828 35.5774 33.62 35.7423 33.3496C35.7748 32.2103 35.8074 31.071 35.84 29.9316C36.4422 30.2652 37.0281 30.6232 37.5978 31.0059C37.6791 34.1313 37.6629 37.2563 37.549 40.3809C34.8797 38.8509 32.2104 37.321 29.5411 35.791C29.4435 32.6342 29.411 29.4766 29.4435 26.3184ZM32.9591 28.2715C33.3389 28.486 33.7132 28.7139 34.0822 28.9551C34.1473 29.8015 34.1473 30.6478 34.0822 31.4941C33.724 31.2663 33.366 31.0384 33.0079 30.8105C32.9591 29.9648 32.9429 29.1185 32.9591 28.2715Z" fill="white"/>
<path opacity="0.936" fill-rule="evenodd" clip-rule="evenodd" d="M46.1428 13.8187C46.4182 13.7941 46.6785 13.8429 46.924 13.9652C47.6654 14.5557 48.3978 15.1579 49.1213 15.7718C49.2011 16.1101 49.1684 16.4357 49.0236 16.7484C48.3191 17.3553 47.5867 17.925 46.8264 18.4574C46.1574 18.6603 45.7343 18.4325 45.5568 17.7738C45.625 17.5341 45.7226 17.3063 45.8498 17.0902C43.9292 17.0576 42.0087 17.025 40.0881 16.9925C39.5709 16.8414 39.3594 16.4996 39.4533 15.9671C39.5202 15.7174 39.6667 15.5383 39.8928 15.43C41.911 15.3975 43.9292 15.3649 45.9474 15.3324C45.4485 14.7686 45.5137 14.2641 46.1428 13.8187Z" fill="white"/>
<path opacity="0.936" fill-rule="evenodd" clip-rule="evenodd" d="M31.8848 41.748C32.8465 41.9296 33.0743 42.4342 32.5684 43.2617C37.4512 43.2942 42.334 43.3269 47.2168 43.3594C47.998 43.8802 47.998 44.4011 47.2168 44.9219C42.334 44.9544 37.4512 44.987 32.5684 45.0195C33.0697 45.7593 32.8906 46.2638 32.0312 46.5332C31.7588 46.4752 31.5146 46.3612 31.2988 46.1914C30.7129 45.7356 30.127 45.28 29.541 44.8242C29.1504 44.3685 29.1504 43.9128 29.541 43.457C30.3147 42.8602 31.096 42.2905 31.8848 41.748Z" fill="white"/>
</svg>
