<svg width="20" height="20" viewBox="0 0 20 20" fill="none" xmlns="http://www.w3.org/2000/svg">
<path d="M14.5441 5.19275C14.5441 7.69093 12.4995 9.7355 10.0013 9.7355C7.50317 9.7355 5.45859 7.69093 5.45859 5.19275C5.45859 2.69457 7.50313 0.65 10.0013 0.65C12.4995 0.65 14.5441 2.69458 14.5441 5.19275Z" stroke="#EC7216" stroke-width="1.3"/>
<path d="M18.2631 14.6707C18.1039 14.9459 17.9228 15.2074 17.7156 15.4768L17.7155 15.4767L17.7076 15.4874C17.419 15.879 17.0832 16.2374 16.7281 16.5925C16.4313 16.8893 16.0919 17.1862 15.7554 17.4386C14.0781 18.6912 12.0608 19.35 9.97684 19.35C7.89705 19.35 5.88376 18.6939 4.20845 17.4462C3.84457 17.1506 3.51237 16.8793 3.22556 16.5925L3.21859 16.5856L3.21141 16.5788C2.85532 16.2437 2.54107 15.8878 2.24614 15.4875L2.24616 15.4875L2.24283 15.483C2.06061 15.2401 1.8719 14.9757 1.71789 14.7171C1.83488 14.456 1.98324 14.1848 2.1439 13.9527L2.14402 13.9528L2.15153 13.9415C3.06854 12.5557 4.53574 11.6389 6.16512 11.4149L6.18469 11.4122L6.20407 11.4083C6.22956 11.4032 6.29364 11.4118 6.34417 11.4497L6.34416 11.4497L6.34817 11.4527C7.4152 12.2402 8.68499 12.6454 9.99949 12.6454C11.314 12.6454 12.5838 12.2402 13.6508 11.4527L13.6508 11.4527L13.6548 11.4497C13.6702 11.4381 13.739 11.4081 13.8479 11.4168C15.4675 11.6436 16.9108 12.5569 17.8511 13.947L17.8511 13.947L17.8551 13.9527C18.0152 14.1841 18.1543 14.4232 18.2631 14.6707Z" stroke="#EC7216" stroke-width="1.3"/>
</svg>
